<svg width="409" height="327" viewBox="0 0 409 327" fill="none" xmlns="http://www.w3.org/2000/svg">
<mask id="mask0_23_92" style="mask-type:luminance" maskUnits="userSpaceOnUse" x="16" y="80" width="381" height="248">
<path d="M396.291 80.8855H16.3979V327.008H396.291V80.8855Z" fill="white"/>
</mask>
<g mask="url(#mask0_23_92)">
<path d="M71.4171 193.192C72.521 194.366 73.0762 195.591 73.0826 196.866C73.0868 198.144 72.7239 199.29 71.9893 200.306C71.2548 201.324 70.3068 202.109 69.1453 202.662C67.9837 203.217 66.7453 203.42 65.43 203.276C64.119 203.127 62.9148 202.468 61.8173 201.299C58.9135 198.146 55.7619 195.305 52.3627 192.777C48.9635 190.245 45.3764 188.051 41.6014 186.196C41.8063 189.651 42.0156 193.075 42.2334 196.469C42.4554 199.859 42.6647 203.283 42.8654 206.742C42.985 208.408 42.6647 209.794 41.9088 210.895C41.1508 211.996 40.1772 212.811 38.9879 213.341C37.7964 213.876 36.5986 214.064 35.3922 213.901C34.1837 213.739 33.1396 213.229 32.2578 212.376C31.3738 211.527 30.8742 210.268 30.7546 208.602C30.3788 202.272 29.8792 195.869 29.26 189.392C28.645 182.917 28.5084 176.519 28.85 170.199C29.0144 166.981 29.6998 163.767 30.9083 160.558C32.1147 157.344 33.8335 154.569 36.0669 152.226C38.2982 149.879 41.074 148.389 44.3942 147.757C46.6938 147.288 48.9507 147.41 51.167 148.118C53.3812 148.823 55.337 149.96 57.0345 151.531C58.7362 153.097 60.0003 154.993 60.8266 157.218C61.6572 159.446 61.8643 161.84 61.4501 164.404C61.023 166.914 60.1113 169.394 58.717 171.842C57.3206 174.293 55.6274 176.483 53.6353 178.414C60.075 182.423 66.0023 187.349 71.4171 193.192ZM49.4418 161.623C49.066 160.522 48.5578 159.949 47.9215 159.899C47.2831 159.852 46.6084 160.143 45.8974 160.775C45.1906 161.407 44.5137 162.181 43.8647 163.095C43.2198 164.011 42.6818 164.896 42.2504 165.749C41.817 166.598 41.5416 167.202 41.422 167.563C41.17 168.882 40.995 170.362 40.8925 172.005C41.9451 171.669 42.8654 171.165 43.6511 170.497C44.4369 169.825 45.1799 169.026 45.8803 168.105C46.1536 167.715 46.6169 167.092 47.2724 166.236C47.9258 165.383 48.4937 164.512 48.972 163.628C49.4546 162.738 49.6126 162.07 49.4418 161.623Z" fill="#D75B78"/>
<path d="M108.904 177.332C110.469 177.151 111.784 177.445 112.85 178.207C113.913 178.972 114.682 179.972 115.156 181.204C115.634 182.439 115.809 183.705 115.685 185.005C115.559 186.305 115.083 187.44 114.259 188.408C113.433 189.379 112.235 189.952 110.663 190.133C106.974 190.525 103.312 191.103 99.68 191.866C96.0523 192.624 92.4503 193.604 88.876 194.8C87.7699 195.138 86.5657 195.188 85.2632 194.953C83.965 194.719 82.8312 194.181 81.864 193.337C80.901 192.496 80.4206 191.293 80.4206 189.726C80.2605 181.735 80.19 173.728 80.2071 165.704C80.2284 157.684 80.3523 149.645 80.5743 141.592C80.5914 140.599 80.7985 139.728 81.1978 138.974C81.5224 138.108 82.0476 137.345 82.7779 136.681C83.5124 136.02 84.4689 135.566 85.6475 135.318C91.4318 134.26 97.2587 133.483 103.13 132.989C104.702 132.863 106.026 133.197 107.102 133.991C108.178 134.781 108.951 135.794 109.425 137.033C109.897 138.268 110.07 139.532 109.946 140.825C109.82 142.12 109.34 143.24 108.503 144.183C107.67 145.129 106.466 145.664 104.89 145.79C100.869 146.115 96.7868 146.598 92.6424 147.234C92.6019 148.927 92.5591 150.62 92.5143 152.317C92.4737 154.009 92.4567 155.693 92.4631 157.372C94.6837 157.097 96.8295 156.91 98.9028 156.812C100.536 156.74 102.037 157.165 103.404 158.085C104.77 159.006 105.582 160.405 105.838 162.283C105.985 163.366 105.849 164.465 105.428 165.578C105.005 166.686 104.38 167.625 103.549 168.395C102.716 169.16 101.755 169.566 100.662 169.613C97.8822 169.753 95.1192 170.035 92.3691 170.462C92.3734 172.087 92.3819 173.743 92.3947 175.427C92.4118 177.106 92.4161 178.758 92.4118 180.383C95.1214 179.679 97.8437 179.074 100.577 178.568C103.31 178.058 106.086 177.645 108.904 177.332Z" fill="#D75B78"/>
<path d="M146.597 152.278C149.911 153.976 152.681 156.427 154.908 159.627C157.132 162.829 158.328 166.424 158.495 170.415C158.58 173.881 157.875 176.982 156.385 179.713C154.893 182.439 152.909 184.691 150.432 186.465C147.955 188.241 145.233 189.431 142.267 190.031C139.299 190.627 136.359 190.543 133.445 189.778C130.534 189.009 127.955 187.427 125.707 185.03C124.556 183.874 123.975 182.674 123.964 181.428C123.958 180.178 124.31 179.031 125.023 177.989C125.735 176.948 126.683 176.147 127.868 175.587C129.057 175.028 130.306 174.824 131.617 174.973C132.926 175.125 134.13 175.781 135.23 176.941C135.746 177.501 136.605 177.734 137.8 177.636C138.996 177.542 140.171 177.302 141.328 176.923C142.483 176.54 143.288 176.199 143.745 175.903C144.791 175.158 145.523 174.186 145.94 172.987C146.354 171.791 146.388 170.55 146.042 169.268C145.666 167.704 144.949 166.479 143.89 165.594C142.835 164.709 141.622 163.983 140.252 163.409C138.885 162.838 137.504 162.297 136.109 161.784C134.719 161.268 133.481 160.66 132.394 159.961C129.354 157.862 127.334 155.393 126.339 152.558C125.348 149.719 125.147 146.758 125.741 143.675C126.339 140.595 127.522 137.699 129.294 134.991C131.064 132.278 133.206 130.058 135.717 128.329C137.066 127.367 138.383 126.961 139.671 127.11C140.956 127.255 142.107 127.731 143.121 128.536C144.14 129.344 144.898 130.349 145.393 131.552C145.889 132.757 146 133.975 145.726 135.208C145.457 136.442 144.671 137.501 143.369 138.385C142.515 138.995 141.535 139.789 140.431 140.769C139.331 141.75 138.469 142.854 137.843 144.082C137.215 145.309 137.239 146.571 137.911 147.864C138.304 148.731 139.041 149.417 140.124 149.922C141.21 150.423 142.355 150.843 143.557 151.186C144.757 151.525 145.771 151.888 146.597 152.278Z" fill="#D75B78"/>
<path d="M196.186 163.92C197.751 163.74 199.066 164.033 200.132 164.796C201.195 165.561 201.964 166.561 202.438 167.793C202.916 169.028 203.091 170.294 202.967 171.594C202.841 172.894 202.365 174.029 201.541 174.997C200.714 175.968 199.517 176.541 197.945 176.721C194.256 177.114 190.594 177.692 186.962 178.455C183.334 179.213 179.732 180.192 176.158 181.389C175.052 181.727 173.847 181.777 172.545 181.542C171.247 181.307 170.113 180.77 169.146 179.926C168.183 179.084 167.702 177.881 167.702 176.315C167.542 168.324 167.472 160.316 167.489 152.293C167.51 144.272 167.634 136.233 167.856 128.181C167.873 127.188 168.08 126.317 168.48 125.563C168.804 124.696 169.329 123.934 170.06 123.27C170.794 122.609 171.751 122.155 172.929 121.907C178.714 120.849 184.54 120.072 190.412 119.578C191.984 119.452 193.308 119.786 194.384 120.58C195.46 121.37 196.233 122.383 196.707 123.622C197.179 124.857 197.352 126.121 197.228 127.414C197.102 128.709 196.621 129.829 195.784 130.772C194.952 131.717 193.747 132.252 192.172 132.379C188.151 132.704 184.069 133.187 179.924 133.823C179.884 135.516 179.841 137.208 179.796 138.906C179.755 140.598 179.738 142.282 179.745 143.961C181.965 143.686 184.111 143.498 186.185 143.401C187.818 143.329 189.319 143.753 190.686 144.674C192.052 145.595 192.863 146.994 193.12 148.872C193.267 149.955 193.13 151.054 192.71 152.167C192.287 153.275 191.661 154.214 190.831 154.983C189.998 155.748 189.037 156.155 187.944 156.202C185.164 156.342 182.401 156.624 179.651 157.051C179.655 158.676 179.664 160.332 179.676 162.016C179.694 163.695 179.698 165.347 179.694 166.972C182.403 166.268 185.125 165.663 187.859 165.157C190.592 164.647 193.367 164.234 196.186 163.92Z" fill="#D75B78"/>
<path d="M253.668 165.281C254.778 166.509 255.333 167.75 255.333 169.001C255.337 170.246 254.974 171.393 254.24 172.44C253.51 173.483 252.566 174.279 251.404 174.832C250.243 175.388 249.004 175.577 247.689 175.401C246.374 175.227 245.163 174.557 244.059 173.388C241.155 170.235 238.006 167.407 234.613 164.902C231.218 162.399 227.631 160.217 223.852 158.357C224.05 161.758 224.262 165.171 224.484 168.594C224.71 172.014 224.919 175.424 225.107 178.822C225.227 180.488 224.907 181.874 224.151 182.975C223.399 184.081 222.426 184.9 221.23 185.431C220.038 185.959 218.843 186.157 217.643 186.026C216.441 185.9 215.397 185.394 214.508 184.51C213.62 183.625 213.116 182.348 212.997 180.682C212.625 174.413 212.134 168.042 211.519 161.571C210.904 155.096 210.763 148.696 211.101 142.37C211.259 139.097 211.942 135.857 213.15 132.647C214.357 129.434 216.08 126.669 218.317 124.351C220.555 122.036 223.331 120.533 226.645 119.846C228.938 119.377 231.193 119.499 233.409 120.208C235.63 120.912 237.588 122.063 239.285 123.656C240.987 125.252 242.251 127.147 243.077 129.343C243.901 131.541 244.106 133.92 243.692 136.484C243.276 139.055 242.368 141.548 240.968 143.968C239.567 146.387 237.872 148.567 235.886 150.504C242.33 154.566 248.257 159.493 253.668 165.281ZM228.122 140.176C228.396 139.793 228.859 139.188 229.514 138.362C230.174 137.538 230.746 136.68 231.231 135.789C231.714 134.9 231.872 134.234 231.701 133.794C231.312 132.638 230.804 132.052 230.172 132.033C229.54 132.011 228.865 132.302 228.148 132.909C227.435 133.512 226.758 134.286 226.115 135.229C225.477 136.168 224.939 137.048 224.501 137.865C224.068 138.684 223.792 139.28 223.673 139.653C223.421 141.025 223.245 142.503 223.143 144.085C224.196 143.756 225.112 143.252 225.893 142.577C226.679 141.905 227.422 141.104 228.122 140.176Z" fill="#D75B78"/>
<path d="M289.079 121.842C289.404 120.217 290.083 118.98 291.121 118.132C292.156 117.279 293.309 116.769 294.58 116.606C295.854 116.439 297.061 116.597 298.201 117.085C299.339 117.572 300.216 118.353 300.831 119.423C301.446 120.495 301.591 121.842 301.267 123.467C298.186 138.286 294.464 152.797 290.104 167.006C289.613 168.645 288.708 169.769 287.388 170.382C286.073 170.996 284.691 171.141 283.246 170.816C281.798 170.486 280.611 169.748 279.684 168.604C276.392 164.646 273.527 160.294 271.084 155.55C268.646 150.809 266.397 145.952 264.337 140.98C262.281 136.011 260.19 131.192 258.068 126.527C257.367 125.006 257.192 123.625 257.538 122.384C257.886 121.138 258.555 120.107 259.545 119.287C260.536 118.464 261.649 117.958 262.885 117.771C264.119 117.579 265.323 117.757 266.498 118.303C267.67 118.845 268.577 119.854 269.222 121.328C271.344 125.938 273.42 130.732 275.448 135.708C277.481 140.68 279.746 145.474 282.247 150.089C283.532 145.419 284.743 140.732 285.877 136.024C287.015 131.312 288.082 126.586 289.079 121.842Z" fill="#D75B78"/>
<path d="M348.143 120.869C349.082 126.484 349.996 132.131 350.884 137.804C351.777 143.474 352.697 149.141 353.643 154.803C353.92 156.446 353.724 157.827 353.053 158.947C352.381 160.061 351.476 160.867 350.338 161.366C349.197 161.86 348 162.043 346.742 161.917C345.489 161.79 344.376 161.294 343.402 160.427C342.433 159.56 341.807 158.31 341.523 156.672C341.237 154.97 340.964 153.282 340.704 151.607C340.447 149.935 340.176 148.249 339.892 146.552L327.713 147.897C327.57 150.125 327.457 152.334 327.371 154.523C327.29 156.715 327.213 158.919 327.141 161.14C327.094 162.826 326.65 164.115 325.808 165.004C324.965 165.893 323.923 166.417 322.683 166.575C321.446 166.737 320.231 166.575 319.036 166.087C317.84 165.604 316.849 164.812 316.063 163.713C315.278 162.612 314.91 161.217 314.962 159.524C315.16 153.801 315.491 148.118 315.952 142.472C316.414 136.82 317.392 131.237 318.89 125.717C319.612 122.99 320.603 120.02 321.863 116.807C323.12 113.593 324.643 110.587 326.432 107.788C328.219 104.985 330.329 102.814 332.761 101.28C335.033 99.8239 336.967 99.3206 338.568 99.772C340.174 100.223 341.526 101.266 342.625 102.895C343.729 104.527 344.641 106.466 345.358 108.709C346.08 110.948 346.661 113.166 347.101 115.362C347.545 117.56 347.891 119.395 348.143 120.869ZM329.285 134.753C330.741 134.586 332.173 134.424 333.581 134.266C334.992 134.11 336.401 133.954 337.808 133.796C337.494 131.925 337.195 130.068 336.911 128.226C336.625 126.38 336.333 124.548 336.032 122.729C335.882 122.006 335.752 121.235 335.639 120.409C335.524 119.585 335.408 118.743 335.289 117.881C334.524 119.158 333.89 120.354 333.384 121.474C332.541 123.352 331.804 125.283 331.172 127.269C330.544 129.255 330.011 131.241 329.566 133.228C329.543 133.469 329.507 133.722 329.455 133.986C329.408 134.252 329.353 134.507 329.285 134.753Z" fill="#D75B78"/>
<path d="M72.2584 276.018C73.8 275.664 75.0811 275.801 76.1017 276.433C77.1266 277.061 77.8867 277.975 78.3821 279.178C78.8817 280.376 79.0589 281.656 78.9116 283.014C78.7685 284.375 78.2903 285.596 77.4767 286.679C76.6611 287.758 75.5081 288.471 74.0177 288.819C69.9737 289.789 66.0279 290.963 62.1803 292.34C58.3305 293.712 54.5213 295.301 50.7527 297.106C49.6766 297.618 48.483 297.729 47.1742 297.44C45.8632 297.147 44.7336 296.535 43.7835 295.608C42.8312 294.676 42.3145 293.491 42.2291 292.051C41.9558 285.298 41.6697 278.546 41.375 271.793C41.0846 265.036 40.7729 258.284 40.4441 251.536C40.3885 249.918 40.7473 248.539 41.5287 247.401C42.3081 246.264 43.2924 245.447 44.4838 244.946C45.6795 244.44 46.8774 244.257 48.0795 244.395C49.2795 244.528 50.3108 245.036 51.1712 245.921C52.036 246.805 52.4993 248.058 52.5634 249.676C52.8025 255.038 53.0417 260.389 53.2808 265.727C53.5199 271.067 53.7548 276.388 53.9897 281.696C59.8871 279.399 65.9766 277.505 72.2584 276.018Z" fill="#D75B78"/>
<path d="M122.592 258.345C123.532 263.96 124.446 269.607 125.334 275.28C126.226 280.949 127.147 286.616 128.093 292.279C128.37 293.922 128.174 295.303 127.503 296.422C126.831 297.537 125.925 298.343 124.787 298.842C123.647 299.336 122.449 299.519 121.192 299.392C119.938 299.266 118.826 298.77 117.852 297.903C116.883 297.036 116.257 295.786 115.973 294.147C115.687 292.446 115.414 290.758 115.153 289.083C114.897 287.411 114.626 285.725 114.342 284.028L102.163 285.373C102.02 287.6 101.907 289.81 101.821 291.999C101.74 294.19 101.663 296.395 101.591 298.616C101.544 300.302 101.099 301.591 100.258 302.48C99.4148 303.369 98.3728 303.893 97.1323 304.051C95.896 304.213 94.6811 304.051 93.4854 303.563C92.2897 303.08 91.299 302.288 90.5132 301.189C89.7275 300.088 89.3602 298.693 89.4114 297C89.61 291.277 89.941 285.594 90.4022 279.947C90.8634 274.296 91.8413 268.713 93.3402 263.193C94.0619 260.466 95.0526 257.496 96.3124 254.282C97.57 251.069 99.0924 248.063 100.882 245.264C102.669 242.461 104.778 240.29 107.21 238.755C109.482 237.3 111.417 236.796 113.018 237.248C114.624 237.699 115.975 238.742 117.075 240.371C118.179 242.003 119.091 243.942 119.808 246.185C120.53 248.424 121.11 250.642 121.55 252.838C121.994 255.036 122.34 256.871 122.592 258.345ZM103.734 272.229C105.19 272.062 106.623 271.899 108.03 271.741C109.442 271.586 110.851 271.43 112.258 271.272C111.944 269.401 111.645 267.544 111.361 265.702C111.075 263.856 110.783 262.023 110.481 260.204C110.332 259.482 110.202 258.71 110.089 257.884C109.973 257.061 109.858 256.219 109.738 255.357C108.974 256.634 108.34 257.83 107.834 258.95C106.99 260.827 106.254 262.759 105.622 264.745C104.994 266.731 104.46 268.717 104.016 270.703C103.993 270.945 103.956 271.198 103.905 271.462C103.858 271.728 103.803 271.983 103.734 272.229Z" fill="#D75B78"/>
<path d="M185.462 226.296C186.993 225.822 188.37 225.841 189.596 226.351C190.826 226.863 191.827 227.655 192.602 228.725C193.381 229.797 193.875 230.97 194.08 232.245C194.285 233.516 194.101 234.69 193.533 235.766C192.969 236.845 191.923 237.648 190.398 238.176C187.71 239.05 185.026 239.926 182.345 240.803C179.663 241.677 176.981 242.552 174.299 243.43C174.242 243.444 174.019 243.521 173.633 243.665C173.244 243.81 172.813 243.949 172.335 244.08C172.39 244.478 172.403 244.766 172.369 244.947C172.653 246.242 172.762 247.635 172.694 249.127C172.625 250.621 172.6 252.031 172.617 253.361C172.644 253.591 172.659 253.807 172.659 254.01C172.664 254.209 172.679 254.396 172.702 254.57C176.75 253.252 180.816 252.25 184.898 251.564C186.457 251.325 187.768 251.544 188.827 252.223C189.886 252.905 190.648 253.864 191.116 255.103C191.588 256.337 191.765 257.617 191.645 258.939C191.53 260.264 191.058 261.427 190.228 262.424C189.401 263.417 188.214 264.065 186.666 264.365C181.99 265.141 177.408 266.396 172.916 268.129C172.95 271.56 172.969 275.004 172.975 278.457C172.986 281.912 172.98 285.358 172.958 288.793C172.907 290.418 172.474 291.668 171.66 292.548C170.844 293.433 169.832 293.968 168.62 294.155C167.411 294.34 166.196 294.178 164.973 293.668C163.747 293.162 162.744 292.359 161.958 291.258C161.172 290.156 160.775 288.793 160.771 287.168C160.873 279.888 160.852 272.63 160.711 265.394C160.568 258.154 160.38 250.921 160.147 243.692C160.055 240.564 160.57 238.102 161.693 236.308C162.82 234.509 164.804 233.126 167.646 232.155C170.584 231.18 173.552 230.205 176.554 229.23C179.554 228.251 182.524 227.271 185.462 226.296Z" fill="#D75B78"/>
<path d="M236.437 260.555C238.002 260.374 239.317 260.667 240.383 261.43C241.446 262.195 242.215 263.195 242.689 264.427C243.167 265.662 243.342 266.928 243.218 268.228C243.092 269.528 242.616 270.663 241.792 271.631C240.965 272.602 239.768 273.175 238.196 273.355C234.507 273.748 230.845 274.326 227.213 275.089C223.585 275.847 219.983 276.827 216.409 278.023C215.303 278.361 214.098 278.411 212.796 278.176C211.498 277.941 210.364 277.404 209.397 276.56C208.434 275.718 207.953 274.516 207.953 272.949C207.793 264.958 207.723 256.95 207.74 248.927C207.761 240.907 207.885 232.868 208.107 224.815C208.124 223.822 208.331 222.951 208.731 222.197C209.055 221.331 209.58 220.568 210.311 219.904C211.045 219.243 212.002 218.789 213.18 218.541C218.964 217.483 224.791 216.706 230.663 216.212C232.235 216.086 233.558 216.42 234.635 217.214C235.711 218.004 236.484 219.017 236.958 220.256C237.43 221.491 237.603 222.755 237.479 224.048C237.353 225.343 236.872 226.463 236.035 227.406C235.203 228.352 233.998 228.887 232.423 229.013C228.402 229.338 224.32 229.821 220.175 230.457C220.135 232.15 220.092 233.843 220.047 235.54C220.006 237.232 219.989 238.916 219.996 240.595C222.216 240.32 224.362 240.132 226.436 240.035C228.069 239.963 229.57 240.387 230.936 241.308C232.303 242.229 233.114 243.628 233.371 245.506C233.518 246.589 233.381 247.688 232.961 248.801C232.538 249.909 231.912 250.848 231.082 251.618C230.249 252.383 229.288 252.789 228.195 252.836C225.415 252.976 222.652 253.258 219.902 253.685C219.906 255.31 219.915 256.966 219.927 258.65C219.945 260.329 219.949 261.981 219.945 263.606C222.654 262.902 225.376 262.297 228.109 261.791C230.843 261.281 233.618 260.868 236.437 260.555Z" fill="#D75B78"/>
<path d="M282.201 250.992C283.64 250.313 284.953 250.175 286.138 250.577C287.321 250.974 288.301 251.694 289.076 252.735C289.849 253.777 290.34 254.951 290.545 256.255C290.754 257.555 290.599 258.815 290.075 260.029C289.55 261.238 288.566 262.159 287.12 262.791C284.49 264.069 281.759 265.127 278.93 265.969C276.105 266.813 273.254 267.267 270.38 267.332C267.504 267.393 264.669 266.854 261.874 265.716C258.253 264.177 255.323 261.778 253.085 258.521C250.852 255.26 249.541 251.597 249.148 247.535C248.819 243.522 249.234 239.552 250.395 235.628C251.557 231.699 253.329 228.126 255.716 224.912C258.107 221.694 260.962 219.06 264.282 217.013C267.6 214.962 271.192 213.786 275.052 213.484C276.634 213.418 277.965 213.781 279.041 214.576C280.117 215.366 280.89 216.377 281.364 217.609C281.836 218.844 282.009 220.11 281.885 221.41C281.759 222.705 281.278 223.824 280.441 224.768C279.604 225.713 278.394 226.219 276.812 226.284C273.98 226.49 271.407 227.456 269.091 229.182C266.778 230.904 264.923 233.091 263.522 235.745C262.126 238.395 261.387 241.204 261.302 244.177C261.176 246.874 261.583 248.948 262.523 250.397C263.467 251.848 264.718 252.834 266.272 253.358C267.831 253.877 269.552 254.078 271.431 253.962C273.314 253.843 275.191 253.493 277.059 252.915C278.932 252.337 280.646 251.697 282.201 250.992Z" fill="#D75B78"/>
<path d="M322.99 204.717C323.041 203.088 323.498 201.828 324.365 200.944C325.229 200.054 326.269 199.515 327.482 199.328C328.695 199.143 329.899 199.305 331.095 199.815C332.295 200.328 333.285 201.133 334.067 202.235C334.853 203.331 335.19 204.706 335.083 206.36C334.342 222.508 334.524 238.629 335.63 254.72C335.749 256.327 335.433 257.699 334.682 258.836C333.93 259.969 332.957 260.8 331.761 261.328C330.57 261.858 329.374 262.046 328.174 261.888C326.972 261.725 325.928 261.217 325.039 260.362C324.151 259.509 323.643 258.247 323.519 256.58C323.318 253.885 323.156 251.181 323.032 248.473C322.906 245.76 322.795 243.045 322.699 240.33L311.63 242.027C311.726 245.501 311.818 248.958 311.904 252.4C311.989 255.844 312.075 259.274 312.16 262.691C312.171 264.37 311.786 265.767 311.007 266.88C310.225 267.988 309.239 268.794 308.043 269.299C306.848 269.798 305.635 269.981 304.405 269.85C303.179 269.723 302.15 269.231 301.313 268.369C300.48 267.503 300.06 266.23 300.049 264.551C299.889 259.809 299.754 255.052 299.648 250.278C299.545 245.501 299.411 240.714 299.246 235.916C299.212 233.654 299.157 231.366 299.084 229.055C299.016 226.739 298.958 224.424 298.913 222.113C298.856 220.079 298.742 217.942 298.572 215.703C298.401 213.465 298.533 211.352 298.973 209.366C299.302 207.755 299.968 206.509 300.972 205.629C301.979 204.744 303.115 204.221 304.379 204.058C305.648 203.891 306.867 204.049 308.035 204.537C309.201 205.024 310.093 205.8 310.708 206.866C311.327 207.931 311.451 209.308 311.075 210.991C310.676 212.918 310.573 214.986 310.768 217.193C310.96 219.396 311.086 221.481 311.144 223.449C311.161 224.383 311.173 225.313 311.186 226.238C311.203 227.159 311.223 228.087 311.246 229.019L322.469 227.295C322.452 223.575 322.481 219.82 322.563 216.028C322.648 212.237 322.789 208.468 322.99 204.717Z" fill="#D75B78"/>
<path d="M383.71 218.223C384.65 223.838 385.564 229.484 386.452 235.158C387.345 240.827 388.265 246.494 389.211 252.157C389.488 253.8 389.292 255.181 388.621 256.3C387.949 257.415 387.043 258.221 385.905 258.72C384.765 259.214 383.567 259.397 382.31 259.27C381.056 259.144 379.944 258.647 378.97 257.781C378.001 256.914 377.375 255.664 377.091 254.025C376.805 252.324 376.532 250.636 376.271 248.961C376.015 247.289 375.744 245.603 375.46 243.906L363.281 245.251C363.138 247.478 363.025 249.688 362.939 251.877C362.858 254.068 362.781 256.273 362.709 258.494C362.662 260.18 362.218 261.468 361.376 262.358C360.533 263.247 359.491 263.77 358.25 263.928C357.014 264.091 355.799 263.928 354.604 263.441C353.408 262.958 352.417 262.166 351.631 261.067C350.846 259.965 350.478 258.571 350.53 256.878C350.728 251.155 351.059 245.472 351.52 239.825C351.982 234.174 352.959 228.591 354.458 223.07C355.18 220.344 356.171 217.374 357.431 214.16C358.688 210.947 360.211 207.94 362 205.142C363.787 202.339 365.897 200.168 368.329 198.633C370.6 197.178 372.535 196.674 374.136 197.126C375.742 197.577 377.093 198.62 378.193 200.249C379.297 201.881 380.209 203.819 380.926 206.063C381.648 208.302 382.229 210.52 382.668 212.716C383.113 214.914 383.458 216.749 383.71 218.223ZM364.852 232.107C366.309 231.94 367.741 231.777 369.148 231.619C370.56 231.464 371.969 231.308 373.376 231.15C373.062 229.279 372.763 227.422 372.479 225.58C372.193 223.734 371.901 221.901 371.6 220.082C371.45 219.36 371.32 218.588 371.207 217.762C371.091 216.938 370.976 216.097 370.857 215.235C370.092 216.512 369.458 217.708 368.952 218.827C368.109 220.705 367.372 222.637 366.74 224.623C366.112 226.609 365.578 228.595 365.134 230.581C365.111 230.823 365.075 231.075 365.023 231.339C364.976 231.606 364.921 231.861 364.852 232.107Z" fill="#D75B78"/>
</g>
<mask id="mask1_23_92" style="mask-type:luminance" maskUnits="userSpaceOnUse" x="0" y="0" width="409" height="119">
<path d="M408.316 0H0V118.439H408.316V0Z" fill="white"/>
</mask>
<g mask="url(#mask1_23_92)">
<path d="M15.6776 75.3321C15.8313 76.8735 15.5922 77.9748 14.9602 78.6361C14.3281 79.2928 13.5125 79.6788 12.5175 79.7916C11.5204 79.8999 10.6492 79.7013 9.90404 79.1958C9.15672 78.6903 8.70833 77.6679 8.5546 76.1265C8.40514 74.664 8.64214 73.5717 9.26348 72.8495C9.88909 72.1273 10.7005 71.7121 11.6976 71.6038C12.6926 71.4909 13.568 71.7189 14.3196 72.2898C15.0755 72.8563 15.5281 73.8696 15.6776 75.3321ZM11.2876 84.9011L14.6185 84.531L19.1708 115.45L12.9702 116.145L11.2876 84.9011Z" fill="#F86D17"/>
<path d="M44.3558 64.2602C44.3942 63.1115 44.7145 62.2381 45.3124 61.6423C45.9102 61.042 46.6383 60.6922 47.4988 60.5951C48.3635 60.5003 49.224 60.6493 50.0781 61.0465C50.9322 61.4392 51.6283 62.035 52.1706 62.8339C52.7172 63.6283 52.9691 64.6033 52.9307 65.7588C52.4866 77.104 51.6432 88.4085 50.4027 99.6747C50.3002 100.591 49.9415 101.37 49.3265 102.013C48.7159 102.652 47.9792 103.092 47.1145 103.331C46.2476 103.572 45.4063 103.566 44.5864 103.313C43.7665 103.055 43.1195 102.5 42.6476 101.652C41.5416 99.5213 40.4206 97.4066 39.2826 95.3055C38.1424 93.1998 37.0043 91.1055 35.8663 89.0224C35.5524 91.7193 35.2599 94.4253 34.9866 97.138C34.7133 99.8463 34.4827 102.543 34.2948 105.227C34.2201 106.418 33.8635 107.314 33.2272 107.917C32.5888 108.524 31.8372 108.865 30.9724 108.937C30.112 109.014 29.2664 108.865 28.4358 108.485C27.6031 108.106 26.9241 107.515 26.3946 106.716C25.8693 105.915 25.6644 104.915 25.7797 103.719C26.4971 93.904 27.6074 84.125 29.1106 74.38C29.2515 73.502 29.6401 72.7415 30.2721 72.096C30.9041 71.4528 31.6429 71.0015 32.4927 70.7419C33.3404 70.4846 34.1624 70.4756 34.961 70.7148C35.7574 70.9495 36.3916 71.5138 36.8656 72.403L43.1601 84.1657C43.4505 80.8616 43.6896 77.5531 43.8775 74.2355C44.0654 70.9134 44.2234 67.5891 44.3558 64.2602Z" fill="#F86D17"/>
<path d="M87.5181 59.1174C88.5942 60.5979 89.4013 62.3018 89.9436 64.2269C90.4838 66.1475 90.834 68.1132 90.9942 70.1218C91.1586 72.1259 91.1949 74.0171 91.1052 75.791C90.9856 78.506 90.4518 81.1239 89.5081 83.6448C88.5622 86.1612 87.1786 88.4 85.3573 90.3612C83.6085 92.2344 81.5096 93.6968 79.0627 94.7485C76.6137 95.8025 74.1454 96.0575 71.6579 95.5159C69.9882 95.1683 68.4999 94.4551 67.1911 93.3764C65.8865 92.2998 64.7527 91.027 63.7919 89.5578C62.8289 88.084 62.0773 86.5584 61.5371 84.9809C60.8987 83.2612 60.4225 81.2413 60.1108 78.9235C59.8033 76.6012 59.7179 74.2067 59.8546 71.7377C59.9955 69.2642 60.4033 66.9261 61.0759 64.7234C61.7464 62.5207 62.7606 60.6498 64.1164 59.1084C65.4765 57.2735 67.1932 55.8923 69.2665 54.9648C71.344 54.0395 73.5219 53.561 75.8002 53.5294C78.0827 53.5001 80.2584 53.9515 82.3253 54.8835C84.3964 55.8179 86.1281 57.2284 87.5181 59.1174ZM79.43 83.9066C80.6022 82.469 81.4157 80.8554 81.8726 79.0679C82.3338 77.276 82.5473 75.4276 82.5132 73.5251C82.479 71.6248 82.257 69.7968 81.847 68.0455C81.4413 66.2942 80.6364 64.913 79.43 63.9019C78.2279 62.8863 76.7268 62.5004 74.929 62.7464C73.9319 62.8547 72.9902 63.2248 72.102 63.8568C71.218 64.4887 70.5134 65.265 69.9839 66.1858C69.4031 67.2759 69.0273 68.5465 68.8565 69.9954C68.69 71.4398 68.5918 72.7803 68.5576 74.0126C68.4935 76.7637 68.8992 79.4177 69.7704 81.9748C70.0437 82.7218 70.3789 83.462 70.7782 84.1955C71.1817 84.9312 71.7134 85.509 72.3753 85.9287C73.4515 86.5855 74.6173 86.7299 75.877 86.3621C77.1346 85.9965 78.2001 85.3329 79.0713 84.376C79.1738 84.2451 79.2933 84.0872 79.43 83.9066Z" fill="#F86D17"/>
<path d="M115.255 67.0116C117.555 68.3115 119.448 70.126 120.935 72.4551C122.421 74.7797 123.172 77.3525 123.189 80.1735C123.166 82.629 122.587 84.8023 121.456 86.6913C120.328 88.5825 118.868 90.1172 117.074 91.2953C115.281 92.4756 113.325 93.2362 111.207 93.5792C109.088 93.9177 107.009 93.7733 104.972 93.1459C102.933 92.514 101.154 91.3224 99.6339 89.571C98.8417 88.718 98.4595 87.8468 98.4894 86.9621C98.5172 86.0774 98.7969 85.2785 99.3264 84.5608C99.8559 83.8454 100.548 83.3105 101.402 82.954C102.256 82.5929 103.144 82.4845 104.067 82.629C104.989 82.7689 105.826 83.2654 106.578 84.1185C106.923 84.5338 107.521 84.7278 108.371 84.6963C109.219 84.6601 110.056 84.5247 110.882 84.29C111.713 84.0553 112.293 83.8364 112.624 83.631C113.387 83.139 113.927 82.4733 114.247 81.636C114.572 80.8009 114.631 79.9253 114.426 79.009C114.192 77.8896 113.713 77.0027 112.992 76.3459C112.268 75.6914 111.429 75.1407 110.472 74.6939C109.52 74.2425 108.559 73.816 107.585 73.412C106.616 73.0103 105.758 72.5454 105.006 72.0218C102.916 70.4578 101.556 68.6546 100.924 66.6144C100.296 64.5742 100.232 62.4753 100.727 60.3132C101.227 58.1467 102.138 56.1313 103.46 54.2649C104.786 52.4007 106.358 50.8954 108.175 49.7512C109.159 49.1148 110.105 48.8665 111.01 49.0109C111.92 49.1509 112.723 49.521 113.419 50.1213C114.113 50.7171 114.619 51.4483 114.939 52.315C115.257 53.1771 115.306 54.0392 115.084 54.9058C114.866 55.768 114.283 56.4947 113.333 57.0905C112.712 57.4877 112.001 58.0203 111.198 58.6883C110.395 59.3518 109.755 60.1101 109.276 60.9632C108.798 61.8118 108.783 62.7032 109.234 63.6353C109.477 64.2627 109.979 64.7683 110.737 65.1519C111.493 65.5311 112.291 65.8606 113.128 66.1359C113.97 66.4135 114.678 66.7046 115.255 67.0116Z" fill="#F86D17"/>
<path d="M168.907 72.7862C169.942 72.3416 170.875 72.2784 171.708 72.5966C172.539 72.9171 173.213 73.4588 173.732 74.2216C174.249 74.9799 174.565 75.8239 174.68 76.7492C174.794 77.6768 174.65 78.5638 174.253 79.4123C173.854 80.2564 173.134 80.8793 172.093 81.281C170.196 82.1002 168.236 82.7683 166.216 83.2851C164.194 83.7974 162.164 84.0344 160.127 83.9982C158.094 83.9576 156.104 83.4905 154.157 82.599C151.633 81.4074 149.624 79.629 148.127 77.2638C146.635 74.8986 145.8 72.2694 145.625 69.3739C145.499 66.528 145.898 63.7317 146.82 60.9874C147.747 58.2431 149.097 55.7696 150.869 53.5669C152.645 51.3642 154.731 49.5903 157.129 48.2407C159.531 46.8866 162.102 46.1599 164.841 46.0561C165.962 46.0561 166.893 46.3517 167.634 46.9408C168.373 47.5321 168.892 48.2723 169.189 49.1615C169.49 50.0462 169.582 50.9467 169.462 51.8607C169.342 52.777 168.975 53.5556 168.36 54.1988C167.745 54.8375 166.876 55.1557 165.755 55.1557C163.744 55.2166 161.897 55.8237 160.212 56.9792C158.526 58.1302 157.157 59.622 156.104 61.4568C155.049 63.2939 154.452 65.2574 154.311 67.3517C154.157 69.2655 154.392 70.7505 155.02 71.8022C155.645 72.8562 156.501 73.5874 157.59 73.9959C158.684 74.4066 159.892 74.5985 161.22 74.5736C162.552 74.5443 163.887 74.3547 165.226 74.0049C166.562 73.6506 167.79 73.2444 168.907 72.7862Z" fill="#F86D17"/>
<path d="M205.673 56.5772C206.186 60.5741 206.683 64.5913 207.168 68.6288C207.651 72.6685 208.152 76.7038 208.671 80.7345C208.829 81.9081 208.656 82.883 208.15 83.6594C207.648 84.4312 206.989 84.9751 206.169 85.2934C205.349 85.6071 204.497 85.6996 203.615 85.5732C202.731 85.4468 201.958 85.0632 201.292 84.4177C200.63 83.7745 200.22 82.8695 200.062 81.7005C199.902 80.4976 199.755 79.2992 199.618 78.1076C199.481 76.9114 199.33 75.7063 199.165 74.4966L190.514 75.1014C190.36 76.679 190.223 78.2407 190.104 79.7867C189.988 81.3281 189.875 82.883 189.762 84.4538C189.694 85.6454 189.348 86.5414 188.729 87.144C188.114 87.7443 187.364 88.0851 186.482 88.1641C185.598 88.2408 184.74 88.0919 183.903 87.7127C183.07 87.3336 182.393 86.7423 181.87 85.9433C181.345 85.1444 181.121 84.1469 181.196 82.9553C181.486 78.9178 181.866 74.9073 182.34 70.9217C182.818 66.9384 183.655 63.0183 184.851 59.159C185.432 57.252 186.211 55.1825 187.191 52.9482C188.169 50.7094 189.326 48.6241 190.659 46.6922C191.995 44.7603 193.541 43.2889 195.296 42.2778C196.947 41.3209 198.331 41.0275 199.447 41.3931C200.562 41.7542 201.491 42.5283 202.232 43.7132C202.97 44.8935 203.566 46.2905 204.017 47.9019C204.471 49.5088 204.824 51.0953 205.076 52.6593C205.332 54.2256 205.53 55.53 205.673 56.5772ZM191.974 65.8574C193.003 65.7806 194.02 65.7039 195.023 65.6317C196.025 65.5595 197.024 65.4918 198.021 65.4241C197.85 64.0948 197.688 62.77 197.534 61.452C197.385 60.134 197.227 58.8318 197.056 57.5431C196.97 57.0263 196.896 56.4756 196.834 55.8911C196.776 55.3021 196.716 54.7063 196.654 54.1037C196.091 54.9839 195.612 55.8099 195.22 56.5862C194.575 57.8862 194.003 59.2313 193.503 60.6215C193.001 62.0072 192.572 63.3906 192.213 64.7741C192.19 64.9433 192.158 65.1239 192.119 65.3157C192.079 65.503 192.03 65.6836 191.974 65.8574Z" fill="#F86D17"/>
<path d="M230.575 54.109C232.875 55.4089 234.769 57.2234 236.255 59.5525C237.741 61.8771 238.493 64.4499 238.51 67.2709C238.486 69.7264 237.907 71.8997 236.776 73.7887C235.648 75.68 234.188 77.2146 232.394 78.3927C230.601 79.573 228.645 80.3336 226.527 80.6766C224.409 81.0152 222.329 80.8707 220.292 80.2433C218.253 79.6114 216.474 78.4198 214.954 76.6685C214.162 75.8154 213.78 74.9442 213.81 74.0595C213.837 73.1749 214.117 72.3759 214.647 71.6583C215.176 70.9428 215.868 70.408 216.722 70.0514C217.576 69.6903 218.464 69.582 219.387 69.7264C220.309 69.8663 221.146 70.3628 221.898 71.2159C222.244 71.6312 222.842 71.8253 223.691 71.7937C224.539 71.7576 225.376 71.6221 226.202 71.3874C227.033 71.1527 227.614 70.9338 227.945 70.7284C228.707 70.2364 229.247 69.5707 229.567 68.7334C229.892 67.8983 229.952 67.0227 229.747 66.1064C229.512 64.987 229.034 64.1001 228.312 63.4433C227.588 62.7888 226.749 62.2382 225.792 61.7913C224.84 61.3399 223.879 60.9134 222.906 60.5094C221.936 60.1077 221.078 59.6428 220.326 59.1192C218.236 57.5552 216.876 55.752 216.244 53.7118C215.616 51.6716 215.552 49.5727 216.047 47.4107C216.547 45.2441 217.459 43.2287 218.78 41.3623C220.106 39.4981 221.678 37.9928 223.495 36.8486C224.479 36.2122 225.425 35.9639 226.33 36.1084C227.24 36.2483 228.043 36.6184 228.739 37.2187C229.433 37.8145 229.939 38.5458 230.259 39.4124C230.577 40.2745 230.626 41.1366 230.404 42.0032C230.187 42.8654 229.604 43.5921 228.654 44.1879C228.032 44.5851 227.321 45.1177 226.518 45.7857C225.716 46.4492 225.075 47.2075 224.597 48.0606C224.118 48.9092 224.103 49.8007 224.554 50.7327C224.797 51.3601 225.299 51.8657 226.057 52.2493C226.813 52.6285 227.612 52.958 228.449 53.2333C229.29 53.5109 229.999 53.8021 230.575 54.109Z" fill="#F86D17"/>
<path d="M269.766 49.4062C270.279 53.4031 270.776 57.4203 271.261 61.4578C271.743 65.4976 272.245 69.5328 272.764 73.5636C272.922 74.7371 272.749 75.7121 272.243 76.4884C271.741 77.2603 271.081 77.8042 270.262 78.1224C269.442 78.4361 268.59 78.5286 267.708 78.4023C266.824 78.2759 266.051 77.8922 265.385 77.2467C264.723 76.6035 264.313 75.6985 264.155 74.5295C263.995 73.3266 263.847 72.1282 263.711 70.9366C263.574 69.7405 263.423 68.5353 263.258 67.3256L254.606 67.9305C254.453 69.508 254.316 71.0697 254.196 72.6157C254.081 74.1571 253.968 75.7121 253.855 77.2829C253.786 78.4745 253.441 79.3704 252.821 79.973C252.206 80.5733 251.457 80.9141 250.575 80.9931C249.691 81.0699 248.833 80.9209 247.996 80.5417C247.163 80.1626 246.486 79.5713 245.963 78.7724C245.438 77.9735 245.214 76.9759 245.288 75.7843C245.579 71.7468 245.959 67.7364 246.433 63.7508C246.911 59.7674 247.748 55.8473 248.944 51.9881C249.525 50.081 250.304 48.0115 251.284 45.7772C252.262 43.5384 253.419 41.4531 254.752 39.5212C256.088 37.5894 257.634 36.1179 259.389 35.1068C261.04 34.1499 262.423 33.8566 263.54 34.2222C264.655 34.5833 265.583 35.3574 266.324 36.5422C267.063 37.7225 267.659 39.1195 268.109 40.7309C268.564 42.3378 268.916 43.9244 269.168 45.4884C269.425 47.0546 269.623 48.3591 269.766 49.4062ZM256.067 58.6864C257.096 58.6097 258.112 58.5329 259.116 58.4607C260.117 58.3885 261.117 58.3208 262.114 58.2531C261.943 56.9238 261.781 55.599 261.627 54.281C261.477 52.963 261.319 51.6608 261.149 50.3722C261.063 49.8554 260.988 49.3047 260.927 48.7202C260.869 48.1311 260.809 47.5353 260.747 46.9327C260.183 47.8129 259.705 48.6389 259.312 49.4153C258.668 50.7152 258.095 52.0603 257.596 53.4505C257.094 54.8362 256.665 56.2197 256.306 57.6031C256.283 57.7724 256.25 57.9529 256.212 58.1448C256.171 58.3321 256.122 58.5126 256.067 58.6864Z" fill="#F86D17"/>
<path d="M316.609 49.1408C316.989 52.578 317.207 56.0151 317.258 59.4501C317.313 62.8805 317.36 66.3154 317.395 69.7503C317.395 70.9374 317.113 71.9079 316.549 72.6662C315.985 73.4245 315.276 73.9752 314.422 74.3182C313.568 74.6567 312.706 74.7515 311.835 74.6071C310.963 74.4581 310.233 74.0699 309.648 73.4425C309.067 72.8106 308.777 71.9034 308.777 70.7163C308.771 68.008 308.779 65.2231 308.803 62.3569C308.83 59.4862 308.747 56.6313 308.555 53.7899C308.367 50.9508 307.91 48.2177 307.188 45.593C307.069 45.1191 306.898 44.6587 306.676 44.2118C306.454 43.7672 306.3 43.3046 306.215 42.8216C305.843 43.3587 305.425 43.9184 304.959 44.5007C304.498 45.0852 304.156 45.6111 303.934 46.0805C303.187 47.5565 302.649 49.0776 302.32 50.6483C301.996 52.2191 301.782 53.8328 301.68 55.487C301.628 56.5162 301.3 57.3331 300.697 57.9335C300.1 58.5293 299.384 58.9152 298.554 59.089C297.721 59.2582 296.888 59.2244 296.051 58.9897C295.214 58.755 294.51 58.3216 293.942 57.6897C293.378 57.0578 293.098 56.2318 293.105 55.2072C293.075 54.1058 293.036 53.009 292.985 51.9122C292.934 50.8108 292.831 49.696 292.678 48.563C292.637 48.2019 292.594 47.6874 292.55 47.0193C292.503 46.3468 292.421 45.6991 292.302 45.0784C292.182 44.4601 291.971 44.0019 291.67 43.7063C291.584 43.5979 291.555 43.5032 291.584 43.4174C291.469 43.4716 291.433 43.4761 291.473 43.4264C291.136 43.5889 290.835 43.9929 290.568 44.6361C290.305 45.2748 290.109 45.7262 289.979 45.9902C289.631 46.7621 289.334 47.561 289.091 48.3915C288.845 49.2175 288.625 50.048 288.433 50.8831C287.532 54.6272 287.083 58.4435 287.083 62.3298C287.088 66.2184 287.165 70.0753 287.314 73.9029C287.359 75.09 287.109 76.0695 286.562 76.8459C286.02 77.6222 285.328 78.1684 284.487 78.4888C283.65 78.8071 282.798 78.8996 281.933 78.7687C281.073 78.6423 280.33 78.2564 279.704 77.6132C279.076 76.9677 278.743 76.0492 278.705 74.8598C278.579 71.689 278.491 68.491 278.44 65.2637C278.389 62.0387 278.534 58.8317 278.876 55.6405C279.057 53.6974 279.363 51.6572 279.79 49.5199C280.217 47.3849 280.802 45.3019 281.549 43.273C282.294 41.2463 283.268 39.4679 284.47 37.9378C285.602 36.4708 286.998 35.4191 288.655 34.7872C290.312 34.1508 291.979 34.0018 293.66 34.3449C295.338 34.6879 296.799 35.6493 298.041 37.2246C298.092 37.3036 298.161 37.4006 298.246 37.5135C298.336 37.6286 298.408 37.7437 298.46 37.8565C299.427 36.3174 300.529 35.0558 301.765 34.074C303.006 33.0946 304.338 32.5755 305.762 32.5213C307.191 32.4627 308.721 33.0404 310.357 34.2546C311.813 35.3198 312.953 36.6897 313.773 38.3621C314.597 40.0299 315.221 41.8105 315.644 43.7063C316.071 45.5975 316.391 47.4075 316.609 49.1408Z" fill="#F86D17"/>
<path d="M349.86 29.7653C350.936 31.2458 351.744 32.9497 352.286 34.8748C352.826 36.7954 353.176 38.7611 353.336 40.7697C353.501 42.7737 353.537 44.665 353.447 46.4389C353.328 49.1539 352.794 51.7718 351.85 54.2927C350.904 56.8091 349.521 59.0479 347.7 61.0091C345.951 62.8823 343.852 64.3447 341.405 65.3964C338.956 66.4504 336.488 66.7054 334 66.1637C332.33 65.8162 330.842 65.103 329.533 64.0242C328.229 62.9477 327.095 61.6749 326.134 60.2057C325.171 58.7319 324.42 57.2063 323.879 55.6288C323.241 53.909 322.765 51.8892 322.453 49.5714C322.146 47.2491 322.06 44.8546 322.197 42.3856C322.338 39.9121 322.746 37.574 323.418 35.3713C324.089 33.1686 325.103 31.2977 326.459 29.7562C327.819 27.9214 329.536 26.5402 331.609 25.6127C333.686 24.6874 335.864 24.2089 338.142 24.1773C340.425 24.148 342.601 24.5993 344.668 25.5314C346.739 26.4658 348.47 27.8763 349.86 29.7653ZM341.772 54.5545C342.944 53.1169 343.758 51.5032 344.215 49.7158C344.676 47.9239 344.89 46.0755 344.855 44.173C344.821 42.2727 344.599 40.4447 344.189 38.6934C343.784 36.942 342.979 35.5609 341.772 34.5498C340.57 33.5342 339.069 33.1483 337.271 33.3943C336.274 33.5026 335.333 33.8727 334.444 34.5047C333.56 35.1366 332.856 35.9129 332.326 36.8337C331.745 37.9238 331.37 39.1944 331.199 40.6433C331.032 42.0877 330.934 43.4282 330.9 44.6605C330.836 47.4116 331.242 50.0656 332.113 52.6226C332.386 53.3697 332.721 54.1099 333.12 54.8434C333.524 55.5791 334.056 56.1569 334.718 56.5766C335.794 57.2334 336.96 57.3778 338.219 57.01C339.477 56.6443 340.542 55.9808 341.414 55.0239C341.516 54.893 341.636 54.7351 341.772 54.5545Z" fill="#F86D17"/>
<path d="M377.597 37.6595C379.897 38.9595 381.791 40.774 383.277 43.103C384.763 45.4276 385.514 48.0004 385.532 50.8215C385.508 53.2769 384.929 55.4503 383.798 57.3393C382.67 59.2305 381.21 60.7652 379.416 61.9432C377.623 63.1236 375.667 63.8841 373.549 64.2272C371.431 64.5657 369.351 64.4212 367.314 63.7938C365.275 63.1619 363.496 61.9703 361.976 60.219C361.184 59.3659 360.802 58.4948 360.832 57.6101C360.859 56.7254 361.139 55.9265 361.669 55.2088C362.198 54.4934 362.89 53.9585 363.744 53.6019C364.598 53.2408 365.486 53.1325 366.409 53.2769C367.331 53.4169 368.168 53.9134 368.92 54.7664C369.266 55.1817 369.864 55.3758 370.713 55.3442C371.561 55.3081 372.398 55.1727 373.224 54.938C374.055 54.7033 374.636 54.4843 374.967 54.279C375.729 53.787 376.269 53.1212 376.589 52.2839C376.914 51.4489 376.974 50.5732 376.769 49.6569C376.534 48.5375 376.056 47.6506 375.334 46.9939C374.61 46.3394 373.771 45.7887 372.814 45.3418C371.862 44.8905 370.901 44.4639 369.928 44.06C368.958 43.6582 368.1 43.1933 367.348 42.6697C365.258 41.1057 363.898 39.3025 363.266 37.2623C362.638 35.2221 362.574 33.1233 363.069 30.9612C363.569 28.7946 364.481 26.7793 365.802 24.9128C367.128 23.0487 368.7 21.5434 370.517 20.3991C371.501 19.7627 372.447 19.5145 373.352 19.6589C374.262 19.7988 375.065 20.1689 375.761 20.7693C376.455 21.3651 376.961 22.0963 377.281 22.9629C377.599 23.825 377.648 24.6872 377.426 25.5538C377.209 26.4159 376.626 27.1426 375.676 27.7384C375.054 28.1356 374.343 28.6682 373.54 29.3363C372.738 29.9998 372.097 30.7581 371.619 31.6112C371.14 32.4597 371.125 33.3512 371.576 34.2833C371.819 34.9107 372.321 35.4162 373.079 35.7999C373.835 36.179 374.634 36.5085 375.471 36.7839C376.312 37.0615 377.021 37.3526 377.597 37.6595Z" fill="#F86D17"/>
<path d="M396.307 6.47038C398.385 17.9781 399.489 29.5986 399.621 41.3342C399.66 42.5078 399.391 43.4895 398.81 44.2771C398.233 45.0602 397.524 45.6109 396.683 45.9291C395.846 46.2496 394.994 46.3444 394.129 46.218C393.263 46.0871 392.537 45.6944 391.952 45.0445C391.364 44.39 391.05 43.4737 391.012 42.3001C390.88 30.56 389.771 18.9372 387.69 7.43631C387.463 6.27629 387.583 5.31262 388.048 4.54754C388.516 3.77796 389.148 3.23406 389.944 2.91359C390.741 2.59537 391.589 2.50735 392.49 2.65179C393.395 2.79623 394.198 3.17989 394.898 3.79827C395.603 4.4189 396.072 5.31036 396.307 6.47038ZM396.273 52.5101C396.841 52.4018 397.396 52.4514 397.939 52.6545C398.479 52.8599 398.983 53.142 399.45 53.5031C399.911 53.8236 400.274 54.275 400.544 54.8572C400.81 55.4418 400.973 56.0127 401.03 56.5724C401.154 57.8318 400.842 58.9534 400.091 59.9397C400.057 59.9825 400.014 60.039 399.963 60.1112C399.911 60.1789 399.852 60.2534 399.783 60.3369C399.066 61.2757 398.094 61.8354 396.871 62.016C396.307 62.1243 395.752 62.0769 395.206 61.8715C394.659 61.6616 394.155 61.3795 393.694 61.0229C393.271 60.6618 392.917 60.2015 392.626 59.6418C392.34 59.0775 392.169 58.5111 392.114 57.9446C391.988 56.6875 392.302 55.5681 393.053 54.5864L393.361 54.1892C394.078 53.2504 395.048 52.6907 396.273 52.5101Z" fill="#F86D17"/>
</g>
</svg>

