<svg width="131" height="74" viewBox="0 0 131 74" fill="none" xmlns="http://www.w3.org/2000/svg">
<mask id="mask0_64_6715" style="mask-type:luminance" maskUnits="userSpaceOnUse" x="19" y="2" width="92" height="39">
<path d="M110.477 2.18402H19.1802V40.8542H110.477V2.18402Z" fill="white"/>
</mask>
<g mask="url(#mask0_64_6715)">
<path d="M32.7949 11.4108C33.8443 11.7751 34.8088 12.283 35.6879 12.9344C36.568 13.5863 37.2912 14.343 37.8576 15.2047C38.4236 16.0654 38.7672 17.0113 38.8886 18.0431C39.011 19.0749 38.8396 20.1639 38.3751 21.3091C37.7702 22.7213 36.8951 23.8535 35.7498 24.7056C34.6055 25.5568 33.3244 26.1339 31.9058 26.436C30.4883 26.7371 29.0748 26.7481 27.6642 26.4681C27.5893 27.7036 27.5164 28.9387 27.4445 30.1737C27.3725 31.4093 27.2991 32.6443 27.2247 33.8793C27.1872 34.5066 26.9994 35.012 26.6613 35.3949C26.3241 35.7788 25.9111 36.0473 25.4226 36.1999C24.9351 36.3524 24.4521 36.3745 23.9741 36.2661C23.4956 36.1577 23.109 35.9259 22.8133 35.5716C22.5176 35.2168 22.3767 34.7265 22.3917 34.1002C22.562 31.195 22.7214 28.2798 22.8692 25.354C23.0171 22.4288 23.1874 19.5135 23.3807 16.6079C23.4791 15.4571 23.7433 14.4128 24.1739 13.4743C24.6054 12.5349 25.3806 11.8243 26.4994 11.3425C27.4914 10.9079 28.5433 10.7252 29.6542 10.7945C30.765 10.8627 31.8119 11.0685 32.7949 11.4108ZM27.928 21.5581C28.4724 21.684 29.0893 21.7478 29.778 21.7488C30.4663 21.7503 31.1391 21.6494 31.7959 21.4456C32.4523 21.2424 32.9972 20.9207 33.4302 20.4801C33.8628 20.0385 34.0941 19.4398 34.1235 18.6835C34.146 18.2057 33.9647 17.7596 33.5801 17.3446C33.195 16.93 32.705 16.5687 32.1096 16.2606C31.5152 15.9514 30.9253 15.7402 30.3395 15.6263C29.7531 15.5128 29.2586 15.5299 28.855 15.6784C28.6232 15.7537 28.4804 15.8029 28.4274 15.827C28.3755 15.8501 28.3505 15.8993 28.3535 15.9755C28.3575 16.0508 28.3101 16.1883 28.2117 16.3891C28.0968 16.6972 28.0503 17.0886 28.0718 17.5634C28.0928 18.0371 28.1003 18.4476 28.0938 18.7939C28.0708 19.2476 28.0428 19.7083 28.0099 20.175C27.9779 20.6422 27.9504 21.1034 27.928 21.5581Z" fill="#CF2224"/>
<path d="M56.0842 18.2329C56.245 20.3888 56.3959 22.5447 56.5357 24.7006C56.6766 26.8556 56.8279 29.0105 56.9893 31.1664C57.0397 31.7902 56.9118 32.2981 56.6057 32.69C56.3005 33.0824 55.9144 33.3474 55.4469 33.4869C54.9794 33.6274 54.5009 33.644 54.0124 33.5371C53.5249 33.4297 53.1063 33.2004 52.7577 32.8486C52.4085 32.4968 52.2092 32.009 52.1603 31.3852C52.1083 30.7378 52.0624 30.0904 52.0224 29.4441C51.9825 28.7977 51.937 28.1513 51.8866 27.5049L47.0456 27.5632C46.9097 28.3691 46.7849 29.1851 46.672 30.0122C46.5601 30.8392 46.4472 31.6657 46.3343 32.4913C46.2544 33.1015 46.0326 33.5552 45.669 33.8523C45.3054 34.1494 44.8763 34.309 44.3824 34.332C43.8879 34.3546 43.4154 34.2462 42.9638 34.0068C42.5123 33.7685 42.1527 33.4282 41.8849 32.9871C41.6172 32.5445 41.5233 32.019 41.6032 31.4113C41.8959 29.2795 42.2371 27.1672 42.6262 25.074C43.0163 22.9798 43.6072 20.9308 44.3983 18.9274C44.7829 17.9358 45.2834 16.8648 45.8988 15.7136C46.5141 14.5614 47.2244 13.497 48.0306 12.5199C48.8377 11.5418 49.7468 10.803 50.7577 10.3037C51.7048 9.84904 52.4844 9.73763 53.0973 9.97049C53.7097 10.2023 54.2032 10.65 54.5778 11.3134C54.9519 11.9759 55.2391 12.7357 55.4389 13.5918C55.6387 14.4484 55.7845 15.2961 55.8764 16.1351C55.9683 16.9742 56.0373 17.6738 56.0842 18.2329ZM48.3203 22.1533C48.3028 22.2406 48.2803 22.3279 48.2523 22.4162C48.2244 22.5036 48.1909 22.5909 48.1524 22.6792C48.7318 22.6752 49.3012 22.6712 49.8607 22.6672C50.4201 22.6631 50.9795 22.6591 51.5389 22.6551C51.4855 21.9676 51.4375 21.2735 51.3951 20.5735C51.3536 19.8724 51.3062 19.1653 51.2532 18.4517C51.2183 18.1736 51.1938 17.8776 51.1793 17.5644C51.1658 17.2513 51.1518 16.9331 51.1373 16.6089C50.7922 17.0585 50.499 17.4936 50.2583 17.9137C49.8587 18.5816 49.497 19.2687 49.1734 19.9753C48.8507 20.6819 48.5665 21.408 48.3203 22.1533Z" fill="#CF2224"/>
<path d="M75.5097 13.1349C75.6906 14.2941 75.7585 15.5608 75.7135 16.9348C75.6681 18.3094 75.4828 19.6905 75.1581 21.0781C74.8344 22.4662 74.3494 23.7639 73.7036 24.9724C73.0588 26.1808 72.2451 27.2126 71.2622 28.0678C70.2792 28.9219 69.1164 29.4985 67.7738 29.7981C66.3672 30.0992 65.1535 30.041 64.1336 29.6235C63.1131 29.2049 62.254 28.541 61.5562 27.6322C60.8595 26.7238 60.29 25.6579 59.848 24.4344C59.4055 23.2114 59.0738 21.9402 58.853 20.6204C58.6318 19.301 58.4879 18.0269 58.4215 16.7983C58.356 15.5688 58.3346 14.4994 58.3575 13.5905C58.3735 12.9617 58.5498 12.4564 58.887 12.075C59.2251 11.6926 59.6327 11.4256 60.1097 11.274C60.5877 11.1215 61.0657 11.0994 61.5442 11.2078C62.0222 11.3162 62.4198 11.5465 62.737 11.8983C63.0537 12.2506 63.205 12.7414 63.1905 13.3717C63.1835 13.6959 63.187 14.2409 63.2005 15.0078C63.2135 15.7736 63.2635 16.6518 63.3504 17.6434C63.4383 18.6341 63.5741 19.6222 63.7579 20.6083C63.9418 21.595 64.1855 22.4702 64.4892 23.234C64.7939 23.9983 65.179 24.5378 65.644 24.8519C66.11 25.1651 66.6799 25.1445 67.3542 24.7897C68.2782 24.315 68.9995 23.6169 69.518 22.696C70.0359 21.7756 70.399 20.7599 70.6068 19.6488C70.8156 18.5367 70.917 17.4302 70.9105 16.3286C70.9035 15.2261 70.8266 14.2349 70.6788 13.3557C70.5654 12.7324 70.6398 12.2311 70.9025 11.8522C71.1648 11.4723 71.5244 11.2128 71.9814 11.0733C72.4379 10.9343 72.9154 10.9127 73.4139 11.0091C73.9134 11.1044 74.3589 11.3322 74.7505 11.6936C75.1431 12.0539 75.3964 12.5342 75.5097 13.1349Z" fill="#CF2224"/>
<path d="M107.816 20.259C108.371 20.6003 108.764 21.074 108.995 21.6802C109.225 22.2865 109.172 22.8997 108.837 23.519C108.659 23.8954 108.382 24.2005 108.006 24.4344C107.629 24.6672 107.22 24.8047 106.781 24.8459C106.341 24.8875 105.944 24.7866 105.588 24.5428L103.628 23.3022C103.25 23.9461 102.859 24.5909 102.457 25.2373C102.055 25.8827 101.631 26.5075 101.187 27.1122C100.398 28.2499 99.4535 29.2656 98.3537 30.1594C97.2533 31.0522 95.9966 31.5836 94.5836 31.7553C93.2554 31.9023 92.0922 31.7497 91.0932 31.2976C90.0952 30.8469 89.2651 30.1935 88.6018 29.3384C87.9395 28.4822 87.4595 27.5036 87.1613 26.4036C86.8641 25.3025 86.7542 24.1724 86.8316 23.0131C86.9085 21.8529 87.1937 20.7644 87.6867 19.7471C88.1368 18.7771 88.7147 17.8973 89.4209 17.1074C90.1282 16.318 90.9079 15.6009 91.7605 14.9555C91.0412 13.7782 90.6067 12.4955 90.4579 11.1074C90.31 9.71977 90.5403 8.37432 91.1491 7.07053C91.5607 6.18728 92.1386 5.41544 92.8833 4.75401C93.6291 4.09308 94.4637 3.62787 95.3867 3.35888C96.3108 3.0899 97.2728 3.0628 98.2717 3.27658C99.2078 3.51646 100.061 3.94253 100.831 4.55528C101.601 5.16854 102.21 5.91378 102.657 6.7915C103.106 7.66822 103.32 8.59363 103.301 9.56771C103.301 11.016 102.939 12.2049 102.218 13.1348C101.495 14.0652 100.624 14.8888 99.6024 15.6059C99.955 15.7841 100.307 15.9522 100.657 16.1098C101.009 16.2663 101.361 16.4229 101.712 16.5795C101.809 16.3577 101.917 16.1358 102.036 15.915C102.312 15.3409 102.676 14.9625 103.131 14.7789C103.586 14.5957 104.052 14.558 104.529 14.6664C105.007 14.7748 105.431 14.9992 105.802 15.3389C106.174 15.6792 106.418 16.0952 106.537 16.5875C106.657 17.0803 106.589 17.6012 106.333 18.1513C106.254 18.3068 106.181 18.4564 106.112 18.6009C106.044 18.7444 105.98 18.8819 105.92 19.0144C106.23 19.2167 106.546 19.4239 106.867 19.6367C107.189 19.8485 107.505 20.0558 107.816 20.259ZM95.7723 8.67643C95.3857 9.19183 95.2069 9.7574 95.2349 10.3727C95.2629 10.9869 95.4067 11.5585 95.6664 12.087C95.7129 12.1512 95.7484 12.2094 95.7723 12.2616C95.7963 12.3128 95.8303 12.3595 95.8742 12.4021C96.3787 12.0985 96.8697 11.7573 97.3467 11.3784C97.8232 11 98.1649 10.5895 98.3716 10.1478C98.5779 9.70622 98.5305 9.24402 98.2298 8.76074C97.9061 8.27797 97.4965 8.03708 97.0011 8.03808C96.5066 8.03959 96.097 8.25237 95.7723 8.67643ZM96.3058 25.5163C96.9436 24.8609 97.5295 24.1368 98.064 23.3443C98.5979 22.5524 99.0929 21.7354 99.5484 20.8933C98.7812 20.539 98.017 20.1682 97.2568 19.7812C96.4961 19.3948 95.7713 18.9462 95.0831 18.4363C94.2679 19.0144 93.5531 19.6583 92.9393 20.3674C92.3264 21.077 91.8924 21.9231 91.6366 22.9067C91.4713 23.5426 91.4528 24.209 91.5807 24.9061C91.7096 25.6021 92.0732 26.1527 92.6716 26.5582C93.1161 26.8834 93.5576 27.0148 93.9962 26.9516C94.4342 26.8874 94.8463 26.7167 95.2329 26.4397C95.619 26.1627 95.9766 25.8551 96.3058 25.5163Z" fill="#CF2224"/>
</g>
<mask id="mask1_64_6715" style="mask-type:luminance" maskUnits="userSpaceOnUse" x="30" y="34" width="60" height="38">
<path d="M89.7627 34.9445H30.8159V71.816H89.7627V34.9445Z" fill="white"/>
</mask>
<g mask="url(#mask1_64_6715)">
<path d="M45.9221 42.2455C46.5265 42.2832 47.02 42.4824 47.4026 42.8437C47.7847 43.205 48.0509 43.6306 48.2017 44.1204C48.3536 44.6102 48.3755 45.09 48.2677 45.5597C48.1598 46.0294 47.929 46.4138 47.5764 46.7119C47.2247 47.009 46.7457 47.1275 46.1399 47.0672C45.1249 46.9829 44.09 46.9327 43.0351 46.9167C42.9911 49.2964 42.9517 51.6656 42.9172 54.0248C42.8837 56.383 42.8453 58.7416 42.8013 61.1008C42.8078 61.7271 42.6425 62.237 42.3058 62.6304C41.9702 63.0239 41.5631 63.2919 41.0851 63.4334C40.6066 63.5739 40.1286 63.5955 39.6506 63.4976C39.1721 63.4003 38.774 63.1694 38.4558 62.8051C38.1387 62.4412 37.9768 61.9459 37.9703 61.3196C38.0143 58.9605 38.0528 56.5912 38.0862 54.2115C38.1192 51.8323 38.1572 49.4635 38.2001 47.1054C37.2356 47.1711 36.2946 47.279 35.377 47.4286C34.7547 47.4998 34.2492 47.4035 33.8606 47.1395C33.473 46.876 33.2093 46.5102 33.0694 46.0415C32.9306 45.5717 32.9141 45.086 33.0195 44.5841C33.1259 44.0823 33.3536 43.6457 33.7028 43.2733C34.0514 42.8999 34.5364 42.6671 35.1573 42.5747C38.7266 42.0438 42.3148 41.9339 45.9221 42.2455Z" fill="#CF2224"/>
<path d="M63.945 56.8649C64.5694 56.8569 65.0768 57.0115 65.4674 57.3286C65.859 57.6458 66.1238 58.0448 66.2626 58.525C66.4025 59.0043 66.4244 59.4896 66.3285 59.9804C66.2326 60.4717 66.0034 60.8827 65.6413 61.2129C65.2801 61.5421 64.7871 61.6997 64.1628 61.6847C62.7013 61.7077 61.2418 61.785 59.7833 61.9175C58.3259 62.049 56.8729 62.2658 55.4239 62.5679C54.9763 62.6763 54.5018 62.6613 54.0013 62.5217C53.5004 62.3812 53.0748 62.1358 52.7247 61.785C52.3755 61.4332 52.2302 60.9635 52.2891 60.3759C52.5194 57.3598 52.7876 54.3532 53.0943 51.3567C53.4005 48.3592 53.7446 45.3707 54.1272 42.3917C54.1752 42.0224 54.2895 41.6927 54.4709 41.4021C54.6267 41.092 54.861 40.832 55.1741 40.6232C55.4883 40.4145 55.8819 40.289 56.3549 40.2459C58.671 40.0547 60.9921 39.9924 63.3177 40.0592C63.942 40.0752 64.4505 40.2529 64.8421 40.5911C65.2337 40.9299 65.4994 41.3394 65.6393 41.8196C65.7801 42.3004 65.8021 42.7807 65.7052 43.2609C65.6078 43.7402 65.378 44.1397 65.0159 44.4593C64.6533 44.7795 64.1608 44.9311 63.5374 44.915C61.9416 44.8804 60.3173 44.9005 58.6645 44.9752C58.5856 45.6056 58.5067 46.2359 58.4268 46.8662C58.3478 47.4965 58.2799 48.1268 58.223 48.7571C59.1045 48.7386 59.9542 48.7426 60.7723 48.7692C61.4206 48.8269 61.9955 49.0497 62.4965 49.4376C62.9985 49.8246 63.2657 50.3746 63.2977 51.0877C63.3147 51.4962 63.2198 51.9002 63.012 52.3002C62.8052 52.6991 62.525 53.0258 62.1709 53.2798C61.8162 53.5327 61.4226 53.6471 60.9901 53.623C59.8912 53.5643 58.7944 53.5718 57.6995 53.6451C57.6406 54.2528 57.5821 54.8656 57.5237 55.4839C57.4647 56.1021 57.4068 56.7259 57.3499 57.3547C58.4417 57.1997 59.5341 57.0757 60.6265 56.9834C61.7198 56.89 62.8262 56.8504 63.945 56.8649Z" fill="#CF2224"/>
<path d="M85.2919 42.1081C85.8458 42.9271 86.2429 43.8555 86.4827 44.8923C86.7224 45.9296 86.8553 46.983 86.8823 48.0519C86.9102 49.1214 86.8693 50.123 86.7604 51.057C86.6086 52.4902 86.228 53.8593 85.6196 55.1641C85.0122 56.4679 84.1716 57.6086 83.0982 58.5867C82.0643 59.5196 80.8475 60.2237 79.448 60.6984C78.0479 61.1722 76.6629 61.2238 75.2923 60.853C74.3773 60.6136 73.5721 60.1855 72.8768 59.5683C72.1815 58.9515 71.5892 58.2384 71.1007 57.4284C70.6132 56.6189 70.2425 55.7864 69.9898 54.9312C69.6886 53.9948 69.4888 52.9073 69.3904 51.6692C69.2915 50.4302 69.3205 49.159 69.4763 47.8552C69.6322 46.5504 69.9319 45.3259 70.3754 44.1817C70.819 43.0375 71.4428 42.079 72.2475 41.3051C73.0676 40.3832 74.0706 39.7113 75.2563 39.2897C76.4416 38.8682 77.6703 38.6885 78.9425 38.7497C80.2157 38.81 81.414 39.1231 82.5368 39.6892C83.6596 40.2553 84.5777 41.0617 85.2919 42.1081ZM79.9974 54.9653C80.6967 54.2417 81.2027 53.4131 81.5158 52.4802C81.8285 51.5463 82.0053 50.5762 82.0453 49.5695C82.0853 48.5618 82.0203 47.5862 81.8515 46.6427C81.6782 45.6993 81.2721 44.94 80.6328 44.3644C79.9944 43.7878 79.1703 43.5328 78.1593 43.5996C77.6024 43.6252 77.067 43.7903 76.553 44.0954C76.04 44.4005 75.6225 44.7869 75.3003 45.2536C74.9367 45.8117 74.6859 46.4721 74.5491 47.2349C74.4117 47.9977 74.3143 48.7043 74.2574 49.3547C74.1295 50.8111 74.2679 52.2323 74.6729 53.6184C74.7993 54.0229 74.9631 54.4264 75.1644 54.8288C75.3652 55.2303 75.6444 55.5525 76.0016 55.7944C76.5755 56.1788 77.2193 56.2952 77.9336 56.1437C78.6488 55.9926 79.2647 55.678 79.7816 55.2002C79.8426 55.1335 79.9145 55.0552 79.9974 54.9653Z" fill="#CF2224"/>
</g>
</svg>
