<svg width="91" height="139" viewBox="0 0 91 139" fill="none" xmlns="http://www.w3.org/2000/svg">
<g clip-path="url(#clip0_28_406)">
<mask id="mask0_28_406" style="mask-type:luminance" maskUnits="userSpaceOnUse" x="0" y="0" width="91" height="139">
<path d="M0.128418 0.0339355H90.9023V138.966H0.128418V0.0339355Z" fill="white"/>
</mask>
<g mask="url(#mask0_28_406)">
<path d="M0.128418 70.453C0.66576 70.9649 5.3202 98.0049 6.34948 98.3254C7.3797 98.6459 17.3972 129.282 17.3972 129.282L33.1144 138.921L67.4333 136.552L82.1469 128.217L86.9839 107.975L90.9004 74.0285L86.2923 59.6955L80.7628 50.53L69.6972 32.4867L53.172 21.9648L47.3256 0.0716553H31.3766L27.5366 16.9084L15.2005 28.2542L16.4871 35.2836L5.65982 42.7927V56.1313L8.19422 60.9756L0.128418 70.453Z" fill="#E2CBAA"/>
</g>
<path d="M54.8221 125.646C54.6281 126.609 53.9243 126.703 53.2318 126.381C52.369 125.976 51.3757 125.906 50.7305 125.232C49.7693 125.726 49.7816 126.547 49.6861 127.806C49.1592 126.715 48.8441 126.062 48.5272 125.4C47.0571 124.774 46.5992 126.239 45.7497 126.846C44.9579 126.186 44.1887 126.295 43.4423 127.172C43.2985 126.837 43.15 126.486 42.8444 125.774C42.5464 126.477 42.3979 126.827 42.2797 127.107C41.7849 126.881 41.2759 126.646 40.7272 126.394C40.1388 127.206 39.6601 127.868 39.1322 128.598H37.945C38.1768 128.125 38.382 127.704 38.6488 127.162C36.964 126.814 35.5288 126.927 34.1372 127.525C33.8648 128.037 33.5848 128.56 33.1978 129.282C32.582 128.604 32.143 128.117 31.5754 127.492C29.6313 127.382 27.3978 127.253 24.9627 127.111C24.3506 126.592 23.9911 125.78 23.8842 124.678C23.6742 124.511 23.4613 124.344 23.1785 124.122C23.4822 123.914 23.7461 123.69 24.0441 123.539C24.273 123.421 24.5464 123.391 24.7129 123.346C23.8823 120.532 23.1066 117.805 22.2646 115.097C21.6904 113.249 21.1786 111.359 19.7227 109.764C19.9639 107.682 19.0425 105.819 18.2213 103.86C17.596 102.372 16.5752 100.877 17.0085 99.0541C17.0918 98.7062 16.8581 98.2396 16.6698 97.8804C15.7352 96.0734 15.7976 94.0599 15.4277 92.1378C15.2565 91.2451 15.0436 90.3618 14.844 89.4757C14.3209 87.1502 13.5716 84.8643 13.6984 82.666C11.8934 78.1092 11.3286 73.5628 11.0854 68.8213H12.321C12.4742 68.5149 12.6644 68.2264 12.7637 67.9106C12.8564 67.6194 12.8536 67.2989 12.9302 66.7059C13.951 67.1886 14.7816 67.5807 15.6708 68.0002C15.3161 67.0934 14.9348 66.1714 14.5943 65.2345C13.793 63.0334 14.0437 61.0585 15.5639 59.1506C16.3974 58.1061 16.8278 56.7421 17.4825 55.4412C16.9272 55.0425 16.3605 54.6343 15.6727 54.1422C15.5658 53.6605 15.4343 53.0695 15.3047 52.4794C15.2054 52.4653 15.1061 52.4539 15.0058 52.4398C14.9414 52.6594 14.8762 52.8781 14.7674 53.2448C14.4949 53.1779 13.9926 53.2062 13.7589 52.9686C12.8838 52.092 12.2869 50.9777 12.5111 49.7382C13.0068 46.9997 14.0342 44.4584 15.9319 42.3468C17.3765 40.7415 18.8324 39.1493 20.3064 37.5694C21.0745 36.7456 21.644 35.6917 23.0073 35.572C23.2854 35.5465 23.4982 34.7896 23.7177 34.4134C23.1302 33.4736 22.8133 32.6158 22.7689 31.839C23.3365 31.216 24.5701 31.2508 24.5445 30.1592C25.5625 29.6285 26.4858 29.1487 27.4999 28.6255C27.6437 28.667 27.8982 28.7434 28.1527 28.8188C28.5897 28.3003 29.0296 27.7809 29.4667 27.2615C29.8025 26.9693 30.1384 26.6733 30.4742 26.3801C31.2055 26.2048 31.9387 26.0323 32.5271 25.8918C32.9528 24.9916 33.177 24.2262 33.6235 23.6257C35.9612 20.4914 37.0746 16.931 37.4313 13.0991C37.5126 12.2413 38.0746 11.325 37.1655 10.4483C36.0104 11.7341 36.7019 13.4205 36.1447 14.8157C35.5913 16.2004 35.2791 17.6832 34.4664 19.0953C34.4012 18.6796 34.2044 18.2347 34.2905 17.8519C35.0407 14.5065 35.8391 11.1732 36.6168 7.87206C36.9308 7.69862 37.1787 7.56287 37.489 7.39225C37.8939 7.75895 38.3035 8.13224 38.7642 8.54983C39.1559 8.52438 39.5674 8.49893 39.9799 8.47442C40.4652 7.62226 40.9146 6.8342 41.4585 5.87646C42.2106 6.10742 42.9192 6.32423 43.5048 6.50144C44.1178 7.56476 44.518 8.47819 45.2861 9.27002C46.2492 10.2617 46.516 11.6832 46.0202 13.2791C46.4138 13.5167 46.849 13.7778 47.4696 14.1511C47.5661 14.5508 47.7307 15.2238 47.9293 16.043C47.6427 15.8497 47.497 15.7498 47.3191 15.6301C47.147 16.0637 46.9786 16.4908 46.779 16.9932C47.1034 17.3024 47.4251 17.6116 48.0665 18.2233C48.0665 18.9171 48.0428 20.0068 48.0779 21.0928C48.0939 21.5707 48.2472 22.0439 48.3096 22.5209C48.4714 23.7416 49.0154 24.9482 48.2699 26.3C49.9339 26.8166 51.2764 27.7621 53.0473 27.878C53.0104 28.272 52.982 28.5841 52.9499 28.9413C50.932 27.9148 49.5773 27.7206 48.5868 28.3343C52.2413 29.4258 55.4237 31.2669 58.3886 33.5896C58.3706 33.994 58.3545 34.3654 58.3356 34.8075C58.609 34.6859 58.7802 34.6076 58.9978 34.5105C59.3582 34.9074 59.731 35.3156 60.0763 35.6936C60.467 35.3457 60.8217 35.029 61.2058 34.6877C61.0895 34.2862 60.9693 33.8686 60.7801 33.2115C61.8908 33.9892 61.7498 34.9281 61.4972 35.6474C61.0923 36.7965 61.414 37.7099 61.9759 38.7044C63.8254 39.927 65.7231 41.1525 67.5868 42.4326C68.0428 42.7465 68.5035 43.1688 68.7504 43.6505C69.8459 45.7847 70.8638 47.9603 71.9101 50.119C72.123 50.5573 72.2128 51.1503 72.56 51.4133C74.5505 52.9243 75.4955 54.936 75.6299 57.5848C75.4974 57.7347 75.2335 58.0345 74.944 58.3644C75.1483 59.571 75.3565 60.803 75.5372 61.8777C76.2401 62.727 76.8654 63.4792 77.4879 64.2305C77.6175 64.3879 77.7168 64.6689 77.8653 64.6971C79.5105 65.0016 79.6751 66.2723 79.7025 67.511C80.6523 68.1322 81.0222 67.1264 81.8017 66.9878C82.4289 67.5392 82.5727 68.3669 82.6976 69.1955C82.7998 69.1653 82.8717 69.1587 82.9266 69.1267C83.0429 69.0616 83.1517 68.9834 83.3409 68.859C83.3409 69.7724 83.8556 70.732 82.6607 71.2929C83.2927 72.5268 84.0542 73.7334 82.5567 74.9994C82.2208 74.5941 81.9067 74.2132 81.4205 73.6269C81.4545 74.086 81.4091 74.3056 81.4924 74.4574C81.8878 75.1842 82.7118 75.7168 82.4431 76.8244C82.1773 76.8084 81.8736 76.7895 81.3968 76.7603C81.4763 77.2401 81.5473 77.6831 81.6333 78.1922C81.4621 78.3355 81.2587 78.5014 81.1102 78.6267C81.4545 79.2819 81.7771 79.8955 82.0893 80.4885C80.8046 81.5791 80.4764 83.0299 79.8927 84.7747C80.1613 85.0283 80.5019 85.3507 80.7564 85.5929C80.8765 85.5515 80.6769 85.6212 80.3969 85.7202C80.5388 86.1397 80.6958 86.611 80.8529 87.0786C80.7583 87.1417 80.6637 87.2039 80.5681 87.2662C80.4508 87.0955 80.3326 86.9221 80.1755 86.6911C79.9456 87.5376 79.7214 88.3662 79.4528 89.3532C79.5483 89.7831 79.6893 90.4193 79.8302 91.049C79.2011 91.723 78.624 92.3433 78.064 92.9428C77.9921 93.8129 77.9259 94.6462 77.8606 95.423C78.1662 95.7764 78.4206 96.0696 78.7168 96.408C77.9949 96.9208 77.3696 97.3658 76.5967 97.9125C76.7679 99.0682 76.9515 100.294 77.0555 100.997C76.9855 102.199 76.9467 102.9 76.8975 103.761C76.6383 103.705 76.3422 103.643 76.048 103.581C75.8929 104.247 75.7358 104.918 75.5041 105.916C75.6687 106.093 76.0348 106.49 76.3242 106.804C76.0158 107.779 75.6942 108.801 75.259 110.181C75.1644 110.225 74.6384 110.465 74.1134 110.704C74.2269 110.849 74.3376 110.996 74.4511 111.141C74.6138 111.74 74.7756 112.338 74.8816 112.732C74.5325 114.218 74.2316 115.499 73.91 116.862C74.7756 117.461 75.4974 117.96 76.5854 118.712H74.4048C74.2685 118.797 73.8059 119.085 73.1948 119.466C73.2714 120.396 73.3518 121.358 73.4464 122.493C72.8911 122.436 72.3339 122.378 71.7323 122.316C72.2157 124.242 71.7871 125.884 70.7853 127.465C69.2556 127.32 70.0029 126.022 69.6122 125.345C68.8384 124.001 67.3531 124.29 66.1933 124.055C65.0155 123.815 63.7535 124.722 62.4347 124.226C61.046 125.063 59.4396 125.388 57.8285 125.659C56.8267 125.826 55.8078 126.512 54.7899 125.688C55.1579 125.458 55.5259 125.229 55.9081 124.989C55.5723 124.886 55.2411 124.784 54.7625 124.636C55.0463 124.431 55.2553 124.279 55.4682 124.127C54.3689 123.679 54.332 124.854 53.5913 125.326C54.0955 125.458 54.4635 125.552 54.8315 125.646H54.8221ZM52.6377 107.816C52.5705 107.401 52.5005 106.988 52.4333 106.573L52.0606 106.577C52.0152 106.947 51.9688 107.315 51.9197 107.696C52.2829 107.726 52.4873 107.744 52.6907 107.76V108.686C52.1902 109.142 51.7806 109.517 51.371 109.89L51.5403 110.13C52.019 109.99 52.5005 109.848 53.1694 109.652C52.6632 109.053 53.6717 108.254 52.6348 107.814L52.6377 107.816ZM48.4298 100.15C48.286 100.337 48.0154 100.528 48.0201 100.713C48.0315 101.447 48.1289 102.18 48.2008 102.958C48.5177 102.597 48.793 102.286 49.1052 101.929C49.5224 102.953 48.8025 104.024 49.6814 104.792C49.7116 105.131 49.7022 105.482 49.793 105.807C49.828 105.929 50.0872 105.991 50.4155 106.179C50.3805 105.637 50.3578 105.258 50.3294 104.838C50.038 104.838 49.8365 104.838 49.6378 104.838C49.8923 104.621 50.1449 104.406 50.5262 104.081C50.2925 103.437 50.0475 102.76 49.8233 102.138C49.9198 101.788 50.004 101.481 50.1118 101.096C49.0589 101.348 48.5613 100.974 48.3806 100.115C48.513 99.8346 48.793 99.5226 48.7467 99.2737C48.6521 98.7656 48.3834 98.2886 48.1611 97.7353C47.9709 98.0624 47.8026 98.3527 47.6682 98.5865C47.9435 99.1493 48.1885 99.6498 48.4317 100.15H48.4298ZM40.678 109.944C40.012 109.682 39.3432 109.424 38.5864 109.129V110.372C38.4454 110.167 38.19 109.964 38.1853 109.754C38.1645 108.841 38.2969 107.92 38.2231 107.014C38.1559 106.19 37.892 105.382 37.7321 104.652C38.1049 104.386 38.2941 104.25 38.6696 103.982C38.0907 103.579 37.7047 103.306 37.2411 102.983C37.348 102.414 37.4635 101.802 37.5628 101.274C37.3849 100.815 37.068 100.406 37.1068 100.033C37.3291 97.8475 36.4247 95.7812 36.6281 93.548C36.7899 91.7645 36.1192 89.9046 35.7994 88.0825C35.4683 86.2019 35.4153 84.327 35.7095 82.4539C34.422 78.8266 34.8136 74.9975 34.6329 71.2853C34.8903 71.1543 35.1079 71.0412 35.2233 70.9837C35.1258 70.2871 35.0492 69.7441 34.9782 69.2256C33.4391 72.7945 31.1497 75.8648 28.9275 78.9378C28.0921 78.7974 27.5018 78.6974 26.7611 78.573C26.7611 78.9425 26.657 79.2725 26.7781 79.4402C27.6598 80.677 27.9947 82.0825 28.3769 83.5332C29.3835 87.3793 30.0201 91.3328 31.6076 95.0223C31.881 95.6586 32.0475 96.3807 32.0872 97.0726C32.1931 98.8627 32.932 100.423 33.6444 102.017C33.9849 102.78 34.1306 103.632 34.3482 104.446C34.4712 104.907 34.4314 105.473 34.6954 105.82C35.2999 106.622 35.1627 107.394 34.895 108.224C34.8345 108.412 34.8345 108.616 34.8108 108.785C35.0728 108.986 35.2904 109.152 35.5194 109.327C34.7881 111.03 35.9243 112.421 36.1305 114.043C36.4124 113.817 36.5609 113.696 36.7766 113.521C37.0775 116.1 37.3707 118.606 37.665 121.116C37.4171 121.543 37.1607 121.983 36.8107 122.583H39.3479C39.5863 122.334 39.9241 121.981 40.0858 121.811C40.1785 120.451 40.2552 119.353 40.3403 118.087C40.9306 118.5 41.3677 118.806 42.0696 119.298C41.8653 116.468 41.7177 113.889 41.4651 111.321C41.4188 110.841 40.9514 110.403 40.6809 109.945L40.678 109.944ZM36.454 64.2098C40.2135 61.905 43.6041 59.1949 47.9757 58.272C44.4555 60.3487 40.9354 62.4244 37.4105 64.503C38.3896 65.4239 39.3319 66.1752 40.1066 67.0707C40.8455 67.9238 40.8777 69.3133 42.0829 69.9364C42.3705 69.1238 42.6136 68.4385 42.87 67.7165C43.2985 67.8484 43.4925 67.9059 43.6845 67.9681C43.8728 68.0304 44.0572 68.102 44.2938 68.185C45.2029 66.7314 46.0893 65.3127 46.9833 63.8846C47.6361 63.9468 48.1914 64.0005 48.8205 64.0599C49.5016 64.9441 50.1771 65.8208 50.8478 66.6899C50.9916 66.6437 51.1865 66.5815 51.3624 66.524C52.9451 67.8484 52.3643 70.0863 53.5288 71.7105C55.6602 69.8506 56.6488 67.3385 58.3451 65.3796C58.7083 65.5757 59.0073 65.7397 59.3147 65.9056C59.2116 65.0949 59.3705 64.3389 59.7915 63.6376H62.7772C63.1196 64.0835 63.5359 65.1581 64.2747 65.4673C65.865 66.1319 66.2718 67.3224 66.425 68.8128C66.811 68.9787 67.179 69.138 67.5357 69.2926C67.4959 69.6319 67.4638 69.9242 67.408 70.4162C68.0286 70.0627 68.4429 69.828 68.7646 69.6451C69.3918 67.8437 70.3132 66.3901 71.7483 65.4909C72.0908 64.4106 71.5147 63.7253 71.1807 62.9598C70.8799 62.2698 70.4778 61.5336 70.4797 60.8209C70.4863 59.0931 69.4656 58.1334 68.2206 57.2596C67.513 56.7628 66.8063 56.2651 66.0154 55.7089C65.971 55.7759 65.8045 56.0436 65.707 56.1953C63.8878 55.7551 62.2729 55.2404 60.6174 54.9935C58.7821 54.7191 56.9885 55.2866 55.2203 55.7231C53.6906 56.0992 52.1931 56.6045 50.6813 57.0513C52.1514 55.2197 54.3528 55.0472 56.3149 54.5853C58.2249 54.1356 60.2844 54.3129 62.7242 54.1931C61.5947 53.6191 60.8747 53.2543 60.2617 52.9432C56.8172 53.077 53.6717 53.981 50.6766 55.3328C50.284 54.8785 49.9614 54.507 49.5612 54.0461C49.3626 54.9058 49.2169 55.5496 49.1081 56.02C47.9624 56.546 46.9994 56.9891 46.0761 57.4114C45.7979 57.3011 45.5434 57.1993 45.2909 57.0975C44.4347 59.0516 42.4301 59.4739 40.9164 60.4194C39.3943 61.3724 37.98 62.6695 35.9356 62.9759C36.1258 63.4255 36.3017 63.8412 36.4569 64.2098H36.454ZM59.766 45.5726C58.2173 45.4038 56.6857 45.2238 55.1513 45.0758C53.2876 44.8967 51.422 44.596 49.5612 44.6195C47.6663 44.6422 45.7658 44.9335 43.8841 45.2191C41.3223 45.6065 38.7879 46.0543 36.4938 47.4409C34.334 48.7465 31.8327 49.5723 29.8763 51.1116C27.8168 52.7311 25.5369 54.2007 23.9769 56.4216C23.783 56.6987 23.2665 56.7496 22.9287 56.8929C22.9722 57.8384 22.2949 58.1985 21.7112 58.6481C21.5144 58.4379 21.3735 58.288 21.241 58.1476C20.2742 59.6492 19.7066 61.3611 18.3462 62.6808C17.1495 63.8412 17.2952 65.5738 18.3178 66.8511C18.4436 66.5033 18.559 66.1846 18.6745 65.8689C18.7946 66.1799 18.9157 66.492 19.1286 67.0434C19.8229 65.8707 20.4085 64.8791 20.996 63.8846C21.8181 64.3257 22.4869 64.6849 23.0375 64.9809C25.3146 64.0165 27.4261 63.0777 29.321 61.7004C30.2538 61.0246 31.3465 60.5674 32.3691 60.014C33.3388 59.488 34.3113 58.9639 35.5591 58.288C36.2715 57.1625 37.5514 56.4197 38.9657 56.3961C39.6507 55.7825 40.1369 54.9869 40.7528 54.8671C42.2636 54.574 43.2219 53.3881 44.5738 52.8668C46.0136 52.3107 47.3645 51.5358 48.793 50.9429C50.8734 50.0775 52.9546 49.1914 55.0974 48.5042C56.8986 47.9254 58.785 47.6134 60.7215 47.1638C60.4396 46.6934 60.1945 46.2824 59.7679 45.5726H59.766ZM25.4168 86.4074C23.959 84.2572 24.063 81.7177 23.38 79.3526C21.8058 78.8341 20.1862 78.2987 18.9062 77.8764C18.3689 78.1375 17.9735 78.3289 17.7256 78.4486C18.7255 83.2768 20.7368 87.6583 20.7737 92.5092C20.9847 92.9013 21.3451 93.3359 21.4633 93.827C21.8597 95.4625 22.1691 97.1169 22.5078 98.7656C22.7594 99.9911 23.0025 101.218 23.2456 102.43C22.9098 102.93 22.5002 103.541 22.1322 104.091C22.3337 104.065 22.6998 104.019 23.1047 103.966C23.3175 104.338 23.5238 104.619 23.6534 104.931C24.2361 106.34 24.7432 107.782 25.3799 109.166C26.6182 111.86 27.9256 114.52 29.2009 117.198C29.3494 117.512 29.5433 117.829 29.5916 118.161C29.8953 120.202 30.9737 121.861 32.0011 123.425C33.2536 123.686 34.1211 123.402 34.5081 122.366C35.3321 118.719 34.0956 115.485 32.6539 112.622C32.7882 111.869 32.8696 111.42 32.9708 110.852C32.4278 110.929 32.0635 110.979 31.5659 111.05V109.099C31.249 108.575 30.9018 108.254 30.8744 107.908C30.7798 106.748 29.7515 105.756 30.2727 104.499C29.1706 102.87 29.5916 100.688 28.305 99.1257C27.3079 95.3815 26.2966 91.6401 25.3335 87.8864C25.22 87.4434 25.3818 86.9287 25.4187 86.4074H25.4168ZM52.649 36.8794C50.3994 34.4323 47.7326 33.5368 44.412 33.138C44.3165 33.073 43.8728 32.7732 43.4461 32.4848C42.9069 32.9231 42.4764 33.2719 42.0413 33.6244C41.7452 33.3888 41.4973 33.1908 41.2844 33.0221C40.486 33.484 39.7367 33.9195 38.996 34.3484C38.7179 34.1042 38.4634 33.8827 38.1436 33.6018C36.735 34.3654 35.385 35.0959 34.1353 35.7746C33.8506 35.6728 33.7049 35.6474 33.5942 35.5738C33.4343 35.4673 33.2972 35.3222 33.0919 35.1421C32.8506 35.456 32.6444 35.7284 32.4391 35.998C30.5707 35.8943 29.3286 37.0783 28.2567 37.9295C27.5368 38.0379 27.0297 38.0078 26.6315 38.201C26.2171 38.4046 25.9097 38.8222 25.6618 39.0485C25.2455 38.9561 24.9911 38.9005 24.6827 38.8335V40.1259C24.4774 39.9525 24.3288 39.828 24.1094 39.6452C23.6553 41.21 22.4746 42.1837 21.4331 43.2027C20.0774 44.5319 19.1446 46.043 18.543 47.8142C18.2421 48.705 17.7956 49.5468 17.3992 50.4442H17.9129C18.4966 51.335 18.6953 52.4719 19.4455 53.095C20.1701 52.0665 20.7065 51.1389 21.4009 50.3518C22.521 49.0811 23.6505 47.7887 24.9513 46.7188C26.2313 45.6668 27.708 44.8458 28.9672 43.8909C29.4743 44.0379 29.8489 44.1463 30.2907 44.2755C30.198 43.9597 30.145 43.773 30.0268 43.3734C30.8857 42.9058 31.7835 42.4137 32.8904 41.8114C34.2422 40.4097 36.0075 39.3595 38.5306 39.3133C39.3962 38.4687 40.6762 37.9729 42.1595 37.9663C42.4377 37.9663 42.7129 37.9041 42.9901 37.8673C45.2152 37.5873 47.4364 37.1613 49.6681 37.1009C50.6075 37.0755 51.5469 37.2075 52.649 36.8794ZM57.1464 92.579C57.0906 93.7507 56.961 94.5859 57.0348 95.405C57.1039 96.1573 57.382 96.8256 57.1436 97.6655C56.9355 98.4036 57.3565 99.2963 57.3101 100.109C57.2637 100.925 56.9866 101.728 56.8078 102.538C56.8361 102.538 56.8636 102.535 56.891 102.533C56.8286 103.241 56.7661 103.947 56.7084 104.63C56.9932 104.739 57.2505 104.835 57.5163 104.937C57.329 105.205 57.1502 105.465 56.9629 105.733C57.294 106.379 57.609 107 57.9449 107.652C58.3469 107.443 58.6941 107.263 59.1851 107.006C58.8313 106.676 58.5901 106.455 58.3356 106.217C59.0025 103.643 59.6714 101.057 60.3289 98.5215C60.8539 98.6346 61.1614 98.7015 61.8425 98.8495C61.2219 98.2999 60.9116 98.0228 60.6127 97.7598C60.59 96.6625 61.2522 95.9376 61.9485 95.2222C62.0762 95.093 62.0762 94.8423 62.1897 94.4728C61.8463 94.42 61.5786 94.3785 61.0715 94.2993C61.3326 93.6583 61.571 93.0701 61.8122 92.4819C61.7612 92.4866 61.7129 92.4913 61.6618 92.496C62.009 89.0261 62.3534 85.5543 62.7034 82.0684C62.9919 82.1994 63.3003 82.3408 63.5709 82.4624C63.9039 82.1117 64.2142 81.7818 64.5614 81.4151C64.3003 81.2633 64.0543 81.1219 63.779 80.9655C63.8698 80.7439 63.9484 80.5526 64.025 80.3631C63.6447 80.0379 63.2426 79.6919 62.8604 79.362V77.0157C62.0298 76.0637 61.2569 75.1747 60.345 74.1274C59.7802 74.7439 59.2249 75.3595 58.6553 75.9637C58.0461 76.6104 57.4265 77.242 56.8447 77.8443C57.2089 78.901 57.505 79.7617 57.8106 80.6563C57.5116 81.0343 57.2637 81.351 56.9979 81.6904C57.0972 82.0655 57.2013 82.4577 57.294 82.8131C57.0187 83.2033 56.7803 83.5427 56.6091 83.7849C56.9818 84.7304 57.3035 85.5468 57.5693 86.2189C57.4217 86.89 57.3006 87.4292 57.1852 87.9468C56.9932 87.9628 56.8059 87.976 56.5258 87.9995C56.6091 89.2448 56.6876 90.4382 56.7898 92.0021C56.8286 92.0662 57.0859 92.48 57.1483 92.5761L57.1464 92.579ZM71.3292 95.2043C70.8799 91.7249 71.7597 88.551 73.4862 85.5288C73.0047 83.6605 73.7984 82.0731 74.8494 80.5337C74.6526 80.267 74.4634 80.0106 74.331 79.8324C74.6347 78.2761 75.2988 76.8753 74.9308 75.2907C74.856 74.9721 75.2704 74.5432 75.5372 74.0143C76.1644 74.9881 76.7216 75.6923 77.083 76.4831C77.2542 76.8593 77.0461 77.406 77.0044 77.9622C76.6364 77.7981 76.5068 77.7406 76.3772 77.6803C76.3328 77.8029 76.2892 77.9273 76.206 78.1629C76.7471 78.3336 77.2845 78.5042 77.8511 78.6814C78.7073 77.489 78.0555 76.3012 78.0763 75.1201C76.6847 75.1201 76.3356 73.6137 75.2477 72.9746C74.9024 73.1292 74.5278 73.297 74.0651 73.5053C73.9696 74.1208 73.8703 74.76 73.787 75.3067C72.9328 75.2605 72.1551 75.2162 71.3406 75.17C71.1599 75.7403 71.0171 76.1947 70.8988 76.5642C70.299 76.8272 69.7967 77.0459 69.2206 77.2995C69.3946 77.9273 69.5933 78.4514 69.6605 78.9906C69.686 79.1961 69.4107 79.4402 69.2461 79.7127C68.4268 78.7304 69.494 77.4701 68.3162 76.469C67.8479 80.0492 68.7504 83.3419 68.459 86.9494C68.8762 86.3433 69.0891 86.0341 69.3984 85.5845C69.8336 87.5009 69.7276 88.6867 69.0815 90.3411C68.985 90.2167 68.862 90.0592 68.739 89.9028C68.6255 89.9556 68.512 90.0083 68.3994 90.0621C68.5404 91.1047 68.6842 92.1501 68.8223 93.1785C68.5196 93.6357 68.1355 94.2116 67.7183 94.8376C68.2443 95.0006 68.5583 95.1006 68.9008 95.209C68.2367 98.3829 67.5934 101.449 66.8829 104.84C66.7467 105.006 66.39 105.442 66.0589 105.849C66.3276 107.841 65.5661 109.814 66.0892 111.997C67.2746 110.645 66.654 108.967 67.443 107.765C68.2651 106.517 67.9311 105.046 68.2944 103.696C68.6974 102.208 69.4287 100.777 69.598 99.3057C69.7645 97.8437 70.0795 96.4957 70.51 95.1279C70.8638 95.16 71.1022 95.1835 71.3245 95.2043H71.3292ZM40.8105 88.0618C41.7849 90.8143 41.8237 93.5433 41.8615 95.0195C42.3383 98.8288 43.8425 101.237 42.9996 103.715C43.4698 105.473 43.8775 106.993 44.289 108.538C44.78 107.959 45.1433 107.53 45.6012 106.99C45.3278 106.047 45.0061 104.928 44.8074 104.241C44.8074 102.317 44.6249 100.789 44.8585 99.3293C45.0875 97.8984 43.8907 96.392 45.0137 95.2731C44.7564 93.3538 44.5255 91.6241 44.2843 89.8377C44.4621 89.5681 44.6797 89.2429 44.9815 88.7933C44.6268 88.8112 44.4489 88.8206 44.4073 88.8234C44.3146 87.3906 44.2219 85.9483 44.1225 84.3892C44.1291 84.3826 44.2493 84.2393 44.3098 84.1695C44.0459 83.9735 43.8264 83.8104 43.6684 83.6944C44.0043 82.4794 44.1339 81.598 43.5549 80.5639C43.0989 79.7494 43.2664 78.5919 43.1642 77.6662C42.0507 77.8538 41.1066 78.0131 40.1549 78.1714C40.0442 78.5136 39.8682 78.7832 39.8843 79.0434C40.0508 81.845 40.5465 84.5947 41.3497 87.1691C41.0877 87.6008 40.9098 87.893 40.8076 88.0618H40.8105ZM50.406 96.5164C50.5593 97.0453 50.6936 97.5138 50.9112 98.2726C51.0616 94.6273 51.2508 91.3516 51.3161 88.0712C51.3833 84.6569 51.3322 81.2398 51.3322 77.9527C50.8185 77.4956 50.4202 77.143 50.0664 76.8291C50.1913 76.4464 50.2698 76.2041 50.3578 75.9383C49.9992 75.8091 49.6795 75.6941 49.4713 75.6206C49.1052 74.7807 48.7817 74.0332 48.4553 73.2857C48.3115 73.2904 48.1677 73.297 48.0249 73.3017C47.7742 74.086 47.5244 74.8703 47.3277 75.4886C48.2907 76.3144 49.1308 77.0365 50.1004 77.8717C49.1005 78.0244 48.3352 78.13 47.6077 77.5191C47.6361 78.0291 47.6616 78.4901 47.6871 78.9472C47.9993 78.7879 48.2557 78.656 48.689 78.4344C49.1563 82.1447 49.5962 85.6184 50.0286 89.0949C50.0361 89.1505 49.9661 89.2156 49.9131 89.3117C49.4685 89.5728 48.9917 89.8519 48.5405 90.1177C48.7789 90.885 49.0012 91.6071 49.2169 92.3046C49.5849 92.2669 49.811 92.2443 49.95 92.2302V95.6699C49.6218 95.7991 49.3626 95.9009 48.6984 96.1592C49.5546 96.3364 49.9406 96.4174 50.406 96.5145V96.5164ZM30.0315 123.407C29.7723 121.905 29.7174 120.867 29.3958 119.916C29.0646 118.94 28.4374 118.068 28.0023 117.123C27.5993 116.248 27.324 115.314 26.903 114.451C26.4811 113.593 26.0251 112.728 25.132 112.214C25.5275 113.478 26.1481 114.622 26.569 115.833C27.2265 117.72 27.7941 119.644 28.3031 121.577C28.5093 122.359 28.9946 122.724 30.0343 123.405L30.0315 123.407ZM50.8696 111.159C50.6586 110.564 50.4618 110.003 50.2632 109.445C50.1194 109.485 49.9784 109.526 49.8346 109.565C49.8971 110.04 49.9576 110.516 50.02 110.991C49.4042 111.214 48.7836 111.441 48.1242 111.68C48.4042 112.421 48.6218 113 48.7098 113.235C49.6397 113.989 50.2953 114.52 51.0077 115.097C51.0843 114.601 51.1468 114.2 51.2073 113.812C50.9405 113.457 50.6813 113.111 50.1657 112.421C51.0616 112.606 51.5356 112.705 52.0937 112.82V111.297C51.5933 111.24 51.1884 111.194 50.8715 111.157L50.8696 111.159ZM66.1308 115.792C67.2254 115.929 67.5546 115.261 67.915 114.746C68.371 112.472 68.8138 110.271 69.2556 108.068C69.1004 108.023 68.9453 107.98 68.7901 107.936C68.3899 109.09 67.9614 110.232 67.601 111.396C67.2509 112.527 66.8186 113.579 65.7789 114.268C65.689 114.329 65.6654 114.493 65.6096 114.613C65.777 114.989 65.9454 115.365 66.1327 115.789L66.1308 115.792ZM37.6952 28.2513C39.4889 27.8083 40.8701 27.467 42.5559 27.0494C41.5484 26.1709 40.8266 25.5383 40.0139 24.8304C39.2855 25.905 38.6185 26.8882 37.6971 28.2494L37.6952 28.2513ZM29.5159 67.6316L29.303 67.4073C28.2889 68.0605 27.2918 68.7411 26.255 69.3548C25.6902 69.6894 25.6571 70.0656 25.8983 70.5124C26.7705 70.1645 27.6248 69.8205 28.6219 69.4236C28.8471 68.9758 29.182 68.3047 29.5178 67.6335L29.5159 67.6316ZM50.9178 117.392C50.564 118.371 50.4949 119.071 50.7097 119.494C50.95 119.017 51.1978 118.527 51.4892 117.95C52.1978 118.853 52.7947 119.492 53.982 119.019C53.4617 118.373 53.001 117.803 52.667 117.392H50.9178ZM56.19 118.001C57.2269 117.681 57.8124 117.499 58.6062 117.252C58.7244 116.726 58.8937 115.988 59.0782 115.164C58.6875 115.118 58.4236 115.088 58.1946 115.062C57.5835 115.958 57.014 116.793 56.19 118.001ZM51.8875 103.571C52.0862 104.091 52.2025 104.392 52.4712 105.087C52.6027 104.167 52.6717 103.694 52.7418 103.219C53.0029 103.267 53.211 103.306 53.5194 103.364C53.3018 101.996 51.8761 102.847 51.5195 101.989C51.4618 102.028 51.4041 102.07 51.2395 102.185C51.177 102.321 51.0654 102.561 50.9386 102.844C51.3643 103.17 51.7371 103.453 51.8922 103.571H51.8875ZM63.0383 72.0329C62.6428 72.0885 62.307 72.1347 61.9854 72.178C61.3146 73.1678 61.6221 73.9521 62.3534 74.8241C62.5085 74.282 62.6315 73.8465 62.7535 73.4214C63.0591 73.3045 63.3353 73.198 63.6191 73.0877C63.4205 72.7229 63.2861 72.4806 63.0411 72.031L63.0383 72.0329ZM41.3147 29.4023C41.1577 28.9828 41.0073 28.5746 40.854 28.1712C40.1899 28.3993 39.6809 28.5746 39.0603 28.7867C40.0631 29.2807 40.9817 29.7492 41.9211 30.1753C42.0138 30.2167 42.2201 30.0046 42.59 29.7765C42.0205 29.6106 41.6666 29.5069 41.3147 29.4023ZM51.844 98.0973C51.9197 98.1727 51.9963 98.2471 52.0748 98.3235C52.3577 97.9634 52.6377 97.6033 52.9016 97.2668C53.0842 97.3083 53.2318 97.3403 53.3822 97.3752L53.5629 97.0547C53.0681 96.6597 52.5724 96.2657 52.0521 95.8528C51.7418 96.194 51.5564 96.3967 51.2669 96.7153C51.58 96.9482 51.8411 97.1423 52.0843 97.3243C52.0029 97.5844 51.9244 97.8409 51.844 98.0944V98.0973ZM49.3786 97.6448V99.1653C50.0267 99.4999 50.5451 99.7676 51.1723 100.093C51.0446 99.516 50.9339 99.0201 50.8525 98.6572C50.3086 98.2839 49.8715 97.9841 49.3805 97.6448H49.3786ZM76.8096 81.565C76.6525 81.565 76.4955 81.565 76.3375 81.5631C76.1805 82.6245 75.9884 83.6878 76.8096 84.7097V81.565ZM21.7944 77.5719C22.0603 77.9782 22.2277 78.2337 22.399 78.4967C23.3242 77.6709 23.204 77.028 22.7689 76.0655C22.3848 76.6604 22.1416 77.0365 21.7944 77.5747V77.5719ZM38.3291 96.6691C38.7482 96.8002 38.9979 96.8793 39.2458 96.9576C39.2893 96.8624 39.3337 96.7681 39.3801 96.6739C38.8778 96.3204 38.3754 95.965 37.6214 95.4352C37.7321 96.3571 37.8012 96.934 37.8712 97.5138C37.9913 97.5138 38.1115 97.5138 38.2316 97.5138C38.26 97.2781 38.2874 97.0453 38.3319 96.671L38.3291 96.6691ZM23.6392 50.809C23.5701 50.7119 23.5001 50.6129 23.4311 50.5159C22.8313 50.809 22.2343 51.0994 21.6232 51.3972C21.7765 51.7045 21.9241 52.0062 22.1766 52.5162C22.7159 51.8865 23.1766 51.3492 23.6392 50.809ZM70.3567 105.108C70.1533 104.76 69.9518 104.421 69.7532 104.079C69.6605 104.118 69.5677 104.158 69.4731 104.199V105.701C70.0928 105.576 70.5677 105.482 71.0445 105.387C71.0189 105.258 70.9915 105.129 70.966 104.997C70.7531 105.036 70.5374 105.073 70.3548 105.108H70.3567ZM61.5965 107.279C61.5596 106.531 61.5341 105.966 61.4877 105.044C60.9438 105.745 60.6297 106.148 60.2844 106.592C60.7357 106.826 61.0365 106.986 61.5965 107.279ZM23.2409 107.14C23.6392 108.372 23.9192 109.242 24.343 110.561C24.4376 109.083 24.5067 108.109 23.2409 107.14ZM36.2648 80.1095C36.1882 80.4951 36.1116 80.8806 36.0359 81.2539C36.5912 81.5886 37.0264 81.8534 37.471 82.1212C37.9961 80.9334 36.1513 81.1436 36.262 80.1076L36.2648 80.1095ZM58.3933 112.864V114.735C58.9023 114.103 59.222 113.704 59.6827 113.132C59.1501 113.02 58.8474 112.958 58.3933 112.866V112.864ZM48.6332 117.533C49.3692 116.656 49.0712 116.184 48.0201 116.068L48.6332 117.533ZM74.5391 93.5612C74.435 93.2728 74.3168 92.9504 74.067 92.2632C73.4843 93.3105 73.1948 93.8317 72.6716 94.7659C73.6092 94.1617 74.1456 93.8157 74.5372 93.5612H74.5391ZM30.4203 75.2464C30.8044 74.4875 31.0343 74.0379 31.372 73.3714C30.6455 73.6109 30.1866 73.7636 29.7146 73.9201C29.9255 74.3169 30.0873 74.6195 30.4203 75.2464ZM35.0312 43.7523C35.0681 42.9218 35.4569 42.0744 34.3785 41.5324C34.8903 42.1922 33.6983 43.2056 35.0312 43.7523ZM25.7318 72.0008C25.8472 72.13 25.9607 72.2591 26.0762 72.3883C26.4952 72.1856 26.9115 71.982 27.5321 71.6803C27.0392 71.4013 26.8103 71.2721 26.5019 71.0968C26.2171 71.4286 25.9749 71.7143 25.7318 71.998V72.0008ZM73.1759 92.1058C72.84 91.2357 74.0396 90.606 72.8618 89.9603C72.9819 90.6456 71.9962 91.1782 73.1759 92.1058ZM42.1113 22.4191C41.9836 22.3739 41.854 22.3277 41.7272 22.2815C41.5739 22.5812 41.4216 22.881 41.2457 23.2251C41.4103 23.5409 41.5881 23.8802 41.8681 24.4147C41.9675 23.6002 42.0394 23.0101 42.1113 22.4191ZM46.217 56.0964C47.286 56.3066 47.7884 56.1774 47.3901 55.0679C47.0155 55.395 46.7099 55.6627 46.217 56.0964ZM64.3599 55.379C64.4573 55.215 64.5567 55.0519 64.6541 54.8879C64.2587 54.6824 63.8623 54.4769 63.4687 54.2742C63.4025 54.3845 63.3353 54.4957 63.2682 54.606L64.3599 55.3818V55.379ZM44.6249 116.952C44.6107 117.222 44.5549 117.499 44.5927 117.762C44.622 117.985 44.7592 118.196 44.9257 118.601C45.6059 117.722 44.7933 117.418 44.6249 116.952ZM60.0091 107.975C59.8492 108.02 59.6875 108.063 59.5276 108.107L59.9372 109.415C60.0697 109.376 60.2012 109.338 60.3327 109.3C60.2267 108.859 60.1179 108.416 60.011 107.975H60.0091ZM71.771 103.807C71.7039 103.807 71.6348 103.807 71.5676 103.807V105.932C71.6348 105.932 71.7039 105.932 71.771 105.932V103.807ZM48.0987 81.5075V83.2448C48.4827 82.7537 48.6748 82.5086 48.8952 82.2277C48.601 81.9618 48.4023 81.7818 48.0987 81.5075Z" fill="#29292B"/>
<path d="M32.7655 21.024C33.0379 21.2588 33.1912 21.3907 33.4296 21.5962C32.8903 22.7538 32.2811 23.8426 31.0059 24.5373C31.5659 23.4184 32.1241 22.3023 32.7626 21.024H32.7655Z" fill="#29292B"/>
<path d="M12.9208 88.6038C12.2245 87.6282 12.2293 86.5715 12.7865 85.395C13.0646 86.1727 13.3418 86.9476 13.5878 87.6282C13.2822 88.0684 13.0826 88.3502 12.8858 88.634L12.9208 88.6038Z" fill="#29292B"/>
<path d="M57.7066 30.5722C56.0188 30.9898 55.2393 29.6955 54.1069 29.0102C54.3737 28.9669 54.7067 28.7981 54.894 28.8999C55.8041 29.3892 56.6735 29.9472 57.7066 30.5722Z" fill="#29292B"/>
<path d="M30.4694 26.3802C30.1336 26.6733 29.7978 26.9693 29.4619 27.2616C29.636 26.4773 29.4837 25.5129 30.6889 25.2754C30.8024 25.4074 30.9689 25.5987 31.1354 25.792C30.8762 26.021 30.6728 26.2011 30.4694 26.3802Z" fill="#29292B"/>
<path d="M12.8857 88.634C13.18 89.0281 13.4742 89.423 13.7428 89.7878C13.5669 90.1838 13.4344 90.4797 13.3029 90.7767L13.3559 90.7267C12.6388 90.1357 12.9974 89.3259 12.9207 88.6067L12.8857 88.6359V88.634Z" fill="#29292B"/>
<path d="M59.875 33.2135C59.6527 32.7365 59.4304 32.2567 59.2109 31.7788C59.9517 32.0211 60.3518 32.4179 59.875 33.2135Z" fill="#29292B"/>
<path d="M28.6966 129.049C28.5433 128.821 28.4393 128.667 28.3579 128.544C28.4809 128.41 28.5594 128.243 28.6521 128.235C29.0485 128.205 29.4458 128.222 30.2935 128.222C29.495 128.635 29.1109 128.835 28.6966 129.048V129.049Z" fill="#29292B"/>
<path d="M10.1763 73.8579C10.3011 74.497 10.426 75.1361 10.6389 76.2268C9.63893 75.2493 10.0344 74.5338 10.1763 73.8579Z" fill="#29292B"/>
<path d="M10.4214 78.1837V76.4436C11.0741 77.0507 11.0789 77.5786 10.4214 78.1837Z" fill="#29292B"/>
<path d="M14.7542 99.1287C14.6965 98.6856 14.6407 98.2445 14.583 97.8014C14.7003 97.7807 14.8167 97.758 14.9349 97.7373C15.0229 98.1851 15.1109 98.6347 15.2008 99.0825L14.7542 99.1287Z" fill="#29292B"/>
<path d="M13.3031 90.7748C13.5482 90.8144 13.796 90.853 14.2009 90.9199C13.9833 91.4601 13.8216 91.8617 13.6598 92.2604C13.5576 92.2463 13.4554 92.2331 13.3542 92.2208V90.7239L13.3003 90.7748H13.3031Z" fill="#29292B"/>
<path d="M38.5308 110.315C39.2601 110.174 39.9886 110.033 40.718 109.89C40.7662 110.633 40.8173 111.376 40.8731 112.195C40.1768 112.728 39.4825 112.357 38.5327 112.082V110.315H38.5308Z" fill="#29292B"/>
<path d="M39.2858 117.064C40.0123 118.744 38.4892 119.911 38.8714 121.305C38.475 119.909 38.2414 118.534 39.2858 117.064Z" fill="#29292B"/>
<path d="M33.1212 96.6994C32.932 95.8613 32.74 95.0243 32.5498 94.1844C32.6425 94.1589 32.7324 94.1363 32.8251 94.1108C33.1099 94.9507 33.3927 95.7878 33.6775 96.6277C33.492 96.6503 33.3066 96.6739 33.1212 96.6965V96.6994Z" fill="#29292B"/>
<path d="M69.1419 83.4389C68.6329 82.4651 70.0557 81.6809 69.6092 80.709V83.4361C69.4541 83.4361 69.2989 83.4361 69.1419 83.4361V83.4389Z" fill="#29292B"/>
</g>
<defs>
<clipPath id="clip0_28_406">
<rect width="91" height="139" fill="white"/>
</clipPath>
</defs>
</svg>
