<svg width="94" height="107" viewBox="0 0 94 107" fill="none" xmlns="http://www.w3.org/2000/svg">
<g clip-path="url(#clip0_86_214)">
<mask id="mask0_86_214" style="mask-type:luminance" maskUnits="userSpaceOnUse" x="0" y="0" width="94" height="107">
<path d="M0.0810547 0H93.8865V107H0.0810547V0Z" fill="white"/>
</mask>
<g mask="url(#mask0_86_214)">
<path fill-rule="evenodd" clip-rule="evenodd" d="M39.2624 99.0819C39.2624 109.992 52.3228 110.227 52.3228 95.5008V91.9198C52.3228 84.8267 39.2624 85.0625 39.2624 99.0819ZM72.5193 29.9713C72.5193 35.4428 73.4282 34.7341 80.8337 34.7341C88.542 20.1075 72.5193 22.5742 72.5193 29.9713ZM84.4014 57.3649H90.3266C92.5474 54.0552 92.2108 53.7513 93.8942 50.2044L90.3266 45.4415C82.2137 45.4415 77.8707 44.9693 84.4014 57.3649ZM17.8875 19.2297C17.8875 33.2142 40.0029 12.1025 27.3796 12.1025H21.4559C20.2096 13.9264 17.8875 16.4264 17.8875 19.2297ZM41.6516 13.2851C49.0239 15.2439 53.5005 12.9478 53.5005 3.75942C53.5005 -3.73843 41.6516 0.989503 41.6516 13.2851ZM64.2049 12.1025C64.2049 17.7098 69.8938 16.8653 73.6977 16.8653C85.7821 -1.23915 64.2049 4.53642 64.2049 12.1025ZM10.75 81.2124V84.7934C13.7454 86.4637 16.9207 87.6455 20.276 88.3395L25.0228 82.3949C19.8389 72.5994 10.75 76.1797 10.75 81.2124ZM64.2049 70.4685C64.2049 75.4329 69.9579 76.4464 73.6977 76.4464C76.0537 72.9336 76.1209 72.9336 77.2653 68.108C77.0638 67.8676 76.7943 67.2627 76.7271 67.4667L73.7981 64.4269C73.6305 64.2912 73.2931 63.9872 73.1587 63.8864C73.0243 63.7507 72.7209 63.5142 72.5201 63.3459C68.9857 64.1563 64.2103 66.4198 64.2103 70.4731L64.2049 70.4685ZM53.4981 47.8369C53.4981 50.2013 53.8688 49.8298 54.8109 51.3156L57.0665 53.7823C66.6265 51.5521 68.0397 39.4938 61.8126 39.4938C55.5183 39.4938 53.4981 45.067 53.4981 47.8369ZM38.084 70.4716V72.87C41.1813 74.4907 42.559 75.7408 46.2641 74.0518C48.9228 72.8359 58.6179 62.1277 41.6516 62.1277C39.9018 64.7293 38.084 66.1135 38.084 70.4716ZM38.084 29.9713C38.084 35.8825 39.2624 28.8228 39.2624 34.7341C43.3018 35.8151 43.5034 37.2 51.1444 33.5515C55.4866 14.8057 38.084 24.4655 38.084 29.9713ZM26.2019 57.3649C33.9774 57.3649 33.338 54.9331 33.338 47.84C29.7696 45.4415 30.9148 44.2621 26.2019 44.2621C20.2768 44.2621 14.6226 57.368 26.2019 57.368V57.3649ZM0.0810547 41.8954C0.0810547 47.7051 0.959834 54.6632 9.10205 49.867C9.5399 49.5964 13.1075 46.6916 13.1407 46.6598C17.079 42.3351 15.4975 39.7691 14.3191 34.7356C9.20553 34.2967 10.1453 32.9118 5.56763 35.3769C3.17763 36.6595 0.0810547 38.9223 0.0810547 41.8954Z" fill="#F1C3A2"/>
</g>
</g>
<defs>
<clipPath id="clip0_86_214">
<rect width="94" height="107" fill="white"/>
</clipPath>
</defs>
</svg>
