<svg width="392" height="393" viewBox="0 0 392 393" fill="none" xmlns="http://www.w3.org/2000/svg">
<g clip-path="url(#clip0_61_1686)">
<path d="M345.777 32.715C350.924 24.1612 356.066 15.6047 361.21 7.05094C365.208 0.409369 375.203 -1.96608 381.638 2.53166C388.347 7.22869 390.416 15.866 386.155 22.96C381.01 31.5165 375.868 40.0703 370.724 48.6187C366.724 55.2683 356.729 57.6411 350.296 53.138C343.584 48.4409 341.513 39.8036 345.777 32.715Z" fill="#F1C3A2" fill-opacity="0.46"/>
<path d="M276.161 34.4629C279.477 25.0446 285.289 16.2807 293.389 10.3205C299.602 5.7393 308.731 4.57581 314.295 11.1312C319.004 16.6712 320.14 27.1372 313.485 32.0363C312.111 33.0435 310.786 34.1101 309.549 35.3005C308.997 35.8337 308.488 36.4101 307.958 36.9407C307.085 38.1984 306.212 39.4589 305.458 40.8082C305.202 41.2768 305.03 41.5031 304.906 41.6512C304.677 42.3191 304.505 43.0975 304.378 43.4503C301.808 50.7463 293.397 55.8393 285.763 53.006C278.415 50.2804 273.459 42.2006 276.209 34.3929" fill="#F1C3A2" fill-opacity="0.46"/>
<path d="M283.019 99.3651C289.866 92.2226 295.719 84.0378 300.777 74.9803C304.672 68.0048 314.745 66.3404 321.202 70.4638C328.28 74.975 329.627 83.8896 325.721 90.8894C319.556 101.926 311.858 111.959 303.115 121.086C297.588 126.855 287.404 125.886 282.208 120.276C276.495 114.105 277.473 105.156 283.019 99.3651Z" fill="#F1C3A2" fill-opacity="0.46"/>
<path d="M217.098 106.505C222.41 96.5263 229.308 87.5147 237.213 79.4484C242.64 73.9084 253.124 74.3662 258.12 80.2591C263.52 86.6205 263.103 95.2524 257.312 101.161C255.728 102.767 254.185 104.41 252.711 106.117C252.429 106.473 252.135 106.847 251.852 107.202C251.095 108.21 250.333 109.185 249.6 110.208C246.813 114.073 244.345 118.132 242.102 122.336C238.455 129.198 227.875 131.194 221.677 126.855C214.682 121.967 213.263 113.742 217.16 106.435" fill="#F1C3A2" fill-opacity="0.46"/>
<path d="M352.939 106.68C356.823 101.444 360.707 96.2113 364.591 90.9783C369.197 84.765 378.153 81.657 385.016 86.459C391.205 90.779 394.456 100.24 389.533 106.879C385.651 112.115 381.767 117.356 377.883 122.589C373.277 128.8 364.322 131.908 357.459 127.108C351.269 122.78 348.018 113.319 352.939 106.68Z" fill="#F1C3A2" fill-opacity="0.46"/>
<path d="M280.341 186.915C287.625 177.16 294.913 167.41 302.199 157.661C306.977 151.267 315.54 148.627 322.624 153.141C328.986 157.203 331.946 167.141 327.144 173.572C319.855 183.322 312.572 193.069 305.286 202.821C300.502 209.218 291.945 211.862 284.858 207.338C278.496 203.287 275.536 193.344 280.341 186.915Z" fill="#F1C3A2" fill-opacity="0.46"/>
<path d="M214.914 183.936C222.636 176.993 228.651 168.668 232.316 159.193C235.193 151.752 243.015 147.09 250.928 149.635C258.209 151.981 263.372 160.763 260.482 168.251C254.934 182.598 246.484 195.35 235.01 205.652C220.829 218.391 200.735 196.678 214.914 183.936Z" fill="#F1C3A2" fill-opacity="0.46"/>
<path d="M149.666 196.096C153.971 183.61 161.106 172.481 170.727 163.435C176.37 158.121 186.5 158.188 191.639 164.24C196.862 170.397 196.846 179.479 190.826 185.142C189.199 186.672 187.618 188.264 186.163 189.961C185.913 190.308 185.366 191.014 185.115 191.361C184.404 192.342 183.723 193.316 183.071 194.326C181.894 196.152 180.825 198.024 179.839 199.945C179.71 200.214 179.642 200.297 179.632 200.316C179.502 200.518 179.494 200.709 179.357 201.1C178.848 202.449 178.317 203.782 177.851 205.145C175.33 212.463 166.835 217.515 159.234 214.701C151.851 211.965 146.981 203.914 149.683 196.088" fill="#F1C3A2" fill-opacity="0.46"/>
<path d="M212.791 247.675C219.223 240.882 225.655 234.093 232.082 227.303C237.418 221.669 248.057 222.307 252.991 228.113C258.465 234.567 257.867 243.007 252.183 249.021C245.751 255.808 239.322 262.603 232.89 269.396C227.557 275.025 216.917 274.389 211.98 268.58C206.504 262.132 207.105 253.686 212.791 247.675Z" fill="#F1C3A2" fill-opacity="0.46"/>
<path d="M200.148 48.0692L221.138 22.9196C226.261 16.7817 237.111 18.3922 242.042 23.7249C248.06 30.2237 246.373 38.4812 241.234 44.6353C234.237 53.0167 227.244 61.4008 220.247 69.7822C215.126 75.9202 204.277 74.3123 199.34 68.9716C193.325 62.4781 195.011 54.2233 200.148 48.0692Z" fill="#F1C3A2" fill-opacity="0.46"/>
<path d="M139.684 121.913C145.314 112.075 152.842 103.2 161.685 96.0982C167.912 91.0968 176.9 90.7574 182.592 96.9088C187.731 102.457 188.041 112.794 181.784 117.819C173.859 124.178 169.623 129.091 164.629 137.817C160.659 144.755 150.709 146.489 144.201 142.336C137.185 137.862 135.701 128.867 139.684 121.913Z" fill="#F1C3A2" fill-opacity="0.46"/>
<path d="M282.849 242.862C291.81 235.197 300.774 227.529 309.738 219.859C324.202 207.489 344.328 229.18 329.837 241.58C320.873 249.245 311.912 256.913 302.945 264.578C288.481 276.958 268.358 255.256 282.849 242.862Z" fill="#F1C3A2" fill-opacity="0.46"/>
<path d="M95.0451 259.619C98.4874 257.141 101.709 254.413 104.612 251.321C105.113 250.783 105.606 250.225 106.102 249.67C106.231 249.468 106.487 249.156 106.724 248.827C108.092 246.91 109.399 244.979 110.608 242.951C114.589 236.298 124.62 233.944 131.038 238.431C137.767 243.139 139.8 251.76 135.558 258.862C130.351 267.575 123.399 275.41 115.147 281.338C108.884 285.843 99.8422 287.128 94.2424 280.53C89.5854 275.041 88.341 264.44 95.0532 259.622" fill="#F1C3A2" fill-opacity="0.46"/>
<path d="M66.1197 208.972C74.0548 199.129 81.9871 189.29 89.9221 179.446C94.9293 173.23 103.088 170.297 110.35 174.927C116.51 178.856 119.906 189.096 114.869 195.347C106.934 205.194 98.9992 215.04 91.0668 224.879C86.057 231.095 77.9011 234.031 70.6394 229.395C64.4794 225.469 61.0802 215.229 66.1197 208.972Z" fill="#F1C3A2" fill-opacity="0.46"/>
<path d="M174.988 336.293C182.234 332.913 188.038 327.608 190.845 320.974C193.961 313.632 201.376 308.825 209.462 311.421C216.551 313.708 222.148 322.644 219.016 330.04C213.012 344.209 202.933 355.865 188.83 362.453C181.593 365.822 172.688 363.598 168.828 356.296C165.235 349.485 167.71 339.684 174.988 336.293Z" fill="#F1C3A2" fill-opacity="0.46"/>
<path d="M43.4675 321.214C49.9535 307.139 59.0629 296.296 71.9162 287.605C78.5368 283.134 88.4731 287.244 91.9154 293.762C95.9879 301.47 92.4029 309.269 85.7581 313.764C80.8128 317.104 74.2434 324.618 71.6334 330.271C68.2962 337.519 61.2742 342.483 53.0187 339.827C46.1233 337.608 40.098 328.51 43.4675 321.214Z" fill="#F1C3A2" fill-opacity="0.46"/>
<path d="M78.6878 367.174C86.6605 357.853 94.6333 348.526 102.606 339.213C107.802 333.14 118.535 334.643 123.513 340.021C129.474 346.463 127.909 354.839 122.705 360.929C114.732 370.247 106.757 379.571 98.784 388.89C93.5882 394.966 82.8573 393.461 77.8771 388.077C71.9164 381.64 73.4813 373.258 78.6878 367.174Z" fill="#F1C3A2" fill-opacity="0.46"/>
<path d="M2.82561 272.525C6.70963 267.289 10.5936 262.056 14.4777 256.821C19.0835 250.607 28.0421 247.499 34.9024 252.304C41.0921 256.624 44.3458 266.086 39.4221 272.724C35.5408 277.957 31.6568 283.199 27.7727 288.434C23.1669 294.645 14.2083 297.753 7.34529 292.951C1.15834 288.625 -2.09539 279.164 2.82561 272.525Z" fill="#F1C3A2" fill-opacity="0.46"/>
<path d="M132.345 293.649C135.66 284.233 141.476 275.466 149.572 269.506C155.786 264.928 164.917 263.761 170.482 270.32C175.187 275.86 176.327 286.326 169.671 291.225C168.295 292.232 166.97 293.298 165.733 294.486C165.181 295.022 164.672 295.598 164.141 296.126C163.269 297.384 162.399 298.647 161.645 299.994C161.386 300.465 161.214 300.691 161.092 300.84C160.861 301.507 160.691 302.286 160.562 302.639C157.992 309.935 149.58 315.025 141.947 312.194C134.599 309.466 129.646 301.389 132.396 293.581" fill="#F1C3A2" fill-opacity="0.46"/>
</g>
<defs>
<clipPath id="clip0_61_1686">
<rect width="392" height="393" fill="white" transform="matrix(-1 0 0 1 392 0)"/>
</clipPath>
</defs>
</svg>
