<svg width="65" height="57" viewBox="0 0 65 57" fill="none" xmlns="http://www.w3.org/2000/svg">
<g clip-path="url(#clip0_58_65)">
<mask id="mask0_58_65" style="mask-type:luminance" maskUnits="userSpaceOnUse" x="37" y="27" width="28" height="30">
<path d="M37.4819 27.663H65.0002V57H37.4819V27.663Z" fill="white"/>
</mask>
<g mask="url(#mask0_58_65)">
<mask id="mask1_58_65" style="mask-type:luminance" maskUnits="userSpaceOnUse" x="30" y="25" width="37" height="37">
<path d="M38.45 25.3959L66.8846 34.3748L58.5455 61.2165L30.1108 52.2376L38.45 25.3959Z" fill="white"/>
</mask>
<g mask="url(#mask1_58_65)">
<mask id="mask2_58_65" style="mask-type:luminance" maskUnits="userSpaceOnUse" x="30" y="25" width="37" height="37">
<path d="M38.45 25.3959L66.8846 34.3748L58.5455 61.2165L30.1108 52.2376L38.45 25.3959Z" fill="white"/>
</mask>
<g mask="url(#mask2_58_65)">
<path d="M60.3455 34.9802C61.4349 35.3244 62.1074 36.1415 62.3628 37.432C62.4126 37.6832 62.4501 37.9519 62.4748 38.2379C62.3718 39.5537 61.5317 40.9534 59.9547 42.437L59.9543 42.4374C59.3501 43.0062 58.6767 43.5464 57.9337 44.0571H57.9333C53.4174 46.8191 50.6386 48.6576 49.5966 49.5728H49.5962C48.2865 50.5589 46.8982 51.9818 45.4312 53.8407C45.3644 53.7091 45.2924 53.5642 45.2154 53.4064C43.0395 48.7506 41.7925 45.9501 41.4733 45.0046C41.4667 44.9847 41.4597 44.9648 41.4519 44.9457C40.5709 42.7181 40.0849 40.8683 39.9935 39.3955C39.9931 39.3935 39.9931 39.3914 39.9931 39.3893C39.6574 34.4114 40.7085 31.3596 43.1462 30.2348C43.5647 30.1683 43.9563 30.1928 44.3204 30.3079C45.7108 30.7467 46.7046 32.5056 47.3022 35.5835C47.6922 37.5923 47.9027 40.1097 47.9332 43.1353C47.9385 43.678 48.2944 44.1343 48.7816 44.2884C48.8998 44.3253 49.0258 44.3448 49.1559 44.3436C49.8248 44.337 50.3614 43.7847 50.3544 43.1108C50.3528 42.9419 50.3503 42.7741 50.3478 42.608H50.3474C50.3614 42.5702 50.3738 42.5312 50.3845 42.4909C51.3338 38.8525 53.6777 36.3421 57.416 34.9594H57.4156C58.6001 34.7307 59.5766 34.7377 60.3455 34.9802ZM45.6087 54.5503C45.6214 54.554 45.6338 54.5582 45.6462 54.5627C45.6956 54.5818 45.7458 54.6051 45.7973 54.6325C45.7326 54.598 45.6647 54.5698 45.5951 54.5478C45.5374 54.5295 45.4781 54.5158 45.418 54.5063C45.4864 54.5171 45.5498 54.5316 45.6087 54.5503ZM61.299 32.6123C60.1075 32.2361 58.6261 32.2261 56.8543 32.5828C56.7954 32.5948 56.7377 32.611 56.6809 32.6314C53.7864 33.6827 51.5715 35.297 50.0369 37.4748C49.9397 36.6298 49.8203 35.843 49.6786 35.1147C48.8854 31.0282 47.3928 28.6391 45.2018 27.947C44.4114 27.6978 43.5305 27.6688 42.5589 27.8606C42.4761 27.8768 42.3954 27.9017 42.318 27.9349C38.7382 29.4683 37.1579 33.3414 37.5772 39.555C37.6851 41.2794 38.2234 43.3687 39.192 45.8226C39.5553 46.8818 40.8337 49.7579 43.0264 54.4506C43.0292 54.4565 43.0321 54.4627 43.035 54.4685C43.5004 55.4231 43.8694 56.0587 44.1429 56.3764C44.3336 56.5985 44.5432 56.7542 44.7714 56.8439C44.8439 56.878 44.9155 56.9058 44.9868 56.9282C45.5263 57.0988 46.0255 56.9402 46.4834 56.4528C46.516 56.4183 46.546 56.3822 46.5745 56.344C48.2116 54.1367 49.714 52.5228 51.0805 51.5022C51.1089 51.4811 51.1365 51.4582 51.1633 51.4346C52.0657 50.6278 54.7514 48.8582 59.2195 46.1257C59.2372 46.1149 59.2549 46.1033 59.2722 46.0916C60.1272 45.5054 60.9052 44.8821 61.6066 44.2219C63.6898 42.2622 64.7869 40.2866 64.8977 38.2944C64.9006 38.24 64.9002 38.1852 64.8957 38.1308C64.8635 37.7164 64.8108 37.3245 64.7375 36.9541C64.2787 34.6385 63.1325 33.1911 61.299 32.6123Z" fill="#CF1919"/>
</g>
</g>
</g>
<mask id="mask3_58_65" style="mask-type:luminance" maskUnits="userSpaceOnUse" x="44" y="33" width="19" height="23">
<path d="M44.0186 33.828H62.8912V55.0867H44.0186V33.828Z" fill="white"/>
</mask>
<g mask="url(#mask3_58_65)">
<mask id="mask4_58_65" style="mask-type:luminance" maskUnits="userSpaceOnUse" x="30" y="25" width="37" height="37">
<path d="M38.4495 25.3959L66.8841 34.3748L58.545 61.2165L30.1104 52.2376L38.4495 25.3959Z" fill="white"/>
</mask>
<g mask="url(#mask4_58_65)">
<mask id="mask5_58_65" style="mask-type:luminance" maskUnits="userSpaceOnUse" x="30" y="25" width="37" height="37">
<path d="M38.4495 25.3959L66.8841 34.3748L58.545 61.2165L30.1104 52.2376L38.4495 25.3959Z" fill="white"/>
</mask>
<g mask="url(#mask5_58_65)">
<path d="M57.1745 39.6131L57.1086 39.6767C56.9315 39.8187 56.7021 40.0051 56.4199 40.2364C56.7255 39.971 56.9772 39.763 57.1745 39.6131ZM60.5821 34.1926L60.3144 34.117C58.5068 33.6931 56.6407 33.9771 54.7165 34.9682C53.4999 35.5598 52.3237 36.3786 51.1882 37.4237C49.7854 38.8147 48.958 39.741 48.706 40.2027C47.9313 41.3072 47.2612 42.6018 46.6961 44.0862C45.6443 47.0462 44.8609 49.5258 44.3453 51.5242C43.8745 53.4188 44.1068 54.5636 45.0421 54.9576C45.4256 55.076 45.8588 54.9825 46.3424 54.6769C46.9087 54.0317 47.4243 53.1917 47.8897 52.1574C48.316 52.1915 48.6471 52.101 48.8827 51.8855L52.224 49.089C54.0172 47.7616 56.1317 46.1049 58.5673 44.1194C60.2736 42.7114 61.2007 41.8457 61.3486 41.5214C61.5047 41.3761 61.8004 40.9123 62.2361 40.1305C62.3906 39.8141 62.5162 39.4935 62.613 39.168C62.8181 38.4302 62.8881 37.7389 62.8242 37.094C62.7909 36.7586 62.7279 36.4501 62.6356 36.1681L62.475 35.7654C62.3531 35.51 62.2015 35.2817 62.0207 35.0803C61.6591 34.6771 61.1797 34.3811 60.5821 34.1926Z" fill="#CF1919"/>
</g>
</g>
</g>
<mask id="mask6_58_65" style="mask-type:luminance" maskUnits="userSpaceOnUse" x="51" y="35" width="10" height="11">
<path d="M51.0825 35.8475H60.677V45.7328H51.0825V35.8475Z" fill="white"/>
</mask>
<g mask="url(#mask6_58_65)">
<mask id="mask7_58_65" style="mask-type:luminance" maskUnits="userSpaceOnUse" x="30" y="25" width="37" height="37">
<path d="M38.4495 25.3959L66.8841 34.3748L58.545 61.2164L30.1104 52.2375L38.4495 25.3959Z" fill="white"/>
</mask>
<g mask="url(#mask7_58_65)">
<mask id="mask8_58_65" style="mask-type:luminance" maskUnits="userSpaceOnUse" x="30" y="25" width="37" height="37">
<path d="M38.4495 25.3959L66.8841 34.3748L58.545 61.2164L30.1104 52.2375L38.4495 25.3959Z" fill="white"/>
</mask>
<g mask="url(#mask8_58_65)">
<path d="M59.736 35.9883C59.2657 35.8396 58.7332 35.9916 58.4148 36.4085C58.0977 36.8233 57.5829 37.4037 56.8704 38.1495C55.7609 39.2282 54.3272 40.6914 52.5686 42.5391C52.2408 42.8687 51.8833 43.2088 51.4965 43.5592C50.999 44.0093 50.9578 44.7812 51.4047 45.2828C51.5554 45.4518 51.742 45.5684 51.9426 45.632C52.3371 45.7565 52.7844 45.6739 53.1143 45.3754C53.5389 44.9909 53.9322 44.6164 54.2947 44.2514C54.3004 44.2452 54.3062 44.2393 54.312 44.2331C56.0611 42.3958 57.4807 40.9471 58.5709 39.8875C58.5816 39.8772 58.5919 39.8668 58.6022 39.856C59.3827 39.0393 59.9597 38.387 60.3332 37.8983C60.7414 37.3643 60.6425 36.5978 60.1129 36.1864C59.9963 36.0958 59.8687 36.0302 59.736 35.9883Z" fill="#CF1919"/>
</g>
</g>
</g>
<mask id="mask9_58_65" style="mask-type:luminance" maskUnits="userSpaceOnUse" x="39" y="29" width="11" height="24">
<path d="M39.2739 29.5762H49.2901V52.9608H39.2739V29.5762Z" fill="white"/>
</mask>
<g mask="url(#mask9_58_65)">
<mask id="mask10_58_65" style="mask-type:luminance" maskUnits="userSpaceOnUse" x="30" y="25" width="37" height="37">
<path d="M38.4495 25.3959L66.8841 34.3748L58.545 61.2164L30.1104 52.2375L38.4495 25.3959Z" fill="white"/>
</mask>
<g mask="url(#mask10_58_65)">
<mask id="mask11_58_65" style="mask-type:luminance" maskUnits="userSpaceOnUse" x="30" y="25" width="37" height="37">
<path d="M38.4495 25.3959L66.8841 34.3748L58.545 61.2164L30.1104 52.2375L38.4495 25.3959Z" fill="white"/>
</mask>
<g mask="url(#mask11_58_65)">
<path d="M44.5581 29.7722C43.8653 29.5533 43.0935 29.6376 42.2431 30.025C41.9651 30.1517 41.6846 30.3157 41.4012 30.5162C41.374 30.5353 41.3481 30.5552 41.323 30.5764C39.6229 32.0018 38.9948 34.5002 39.4396 38.0718C39.7019 40.4256 40.2336 42.8446 41.0355 45.3284C41.218 46.0131 41.9049 47.681 43.0956 50.3321C43.2743 51.16 43.4308 51.7206 43.5647 52.0133C43.7401 52.3978 43.9905 52.6569 44.3155 52.7918C44.3707 52.8163 44.4255 52.8371 44.4806 52.8545C44.7776 52.9483 45.0696 52.9363 45.3566 52.8184C46.0716 52.5244 46.3117 51.9585 46.0766 51.1206C46.0465 51.0139 46.0053 50.8955 45.953 50.766C45.9464 50.7494 45.9394 50.7328 45.932 50.7166C45.7421 50.301 45.563 49.9057 45.3941 49.5316C45.2553 48.8398 45.0906 47.9193 44.9007 46.7692C44.8233 46.2996 44.4893 45.9375 44.0676 45.8042C43.9667 45.7727 43.8604 45.7536 43.7517 45.7499C43.5486 45.2433 43.4222 44.8891 43.3719 44.6873C43.3649 44.6595 43.3571 44.6321 43.3485 44.6051C42.5907 42.2638 42.0894 39.9917 41.8448 37.789C41.844 37.7836 41.8436 37.7778 41.8427 37.7724C41.5112 35.1147 41.8419 33.3521 42.8345 32.4847C42.9782 32.3859 43.1133 32.3074 43.2406 32.2497C43.4214 32.1671 43.5976 32.153 43.7694 32.2074C44.1264 32.3199 44.4629 32.7289 44.7792 33.4339C44.7842 33.4447 44.7891 33.4559 44.7945 33.4671C45.1223 34.1422 45.3394 34.7543 45.446 35.3028H45.4456C46.1931 40.2903 46.6803 43.1099 46.9069 43.761C46.9303 43.8283 46.955 43.8901 46.9814 43.9462C47.1321 44.2667 47.4031 44.4909 47.7145 44.5889C47.9946 44.6774 48.3072 44.6641 48.5938 44.5275C49.1852 44.2455 49.4451 43.543 49.1881 42.9418C49.0085 42.407 48.558 39.7306 47.836 34.9112C47.8335 34.8954 47.8311 34.8797 47.8282 34.8639C47.6832 34.1024 47.4003 33.2857 46.9793 32.4137H46.9789C46.3224 30.9547 45.5152 30.0744 44.5581 29.7722Z" fill="#CF1919"/>
</g>
</g>
</g>
<mask id="mask12_58_65" style="mask-type:luminance" maskUnits="userSpaceOnUse" x="40" y="30" width="8" height="21">
<path d="M40.6445 30.8517H47.9195V50.3035H40.6445V30.8517Z" fill="white"/>
</mask>
<g mask="url(#mask12_58_65)">
<mask id="mask13_58_65" style="mask-type:luminance" maskUnits="userSpaceOnUse" x="30" y="25" width="37" height="37">
<path d="M38.4495 25.3959L66.8841 34.3748L58.545 61.2164L30.1104 52.2375L38.4495 25.3959Z" fill="white"/>
</mask>
<g mask="url(#mask13_58_65)">
<mask id="mask14_58_65" style="mask-type:luminance" maskUnits="userSpaceOnUse" x="30" y="25" width="37" height="37">
<path d="M38.4495 25.3959L66.8841 34.3748L58.545 61.2164L30.1104 52.2375L38.4495 25.3959Z" fill="white"/>
</mask>
<g mask="url(#mask14_58_65)">
<path d="M43.8992 32.9191C43.8341 33.0133 43.7678 33.0951 43.699 33.164C43.6764 33.1869 43.6533 33.2085 43.6303 33.2284L43.5953 33.2579L43.566 33.2512C43.5792 33.2388 43.5924 33.2272 43.606 33.2159L43.6784 33.1595L43.7032 33.1379C43.7196 33.1238 43.7357 33.1088 43.7509 33.0939C43.7666 33.0785 43.7818 33.0627 43.7966 33.047L43.8185 33.0225C43.8469 32.9897 43.8741 32.9552 43.8992 32.9191ZM43.3243 30.9294L43.1612 30.8879C42.6912 30.8538 42.3564 30.9655 42.1571 31.2238L41.6731 31.7415C41.4528 32.0226 41.2716 32.3585 41.1299 32.7501C40.7049 33.9247 40.6332 35.5955 40.9153 37.7625C40.9611 38.0681 41.0912 38.3176 41.3054 38.5107C41.2736 39.7721 41.4264 41.1776 41.7642 42.7276C42.1019 44.2775 42.6245 45.972 43.3317 47.811L43.8967 49.2173C43.926 49.3103 44.0075 49.4353 44.1422 49.5918C44.2657 49.7193 44.4082 49.8148 44.5701 49.8791C44.7731 49.9614 44.9931 49.9829 45.2295 49.9439C45.4375 50.1025 45.6067 50.1984 45.7373 50.2308C46.0857 50.2998 46.3328 50.2852 46.479 50.1868C46.671 50.1046 46.8695 49.9543 47.0746 49.7359C47.3151 49.3975 47.4601 49.126 47.5091 48.9208C47.5972 48.6659 47.6672 48.3773 47.7191 48.0551C47.8233 47.4107 47.8554 46.6322 47.8159 45.7196C47.6199 43.0909 47.4374 41.1954 47.269 40.0324C46.9992 37.5657 46.4774 35.4585 45.7039 33.7109C44.9259 32.1306 44.1327 31.2034 43.3243 30.9294Z" fill="#CF1919"/>
</g>
</g>
</g>
<mask id="mask15_58_65" style="mask-type:luminance" maskUnits="userSpaceOnUse" x="0" y="0" width="43" height="44">
<path d="M0.0527344 0.0140991H42.2263V43.281H0.0527344V0.0140991Z" fill="white"/>
</mask>
<g mask="url(#mask15_58_65)">
<path d="M33.657 3.93656C35.4139 3.93656 36.7747 4.82511 37.7392 6.60221C37.927 6.94808 38.1045 7.3255 38.2717 7.73407H38.2713C38.7207 9.71504 38.1255 12.161 36.486 15.0721L36.4855 15.0729C35.8579 16.1886 35.1149 17.2943 34.2566 18.3896H34.2562C28.8828 24.5418 25.6395 28.5319 24.5262 30.3593H24.5258C23.0518 32.4162 21.6618 35.15 20.3554 38.5617C20.1968 38.399 20.0251 38.22 19.8402 38.0236H19.8398C14.5186 32.1932 11.4083 28.6577 10.508 27.4167C10.4895 27.3909 10.4697 27.3652 10.4496 27.3403C8.13907 24.477 6.58063 21.9849 5.77422 19.864C5.77298 19.8607 5.77175 19.8578 5.77051 19.8545C3.00534 12.6975 3.15649 7.72701 6.22437 4.94344C6.8092 4.65197 7.39527 4.50623 7.98298 4.50623C10.2255 4.50623 12.4886 6.62878 14.7715 10.8735C16.2612 13.6433 17.7187 17.2436 19.1446 21.6747C19.4003 22.469 20.1314 22.9743 20.9172 22.9743C21.1079 22.9743 21.3014 22.9449 21.4925 22.8822C22.4719 22.562 23.0081 21.502 22.6902 20.5151C22.6107 20.2676 22.5308 20.0226 22.4509 19.7797C22.4542 19.7174 22.4542 19.6543 22.4513 19.5908C22.1857 13.8053 24.483 9.02994 29.3436 5.26523H29.3432C30.9787 4.37959 32.4165 3.93656 33.657 3.93656ZM20.9398 39.5213C20.9604 39.5213 20.9806 39.5217 21.0004 39.5225C21.0819 39.5275 21.1667 39.5387 21.2545 39.5549C21.1437 39.5346 21.0312 39.5242 20.9188 39.5242C20.8253 39.5242 20.7322 39.5312 20.6396 39.5454C20.745 39.5292 20.8451 39.5213 20.9398 39.5213ZM33.9766 0.0153198C32.0544 0.0153198 29.8737 0.688375 27.4339 2.03407C27.3528 2.07891 27.2749 2.12957 27.2016 2.18604C23.429 5.07299 20.9122 8.4719 19.6515 12.3832C19.1227 11.187 18.5886 10.0866 18.0482 9.08226C15.0178 3.44703 11.7349 0.629415 8.20002 0.629415C6.92534 0.629415 5.61813 0.996045 4.27797 1.72848C4.16388 1.79076 4.0568 1.86466 3.95796 1.94937C-0.600412 5.8623 -1.15435 12.2852 2.29696 21.2184C3.24298 23.7018 4.98717 26.5211 7.52994 29.6771C8.54763 31.0647 11.7378 34.6965 17.101 40.573C17.108 40.5805 17.115 40.588 17.122 40.5954C18.241 41.7817 19.0733 42.5444 19.6198 42.8845C20.0016 43.122 20.3805 43.2536 20.757 43.2794H20.7565C20.8785 43.2955 20.9967 43.3034 21.1116 43.3034C21.9818 43.3034 22.6424 42.8392 23.0934 41.9104C23.1251 41.8452 23.1531 41.7775 23.177 41.709C24.5752 37.7064 26.0451 34.6388 27.5867 32.5055C27.6188 32.4611 27.6493 32.415 27.6773 32.3681C28.6353 30.7637 31.7727 26.9184 37.0893 20.8323C37.1107 20.8078 37.1317 20.7825 37.1515 20.7571C38.14 19.4995 38.9987 18.2231 39.7272 16.9281C41.8932 13.0828 42.6032 9.67144 41.8565 6.69355C41.8359 6.61217 41.8104 6.53204 41.7791 6.45398C41.5427 5.86023 41.2861 5.30883 41.0093 4.79854C39.2791 1.60973 36.9345 0.0153198 33.9766 0.0153198Z" fill="#CF1919"/>
</g>
<path d="M31.1131 12.213L31.0447 12.3375C30.8495 12.6278 30.5979 13.0085 30.289 13.4789C30.6168 12.9475 30.8915 12.5252 31.1131 12.213ZM33.6447 2.66937L33.2168 2.68266C30.3681 2.89857 27.7565 4.18115 25.3818 6.52958C23.8649 7.96371 22.5108 9.71175 21.3197 11.7737C19.8939 14.4676 19.101 16.2123 18.9417 17.0078C18.3078 18.9896 17.9141 21.2018 17.7613 23.6449C17.5673 28.4813 17.548 32.4872 17.7028 35.6624C17.8762 38.6639 18.7399 40.2371 20.2934 40.3825C20.9107 40.3787 21.5046 40.0403 22.0754 39.3669C22.6125 38.1565 22.9869 36.6834 23.1986 34.9482C23.8406 34.8008 24.2854 34.5139 24.533 34.0879L28.1655 28.4302C30.1938 25.6483 32.5439 22.2341 35.2155 18.1866C37.0796 15.327 38.0466 13.6251 38.1158 13.0799C38.2785 12.7943 38.5017 11.9759 38.7846 10.6248C38.867 10.0892 38.9053 9.55978 38.8996 9.03661C38.8633 7.85783 38.6512 6.80943 38.2628 5.89223C38.0606 5.41474 37.8271 4.9904 37.5631 4.61878L37.143 4.10185C36.8477 3.78338 36.5211 3.51806 36.1636 3.30589C35.4482 2.88154 34.6089 2.66937 33.6447 2.66937Z" fill="#CF1919"/>
<path d="M33.222 5.69958C32.4634 5.69958 31.7505 6.17002 31.4729 6.92985C31.1966 7.68678 30.7052 8.77795 29.9989 10.2038H29.9985C28.8614 12.3035 27.4228 15.1182 25.6827 18.6479H25.6823C25.3512 19.2848 24.9817 19.95 24.5732 20.6438C24.0481 21.5361 24.3397 22.6891 25.2251 23.2185C25.5233 23.3971 25.8511 23.4818 26.1744 23.4818C26.8108 23.4818 27.4306 23.1533 27.779 22.5617C28.2271 21.8002 28.634 21.0673 28.9997 20.3627C29.0055 20.3511 29.0113 20.3395 29.017 20.3278C30.7476 16.8172 32.1718 14.0308 33.29 11.9688C33.3007 11.9485 33.3114 11.9281 33.3217 11.9074C34.0956 10.3462 34.6454 9.11967 34.9708 8.22863C35.3266 7.25496 34.832 6.17458 33.8662 5.81584C33.6537 5.73695 33.4362 5.69958 33.222 5.69958Z" fill="#CF1919"/>
<path d="M8.08817 3.60901C6.97 3.60901 5.87489 4.09107 4.80243 5.05477C4.45235 5.3695 4.11463 5.74028 3.78968 6.1667C3.75879 6.20698 3.72996 6.2485 3.70237 6.29126C1.85522 9.17365 2.0735 13.1352 4.3568 18.1758C5.81599 21.512 7.70186 24.8188 10.0132 28.096C10.5939 29.0169 12.364 31.1482 15.3232 34.4902C15.9636 35.6238 16.4492 36.3749 16.7795 36.7432C17.2127 37.2261 17.6987 37.491 18.2378 37.5379H18.2374C18.3297 37.5483 18.4203 37.5537 18.5088 37.5537C18.9878 37.5537 19.4116 37.4004 19.7794 37.094C20.6958 36.3309 20.7901 35.3879 20.0619 34.266C19.9697 34.1232 19.8552 33.9687 19.7188 33.8027C19.7016 33.7815 19.6834 33.7603 19.6653 33.74C19.1966 33.2172 18.7531 32.7198 18.3342 32.2485C17.8145 31.2969 17.1526 30.0205 16.3487 28.4195C16.0204 27.7655 15.3648 27.3885 14.6844 27.3885C14.5213 27.3885 14.357 27.4101 14.1955 27.4549C13.6659 26.8047 13.3183 26.3434 13.1527 26.0702C13.1301 26.0328 13.1058 25.9959 13.0806 25.9602C10.8986 22.8723 9.12563 19.7669 7.76075 16.6445C7.75746 16.637 7.75416 16.6292 7.75046 16.6213C6.05033 12.8711 5.73156 10.1282 6.79414 8.39347C6.9597 8.18171 7.12279 8.004 7.283 7.85993C7.51117 7.65481 7.76364 7.55226 8.0404 7.55226C8.61658 7.55226 9.29778 7.99653 10.0836 8.8855C10.0964 8.89961 10.1087 8.91331 10.1219 8.92702C10.911 9.7674 11.5094 10.5658 11.9163 11.3219C15.2906 18.302 17.2926 22.2179 17.9232 23.0699C17.9883 23.1575 18.0529 23.2368 18.1172 23.307C18.4845 23.7081 18.9849 23.9115 19.487 23.9115C19.9392 23.9115 20.3922 23.7467 20.7505 23.4129C21.4906 22.7244 21.552 21.5718 20.9005 20.8082H20.9C20.3926 20.1057 18.5088 16.3825 15.249 9.63827C15.2383 9.61585 15.2272 9.59384 15.2153 9.57225C14.6551 8.52053 13.8669 7.45219 12.85 6.36642C11.2191 4.52828 9.63179 3.60901 8.08817 3.60901Z" fill="#CF1919"/>
<path d="M8.556 8.53797C8.50369 8.70655 8.44315 8.85727 8.37396 8.99013C8.3509 9.03456 8.32701 9.07691 8.30189 9.11719L8.264 9.17615L8.21828 9.1803C8.23146 9.1558 8.24587 9.13214 8.2607 9.10971L8.34101 8.99304L8.36778 8.95027C8.38549 8.92162 8.40238 8.89256 8.41803 8.86266C8.43409 8.83318 8.44933 8.80329 8.46374 8.77298L8.48434 8.72689C8.51152 8.66544 8.53541 8.60233 8.556 8.53797ZM6.80316 5.88104L6.54493 5.89641C5.83902 6.06373 5.39834 6.38345 5.22289 6.85554L4.74843 7.84C4.5528 8.35528 4.44037 8.93325 4.41072 9.57433C4.32217 11.4968 4.97948 13.9843 6.38307 17.0373C6.59023 17.465 6.895 17.771 7.29779 17.9553C7.82661 19.823 8.69273 21.8168 9.89616 23.9373C11.0996 26.0573 12.6407 28.3044 14.5192 30.6774L15.9911 32.481C16.0764 32.6044 16.2535 32.7501 16.5224 32.9178C16.7621 33.0478 17.0154 33.1221 17.2823 33.1412C17.6184 33.1678 17.9511 33.0976 18.2806 32.9303C18.6587 33.0673 18.9511 33.1292 19.1579 33.1163C19.7007 33.0565 20.0574 32.9203 20.227 32.7077C20.4717 32.4981 20.6945 32.185 20.8959 31.769C21.0952 31.1603 21.1838 30.694 21.1624 30.3701C21.1751 29.9549 21.1463 29.4982 21.0759 29.0008C20.9346 28.0063 20.6269 26.8475 20.1521 25.525C18.6641 21.7549 17.5311 19.0544 16.7527 17.4239C15.2309 13.9257 13.5027 11.0724 11.5683 8.86349C9.70424 6.90287 8.11614 5.90886 6.80316 5.88104Z" fill="#CF1919"/>
</g>
<defs>
<clipPath id="clip0_58_65">
<rect width="65" height="57" fill="white"/>
</clipPath>
</defs>
</svg>
