<svg width="77" height="71" viewBox="0 0 77 71" fill="none" xmlns="http://www.w3.org/2000/svg">
<g clip-path="url(#clip0_0_1)">
<mask id="mask0_0_1" style="mask-type:luminance" maskUnits="userSpaceOnUse" x="22" y="0" width="5" height="52">
<path d="M22.0254 0.0317993H26.7651V51.9372H22.0254V0.0317993Z" fill="white"/>
</mask>
<g mask="url(#mask0_0_1)">
<path d="M22.3297 2.75208C22.2952 2.86763 22.2738 2.98716 22.2662 3.10777C22.2724 2.99005 22.2934 2.8716 22.3297 2.75208ZM23.8675 0.0422974C22.989 0.0422974 22.2756 0.749353 22.2731 1.6236C22.2706 2.50724 22.268 3.00883 22.2655 3.12799H22.2651C22.2648 3.13666 22.2644 3.14533 22.264 3.15399C22.1951 5.27877 22.1573 6.77955 22.1511 7.65669C22.1148 10.7532 22.1003 12.8242 22.1079 13.8692C22.1119 17.4915 22.1856 21.6768 22.3283 26.4258C22.3316 27.2484 22.4561 30.2922 22.7026 35.5569C22.7029 35.5688 22.7037 35.5807 22.7044 35.5922C23.0983 41.274 23.3335 44.8598 23.4105 46.3497C23.5085 48.3824 23.5502 49.7099 23.5357 50.3317C23.5154 51.2074 24.2124 51.9336 25.0927 51.9538C25.1051 51.9542 25.1178 51.9542 25.1301 51.9542C25.9938 51.9542 26.7035 51.2681 26.7235 50.405C26.7398 49.7077 26.697 48.3034 26.5953 46.1923C26.5953 46.1905 26.5949 46.1887 26.5949 46.1869C26.5173 44.6807 26.2813 41.0855 25.8874 35.4012C25.6402 30.1207 25.5168 27.118 25.5168 26.3944C25.5168 26.3785 25.5164 26.3626 25.516 26.3467C25.3737 21.6176 25.3008 17.454 25.2964 13.8562C25.2964 13.8534 25.2964 13.8501 25.2964 13.8469C25.2891 12.8206 25.3037 10.7669 25.34 7.6863C25.34 7.68377 25.34 7.68124 25.34 7.67871C25.3458 6.83263 25.3824 5.36796 25.4503 3.28508H25.45C25.451 3.26594 25.4518 3.2468 25.4525 3.2273C25.4561 3.10308 25.459 2.57152 25.4619 1.63299C25.4645 0.756936 24.7526 0.0448252 23.8722 0.0422974C23.8708 0.0422974 23.869 0.0422974 23.8675 0.0422974Z" fill="#FF751F"/>
</g>
<path d="M2.46008 28.7676C2.42741 28.7874 2.39582 28.8055 2.36496 28.8217C2.39691 28.8048 2.42886 28.7867 2.46008 28.7676ZM47.3684 21.4847C47.2853 21.4847 47.2014 21.4912 47.1168 21.5045L27.4171 24.6094C25.1493 24.9391 22.0734 25.2966 18.1897 25.6819H18.1893C16.3619 25.8505 14.6524 25.9357 13.0608 25.9372C13.0569 25.9372 13.0525 25.9372 13.0481 25.9372C12.5501 25.9419 12.0571 25.944 11.5695 25.944C8.54333 25.944 5.71462 25.8577 3.0834 25.6855C3.04855 25.6833 3.01369 25.6822 2.97884 25.6822C2.97158 25.6822 2.96432 25.6822 2.95706 25.6822C2.31523 25.6913 1.83059 25.7292 1.50314 25.7963C1.21925 25.8548 0.974932 25.9487 0.770184 26.078C0.0263409 26.5467 -0.194017 27.5268 0.277193 28.2663C0.580684 28.7427 1.09727 29.0034 1.62548 29.0034C1.82224 29.0034 2.02081 28.9673 2.21031 28.8922C2.35008 28.873 2.59295 28.8604 2.93855 28.855C5.62096 29.0287 8.49831 29.1157 11.5703 29.1157C12.0651 29.1157 12.5653 29.1135 13.0703 29.1092C14.7598 29.1074 16.567 29.0175 18.4921 28.8391C18.4957 28.8391 18.4994 28.8387 18.503 28.8383C22.4437 28.4473 25.573 28.0833 27.8909 27.746C27.8971 27.7449 27.9032 27.7442 27.9098 27.7431L47.616 24.6372C48.4854 24.5 49.0786 23.6875 48.941 22.8226C48.8165 22.0415 48.1387 21.4847 47.3684 21.4847Z" fill="#FF751F"/>
<path d="M31.6128 15.4296C31.1329 15.4296 30.6588 15.6441 30.3448 16.0525L12.8545 38.8242C12.3197 39.52 12.4537 40.5152 13.1533 41.0471C13.4422 41.2667 13.7827 41.3729 14.12 41.3729C14.5999 41.3729 15.0744 41.1584 15.3881 40.7496L32.8787 17.9783C33.4131 17.2821 33.2795 16.2868 32.5796 15.7553C32.2906 15.5357 31.9505 15.4296 31.6128 15.4296Z" fill="#FF751F"/>
<path d="M14.489 15.9409C14.2302 15.9409 13.9681 16.0034 13.7252 16.1356C12.9527 16.5559 12.6688 17.5193 13.0913 18.2878C14.0109 19.9604 15.6151 21.8707 17.9036 24.0179C17.9211 24.0341 17.9385 24.05 17.9566 24.0656L35.9672 39.5078C36.2685 39.7659 36.6388 39.8927 37.0076 39.8927C37.4552 39.8927 37.9006 39.706 38.2158 39.342C38.7908 38.6786 38.716 37.6773 38.0491 37.1053L20.0676 21.688H20.0673C18.0369 19.7803 16.6439 18.1394 15.8892 16.7661C15.5995 16.2392 15.0528 15.9409 14.489 15.9409Z" fill="#FF751F"/>
</g>
<g clip-path="url(#clip1_0_1)">
<mask id="mask1_0_1" style="mask-type:luminance" maskUnits="userSpaceOnUse" x="61" y="41" width="4" height="30">
<path d="M61.5859 41.0183H64.2943V70.9637H61.5859V41.0183Z" fill="white"/>
</mask>
<g mask="url(#mask1_0_1)">
<path d="M61.7597 42.5877C61.74 42.6544 61.7278 42.7233 61.7234 42.7929C61.7269 42.725 61.739 42.6566 61.7597 42.5877ZM62.6384 41.0244C62.1364 41.0244 61.7288 41.4323 61.7273 41.9366C61.7259 42.4464 61.7244 42.7358 61.723 42.8046H61.7228C61.7226 42.8096 61.7224 42.8146 61.7222 42.8196C61.6827 44.0454 61.6612 44.9112 61.6576 45.4173C61.6369 47.2037 61.6286 48.3985 61.633 49.0014C61.6352 51.0912 61.6774 53.5058 61.7589 56.2456C61.7607 56.7202 61.8319 58.4762 61.9728 61.5135C61.973 61.5204 61.9734 61.5273 61.9738 61.5339C62.1989 64.8119 62.3333 66.8806 62.3773 67.7402C62.4333 68.9129 62.4571 69.6787 62.4488 70.0375C62.4372 70.5427 62.8355 70.9616 63.3386 70.9733C63.3456 70.9735 63.3529 70.9735 63.3599 70.9735C63.8534 70.9735 64.259 70.5777 64.2704 70.0798C64.2797 69.6775 64.2553 68.8673 64.1972 67.6494C64.1972 67.6483 64.197 67.6473 64.197 67.6462C64.1526 66.7773 64.0177 64.7031 63.7927 61.4237C63.6514 58.3773 63.5809 56.645 63.5809 56.2275C63.5809 56.2183 63.5807 56.2091 63.5804 56.2C63.4991 53.4716 63.4574 51.0696 63.4549 48.9939C63.4549 48.9923 63.4549 48.9904 63.4549 48.9885C63.4508 48.3964 63.4591 47.2116 63.4798 45.4344C63.4798 45.4329 63.4798 45.4314 63.4798 45.43C63.4832 44.9419 63.5041 44.0969 63.5429 42.8952H63.5427C63.5433 42.8841 63.5437 42.8731 63.5441 42.8619C63.5462 42.7902 63.5479 42.4835 63.5495 41.9421C63.551 41.4366 63.1442 41.0258 62.6411 41.0244C62.6403 41.0244 62.6393 41.0244 62.6384 41.0244Z" fill="#FF751F"/>
</g>
<path d="M50.4056 57.5967C50.3869 57.6081 50.3689 57.6186 50.3513 57.6279C50.3695 57.6181 50.3878 57.6077 50.4056 57.5967ZM76.0675 53.395C76.02 53.395 75.9721 53.3988 75.9238 53.4065L64.6668 55.1977C63.3709 55.3879 61.6132 55.5942 59.394 55.8165H59.3938C58.3495 55.9138 57.3726 55.9629 56.4632 55.9638C56.4609 55.9638 56.4584 55.9638 56.4559 55.9638C56.1713 55.9665 55.8896 55.9677 55.611 55.9677C53.8818 55.9677 52.2654 55.9179 50.7618 55.8186C50.7419 55.8173 50.722 55.8167 50.7021 55.8167C50.6979 55.8167 50.6938 55.8167 50.6896 55.8167C50.3228 55.8219 50.0459 55.8438 49.8588 55.8825C49.6966 55.9163 49.557 55.9704 49.44 56.045C49.0149 56.3154 48.889 56.8809 49.1583 57.3075C49.3317 57.5823 49.6269 57.7327 49.9287 57.7327C50.0411 57.7327 50.1546 57.7119 50.2629 57.6686C50.3428 57.6575 50.4815 57.6502 50.679 57.6471C52.2118 57.7473 53.856 57.7975 55.6114 57.7975C55.8942 57.7975 56.18 57.7963 56.4686 57.7938C57.434 57.7927 58.4667 57.7409 59.5668 57.6379C59.5688 57.6379 59.5709 57.6377 59.573 57.6375C61.8248 57.4119 63.613 57.2019 64.9375 57.0073C64.941 57.0067 64.9446 57.0063 64.9483 57.0056L76.209 55.2138C76.7058 55.1346 77.0448 54.6659 76.9662 54.1669C76.895 53.7163 76.5077 53.395 76.0675 53.395Z" fill="#FF751F"/>
<path d="M67.0645 49.9017C66.7902 49.9017 66.5193 50.0254 66.3399 50.261L56.3454 63.3985C56.0399 63.8 56.1164 64.3742 56.5161 64.681C56.6813 64.8077 56.8759 64.869 57.0686 64.869C57.3428 64.869 57.6139 64.7452 57.7932 64.5094L67.7878 51.3721C68.0932 50.9704 68.0169 50.3963 67.6169 50.0896C67.4518 49.9629 67.2574 49.9017 67.0645 49.9017Z" fill="#FF751F"/>
<path d="M57.2792 50.1967C57.1313 50.1967 56.9815 50.2327 56.8428 50.3089C56.4013 50.5514 56.2391 51.1073 56.4806 51.5506C57.006 52.5156 57.9227 53.6177 59.2304 54.8564C59.2404 54.8658 59.2504 54.875 59.2607 54.8839L69.5525 63.7929C69.7246 63.9419 69.9362 64.015 70.147 64.015C70.4028 64.015 70.6573 63.9073 70.8374 63.6973C71.166 63.3146 71.1232 62.7369 70.7421 62.4069L60.467 53.5123H60.4668C59.3066 52.4117 58.5106 51.465 58.0793 50.6727C57.9138 50.3687 57.6014 50.1967 57.2792 50.1967Z" fill="#FF751F"/>
</g>
<defs>
<clipPath id="clip0_0_1">
<rect width="49" height="52" fill="white"/>
</clipPath>
<clipPath id="clip1_0_1">
<rect width="28" height="30" fill="white" transform="translate(49 41)"/>
</clipPath>
</defs>
</svg>
