<svg width="138" height="148" viewBox="0 0 138 148" fill="none" xmlns="http://www.w3.org/2000/svg">
<g clip-path="url(#clip0_61_1707)">
<mask id="mask0_61_1707" style="mask-type:luminance" maskUnits="userSpaceOnUse" x="62" y="0" width="14" height="148">
<path d="M62.0312 0.090332H75.3798V147.821H62.0312V0.090332Z" fill="white"/>
</mask>
<g mask="url(#mask0_61_1707)">
<path d="M62.8881 7.83256C62.7909 8.16145 62.7306 8.50165 62.7091 8.84492C62.7265 8.50987 62.7858 8.17276 62.8881 7.83256ZM67.219 0.120117C64.7447 0.120117 62.7357 2.13251 62.7286 4.62076C62.7214 7.13573 62.7142 8.56331 62.7071 8.90248H62.7061C62.705 8.92715 62.704 8.95181 62.703 8.97648C62.5087 15.0239 62.4024 19.2954 62.385 21.7918C62.2828 30.605 62.2419 36.4993 62.2634 39.4737C62.2746 49.7834 62.4822 61.6953 62.884 75.2116C62.8932 77.5529 63.2438 86.216 63.9381 101.2C63.9391 101.234 63.9411 101.268 63.9432 101.301C65.0525 117.472 65.715 127.678 65.9317 131.918C66.2078 137.704 66.3254 141.482 66.2845 143.252C66.2272 145.744 68.1902 147.811 70.6696 147.868C70.7043 147.869 70.7401 147.869 70.7749 147.869C73.2072 147.869 75.206 145.917 75.2622 143.46C75.3082 141.476 75.1876 137.479 74.9013 131.47C74.9013 131.465 74.9003 131.46 74.9003 131.455C74.6815 127.168 74.0169 116.935 72.9076 100.757C72.2114 85.7279 71.8637 77.1819 71.8637 75.1222C71.8637 75.077 71.8627 75.0318 71.8617 74.9865C71.4609 61.5268 71.2554 49.6765 71.2431 39.4367C71.2431 39.4285 71.2431 39.4193 71.2431 39.41C71.2227 36.4891 71.2636 30.6441 71.3658 21.8761C71.3658 21.8689 71.3658 21.8617 71.3658 21.8545C71.3822 19.4465 71.4854 15.2778 71.6766 9.34956H71.6756C71.6787 9.29509 71.6807 9.24062 71.6828 9.18512C71.693 8.83156 71.7012 7.31867 71.7094 4.64748C71.7165 2.15409 69.7116 0.127312 67.2322 0.120117C67.2282 0.120117 67.223 0.120117 67.219 0.120117Z" fill="#FF751F"/>
</g>
<path d="M6.9279 81.8769C6.83589 81.9334 6.74694 81.9848 6.66003 82.0311C6.75 81.9828 6.83998 81.9314 6.9279 81.8769ZM133.404 61.1487C133.17 61.1487 132.934 61.1672 132.696 61.2052L77.2151 70.042C70.8282 70.9804 62.1653 71.9979 51.2276 73.0945H51.2266C46.0798 73.5745 41.2653 73.8171 36.7831 73.8212C36.7719 73.8212 36.7596 73.8212 36.7473 73.8212C35.3446 73.8345 33.9562 73.8407 32.5831 73.8407C24.0603 73.8407 16.0938 73.5951 8.68337 73.1048C8.58522 73.0987 8.48707 73.0956 8.38892 73.0956C8.36847 73.0956 8.34802 73.0956 8.32757 73.0956C6.51996 73.1213 5.15505 73.2292 4.23285 73.4203C3.43333 73.5868 2.74525 73.8541 2.16861 74.222C0.0737064 75.5561 -0.546893 78.3455 0.780187 80.4503C1.63492 81.806 3.0898 82.548 4.5774 82.548C5.13154 82.548 5.69079 82.4453 6.22449 82.2315C6.61811 82.177 7.3021 82.141 8.27543 82.1256C15.83 82.62 23.9335 82.8677 32.5851 82.8677C33.9787 82.8677 35.3875 82.8615 36.8097 82.8492C41.568 82.844 46.6575 82.5881 52.0793 82.0804C52.0895 82.0804 52.0998 82.0794 52.11 82.0783C63.2082 80.9653 72.0213 79.9293 78.5494 78.9693C78.5667 78.9662 78.5841 78.9642 78.6025 78.9611L134.102 70.1212C136.55 69.7306 138.221 67.4181 137.833 64.9566C137.483 62.7335 135.574 61.1487 133.404 61.1487Z" fill="#FF751F"/>
<path d="M89.0322 43.9148C87.6805 43.9148 86.3453 44.5253 85.4609 45.6877L36.2025 110.499C34.6965 112.48 35.0738 115.312 37.0439 116.826C37.8578 117.451 38.8168 117.753 39.7666 117.753C41.1182 117.753 42.4545 117.143 43.3379 115.979L92.5973 51.1689C94.1023 49.1873 93.726 46.3547 91.7548 44.8419C90.941 44.217 89.983 43.9148 89.0322 43.9148Z" fill="#FF751F"/>
<path d="M40.8052 45.3701C40.0762 45.3701 39.338 45.5479 38.654 45.9241C36.4784 47.1204 35.6789 49.8625 36.8689 52.0496C39.4587 56.8103 43.9767 62.2473 50.4219 68.3584C50.471 68.4047 50.5201 68.4499 50.5712 68.4941L101.295 112.445C102.143 113.18 103.186 113.541 104.225 113.541C105.486 113.541 106.74 113.009 107.627 111.973C109.247 110.085 109.036 107.235 107.158 105.607L56.5165 61.7272H56.5154C50.7971 56.2975 46.8742 51.6272 44.7486 47.7186C43.9327 46.2191 42.393 45.3701 40.8052 45.3701Z" fill="#FF751F"/>
</g>
<defs>
<clipPath id="clip0_61_1707">
<rect width="138" height="148" fill="white"/>
</clipPath>
</defs>
</svg>
