<svg width="231" height="210" viewBox="0 0 231 210" fill="none" xmlns="http://www.w3.org/2000/svg">
<path fill-rule="evenodd" clip-rule="evenodd" d="M42.8707 -7.17641C43.0905 -6.63141 42.3085 -6.18427 41.9712 -6.66148C41.6881 -7.06202 42.01 -7.65555 42.4667 -7.5771C42.6095 -7.55256 42.7915 -7.37147 42.8707 -7.17641ZM136.459 38.5927C137.442 39.2 138.735 40.17 139.332 40.7467C140.892 42.2546 142.575 45.1433 142.87 46.8159L143.121 48.2544L144.541 48.3594C146.38 48.4967 148.361 49.824 150.716 52.4953C155.176 57.5516 156.605 61.2502 155.831 65.7277C155.157 69.6163 153.173 71.6825 149.72 72.094C148.713 72.214 148.178 72.4258 148.2 72.6963C148.342 74.5105 148.087 77.4454 147.615 79.3989C146.233 85.1233 143.487 87.3224 138.67 86.5623C137.554 86.3857 136.307 86.0931 135.899 85.9104C135.168 85.5827 135.151 85.6031 134.718 87.3556C134.43 88.5186 134.024 89.3781 133.543 89.8399C131.839 91.4785 124.861 94.1769 122.224 94.2175L121.148 94.2346L122.735 95.3994C123.807 96.1869 125.119 97.688 126.781 100.03C132.14 107.579 133.815 114.12 132.445 122.153C131.801 125.926 131.101 127.549 129.331 129.381C127.735 131.03 126.83 131.343 126.155 130.481C125.406 129.526 125.332 128.024 125.811 123.572C126.596 116.268 125.867 112.729 121.593 103.098C120.193 99.9444 119.024 97.059 118.996 96.6844C118.947 96.0436 118.758 96.0894 115.673 97.4882C112.545 98.9083 111.235 99.2854 108.492 99.555C107.811 99.6222 106.067 99.812 104.617 99.9781C97.999 100.733 94.2725 99.852 89.4747 96.3968C86.699 94.3982 85.3981 92.6407 84.4023 89.5389C83.8121 87.7013 83.287 86.6929 82.5654 86.004C80.7025 84.2296 80.771 82.0859 82.8892 75.7333C83.5491 73.7559 84.4165 71.0676 84.8167 69.7617C85.7427 66.7399 86.4898 65.7039 87.6034 65.8952C88.1174 65.9835 88.6647 66.3909 89.0595 66.9811L89.6916 67.9269L88.4999 75.7844C87.187 84.4514 87.1594 86.2048 88.2955 88.6653C89.6227 91.5423 92.599 94.686 95.0743 95.8246C96.5952 96.5258 99.1703 96.4513 103.547 95.581C105.019 95.2867 107.26 94.9928 108.527 94.9271C112.704 94.7071 113.284 94.5911 115.253 93.5821C116.326 93.0311 117.426 92.6082 117.696 92.6423C118.015 92.6806 118.066 92.6261 117.838 92.4867C117.427 92.2332 116.872 90.6216 116.98 89.9941C117.159 88.9526 117.985 88.8333 121.274 89.3695C124.819 89.9495 126.058 89.816 128.198 88.6275C131.242 86.9386 131.895 83.72 129.565 81.8943C128.79 81.2869 126.371 81.6014 124.853 82.5063C124.091 82.9609 122.67 83.5677 121.695 83.8553C120.066 84.3356 119.645 84.328 116.502 83.7715C112.655 83.09 111.643 82.6137 110.332 80.8667C109.473 79.7225 109.449 79.7131 108.211 79.9279C105.941 80.3228 104.006 79.7183 101.153 77.7243C99.3892 76.492 97.7074 74.159 97.5443 72.7234C97.4381 71.7814 97.337 71.6816 96.3926 71.6018C94.1026 71.4091 91.3825 69.0944 90.4116 66.5123C89.7554 64.7707 89.2328 62.0113 89.3876 61.1101C89.4665 60.6507 89.3265 60.4095 88.946 60.3441C88.6389 60.2914 87.9923 59.6222 87.5068 58.8556C84.652 54.3485 85.9001 47.9152 90.3001 44.4591C91.7781 43.2972 95.0609 42.5442 97.6414 42.7744C99.017 42.8966 99.5257 43.0802 100.213 43.6973C101.334 44.7065 101.228 45.759 100.035 45.4593C98.9271 45.1809 95.8213 46.1678 94.2002 47.3148C92.138 48.7723 90.1188 51.7727 89.4366 54.391C89.0643 55.8226 88.9284 56.9815 89.042 57.7447C89.1393 58.3869 89.2781 58.8671 89.3532 58.814C89.4283 58.7609 89.7464 58.0293 90.0615 57.1871C90.7335 55.3877 91.49 54.697 92.5809 54.8844C93.8828 55.108 94.5926 56.5854 95.3879 60.7263C95.6167 61.9148 96.0384 63.509 96.3253 64.2717C96.9773 66.0058 97.7051 66.1858 99.7424 65.1212C100.56 64.6926 101.547 64.2366 101.934 64.108C102.868 63.7969 104.228 64.3769 104.646 65.2639C105.089 66.1991 104.698 68.3561 103.939 69.1688C103.341 69.8124 103.346 69.8229 104.591 70.6499C105.28 71.1092 106.684 71.7105 107.711 71.9873C109.452 72.4555 109.61 72.4482 110.062 71.8687C110.381 71.4576 110.612 70.5282 110.746 69.1187C110.974 66.7153 111.367 66.0212 112.402 66.199C113.232 66.3416 114.788 68.147 115.201 69.4483C115.636 70.8207 115.151 72.868 113.912 74.8849C113.305 75.8748 112.718 77.0978 112.608 77.6039C112.424 78.455 112.486 78.5426 113.456 78.7944C114.479 79.0594 115.891 78.854 120.841 77.722C125.351 76.6891 130.83 77.0694 134.304 78.656C135.23 79.0789 136.909 79.6588 138.038 79.9448C139.759 80.3821 140.305 80.3989 141.424 80.051C143.206 79.4966 144.609 78.1485 145.074 76.5444C145.757 74.1956 145.552 73.3453 143.608 70.4448C142.612 68.961 141.844 67.4874 141.898 67.164C141.978 66.6829 141.845 66.7287 141.168 67.4112C140.056 68.5315 137.944 69.2217 136.959 68.7859C135.887 68.313 135.567 67.2833 135.783 65.0001C136.014 62.5599 135.773 61.7693 134.563 61.0007C133.8 60.5162 133.652 60.2449 133.772 59.5466C134.13 57.4676 138.286 57.3912 140.503 59.423C142.528 61.2775 142.998 62.363 142.711 64.52C142.549 65.7362 142.544 65.7313 143.511 65.3998C143.899 65.2672 145.119 65.2924 146.22 65.4556C150.128 66.0361 151.07 63.9037 149.038 59.0802C147.551 55.5516 143.783 50.6184 142.735 50.8272C142.488 50.877 142.119 51.4088 141.917 52.0105C141.172 54.2167 140.526 55.2866 139.435 56.1247C137.326 57.7459 134.818 56.9494 135.206 54.7808C135.296 54.2795 135.892 52.8011 136.53 51.4962C138.221 48.0449 138.254 47.4883 136.887 45.3992C135.219 42.85 132.609 41.2469 132.035 42.4185C131.618 43.2693 131.154 44.8363 130.482 47.6599C129.559 51.5428 128.637 52.3892 127.395 50.4988C127.014 49.9164 126.596 48.6666 126.466 47.7192C125.873 43.3545 121.631 39.9769 117.589 40.6517C116.274 40.8712 115.98 41.6413 116.119 44.4969C116.239 46.952 115.999 47.9061 115.104 48.54C114.153 49.211 113.501 48.7953 111.587 46.2932C110.56 44.9497 109.371 43.6965 108.944 43.5077C108.499 43.3117 107.402 43.2359 106.37 43.3308C104.314 43.5206 103.508 43.264 103.386 42.3811C103.22 41.1731 103.998 39.829 105.421 38.8639C107.204 37.6567 108.914 37.4665 111.524 38.1829L113.504 38.7279L115.211 37.531C117.499 35.9267 119.639 35.5369 123.443 36.0322C126.578 36.4416 127.959 37.1187 128.654 38.5921L128.984 39.2907L129.614 38.6141C130.544 37.6164 132.215 37.047 133.525 37.2818C134.155 37.3954 135.475 37.9851 136.459 38.5927ZM72.2792 42.5676C73.1295 43.2113 73.9644 43.9046 74.1355 44.1086C74.3069 44.3112 75.4311 45.5133 76.6366 46.7775C80.4078 50.7354 85.7948 57.9223 88.1232 62.1012C88.8155 63.3445 88.9415 63.8514 88.6964 64.4059C88.1314 65.6862 87.1348 65.126 85.4347 62.5713C81.6643 56.9048 77.2955 51.2565 74.4551 48.3699L73.7364 47.6402L74.421 49.4486C75.4055 52.048 77.5899 56.5527 79.7499 60.4387C81.8365 64.1925 82.4696 65.9563 82.2302 67.3503C82.0845 68.1982 81.9819 68.2754 81.1834 68.1382C80.2861 67.9841 79.7275 67.4029 76.9085 63.68C75.5751 61.9196 72.7894 58.7866 72.5143 58.7394C72.4249 58.724 72.5644 59.0559 72.8247 59.4773C73.085 59.8986 73.4751 60.6846 73.6918 61.2235C73.9072 61.7623 74.9368 63.8829 75.9805 65.9372C77.0231 67.9899 77.8653 69.7374 77.851 69.8202C77.8371 69.9016 78.0556 70.478 78.3378 71.0997C79.3092 73.2392 80.1344 76.5096 79.979 77.606C79.8361 78.6138 79.7482 78.7018 78.9314 78.655C78.1392 78.6096 77.7571 78.1852 75.5349 74.8769C73.0476 71.1752 72.8752 71.0824 73.5839 73.831C74.6837 78.0957 74.6542 80.444 73.4936 80.8303C72.8928 81.0309 72.6692 80.844 71.5554 79.2134C69.3586 75.9974 67.7785 71.9925 66.4289 66.2209C65.6002 62.6749 65.5759 62.136 66.2284 61.6749C66.8571 61.2316 67.4708 61.4443 68.5452 62.4797C69.7138 63.607 69.8046 63.4466 68.9229 61.8174C67.9392 59.9975 65.6873 52.4131 65.7038 50.9726C65.7163 49.8915 65.8131 49.6882 66.405 49.4916C67.4533 49.1424 68.8501 49.814 70.9372 51.6681C71.9758 52.5916 72.7816 53.2304 72.7291 53.088C72.6755 52.9441 71.9632 51.1048 71.148 49.0004C70.3313 46.8971 69.5372 44.5338 69.3832 43.7499C69.114 42.3882 69.1304 42.3003 69.7326 41.8277C70.0805 41.5549 70.4477 41.3458 70.5492 41.3632C70.6494 41.3804 71.4278 41.9224 72.2792 42.5676ZM124.303 52.7555C126.24 53.8291 127.68 55.5637 127.069 56.087C126.758 56.3538 125.954 56.3162 123.945 55.9436C122.459 55.6676 120.103 55.4334 118.711 55.4224C115.936 55.4022 115.287 55.1187 115.315 53.9373C115.351 52.3833 118.582 51.1182 121.24 51.6161C122.077 51.7737 123.456 52.2868 124.303 52.7555ZM108.079 52.1032C109.429 53.3744 110.421 55.5654 110.207 56.8072C109.886 58.6792 107.744 60.835 106.431 60.6095C105.165 60.3921 104.767 59.6364 104.873 57.6421C104.987 55.476 104.749 54.9498 103.176 53.903C101.782 52.9735 101.792 52.3497 103.218 51.2667C104.637 50.1896 106.361 50.4857 108.079 52.1032ZM53.5085 46.1847C53.9292 46.6006 54.0296 47.1842 53.935 48.6636L53.8131 50.5974L54.9039 50.4892C55.504 50.4287 56.0274 50.4306 56.0678 50.4912C56.107 50.5515 57.1162 52.8226 58.3104 55.5378C60.9909 61.6357 62.5422 65.8405 64.4869 72.2683C65.3146 75.0044 66.0753 77.3936 66.1782 77.579C66.2824 77.7646 66.7843 79.22 67.2942 80.8128C69.0979 86.4452 68.938 86.1442 69.947 85.824C71.4008 85.3631 77.1652 84.2474 78.7615 84.1175C79.9603 84.021 80.323 84.086 80.6423 84.4598C81.5799 85.5556 80.7429 86.227 75.3723 88.675C73.7391 89.4199 72.0265 90.2351 71.5666 90.4874L70.7318 90.946L71.2176 92.1911C72.0239 94.2513 72.7375 97.1149 73.1476 99.9209C73.3602 101.38 73.5704 102.637 73.6137 102.713C73.6585 102.788 73.9644 102.68 74.2947 102.47C76.7415 100.918 78.4423 102.116 83.1541 108.712C86.7917 113.808 87.2695 114.307 89.1115 114.963C89.7425 115.187 90.6374 115.555 91.1004 115.781C91.565 116.005 92.9684 116.598 94.2214 117.098C96.9618 118.19 98.3502 119.158 99.6017 120.851L100.541 122.122L101.15 121.576C102.813 120.091 109.329 116.406 111.404 115.78C113.953 115.008 115.076 115.073 115.679 116.026C116.028 116.574 116.017 116.782 115.615 117.307C114.388 118.911 105.031 125.733 102.711 126.716C101.298 127.314 100.228 126.809 96.4985 123.783C91.0468 119.358 90.22 118.953 86.0406 118.668C84.5472 118.567 83.7463 118.38 83.2811 118.024C82.9203 117.748 81.4053 115.196 79.9158 112.351C76.8772 106.554 75.9053 105.233 76.6703 107.942C77.2535 110.012 75.9198 110.51 74.3418 108.814C73.888 108.326 73.1678 107.774 72.7411 107.585C72.0026 107.259 71.9773 107.278 72.213 107.986C72.3491 108.394 72.8826 109.353 73.3991 110.116C74.5407 111.801 74.6852 112.568 73.9593 113.081C73.4648 113.43 73.5082 113.586 74.4361 114.794C75.4056 116.057 75.4287 116.154 74.8973 116.718C74.3479 117.3 74.3764 117.342 76.3102 118.769C80.0763 121.548 84.5467 126.772 84.6811 128.551C84.7212 129.077 84.5609 129.475 84.2073 129.724C83.3968 130.297 81.9332 129.607 80.3207 127.895C78.3831 125.835 75.8531 123.51 73.6439 121.758C72.6132 120.941 71.177 119.611 70.4511 118.803C68.3845 116.501 68.3139 115.248 70.2257 114.826L71.2059 114.609L69.9192 112.849C69.2113 111.88 68.667 110.888 68.709 110.643C68.8145 110.029 69.7019 109.569 70.2069 109.87C70.7807 110.21 70.7666 110.132 69.8914 108.185C69.0074 106.218 69.085 104.99 70.1424 104.243C70.8309 103.757 71.3801 103.8 72.8134 104.459C73.1117 104.595 73.3 104.395 73.453 103.777C73.5727 103.296 73.5672 103.056 73.4429 103.243C73.0293 103.866 71.9152 103.374 71.1825 102.246C70.2186 100.759 68.7429 98.0425 68.7805 97.8236C68.797 97.7274 68.3602 96.6296 67.8093 95.3872L66.8096 93.1246L64.9372 93.9577C63.9072 94.4158 62.1066 94.9753 60.9339 95.2C58.0466 95.7556 56.7369 96.1299 54.6657 96.9921C50.9729 98.531 45.2914 99.1963 44.865 98.1416C44.3915 96.9688 47.0399 95.5474 51.6204 94.5142C53.1475 94.1703 54.97 93.7397 55.6708 93.5577C56.3715 93.3756 57.7142 93.1293 58.6545 93.009C60.2801 92.8044 60.4408 92.7014 61.8698 90.9605C62.6971 89.9535 63.7144 88.9048 64.13 88.6298L64.8851 88.1313L63.0173 83.0322C59.5456 73.546 58.4906 70.7887 57.1969 67.8213C55.2193 63.289 54.3834 60.9048 53.6993 57.8455C53.3548 56.3059 52.988 55.1445 52.8847 55.2656C52.7812 55.388 52.5018 56.07 52.2629 56.7808C51.7607 58.2795 50.3213 60.9932 49.3033 62.358C48.9159 62.877 47.3792 64.3244 45.8874 65.5748C39.6953 70.7643 38.1318 72.2717 35.4998 75.5985C33.8019 77.744 32.8408 79.7302 31.7362 83.3757C29.7672 89.8763 29.2489 91.0052 28.1619 91.1552C26.7314 91.3521 25.1751 88.2324 25.0458 84.9042C24.833 79.453 28.7439 72.2426 35.0551 66.4481C42.1934 59.8953 46.7346 55.6016 47.5763 54.6066C48.0916 53.9996 49.0205 52.1453 49.7506 50.272C50.9104 47.2972 51.8548 45.8085 52.6608 45.6858C52.826 45.6606 53.2066 45.8854 53.5085 46.1847ZM128.88 63.2768C131.042 65.5562 131.444 66.1601 131.898 67.8023C132.41 69.6622 132.119 70.7984 130.725 72.3735C129.421 73.85 126.377 75.5979 125.404 75.4307C125.003 75.3619 124.442 74.9769 124.158 74.5735C123.283 73.3372 123.976 71.9949 126.269 70.4795C127.443 69.7052 128.049 69.1371 127.826 69.0217C127.625 68.9172 126.512 68.6092 125.352 68.337C123.843 67.9816 122.814 67.5312 121.734 66.7519C119.968 65.4767 119.421 64.4768 119.9 63.3947C120.345 62.3866 121.282 62.0541 123.317 62.1796C124.248 62.2379 125.426 62.1502 125.937 61.9863C127.223 61.5736 127.295 61.6064 128.88 63.2768ZM92.2262 74.2498C92.459 74.5991 92.8439 75.2316 93.0819 75.6546C93.483 76.3682 93.6809 76.4407 95.7246 76.6351C96.965 76.7519 97.9889 76.9773 98.0584 77.1487C98.3139 77.7823 97.5552 78.5895 96.35 78.9639C93.9116 79.7231 90.8454 78.6149 90.3691 76.8024C89.9769 75.3164 90.6806 73.4207 91.5672 73.573C91.6967 73.5953 91.9936 73.8992 92.2262 74.2498ZM44.6345 71.9001C44.8215 72.46 44.5381 72.7811 42.5398 74.2909C41.2684 75.2505 39.8491 76.615 39.3852 77.323C37.0432 80.8975 34.9021 83.8069 34.4267 84.0537C34.0567 84.2472 33.7448 84.2143 33.3969 83.9428C31.7551 82.6655 35.9621 75.9721 40.417 72.7729C43.0716 70.8673 44.2118 70.6315 44.6345 71.9001ZM111.045 84.6128C111.429 85.4981 111.027 86.5108 110.073 87.0604C109.408 87.4438 106.116 86.9085 105 86.2356C103.913 85.5803 103.278 84.7439 103.386 84.1123C103.541 83.2084 104.219 83.0636 105.511 83.6581C106.607 84.1611 108.38 84.243 110.326 83.8789C110.529 83.8409 110.853 84.1715 111.045 84.6128ZM95.9511 83.8386C96.5229 84.3107 97.2056 85.1222 97.4669 85.6413L97.9413 86.5847L97.1151 87.049C96.5871 87.3459 96.0237 87.4169 95.56 87.2437L94.8323 86.9744L95.4389 87.5803C96.9316 89.0698 98.0097 90.62 97.9195 91.1447C97.7723 92.002 95.7944 92.3605 94.0559 91.8461C92.2587 91.3133 90.4129 89.8552 90.4368 88.9878C90.4466 88.6266 90.7141 87.9894 91.0309 87.5695C91.5679 86.8604 91.5689 86.7423 91.0388 85.8595C90.0556 84.2211 90.8561 82.6417 92.3396 83.2965C92.7854 83.4941 93.1842 83.4609 93.4871 83.2022C94.1127 82.665 94.7169 82.821 95.9511 83.8386ZM168.318 96.6631C175.432 98.8392 180.856 101.689 186.457 106.192C190.711 109.61 192.559 111.991 194.006 115.908C194.874 118.261 193.927 119.903 191.304 120.587C189.866 120.96 189.237 120.927 185.481 120.283C181.416 119.585 181.266 119.581 181.164 120.174C181.043 120.879 180.017 121.61 178.391 122.149C176.916 122.638 171.829 121.765 168.267 120.412L165.765 119.463L164.46 120.432C162.5 121.888 160.058 121.949 156.712 120.627C154.09 119.591 153.81 119.588 153.347 120.603C152.626 122.186 149.721 123.018 146.048 122.693C142.168 122.351 139.053 120.649 136.988 117.744C135.477 115.618 135.32 114.722 136.381 114.261C137.265 113.877 139.658 114.582 142.484 116.057C145.711 117.742 149.397 118.846 150.84 118.56C151.546 118.42 151.527 118.027 150.797 117.649C148.976 116.707 146.385 113.639 146.558 112.631C146.764 111.43 149.367 111.794 153.013 113.53C156.776 115.325 159.764 116.617 160.416 116.734C161 116.838 160.91 116.662 159.864 115.654C158.174 114.029 157.61 112.873 158.16 112.166C158.696 111.477 159.656 111.469 161.756 112.133C163.278 112.615 167.071 114.458 168.447 115.386C171.027 117.124 175.884 118.87 177.021 118.467C177.459 118.313 177.225 118.13 175.921 117.607C172.987 116.434 169.729 114.495 167.897 112.835C167.086 112.1 167.287 111.285 168.298 111.207C169.362 111.128 175.06 112.446 179.069 113.701C180.809 114.246 183.494 114.997 185.035 115.369C187.445 115.952 187.923 115.989 188.427 115.633C189.242 115.057 189.247 114.625 188.455 113.597C186.379 110.902 178.344 106.079 171.479 103.407C161.688 99.5974 150.978 98.5768 135.348 99.9635C130.092 100.431 128.061 100.019 128.296 98.5348C128.625 96.4675 139.916 93.5547 147.233 93.6514C154.647 93.7484 162.425 94.8605 168.318 96.6631ZM162.644 102.552C166.891 103.495 168.513 104.377 168.298 105.627L168.18 106.317L163.592 105.574C159.384 104.892 157.15 104.722 147.537 104.349C140.868 104.09 138.212 103.137 139.259 101.379C140.367 99.5156 151.485 100.073 162.644 102.552ZM181.323 109.651C182.862 110.523 184.155 111.618 184.091 111.992C183.849 113.399 181.576 113.22 179.143 111.604C177.36 110.419 177.088 109.707 178.183 109.094C179.126 108.566 179.537 108.639 181.323 109.651ZM23.8532 87.8459C24.1785 88.0887 24.5159 88.7089 24.6018 89.2254C24.8419 90.6605 23.6299 92.2022 20.4579 94.5028C16.8418 97.1244 15.7478 96.9475 17.2025 93.9766C17.5839 93.1967 17.8486 92.5521 17.7912 92.5423C17.7324 92.5322 17.1845 92.6649 16.572 92.8373C15.6201 93.1054 15.488 93.2422 15.6651 93.7716C15.9576 94.6535 15.1189 95.2229 12.2827 96.0649C9.77217 96.8117 8.22015 96.7321 7.77469 95.8363C7.55593 95.3973 7.37004 95.3351 6.82188 95.5172C6.17601 95.7321 6.0767 96.3102 6.66954 96.4121C6.82176 96.4382 7.85202 97.0826 8.95831 97.8445C12.1225 100.022 14.7901 101.762 15.0278 101.803C15.148 101.823 15.0811 101.573 14.8802 101.245C13.8739 99.6058 14.5155 98.2795 16.4276 98.0471C17.5368 97.9119 17.7539 97.9767 18.377 98.6225C18.7634 99.0216 19.5147 100.722 20.0472 102.4C21.1654 105.917 21.0504 106.586 19.1626 107.573C17.3609 108.514 15.1773 108.238 13.2121 106.819C11.8299 105.823 8.57186 102.951 7.9263 102.164C7.77974 101.984 6.96423 101.154 6.11377 100.32C5.26465 99.485 3.52646 97.6963 2.25227 96.3433C0.296567 94.2685 -0.0524922 93.7398 0.00603997 92.9429C0.0916392 91.7644 0.816689 91.3927 4.7786 90.4952C6.34482 90.1402 7.91443 89.7734 8.26435 89.6809C8.61584 89.5873 10.4665 89.1767 12.3778 88.7655C19.74 87.1833 22.6502 86.9505 23.8532 87.8459ZM33.18 95.5281C35.3289 96.1666 36.1108 96.7202 35.9755 97.508C35.8906 98.0021 36.0073 98.0826 36.7251 98.0176C37.739 97.9251 58.1831 101.443 59.3857 101.916C59.8454 102.096 61.5454 102.563 63.1636 102.954C66.5244 103.763 67.7283 104.461 67.4193 105.42C67.244 105.96 66.9063 106.053 65.0839 106.059C62.8695 106.066 46.8877 103.483 42.1417 102.352C40.7751 102.025 38.7171 101.53 37.5678 101.25L35.4765 100.741L35.4313 101.996C35.3918 103.074 35.2717 103.309 34.5837 103.665C33.9426 103.996 33.8433 104.166 34.0875 104.513C34.5849 105.219 34.2925 106.025 33.5848 105.903C32.7035 105.752 30.0511 103.372 28.0154 100.906L26.2905 98.8163L24.1451 98.5495C22.1708 98.3038 22.0081 98.2346 22.1007 97.6951C22.2106 97.0556 23.1352 96.9065 25.1942 97.1956C26.0142 97.3117 26.5828 97.1784 27.1603 96.7374C27.6066 96.3962 28.2779 96.1692 28.6545 96.2339C29.067 96.3048 29.4965 96.1174 29.7388 95.7631C30.2883 94.9571 31.0784 94.9031 33.18 95.5281ZM28.593 103.178C29.0271 103.387 29.3078 103.834 29.3595 104.397C29.4037 104.884 29.7537 105.847 30.1369 106.537C31.5696 109.12 30.8223 110.245 27.6065 110.345C26.5065 110.378 25.8961 110.531 25.9826 110.747C26.1601 111.186 29.8708 111.543 32.828 111.405C39.2274 111.106 38.9441 111.099 39.2927 111.582C40.0185 112.591 37.5001 114.239 34.3098 114.846C31.0897 115.459 25.0824 114.299 22.0706 112.482C20.8859 111.769 20.4238 110.226 20.8728 108.492C21.5454 105.905 22.0817 105.632 25.2538 106.259C25.9332 106.394 26.5963 106.383 26.7262 106.234C26.8575 106.087 26.6285 105.419 26.2193 104.752C25.2721 103.208 25.4825 102.551 26.8682 102.719C27.4418 102.789 28.2175 102.995 28.593 103.178ZM63.3445 110.431C63.6195 110.663 63.7488 111.174 63.6612 111.684C63.5389 112.396 63.0504 112.823 60.8864 114.114C56.2034 116.904 53.2665 117.356 47.6825 116.149C43.7965 115.309 43.238 115.046 43.5147 114.188C43.6853 113.659 43.978 113.595 45.6664 113.714C50.2394 114.036 56.037 112.848 60.5673 110.658C62.2491 109.846 62.6101 109.817 63.3445 110.431ZM123.489 129.5C124.071 130.026 124.109 131.26 123.578 132.452C123.182 133.341 122.362 134.09 119.914 135.794C115.687 138.738 115.201 139.024 111.991 140.465C107.501 142.478 102.339 143.262 98.2157 142.555C95.6372 142.113 93.9245 141.368 91.2794 139.538C90.2326 138.814 88.373 137.524 87.1484 136.674C85.9225 135.824 84.8207 134.828 84.698 134.462C84.3917 133.541 84.5609 130.907 84.9374 130.756C85.5933 130.49 86.794 130.639 88.3063 131.174C99.1847 135.018 104.505 136.233 108.309 135.744C111.065 135.388 112.117 134.901 115.639 132.339C119.401 129.604 120.953 128.821 122.183 129.038C122.727 129.134 123.315 129.343 123.489 129.5ZM70.6774 121.047C70.8946 121.391 71.0424 121.85 71.0046 122.071C70.8878 122.75 63.1756 133.148 60.2977 136.506C57.2099 140.109 47.5234 150.548 46.1404 151.765C44.8158 152.93 41.8062 155.831 40.1741 157.513C39.3957 158.316 38.1071 159.447 37.3078 160.027C34.3557 162.176 33.493 160.268 35.7433 156.571C38.0036 152.856 44.5894 145.342 49.3982 140.987C50.7037 139.805 54.7285 135.141 55.7714 133.599C56.8394 132.023 61.2424 126.909 62.9625 125.25C64.97 123.31 69.2548 120.246 69.8196 120.343C70.0733 120.386 70.4588 120.703 70.6774 121.047ZM130.139 132.078C130.894 133.221 130.665 135.777 129.615 137.916C128.603 139.979 128.418 140.147 127.071 140.216C126.057 140.269 125.838 140.17 125.3 139.409C124.75 138.629 124.734 138.385 125.142 137.001C125.392 136.153 125.994 134.683 126.481 133.731C127.906 130.938 129.045 130.423 130.139 132.078ZM135.298 133.97C136.59 134.831 138.033 137.306 138.495 139.46C138.661 140.231 138.673 141.616 138.52 142.537C138.284 143.971 138.087 144.347 137.145 145.173C135.795 146.36 134.592 146.549 134.03 145.664C133.758 145.235 133.741 144.837 133.975 144.392C134.684 143.039 134.662 141.081 133.909 138.397C133.073 135.422 133.119 134.143 134.074 133.826C134.772 133.594 134.723 133.588 135.298 133.97ZM25.21 117.054L25.9051 117.896L25.1128 122.893C24.6761 125.643 24.3373 128.647 24.3586 129.572C24.38 130.495 24.4155 131.825 24.4378 132.527C24.4992 134.435 25.67 138.294 27.2016 141.629C27.9499 143.259 28.6021 144.6 28.6488 144.608C28.6955 144.616 28.5803 143.638 28.3899 142.434C28.0363 140.179 28.1631 139.529 28.99 139.364C29.5621 139.251 30.3558 140.4 32.2743 144.124C34.0709 147.613 34.406 148.752 33.7889 149.279C33.2845 149.711 31.7377 149.569 31.5381 149.074C31.4686 148.903 31.0379 148.385 30.581 147.924L29.7488 147.087L30.2534 148.134C31.0305 149.748 32.0396 153.661 32.2069 155.703C32.3799 157.833 32.0524 160.076 31.3483 161.566C30.3108 163.764 29.6443 163.123 28.5177 158.839C28.0317 156.994 27.3054 154.757 26.9018 153.865C26.2232 152.366 23.5766 147.647 22.2938 145.648C21.2712 144.055 18.4829 137.553 17.7166 134.971C16.5024 130.885 16.4284 129.283 17.2697 125.338C17.8427 122.65 18.2073 121.592 19.0086 120.296C20.0905 118.544 23.1782 115.981 24.0301 116.128C24.2971 116.174 24.8276 116.591 25.21 117.054ZM143.356 139.804C143.696 140.081 144.303 140.753 144.706 141.298C145.317 142.123 145.541 142.248 146.043 142.043C146.593 141.819 147.28 141.773 149.455 141.82C150.481 141.841 156.253 143.321 158.198 144.061C162.443 145.676 166.526 148.29 169.786 151.484C171.619 153.281 176.978 160.66 178.137 162.985C178.457 163.626 179.222 165.728 179.838 167.656C181.192 171.898 181.099 172.923 179.348 173.049C178.737 173.094 177.868 172.967 177.42 172.769C176.565 172.393 174.154 169.136 172.372 165.951C170.61 162.8 167.752 158.976 165.829 157.198C160.566 152.331 158.425 150.948 151.363 147.855C149.169 146.894 147.241 145.954 147.081 145.765C146.869 145.519 146.679 145.766 146.402 146.653C146.009 147.907 144.706 149.028 143.818 148.875C143.336 148.792 142.472 146.86 142.22 145.297C142.126 144.72 141.644 143.36 141.148 142.276C140.038 139.847 140.187 138.996 141.694 139.178C142.268 139.246 143.015 139.528 143.356 139.804ZM87.3418 142.534C88.6032 143.721 89.3722 144.854 91.287 148.352C93.1805 151.813 95.453 155.541 96.4213 156.778C97.7472 158.47 99.8509 160.795 100.094 160.837C100.21 160.857 100.61 161.234 100.982 161.674C102.192 163.1 107.759 167.285 109.5 168.075C111.685 169.065 118.73 171.6 122.227 172.653C123.812 173.13 124.977 173.63 125.01 173.846C125.04 174.051 124.49 174.472 123.786 174.781C119.117 176.837 105.121 173.782 100.039 169.6C99.4873 169.146 98.795 168.583 98.4997 168.349C94.322 165.037 89.4125 158.463 86.8125 152.705C83.8096 146.051 83.1139 142.627 84.5565 141.608C85.3484 141.047 85.9894 141.26 87.3418 142.534ZM208.48 169.27C217.154 171.744 222.113 174.222 225.535 177.793C226.854 179.166 228.462 181.826 228.943 183.427C229.799 186.283 230.263 192.279 229.883 195.606C229.335 200.402 227.531 203.487 224.546 204.732C219.783 206.718 215.449 204.657 211.47 198.516C210.368 196.812 209.442 195.249 209.415 195.043C209.327 194.375 208.184 192.845 207.407 192.354C206.723 191.923 206.263 191.994 202.678 193.083C197.447 194.672 194.856 195.071 185.841 195.677C179.497 196.102 177.469 196.112 173.063 195.736C160.559 194.671 149.011 191.82 140.071 187.591C135.643 185.496 130.689 182.036 129.433 180.161C128.33 178.516 128.372 177.837 129.619 177.152C130.481 176.677 130.757 176.692 133.765 177.367C136.642 178.013 138.582 178.715 145.08 181.46C146.865 182.214 152.315 184.21 154.669 184.97C155.303 185.175 156.466 185.581 157.252 185.873C162.9 187.968 175.017 190.573 178.786 190.504C181.795 190.448 193.115 189.087 195.44 188.5C199.152 187.564 201.635 187.258 206.438 187.145C208.692 187.091 210.904 187.194 211.368 187.372C212.684 187.88 213.543 188.932 215.073 191.914C215.853 193.432 216.796 195.017 217.169 195.436C217.951 196.311 221.575 198.439 222.579 198.611C223.982 198.852 225.578 196.669 226.144 193.733C226.479 191.99 226.427 191.511 225.597 188.705C225.093 186.999 224.615 185.279 224.536 184.884C224.193 183.211 222.985 181.385 221.551 180.379C220.144 179.391 217.127 178.325 213.883 177.67C210.394 176.967 206.355 175.641 203.736 174.338C199.262 172.116 194.041 171.151 185.143 170.907C183.321 170.858 182.704 170.745 182.416 170.406C181.854 169.752 182.123 168.959 183.079 168.442C184.569 167.635 190.781 166.683 194.002 166.766C196.561 166.833 205.136 168.316 208.48 169.27ZM104.018 155.709C106.137 156.621 106.728 157.957 105.565 159.206C104.478 160.373 102.435 160.405 100.666 159.282C98.8978 158.157 99.6118 156.034 101.939 155.499C102.528 155.364 103.047 155.273 103.09 155.296C103.134 155.322 103.551 155.506 104.018 155.709ZM100.151 172.019C100.38 172.153 101.219 172.906 102.019 173.693C103.673 175.323 105.119 177.62 106.618 181.001C107.703 183.446 110.317 187.221 113.12 190.394C114.031 191.425 114.907 192.42 115.069 192.605C118.432 196.46 123.162 200.773 125.814 202.399C129 204.354 131.015 204.775 134.791 204.273C137.959 203.851 138.606 203.681 146.886 201.105C152.71 199.293 156.894 198.281 157.87 198.448C158.879 198.622 159.149 199.387 158.577 200.461C158.225 201.123 156.982 202.014 154.123 203.657C149.281 206.435 147.956 207 142.968 208.423C135.647 210.508 130.759 210.189 125.131 207.258C117.728 203.401 116.559 202.667 113.823 200.146C110.949 197.498 102.891 185.884 101.067 181.758C99.751 178.782 98.4303 172.802 98.9437 172.142C99.3402 171.635 99.4717 171.621 100.151 172.019ZM132.078 198.598C136.158 200.451 137.603 201.964 136.225 202.937C135.511 203.442 134.112 203.355 130.349 202.567C128.548 202.191 126.045 200.989 125.063 200.03C124.482 199.461 124.383 199.129 124.583 198.402C124.787 197.65 125.025 197.458 125.927 197.313C127.517 197.059 129.683 197.512 132.078 198.598Z" fill="#CF1919"/>
</svg>
