<svg width="112" height="106" viewBox="0 0 112 106" fill="none" xmlns="http://www.w3.org/2000/svg">
<path fill-rule="evenodd" clip-rule="evenodd" d="M54.1873 1.75449C54.1539 1.76805 53.5541 1.55344 52.8541 1.2774C51.326 0.674253 49.409 0.0998315 48.6859 0.0296244C46.6337 -0.172221 43.7183 0.682232 42.5228 1.83586C41.2285 3.08603 40.7075 4.38087 40.6853 6.40411C40.6558 9.01773 41.4823 12.4156 42.7288 14.8082C43.1448 15.6068 43.5704 16.4413 43.6738 16.6623L43.8631 17.0652L42.5514 16.9232C39.9105 16.6368 38.6759 16.6735 36.6937 17.0971C35.6317 17.3245 33.8086 17.7146 32.6424 17.9636C29.6642 18.601 28.7256 18.885 25.1731 20.2277C23.1001 21.0112 21.3581 21.8672 20.1037 22.7177C19.4053 23.1916 18.3736 23.9256 18.0156 24.2024C15.7446 25.96 14.1807 27.345 12.6503 28.9518C12.0918 29.539 11.477 30.166 11.2853 30.3447C11.0936 30.5243 10.6839 30.9184 10.3753 31.2207C10.0666 31.5239 9.65696 31.918 9.46367 32.0967C8.97605 32.5499 7.9873 33.587 7.64366 34.0059C7.12105 34.6433 5.72742 37.2466 4.79594 39.3281C3.11037 43.0913 1.33253 48.5459 0.993665 50.9928C0.94912 51.3183 0.829006 52.1042 0.727188 52.7384C0.549006 53.8466 0.113892 58.3438 0.0765062 59.4647C0.0661651 59.7623 0.0359381 60.525 0.00968797 61.1601C-0.0786073 63.2511 0.427302 64.8635 1.91162 67.2274C3.73321 70.1275 4.52867 71.7422 5.33287 74.1771C7.01287 79.2616 7.92048 80.5325 11.1293 82.298C11.4793 82.4903 12.103 82.8541 12.5142 83.1062C13.2882 83.5801 14.5601 84.1441 18.4595 85.7398C19.7099 86.2512 21.0208 86.8224 21.374 87.0091C30.0111 91.5765 30.9958 91.902 35.5506 91.7002C36.0859 91.6771 37.0524 91.6643 37.6983 91.6731C39.2654 91.6946 41.3948 91.4361 43.8822 90.9231C45.5328 90.5825 45.9806 90.545 46.1962 90.7261C46.3425 90.8497 46.7904 91.5526 47.1905 92.2874C48.2755 94.2795 49.4679 96.0235 50.5067 97.1381C51.4915 98.1951 53.1707 99.0081 55.9564 99.7764C57.7493 100.271 59.4874 100.897 64.7247 102.936C71.0645 105.403 73.7873 105.943 78.5298 105.674C82.0195 105.475 84.9921 104.574 88.8898 102.53C89.6701 102.121 91.7049 101.201 93.4112 100.486C96.5294 99.1804 98.3151 98.1577 99.4876 97.008C99.7812 96.7208 100.511 95.8257 101.112 95.0191C102.975 92.5148 103.155 92.2882 104.698 90.5138C107.105 87.7439 107.698 86.9213 108.717 84.9348C109.441 83.525 109.79 82.6802 110.21 81.3231C111.155 78.2747 111.751 74.7196 111.729 72.2752C111.726 71.9289 111.72 71.3282 111.717 70.9388C111.695 68.3531 111.048 64.2835 110.262 61.7967C109.614 59.7464 108.53 57.1527 107.572 55.3592C107.118 54.512 106.671 53.6639 106.577 53.4764C106.223 52.7727 105.054 50.6769 104.734 50.1759C103.9 48.8635 101.41 45.7863 101.146 45.7408C101.079 45.7289 100.949 45.6443 100.857 45.5534C99.4662 44.1604 96.0171 41.522 93.552 39.9647C91.8553 38.8925 87.9114 37.2586 85.2784 36.5373C80.6139 35.2592 76.7957 34.5875 74.6512 34.6681C74.1787 34.6856 73.7618 34.6872 73.7245 34.6721C73.6306 34.633 71.0883 34.7367 69.74 34.834L68.6192 34.9154L67.4109 33.0932C66.7459 32.0911 65.7572 30.6447 65.2131 29.8788C64.6698 29.1137 63.9507 28.0423 63.6158 27.499C62.2461 25.2755 61.3162 24.5231 57.8559 22.843L56.3398 22.1066L56.5928 21.7978C57.463 20.7391 61.2422 17.3851 63.2428 15.8972C63.9833 15.3459 64.5998 14.8705 64.6125 14.8401C64.6253 14.8098 64.984 14.5194 65.4104 14.1955C66.9711 13.0076 67.7458 11.8204 67.6551 10.7578C67.6018 10.1275 67.4101 9.75251 66.773 9.02571C65.824 7.94388 64.5712 7.18995 61.6487 5.94138C59.1247 4.86275 58.9378 4.76143 58.1312 4.02585C57.6634 3.59822 56.9611 3.08443 56.5713 2.88338C55.3041 2.22838 54.2493 1.72896 54.1873 1.75449ZM51.159 5.71959C50.6507 5.56163 50.1862 5.45312 50.1265 5.47865C50.0668 5.50339 50.074 6.14323 50.1424 6.89955C50.5139 11.0178 50.0128 15.764 49.0964 16.7972C48.8068 17.1235 48.7384 17.1338 48.3924 16.9073C47.7855 16.5092 47.5293 15.3108 47.4888 12.6773C47.484 12.3741 47.4411 11.2987 47.3933 10.2878C47.3456 9.27702 47.3098 7.69337 47.3138 6.76871C47.3201 5.12443 47.2318 4.83802 46.7888 5.07337C46.0172 5.48264 45.9106 7.12294 46.3751 11.4758C46.574 13.3395 47.2128 17.1969 47.4363 17.879C47.4633 17.9628 47.947 18.2524 48.5109 18.5236C49.0749 18.7941 50.1376 19.3342 50.8726 19.7235C52.9424 20.8181 53.6106 21.067 53.7307 20.787C54.352 19.3326 54.8833 18.3481 55.3033 17.8742C56.2937 16.7549 57.7255 15.401 59.4763 13.929C60.8134 12.8033 61.34 12.2688 61.6161 11.7558C62.0432 10.9612 61.9899 10.7609 61.2287 10.2918C60.6321 9.92484 60.5525 9.97909 59.944 11.1662C58.7755 13.4472 57.35 14.7532 56.3239 14.4835C55.8076 14.3471 55.7671 13.4807 56.2372 12.6206C56.6914 11.7893 58.0206 9.92723 58.5066 9.44217C58.7158 9.23314 58.8662 9.01135 58.8399 8.94912C58.8145 8.88689 58.0476 8.49756 57.1361 8.0835L55.4791 7.33117L55.3017 8.02207C55.2047 8.40182 55.0384 9.41664 54.9318 10.2775C54.5739 13.1663 54.1968 13.9362 52.8676 14.4899C52.209 14.7635 52.0801 14.7675 51.6816 14.5202C50.9498 14.0679 50.9331 13.2852 51.6116 11.3306C52.3896 9.08714 52.87 7.60402 52.9989 7.04794C53.127 6.49666 53.1134 6.46794 52.6067 6.24136C52.3188 6.11211 51.6673 5.87676 51.159 5.71959ZM82.9995 40.5543C80.0865 39.4174 78.7541 38.9603 77.7479 38.752C76.1037 38.413 76.0981 38.413 73.3482 38.8215C71.1766 39.1438 71.1321 39.1589 71.3596 39.4773C71.6093 39.8267 72.7429 42.5161 72.9926 43.3506C73.0762 43.6291 73.1756 44.1285 73.2138 44.4612C73.252 44.7931 73.3236 45.188 73.3729 45.3372C73.4874 45.6866 73.6385 47.8526 73.6545 49.3709C73.6608 50.0195 73.6704 50.6936 73.6751 50.8676C73.7213 52.547 73.5009 56.7761 73.2679 58.6901C72.9911 60.9598 72.5018 63.9971 72.2155 65.2257C71.4073 68.685 71.2681 69.198 70.8672 70.1849C70.3549 71.4446 69.4457 72.5624 67.7331 74.0415C65.8988 75.6259 64.8989 76.857 63.5904 79.1427C62.5261 81.0024 60.9264 83.3894 60.3974 83.9096C58.3117 85.9576 56.7431 87.0163 54.2279 88.0726C53.1771 88.5137 52.0412 88.9478 51.7039 89.0363C51.3666 89.1257 50.8543 89.2709 50.5656 89.3594L50.0414 89.5206L50.5163 90.1493C51.0532 90.8585 51.4438 90.9901 52.3228 90.758C54.4411 90.1979 56.0749 90.7125 57.8583 92.502C58.4645 93.1099 59.0014 93.678 59.0515 93.7649C59.2703 94.1447 61.0322 95.6876 61.76 96.1376C62.4529 96.5652 62.8864 96.7056 65.0651 97.2043C66.4453 97.5202 68.0274 97.8601 68.5818 97.959C69.4409 98.1122 70.8783 98.3922 76.888 99.5754C79.0166 99.995 82.0354 99.6089 85.3723 98.4919C87.6998 97.7133 88.7943 97.1684 89.5118 96.4344C89.9072 96.0291 89.8062 96.0538 88.2582 96.7399C86.6737 97.442 85.5664 97.7061 85.0692 97.5003C84.9491 97.4508 84.7447 97.2194 84.6142 96.9873C84.1871 96.2262 84.6063 95.6581 86.3404 94.6457C86.7588 94.4008 87.2019 94.0992 87.3243 93.9747C87.4461 93.8503 87.9703 93.3269 88.4889 92.8131C89.0075 92.2985 89.4482 91.8358 89.4697 91.7856C89.4904 91.7353 90.2341 91.1034 91.1234 90.383C92.0128 89.6618 93.2911 88.5449 93.9648 87.901C94.6385 87.2572 95.5557 86.3892 96.0028 85.9711C96.4506 85.5531 97.2978 84.6867 97.8856 84.0452C99.004 82.8254 99.599 82.4863 100.038 82.819C100.169 82.9179 100.42 83.5179 100.598 84.1529C100.819 84.9388 100.977 85.2667 101.094 85.1821C101.624 84.7976 104.036 78.1997 104.675 75.385C105.453 71.9584 105.818 67.7947 105.589 64.9521C105.337 61.8191 104.8 59.6371 103.556 56.6676C102.33 53.7453 101.071 51.9422 98.7829 49.8304C97.8212 48.9433 92.5441 44.8936 91.483 44.229C90.4584 43.5876 87.6218 42.3581 82.9995 40.5543ZM84.5243 42.351C83.8609 42.1882 82.838 41.9409 82.2517 41.8005C81.6647 41.6601 80.551 41.3776 79.7763 41.1734C76.4807 40.3038 75.7497 40.2463 75.943 40.8726C76.1164 41.4335 76.6072 41.7239 79.3125 42.8679C82.6359 44.2745 85.5513 45.8294 89.1738 48.1287C90.0186 48.664 91.4018 49.2711 92.1186 49.4203C92.6905 49.5392 93.5782 49.1954 93.7437 48.7909C93.7938 48.6672 93.7993 48.3401 93.7564 48.0641C93.6657 47.4912 92.6595 46.5163 90.779 45.18C89.3941 44.1955 86.2513 42.7746 84.5243 42.351ZM47.9923 27.5037C47.9406 27.5253 47.4315 27.3968 46.8604 27.2173C46.29 27.0386 45.1875 26.7283 44.4104 26.528C43.634 26.3278 42.6333 26.0509 42.1879 25.9129C41.0671 25.5667 38.7817 25.1662 37.5814 25.1071C37.0309 25.08 35.9626 25.0226 35.207 24.9803C33.5826 24.8877 33.6256 24.8877 31.6871 24.9915C28.9436 25.1382 27.3964 25.4853 25.3234 26.4187C22.9061 27.5069 16.5846 31.6954 16.2934 32.4015C16.2322 32.5515 16.8399 32.447 17.4134 32.2092C19.4554 31.3619 21.2253 31.4417 21.5864 32.3967C21.8688 33.1443 21.6373 33.6788 20.4258 35.0757C19.1833 36.5086 19.2486 36.4193 18.2733 38.0189C17.2353 39.7222 16.8574 40.2479 15.4972 41.8826C13.6032 44.1588 12.6908 45.6164 11.8365 47.7298C11.0387 49.7052 10.5773 51.0965 10.489 51.793C10.458 52.0387 10.2806 52.811 10.0953 53.5099C9.42389 56.0358 9.34196 56.7985 9.44139 59.5844C9.46685 60.3096 9.71185 61.9076 10.112 63.97C10.4858 65.8903 11.4038 68.4353 11.959 69.0863C12.1706 69.3344 12.48 69.9639 12.6471 70.4841C13.5714 73.3705 13.8721 74.1189 14.4742 75.0332C15.9928 77.3404 21.588 80.6809 26.2279 82.0515C26.9939 82.2773 27.8729 82.5374 28.1815 82.6299C28.4909 82.7217 29.1567 82.8972 29.6611 83.02C30.1662 83.1429 30.9553 83.3551 31.4142 83.4915C31.8732 83.6288 32.3497 83.7532 32.4714 83.7692C32.5939 83.7851 34.1936 84.1689 36.0255 84.6228C37.8574 85.0768 40.0226 85.5387 40.8356 85.6496C41.6493 85.7597 42.4925 85.8905 42.7097 85.9408C43.3413 86.0844 43.3651 85.9169 42.8378 85.0401C42.3175 84.1745 41.612 82.46 41.1554 80.9505C41.0058 80.4575 40.8348 79.9086 40.7743 79.7307C40.527 79.0007 40.3241 77.1641 40.3798 76.1621C40.4395 75.0771 40.8308 72.544 41.5499 68.5797C42.5116 63.2751 44.3109 58.4148 47.2326 53.2291C47.5476 52.6706 47.9907 51.8505 48.2182 51.4069C50.2291 47.488 53.0411 43.8181 56.1481 41.0569C56.5625 40.6891 56.9117 40.3628 56.9237 40.3325C56.9762 40.2065 59.8239 38.034 60.3123 37.7476L60.8461 37.4357L60.5374 36.8373C60.2853 36.3475 59.6561 35.781 57.0629 33.7123C55.3216 32.3225 53.3282 30.687 52.6338 30.0783C51.513 29.0954 51.1876 28.8871 49.7288 28.2178C48.8259 27.8037 48.044 27.4822 47.9923 27.5037ZM63.4337 42.2768C63.2698 42.3597 62.7965 42.71 62.3821 43.0554C61.9676 43.4009 61.0863 44.0224 60.4229 44.4372C58.5146 45.63 56.763 46.9591 55.8538 47.9037L55.3009 48.4797L56.02 48.4614C56.8505 48.4414 57.4996 48.7829 57.7422 49.3669C57.9156 49.7865 57.4988 50.9769 56.93 51.6861C56.487 52.2382 54.2676 55.9911 53.6193 57.2859C53.333 57.8564 52.7237 59.0642 52.2647 59.9706C51.1503 62.1709 49.6341 65.8544 49.3016 67.1692C48.1936 71.5531 47.8984 73.428 47.7839 76.7963C47.7258 78.4941 47.6272 79.3206 47.418 79.8631C47.1603 80.5301 47.0998 80.5979 46.823 80.5269C46.4268 80.4256 45.8891 79.7985 45.5359 79.027C45.0324 77.9284 45.2178 78.7262 46.2272 82.01C47.1157 84.9021 47.2565 85.2459 47.5429 85.2172C47.7203 85.1996 49.4925 84.5103 51.4828 83.6846C55.1975 82.1448 57.4733 80.9952 58.3451 80.2189L58.8415 79.7785L58.5917 78.676C57.8337 75.3324 58.1654 73.8636 60.64 69.5953C62.8148 65.8456 63.9778 62.9512 64.4455 60.1261C64.5322 59.602 64.704 58.6159 64.8273 57.9346C65.7126 53.0504 65.8829 48.3098 65.2704 45.6108C64.988 44.3654 64.1567 42.3023 63.8942 42.193C63.8051 42.1563 63.5975 42.1938 63.4337 42.2768ZM10.0451 43.2477C9.32366 44.3064 7.03673 49.4674 6.59287 51.0407C5.88889 53.533 5.41957 58.7204 5.69401 60.9726C5.85071 62.2603 6.3773 64.0059 6.94764 65.1276C7.20457 65.6342 7.35492 65.9517 7.95389 67.2514C8.29594 67.9949 8.82571 68.8869 8.95617 68.9411C8.99753 68.9579 8.83764 68.0635 8.5998 66.9522C7.35571 61.129 7.29923 60.0719 7.99128 55.4454C8.25935 53.6495 8.62446 51.9462 9.10889 50.2325C9.50503 48.8332 9.82639 47.421 9.82401 47.0947C9.82162 46.7684 9.9306 45.7432 10.0666 44.817C10.2026 43.8899 10.2981 43.0929 10.2782 43.0451C10.2591 42.9972 10.1533 43.0881 10.0451 43.2477Z" fill="#FCC01C"/>
</svg>
