    <svg width="515" height="88" viewBox="0 0 515 88" fill="none" xmlns="http://www.w3.org/2000/svg">
<g clip-path="url(#clip0_23_405)">
<path d="M13.6565 76.4955C14.375 76.5189 14.9501 76.723 15.3842 77.1079C15.8161 77.4885 16.1026 77.9563 16.2394 78.5113C16.3763 79.062 16.3763 79.6148 16.2394 80.1698C16.1026 80.7205 15.8161 81.1734 15.3842 81.5306C14.9501 81.8878 14.375 82.0451 13.6565 81.9984C11.9738 81.9473 10.2911 81.9601 8.61049 82.0324C6.92776 82.1068 5.24503 82.279 3.56444 82.5512C3.04487 82.649 2.49964 82.6065 1.93089 82.4236C1.36 82.2365 0.883193 81.9346 0.5026 81.5136C0.11987 81.0947 -0.0233863 80.5525 0.0749687 79.8891C0.496186 76.47 0.960166 73.0658 1.46905 69.6744C1.97579 66.2787 2.5253 62.8937 3.11971 59.5192C3.1924 59.1004 3.34207 58.7325 3.56444 58.4136C3.76329 58.0691 4.04767 57.7842 4.41971 57.5631C4.78961 57.3419 5.24503 57.2207 5.78813 57.1973C8.46082 57.0953 11.1357 57.1442 13.8105 57.3419C14.5289 57.393 15.1019 57.6226 15.5296 58.0308C15.9615 58.4348 16.248 58.9133 16.3848 59.4682C16.5217 60.0189 16.5217 60.5654 16.3848 61.1097C16.248 61.6498 15.9615 62.0921 15.5296 62.4365C15.1019 62.7831 14.5289 62.9298 13.8105 62.8788C11.9802 62.7555 10.1115 62.6917 8.20852 62.6917C8.08237 63.4061 7.95622 64.1205 7.83221 64.835C7.70605 65.5494 7.59487 66.2638 7.49865 66.9783C8.51214 67.0017 9.49142 67.0506 10.4322 67.1229C11.172 67.2207 11.8199 67.5035 12.3737 67.9734C12.9317 68.439 13.2118 69.0769 13.2118 69.887C13.2118 70.3591 13.0792 70.8141 12.8184 71.2564C12.5618 71.6986 12.2218 72.0558 11.8006 72.328C11.3837 72.6002 10.9283 72.7107 10.4322 72.6597C9.17069 72.5364 7.90918 72.4875 6.64339 72.5151C6.54503 73.2019 6.44668 73.8972 6.34405 74.5989C6.24569 75.2963 6.14948 76.0022 6.05326 76.7167C7.31263 76.5933 8.57201 76.5083 9.83352 76.4615C11.0993 76.4105 12.3737 76.4232 13.6565 76.4955Z" fill="#323232"/>
<path d="M34.6619 61.9176C34.7645 61.2032 35.0233 60.6887 35.4402 60.3697C35.8614 60.0529 36.3489 59.8998 36.9027 59.9104C37.4608 59.9232 37.9996 60.0699 38.5191 60.3527C39.043 60.6376 39.4535 61.0416 39.7507 61.5689C40.0458 62.0963 40.1441 62.7065 40.0415 63.3975C39.0259 70.1847 37.7665 76.9271 36.2612 83.6228C36.1351 84.1629 35.855 84.603 35.4231 84.9496C34.989 85.2941 34.4866 85.5109 33.9178 85.596C33.3534 85.681 32.8167 85.6173 32.3099 85.4089C31.8011 85.1984 31.4226 84.8242 31.1724 84.2862C30.6015 82.9318 30.02 81.5858 29.4277 80.2463C28.8333 78.9024 28.241 77.5544 27.6488 76.1978C27.2767 77.7968 26.9175 79.4042 26.5711 81.0202C26.229 82.6319 25.9062 84.2479 25.6047 85.8682C25.4849 86.5592 25.2027 87.0631 24.758 87.3821C24.3132 87.7053 23.8108 87.8669 23.2527 87.8669C22.6925 87.8669 22.1601 87.7159 21.6534 87.4161C21.1445 87.1205 20.7489 86.7144 20.4645 86.1999C20.1844 85.6832 20.1182 85.0814 20.2678 84.3968C21.3562 78.541 22.6904 72.7341 24.2705 66.9782C24.418 66.4339 24.7152 65.9916 25.1599 65.6514C25.6047 65.307 26.105 65.0858 26.6652 64.988C27.2233 64.8859 27.7471 64.9412 28.2389 65.1496C28.7349 65.3601 29.107 65.7492 29.3593 66.3148L32.6264 73.7993C33.0198 71.8325 33.3812 69.8593 33.7126 67.8798C34.0483 65.9023 34.3647 63.9142 34.6619 61.9176Z" fill="#323232"/>
<path d="M68.6888 76.4955C69.4072 76.5189 69.9824 76.723 70.4164 77.1079C70.8483 77.4885 71.1348 77.9563 71.2717 78.5113C71.4085 79.062 71.4085 79.6148 71.2717 80.1698C71.1348 80.7205 70.8483 81.1734 70.4164 81.5306C69.9824 81.8878 69.4072 82.0451 68.6888 81.9984C67.006 81.9473 65.3233 81.9601 63.6427 82.0324C61.96 82.1068 60.2773 82.279 58.5967 82.5512C58.0771 82.649 57.5319 82.6065 56.9631 82.4236C56.3922 82.2365 55.9154 81.9346 55.5348 81.5136C55.1521 81.0947 55.0088 80.5525 55.1072 79.8891C55.5284 76.47 55.9924 73.0658 56.5013 69.6744C57.008 66.2787 57.5575 62.8937 58.1519 59.5192C58.2246 59.1004 58.3743 58.7325 58.5967 58.4136C58.7955 58.0691 59.0799 57.7842 59.4519 57.5631C59.8218 57.3419 60.2773 57.2207 60.8204 57.1973C63.4931 57.0953 66.1679 57.1442 68.8427 57.3419C69.5611 57.393 70.1342 57.6226 70.5618 58.0308C70.9937 58.4348 71.2802 58.9133 71.4171 59.4682C71.5539 60.0189 71.5539 60.5654 71.4171 61.1097C71.2802 61.6498 70.9937 62.0921 70.5618 62.4365C70.1342 62.7831 69.5611 62.9298 68.8427 62.8788C67.0125 62.7555 65.1437 62.6917 63.2407 62.6917C63.1146 63.4061 62.9884 64.1205 62.8644 64.835C62.7383 65.5494 62.6271 66.2638 62.5309 66.9783C63.5444 67.0017 64.5236 67.0506 65.4644 67.1229C66.2042 67.2207 66.8521 67.5035 67.4059 67.9734C67.9639 68.439 68.244 69.0769 68.244 69.887C68.244 70.3591 68.1115 70.8141 67.8506 71.2564C67.594 71.6986 67.2541 72.0558 66.8329 72.328C66.4159 72.6002 65.9605 72.7107 65.4644 72.6597C64.2029 72.5364 62.9414 72.4875 61.6756 72.5151C61.5773 73.2019 61.4789 73.8972 61.3763 74.5989C61.2779 75.2963 61.1817 76.0022 61.0855 76.7167C62.3449 76.5933 63.6042 76.5083 64.8657 76.4615C66.1315 76.4105 67.4059 76.4232 68.6888 76.4955Z" fill="#323232"/>
<path d="M89.7366 75.1346C90.4486 75.0836 91.0152 75.226 91.4386 75.5599C91.8598 75.8894 92.1442 76.3253 92.2938 76.8697C92.4414 77.4097 92.4414 77.9626 92.2938 78.5282C92.1442 79.0959 91.8534 79.5828 91.4215 79.9911C90.9874 80.3951 90.4251 80.6183 89.7366 80.663C87.855 80.7884 86.0034 81.0244 84.186 81.3689C82.3664 81.7155 80.5532 82.1471 78.7465 82.6617C78.2269 82.8105 77.6817 82.7786 77.1129 82.5681C76.542 82.3597 76.0716 82.028 75.7017 81.573C75.3297 81.1137 75.1715 80.5779 75.2228 79.9655C75.5179 77.0865 75.8087 74.2076 76.0952 71.3328C76.3795 68.4538 76.6596 65.5727 76.9333 62.6916C77.006 62.0069 77.2519 61.4477 77.6688 61.0161C78.0901 60.5865 78.5861 60.3016 79.157 60.1655C79.7258 60.0295 80.2774 60.0295 80.8077 60.1655C81.3379 60.3016 81.7677 60.5802 82.0991 60.999C82.4348 61.42 82.5652 61.9835 82.4925 62.6916C82.2702 64.9837 82.0478 67.2673 81.8254 69.5467C81.6031 71.8219 81.3807 74.0885 81.1583 76.3508C83.9508 75.7619 86.8116 75.3557 89.7366 75.1346Z" fill="#323232"/>
<path d="M122.055 75.3898C122.744 75.2197 123.343 75.2516 123.852 75.4833C124.358 75.7172 124.754 76.0787 125.04 76.572C125.325 77.0653 125.472 77.6011 125.485 78.1795C125.496 78.7578 125.348 79.2809 125.04 79.7444C124.732 80.2101 124.23 80.5418 123.535 80.7395C122.274 81.0861 120.982 81.3519 119.661 81.539C118.337 81.7219 117.027 81.7261 115.727 81.556C114.427 81.3817 113.182 80.9607 111.998 80.2973C110.462 79.4361 109.295 78.2433 108.491 76.7166C107.687 75.192 107.321 73.5442 107.396 71.7751C107.492 70.0528 107.922 68.4049 108.688 66.8336C109.457 65.258 110.477 63.861 111.75 62.6406C113.026 61.4222 114.474 60.4866 116.094 59.8339C117.719 59.1832 119.408 58.9302 121.166 59.0769C121.884 59.1279 122.457 59.3576 122.885 59.7658C123.317 60.1698 123.603 60.6546 123.74 61.2202C123.877 61.7879 123.877 62.3408 123.74 62.8787C123.603 63.4188 123.317 63.8547 122.885 64.1885C122.457 64.5244 121.884 64.6648 121.166 64.6138C119.877 64.5181 118.656 64.7583 117.505 65.3367C116.359 65.915 115.389 66.7145 114.598 67.7351C113.804 68.7558 113.298 69.904 113.075 71.1797C112.853 72.2918 112.906 73.1848 113.238 73.8589C113.573 74.535 114.076 75.0389 114.743 75.3728C115.41 75.7023 116.171 75.898 117.027 75.9596C117.882 76.0234 118.748 76 119.627 75.8916C120.503 75.7789 121.314 75.6109 122.055 75.3898Z" fill="#323232"/>
<path d="M147.99 60.812C148.588 61.7709 148.999 62.849 149.221 64.0439C149.443 65.2347 149.54 66.4403 149.512 67.6586C149.488 68.8791 149.392 70.0146 149.221 71.0692C148.969 72.6979 148.46 74.2374 147.69 75.6875C146.925 77.1398 145.903 78.3921 144.62 79.4468C143.382 80.4568 141.945 81.1967 140.309 81.6666C138.678 82.1323 137.085 82.1174 135.528 81.6241C134.485 81.3073 133.578 80.78 132.809 80.0421C132.043 79.3064 131.402 78.4644 130.884 77.5161C130.365 76.5635 129.982 75.5982 129.738 74.6158C129.441 73.5336 129.268 72.2854 129.217 70.8736C129.165 69.4575 129.261 68.0116 129.507 66.5359C129.757 65.0561 130.168 63.6782 130.739 62.4024C131.308 61.1224 132.075 60.0614 133.04 59.2215C134.025 58.2179 135.212 57.5077 136.597 57.0867C137.983 56.6678 139.405 56.5254 140.865 56.6615C142.323 56.7975 143.683 57.2186 144.945 57.9202C146.211 58.6177 147.224 59.583 147.99 60.812ZM141.242 75.1687C142.08 74.382 142.704 73.4655 143.115 72.4215C143.525 71.3733 143.777 70.2782 143.876 69.1385C143.972 67.9946 143.946 66.8804 143.799 65.796C143.649 64.7137 143.221 63.8292 142.516 63.1424C141.815 62.4513 140.882 62.1175 139.719 62.1388C139.073 62.1388 138.447 62.3004 137.838 62.6236C137.232 62.9425 136.734 63.3593 136.341 63.8738C135.896 64.4926 135.573 65.2325 135.374 66.0937C135.18 66.9506 135.032 67.7501 134.93 68.4921C134.707 70.1379 134.795 71.7581 135.195 73.3571C135.315 73.8291 135.479 74.299 135.691 74.7689C135.9 75.2346 136.204 75.6152 136.597 75.9086C137.241 76.3743 137.977 76.538 138.804 76.4019C139.636 76.2658 140.361 75.9405 140.976 75.4238C141.049 75.3515 141.139 75.2665 141.242 75.1687Z" fill="#323232"/>
<path d="M172.523 80.8161C172.945 81.3838 173.118 81.9388 173.045 82.4831C172.97 83.0232 172.733 83.4825 172.335 83.861C171.942 84.2416 171.465 84.5095 170.907 84.6689C170.353 84.8263 169.787 84.8327 169.205 84.686C168.623 84.5371 168.121 84.1841 167.7 83.6228C166.588 82.0983 165.343 80.6885 163.971 79.3957C162.596 78.103 161.116 76.942 159.532 75.9086C159.412 77.3843 159.295 78.8472 159.181 80.2973C159.066 81.7495 158.95 83.2124 158.831 84.686C158.779 85.4004 158.548 85.966 158.138 86.387C157.732 86.8059 157.244 87.0887 156.675 87.2375C156.104 87.3842 155.555 87.3842 155.025 87.2375C154.494 87.0887 154.054 86.8059 153.708 86.387C153.359 85.966 153.212 85.4004 153.263 84.686C153.485 81.9813 153.656 79.2405 153.776 76.4615C153.9 73.6782 154.238 70.9586 154.785 68.305C155.059 66.9506 155.566 65.6344 156.308 64.3586C157.047 63.0786 157.992 62.0155 159.139 61.1692C160.289 60.3187 161.632 59.8679 163.167 59.8169C164.232 59.7658 165.241 59.9615 166.194 60.4037C167.146 60.846 167.956 61.4562 168.623 62.2323C169.29 63.0106 169.74 63.8972 169.975 64.8945C170.214 65.8874 170.159 66.9144 169.812 67.9733C169.464 69.0067 168.899 69.9954 168.119 70.9416C167.343 71.8899 166.447 72.7086 165.433 73.3996C168.078 75.5153 170.441 77.9881 172.523 80.8161ZM164.578 66.0171C164.48 65.5238 164.289 65.2474 164.005 65.1836C163.718 65.122 163.398 65.2006 163.039 65.4218C162.679 65.6429 162.324 65.9278 161.978 66.2723C161.636 66.6189 161.339 66.9591 161.089 67.2929C160.843 67.6225 160.682 67.8606 160.61 68.0073C160.409 68.5517 160.235 69.1683 160.088 69.853C160.584 69.7807 161.029 69.6276 161.422 69.3937C161.82 69.1619 162.205 68.8727 162.577 68.5262C162.724 68.3794 162.972 68.1477 163.321 67.8287C163.667 67.5055 163.975 67.1738 164.244 66.8336C164.518 66.4892 164.629 66.217 164.578 66.0171Z" fill="#323232"/>
<path d="M194.123 68.1179C194.196 70.5801 194.256 73.0402 194.303 75.5004C194.354 77.9626 194.416 80.4227 194.491 82.8828C194.512 83.5973 194.339 84.1692 193.969 84.5924C193.597 85.0219 193.14 85.3068 192.592 85.4429C192.049 85.579 191.5 85.5726 190.942 85.4259C190.388 85.277 189.917 84.9942 189.53 84.5754C189.148 84.1629 188.944 83.5973 188.923 82.8828C188.9 82.1471 188.88 81.4093 188.863 80.6715C188.85 79.9294 188.833 79.1895 188.812 78.4516L183.244 78.2645C183.05 79.1788 182.864 80.1016 182.688 81.0372C182.517 81.9728 182.342 82.9083 182.167 83.8439C182.047 84.5286 181.769 85.0304 181.337 85.3493C180.903 85.6725 180.4 85.8341 179.832 85.8341C179.261 85.8341 178.722 85.6853 178.215 85.3919C177.706 85.0963 177.311 84.6902 177.026 84.1756C176.746 83.6611 176.667 83.0572 176.787 82.364C177.232 79.9549 177.732 77.5714 178.292 75.2112C178.85 72.8468 179.637 70.5461 180.653 68.305C181.142 67.1993 181.769 66.0065 182.534 64.7243C183.304 63.4443 184.176 62.2706 185.151 61.2032C186.131 60.1315 187.215 59.3384 188.401 58.8218C189.518 58.3518 190.422 58.2647 191.113 58.5581C191.807 58.8536 192.353 59.3895 192.746 60.1656C193.14 60.9438 193.43 61.8241 193.619 62.8107C193.807 63.793 193.929 64.7626 193.986 65.7194C194.048 66.6784 194.093 67.4779 194.123 68.1179ZM184.989 72.1748C184.965 72.2769 184.933 72.379 184.895 72.481C184.861 72.5788 184.818 72.6745 184.767 72.7702C185.434 72.7936 186.088 72.8191 186.734 72.8468C187.377 72.8701 188.021 72.8935 188.667 72.9148C188.637 72.1281 188.617 71.3328 188.607 70.5333C188.594 69.7339 188.577 68.9301 188.555 68.1179C188.525 67.8011 188.513 67.463 188.513 67.1058C188.513 66.7486 188.513 66.3871 188.513 66.0171C188.096 66.5104 187.739 66.991 187.444 67.4545C186.947 68.1923 186.494 68.9556 186.084 69.7424C185.677 70.5312 185.314 71.3413 184.989 72.1748Z" fill="#323232"/>
<path d="M215.161 77.2695C215.88 77.2482 216.455 77.4098 216.889 77.7542C217.321 78.0945 217.603 78.5367 217.736 79.081C217.873 79.6211 217.873 80.174 217.736 80.7396C217.603 81.3073 217.321 81.7899 216.889 82.1854C216.455 82.5767 215.88 82.785 215.161 82.8063C212.812 82.9041 210.453 83.0083 208.088 83.121C205.728 83.2358 203.372 83.34 201.024 83.4357C200.327 83.4591 199.726 83.2443 199.219 82.7893C198.71 82.3364 198.383 81.7772 198.236 81.1138C198.086 80.4461 198.212 79.8295 198.612 79.2682C199.673 77.7436 200.821 76.2977 202.059 74.9305C203.295 73.5655 204.565 72.2174 205.865 70.8906C207.165 69.5595 208.407 68.1817 209.594 66.7571C207.712 66.706 205.843 66.6805 203.992 66.6805C203.273 66.6805 202.696 66.4913 202.264 66.1107C201.83 65.7258 201.546 65.2644 201.409 64.7243C201.272 64.1864 201.272 63.6399 201.409 63.0829C201.546 62.5279 201.83 62.0665 202.264 61.6965C202.696 61.3287 203.273 61.1437 203.992 61.1437C207.652 61.1437 211.3 61.2798 214.939 61.5519C215.606 61.603 216.192 61.839 216.701 62.2579C217.208 62.6725 217.541 63.1934 217.702 63.8228C217.86 64.4479 217.744 65.0688 217.351 65.6854C215.891 67.9265 214.231 69.9869 212.373 71.8687C210.519 73.7526 208.715 75.6769 206.959 77.6437C208.321 77.5714 209.688 77.5033 211.056 77.4396C212.429 77.3779 213.797 77.3205 215.161 77.2695Z" fill="#323232"/>
<path d="M231.005 57.0101C230.338 56.6933 229.829 56.234 229.483 55.6323C229.134 55.0263 229.085 54.4395 229.338 53.8717L230.338 51.5839C230.561 51.0459 231.016 50.6717 231.707 50.4612C232.401 50.2528 233.094 50.306 233.785 50.6228C234.456 50.946 234.965 51.4116 235.307 52.0176C235.654 52.6194 235.705 53.1998 235.461 53.7612L234.461 56.0491C234.238 56.5934 233.778 56.9719 233.084 57.1802C232.393 57.3908 231.7 57.3333 231.005 57.0101ZM240.353 63.2444C240.952 64.2098 241.363 65.2814 241.585 66.4594C241.807 67.6395 241.903 68.8451 241.876 70.0741C241.852 71.3052 241.756 72.4513 241.585 73.5101C241.333 75.1325 240.824 76.6698 240.054 78.1199C239.288 79.5722 238.266 80.8288 236.984 81.8877C235.746 82.8977 234.309 83.6355 232.673 84.0991C231.042 84.5626 229.449 84.552 227.892 84.065C226.849 83.7418 225.942 83.2124 225.172 82.4746C224.407 81.7389 223.765 80.8905 223.248 79.9315C222.728 78.9683 222.346 77.9966 222.102 77.0143C221.805 75.932 221.632 74.6902 221.58 73.289C221.529 71.8835 221.625 70.444 221.871 68.9684C222.121 67.4949 222.532 66.117 223.103 64.8349C223.671 63.5549 224.439 62.496 225.403 61.6625C226.389 60.6546 227.576 59.9402 228.961 59.5192C230.347 59.1003 231.769 58.9578 233.229 59.0939C234.687 59.23 236.047 59.651 237.309 60.3527C238.574 61.0501 239.588 62.0154 240.353 63.2444ZM233.605 77.6011C234.443 76.8144 235.068 75.898 235.478 74.854C235.889 73.8121 236.141 72.7107 236.239 71.554C236.336 70.3973 236.31 69.2895 236.163 68.2284C236.013 67.1462 235.585 66.2616 234.88 65.5748C234.178 64.8838 233.246 64.5372 232.083 64.5372C231.437 64.567 230.811 64.7328 230.201 65.039C229.596 65.3452 229.098 65.7705 228.705 66.3148C228.26 66.9272 227.937 67.665 227.738 68.5261C227.544 69.3894 227.396 70.1761 227.293 70.8906C227.071 72.5363 227.159 74.1565 227.559 75.7555C227.678 76.2488 227.843 76.7315 228.055 77.2014C228.264 77.667 228.568 78.0476 228.961 78.3411C229.605 78.8131 230.34 78.979 231.168 78.8429C232 78.7068 232.724 78.3815 233.34 77.8648C233.443 77.7925 233.53 77.7032 233.605 77.6011Z" fill="#323232"/>
<path d="M260.061 61.9176C260.163 61.2032 260.422 60.6887 260.839 60.3697C261.26 60.0529 261.748 59.8998 262.302 59.9104C262.86 59.9232 263.398 60.0699 263.918 60.3527C264.442 60.6376 264.852 61.0416 265.15 61.5689C265.445 62.0963 265.543 62.7065 265.44 63.3975C264.425 70.1847 263.165 76.9271 261.66 83.6228C261.534 84.1629 261.254 84.603 260.822 84.9496C260.388 85.2941 259.886 85.5109 259.317 85.596C258.752 85.681 258.216 85.6173 257.709 85.4089C257.2 85.1984 256.822 84.8242 256.571 84.2862C256 82.9318 255.419 81.5858 254.827 80.2463C254.232 78.9024 253.64 77.5544 253.048 76.1978C252.676 77.7968 252.316 79.4042 251.97 81.0202C251.628 82.6319 251.305 84.2479 251.004 85.8682C250.884 86.5592 250.602 87.0631 250.157 87.3821C249.712 87.7053 249.21 87.8669 248.652 87.8669C248.091 87.8669 247.559 87.7159 247.052 87.4161C246.543 87.1205 246.148 86.7144 245.863 86.1999C245.583 85.6832 245.517 85.0814 245.667 84.3968C246.755 78.541 248.089 72.7341 249.669 66.9782C249.817 66.4339 250.114 65.9916 250.559 65.6514C251.004 65.307 251.504 65.0858 252.064 64.988C252.622 64.8859 253.146 64.9412 253.638 65.1496C254.134 65.3601 254.506 65.7492 254.758 66.3148L258.025 73.7993C258.419 71.8325 258.78 69.8593 259.111 67.8798C259.447 65.9023 259.764 63.9142 260.061 61.9176Z" fill="#323232"/>
<path d="M286.673 57.8607C288.131 58.1329 289.54 58.5411 290.898 59.0855C292.26 59.6255 293.523 60.4101 294.687 61.4414C295.946 62.5705 296.921 63.9164 297.612 65.4813C298.306 67.042 298.554 68.6708 298.356 70.3718C298.185 71.8241 297.718 73.1657 296.962 74.3947C296.209 75.6259 295.287 76.7081 294.199 77.6437C292.989 78.6771 291.561 79.5063 289.914 80.1357C288.272 80.7609 286.694 81.3179 285.185 81.8112C284.761 81.9367 284.334 82.0473 283.902 82.1429C283.468 82.2408 283.042 82.2663 282.627 82.2195C282.029 82.1174 281.511 81.8346 281.079 81.369C280.652 80.8991 280.449 80.3696 280.472 79.7785C280.643 73.0892 280.977 66.3723 281.473 59.6298C281.524 58.8707 281.776 58.3434 282.234 58.0478C282.689 57.7544 283.235 57.5949 283.867 57.5715C284.5 57.5439 285.112 57.5779 285.706 57.6736C286.025 57.7246 286.348 57.7884 286.673 57.8607ZM292.608 70.7035C292.955 69.6956 293.01 68.7898 292.771 67.9904C292.536 67.1909 292.108 66.4913 291.488 65.8896C290.872 65.2836 290.141 64.7839 289.298 64.3927C288.46 64.0014 287.607 63.7186 286.741 63.5422C286.495 67.6034 286.299 71.6136 286.151 75.577C287.062 75.2835 287.947 74.9455 288.802 74.5648C289.658 74.18 290.419 73.6803 291.086 73.0679C291.753 72.4513 292.26 71.6625 292.608 70.7035Z" fill="#323232"/>
<path d="M315.759 76.4955C316.478 76.5189 317.053 76.723 317.487 77.1079C317.919 77.4885 318.205 77.9563 318.342 78.5113C318.479 79.062 318.479 79.6148 318.342 80.1698C318.205 80.7205 317.919 81.1734 317.487 81.5306C317.053 81.8878 316.478 82.0451 315.759 81.9984C314.076 81.9473 312.394 81.9601 310.713 82.0324C309.03 82.1068 307.348 82.279 305.667 82.5512C305.147 82.649 304.602 82.6065 304.033 82.4236C303.463 82.2365 302.986 81.9346 302.605 81.5136C302.222 81.0947 302.079 80.5525 302.178 79.8891C302.599 76.47 303.063 73.0658 303.572 69.6744C304.078 66.2787 304.628 62.8937 305.222 59.5192C305.295 59.1004 305.445 58.7325 305.667 58.4136C305.866 58.0691 306.15 57.7842 306.522 57.5631C306.892 57.3419 307.348 57.2207 307.891 57.1973C310.563 57.0953 313.238 57.1442 315.913 57.3419C316.631 57.393 317.204 57.6226 317.632 58.0308C318.064 58.4348 318.351 58.9133 318.487 59.4682C318.624 60.0189 318.624 60.5654 318.487 61.1097C318.351 61.6498 318.064 62.0921 317.632 62.4365C317.204 62.7831 316.631 62.9298 315.913 62.8788C314.083 62.7555 312.214 62.6917 310.311 62.6917C310.185 63.4061 310.059 64.1205 309.935 64.835C309.809 65.5494 309.697 66.2638 309.601 66.9783C310.615 67.0017 311.594 67.0506 312.535 67.1229C313.275 67.2207 313.922 67.5035 314.476 67.9734C315.034 68.439 315.314 69.0769 315.314 69.887C315.314 70.3591 315.182 70.8141 314.921 71.2564C314.664 71.6986 314.324 72.0558 313.903 72.328C313.486 72.6002 313.031 72.7107 312.535 72.6597C311.273 72.5364 310.012 72.4875 308.746 72.5151C308.648 73.2019 308.549 73.8972 308.447 74.5989C308.348 75.2963 308.252 76.0022 308.156 76.7167C309.415 76.5933 310.675 76.5083 311.936 76.4615C313.202 76.4105 314.476 76.4232 315.759 76.4955Z" fill="#323232"/>
<path d="M350.534 77.2695C351.253 77.2482 351.828 77.4098 352.262 77.7542C352.694 78.0945 352.976 78.5367 353.109 79.081C353.246 79.6211 353.246 80.174 353.109 80.7396C352.976 81.3073 352.694 81.7899 352.262 82.1854C351.828 82.5767 351.253 82.785 350.534 82.8063C348.185 82.9041 345.826 83.0083 343.461 83.121C341.101 83.2358 338.745 83.34 336.397 83.4357C335.7 83.4591 335.099 83.2443 334.592 82.7893C334.083 82.3364 333.756 81.7772 333.609 81.1138C333.459 80.4461 333.585 79.8295 333.985 79.2682C335.046 77.7436 336.194 76.2977 337.432 74.9305C338.668 73.5655 339.938 72.2174 341.238 70.8906C342.538 69.5595 343.78 68.1817 344.967 66.7571C343.085 66.706 341.216 66.6805 339.365 66.6805C338.646 66.6805 338.069 66.4913 337.637 66.1107C337.203 65.7258 336.919 65.2644 336.782 64.7243C336.645 64.1864 336.645 63.6399 336.782 63.0829C336.919 62.5279 337.203 62.0665 337.637 61.6965C338.069 61.3287 338.646 61.1437 339.365 61.1437C343.025 61.1437 346.673 61.2798 350.312 61.5519C350.979 61.603 351.565 61.839 352.074 62.2579C352.581 62.6725 352.914 63.1934 353.075 63.8228C353.233 64.4479 353.117 65.0688 352.724 65.6854C351.264 67.9265 349.604 69.9869 347.746 71.8687C345.893 73.7526 344.088 75.6769 342.332 77.6437C343.694 77.5714 345.061 77.5033 346.429 77.4396C347.802 77.3779 349.17 77.3205 350.534 77.2695Z" fill="#323232"/>
<path d="M358.621 61.5519C358.693 60.8609 358.941 60.2995 359.365 59.8679C359.786 59.4384 360.28 59.1577 360.844 59.0259C361.413 58.8898 361.969 58.8898 362.512 59.0259C363.06 59.1577 363.491 59.432 363.812 59.8509C364.137 60.2719 364.261 60.8375 364.189 61.5519C363.47 68.22 362.914 74.9008 362.521 81.5901C362.469 82.3045 362.243 82.8722 361.845 83.2911C361.452 83.7057 360.975 83.9864 360.417 84.1331C359.863 84.2819 359.314 84.2819 358.766 84.1331C358.223 83.9864 357.774 83.7057 357.415 83.2911C357.056 82.8722 356.902 82.3045 356.953 81.5901C357.346 74.9008 357.902 68.22 358.621 61.5519Z" fill="#323232"/>
<path d="M381.074 59.0769C382.259 59.5702 383.341 60.206 384.316 60.9821C385.295 61.7539 386.088 62.6491 386.693 63.6697C387.303 64.6903 387.651 65.7939 387.737 66.9782C387.822 68.1583 387.568 69.3894 386.976 70.6695C386.206 72.2174 385.139 73.4549 383.777 74.3777C382.419 75.2963 380.916 75.8874 379.27 76.1468C377.628 76.4019 376.003 76.3467 374.395 75.9767C374.245 77.3843 374.098 78.7876 373.95 80.1867C373.8 81.588 373.653 82.9913 373.505 84.3968C373.43 85.0815 373.189 85.6407 372.778 86.0723C372.372 86.5018 371.885 86.7867 371.316 86.9228C370.745 87.0589 370.187 87.0589 369.639 86.9228C369.096 86.7867 368.664 86.5082 368.339 86.0893C368.019 85.6747 367.886 85.1112 367.937 84.3968C368.284 81.0755 368.617 77.7606 368.938 74.4543C369.263 71.1436 369.61 67.8373 369.982 64.5373C370.153 63.2338 370.508 62.0601 371.051 61.0161C371.598 59.9742 372.526 59.2045 373.839 58.7112C375.002 58.269 376.219 58.1116 377.491 58.2349C378.767 58.354 379.962 58.6347 381.074 59.0769ZM374.951 70.4058C375.566 70.5823 376.27 70.6822 377.063 70.7035C377.854 70.7269 378.633 70.6418 379.398 70.4483C380.168 70.2506 380.811 69.9125 381.331 69.4362C381.848 68.9557 382.146 68.2944 382.22 67.4545C382.272 66.9166 382.086 66.3956 381.664 65.8896C381.248 65.3856 380.702 64.9498 380.031 64.5798C379.364 64.2119 378.697 63.9483 378.03 63.7888C377.362 63.6251 376.794 63.6059 376.328 63.7293C376.054 63.8271 375.885 63.8887 375.823 63.9164C375.759 63.9398 375.729 63.9887 375.729 64.061C375.729 64.1354 375.665 64.2949 375.541 64.5373C375.391 64.8604 375.318 65.2942 375.318 65.8385C375.318 66.3786 375.306 66.8421 375.284 67.2334C375.233 67.7735 375.175 68.3029 375.113 68.8238C375.055 69.3405 375.002 69.8679 374.951 70.4058Z" fill="#323232"/>
<path d="M408.835 68.1179C408.908 70.5801 408.968 73.0402 409.015 75.5004C409.066 77.9626 409.128 80.4227 409.203 82.8828C409.224 83.5973 409.051 84.1692 408.681 84.5924C408.309 85.0219 407.851 85.3068 407.304 85.4429C406.761 85.579 406.212 85.5726 405.653 85.4259C405.1 85.277 404.629 84.9942 404.242 84.5754C403.86 84.1629 403.656 83.5973 403.635 82.8828C403.612 82.1471 403.592 81.4093 403.575 80.6715C403.562 79.9294 403.545 79.1895 403.524 78.4516L397.956 78.2645C397.762 79.1788 397.575 80.1016 397.4 81.0372C397.229 81.9728 397.054 82.9083 396.878 83.8439C396.759 84.5286 396.481 85.0304 396.049 85.3493C395.615 85.6725 395.112 85.8341 394.544 85.8341C393.973 85.8341 393.434 85.6853 392.927 85.3919C392.418 85.0963 392.023 84.6902 391.738 84.1756C391.458 83.6611 391.379 83.0572 391.499 82.364C391.944 79.9549 392.444 77.5714 393.004 75.2112C393.562 72.8468 394.349 70.5461 395.365 68.305C395.854 67.1993 396.481 66.0065 397.246 64.7243C398.016 63.4443 398.888 62.2706 399.863 61.2032C400.843 60.1315 401.927 59.3384 403.113 58.8218C404.229 58.3518 405.134 58.2647 405.824 58.5581C406.519 58.8536 407.065 59.3895 407.458 60.1656C407.851 60.9438 408.142 61.8241 408.33 62.8107C408.519 63.793 408.64 64.7626 408.698 65.7194C408.76 66.6784 408.805 67.4779 408.835 68.1179ZM399.701 72.1748C399.677 72.2769 399.645 72.379 399.607 72.481C399.573 72.5788 399.53 72.6745 399.478 72.7702C400.146 72.7936 400.8 72.8191 401.446 72.8468C402.089 72.8701 402.733 72.8935 403.378 72.9148C403.349 72.1281 403.329 71.3328 403.319 70.5333C403.306 69.7339 403.289 68.9301 403.267 68.1179C403.237 67.8011 403.224 67.463 403.224 67.1058C403.224 66.7486 403.224 66.3871 403.224 66.0171C402.808 66.5104 402.45 66.991 402.155 67.4545C401.659 68.1923 401.206 68.9556 400.796 69.7424C400.389 70.5312 400.026 71.3413 399.701 72.1748Z" fill="#323232"/>
<path d="M432.952 63.4656C433.795 64.5266 434.351 65.7024 434.62 66.9952C434.894 68.288 434.941 69.6297 434.765 71.0181C434.594 72.4087 434.254 73.7696 433.748 75.1006C433.239 76.4274 432.629 77.6564 431.917 78.7833C432.332 79.4978 432.664 80.2547 432.91 81.0542C433.16 81.8537 433.297 82.6957 433.32 83.5802C433.348 84.2947 433.183 84.8667 432.824 85.2983C432.465 85.7278 432.005 86.0127 431.447 86.1488C430.893 86.2849 430.337 86.2849 429.779 86.1488C429.219 86.0127 428.749 85.7278 428.368 85.2983C427.985 84.8667 427.782 84.2947 427.761 83.5802C427.761 83.4846 427.746 83.3485 427.718 83.172C426.606 83.8864 425.426 84.401 424.177 84.7199C422.929 85.0431 421.684 85.1239 420.448 84.9666C419.21 84.8071 418.064 84.3585 417.01 83.6228C415.96 82.8807 415.09 81.8346 414.402 80.4844C413.683 79.1299 413.224 77.6734 413.025 76.1127C412.824 74.5478 412.866 72.9658 413.153 71.3668C413.437 69.7679 413.931 68.2582 414.633 66.8336C415.338 65.4047 416.249 64.1438 417.361 63.0488C418.477 61.9495 419.777 61.1415 421.261 60.6248C422.623 60.1379 424.028 59.9147 425.477 59.9529C426.925 59.987 428.295 60.2931 429.591 60.8715C430.891 61.4498 432.012 62.3152 432.952 63.4656ZM419.037 77.346C419.133 77.5905 419.245 77.8116 419.371 78.0094C419.792 78.7472 420.312 79.2086 420.927 79.3957C421.547 79.5786 422.204 79.5722 422.894 79.3787C423.589 79.181 424.233 78.8726 424.827 78.4516C424.479 78.1348 424.152 77.818 423.844 77.4991C423.536 77.1759 423.245 76.8676 422.971 76.572C422.475 76.0574 422.212 75.5089 422.185 74.9305C422.161 74.3522 422.298 73.8163 422.595 73.323C422.89 72.8297 423.281 72.4364 423.767 72.1408C424.25 71.8474 424.77 71.7304 425.323 71.7921C425.881 71.8559 426.41 72.1451 426.906 72.6596C426.927 72.683 427.045 72.8 427.256 73.0083C427.466 73.2188 427.677 73.4336 427.889 73.6547C428.099 73.8759 428.206 73.9992 428.206 74.0205C428.473 73.3571 428.723 72.6894 428.958 72.0132C429.198 71.3392 429.339 70.6439 429.386 69.9295C429.459 69.2384 429.379 68.5389 429.146 67.8287C428.911 67.1143 428.509 66.5487 427.94 66.1277C427.175 65.5387 426.341 65.292 425.435 65.3877C424.532 65.4855 423.681 65.7938 422.877 66.3148C422.073 66.8315 421.411 67.4077 420.893 68.0413C420.247 68.8812 419.715 69.8359 419.294 70.9076C418.87 71.9792 418.622 73.0743 418.55 74.1906C418.475 75.309 418.637 76.3594 419.037 77.346Z" fill="#323232"/>
<path d="M458.443 63.321C458.591 64.6478 458.601 66.0937 458.477 67.6586C458.358 69.2193 458.075 70.78 457.631 72.345C457.186 73.9099 456.562 75.3622 455.758 76.6996C454.954 78.0392 453.964 79.1704 452.79 80.0932C451.614 81.0181 450.246 81.6156 448.685 81.8878C447.053 82.1557 445.661 82.0238 444.511 81.4965C443.359 80.9692 442.407 80.1697 441.654 79.0981C440.902 78.0264 440.299 76.7847 439.85 75.3728C439.405 73.9567 439.089 72.4938 438.9 70.9841C438.717 69.4702 438.62 68.0137 438.61 66.6125C438.597 65.207 438.629 63.9887 438.704 62.9553C438.755 62.2408 438.982 61.6753 439.388 61.2543C439.799 60.8354 440.28 60.5526 440.833 60.4037C441.391 60.257 441.941 60.257 442.484 60.4037C443.031 60.5526 443.476 60.8354 443.818 61.2543C444.165 61.6753 444.316 62.2408 444.272 62.9553C444.242 63.3253 444.216 63.9461 444.195 64.8179C444.171 65.6918 444.182 66.6954 444.229 67.8287C444.28 68.9578 444.385 70.089 444.545 71.2223C444.71 72.3514 444.947 73.3613 445.255 74.2501C445.563 75.1347 445.976 75.7683 446.495 76.1468C447.013 76.5274 447.669 76.5338 448.462 76.1638C449.551 75.6705 450.417 74.9135 451.062 73.8929C451.706 72.8723 452.176 71.7369 452.474 70.4823C452.769 69.23 452.94 67.9776 452.987 66.7231C453.038 65.4643 452.999 64.331 452.875 63.321C452.777 62.6066 452.888 62.0431 453.209 61.6285C453.534 61.2096 453.962 60.9311 454.492 60.795C455.026 60.6589 455.578 60.6589 456.143 60.795C456.711 60.9311 457.214 61.216 457.648 61.6455C458.08 62.0771 458.345 62.6363 458.443 63.321Z" fill="#323232"/>
<path d="M463.936 61.5519C464.008 60.8609 464.256 60.2995 464.68 59.8679C465.101 59.4384 465.595 59.1577 466.159 59.0259C466.728 58.8898 467.284 58.8898 467.827 59.0259C468.375 59.1577 468.806 59.432 469.127 59.8509C469.452 60.2719 469.576 60.8375 469.503 61.5519C468.785 68.22 468.229 74.9008 467.836 81.5901C467.784 82.3045 467.558 82.8722 467.16 83.2911C466.767 83.7057 466.29 83.9864 465.732 84.1331C465.178 84.2819 464.628 84.2819 464.081 84.1331C463.538 83.9864 463.089 83.7057 462.73 83.2911C462.371 82.8722 462.217 82.3045 462.268 81.5901C462.661 74.9008 463.217 68.22 463.936 61.5519Z" fill="#323232"/>
<path d="M492.513 80.8161C492.934 81.3838 493.107 81.9388 493.034 82.4831C492.96 83.0232 492.722 83.4825 492.324 83.861C491.931 84.2416 491.454 84.5095 490.896 84.6689C490.342 84.8263 489.776 84.8327 489.194 84.686C488.613 84.5371 488.11 84.1841 487.689 83.6228C486.577 82.0983 485.333 80.6885 483.96 79.3957C482.585 78.103 481.106 76.942 479.521 75.9086C479.401 77.3843 479.284 78.8472 479.171 80.2973C479.055 81.7495 478.94 83.2124 478.82 84.686C478.769 85.4004 478.538 85.966 478.127 86.387C477.721 86.8059 477.233 87.0887 476.665 87.2375C476.094 87.3842 475.544 87.3842 475.014 87.2375C474.484 87.0887 474.043 86.8059 473.697 86.387C473.348 85.966 473.201 85.4004 473.252 84.686C473.474 81.9813 473.646 79.2405 473.765 76.4615C473.889 73.6782 474.227 70.9586 474.774 68.305C475.048 66.9506 475.555 65.6344 476.297 64.3586C477.037 63.0786 477.982 62.0155 479.128 61.1692C480.278 60.3187 481.621 59.8679 483.156 59.8169C484.221 59.7658 485.23 59.9615 486.184 60.4037C487.135 60.846 487.946 61.4562 488.613 62.2323C489.28 63.0106 489.729 63.8972 489.964 64.8945C490.203 65.8874 490.148 66.9144 489.801 67.9733C489.453 69.0067 488.888 69.9954 488.108 70.9416C487.332 71.8899 486.436 72.7086 485.423 73.3996C488.067 75.5153 490.43 77.9881 492.513 80.8161ZM484.567 66.0171C484.469 65.5238 484.279 65.2474 483.994 65.1836C483.708 65.122 483.387 65.2006 483.028 65.4218C482.669 65.6429 482.314 65.9278 481.967 66.2723C481.625 66.6189 481.328 66.9591 481.078 67.2929C480.832 67.6225 480.672 67.8606 480.599 68.0073C480.398 68.5517 480.225 69.1683 480.077 69.853C480.573 69.7807 481.018 69.6276 481.411 69.3937C481.809 69.1619 482.194 68.8727 482.566 68.5262C482.713 68.3794 482.961 68.1477 483.31 67.8287C483.656 67.5055 483.964 67.1738 484.234 66.8336C484.507 66.4892 484.619 66.217 484.567 66.0171Z" fill="#323232"/>
<path d="M514.112 66.4594C514.185 68.9217 514.245 71.3818 514.292 73.8419C514.343 76.3041 514.405 78.7642 514.48 81.2244C514.502 81.9345 514.328 82.5044 513.958 82.9339C513.586 83.3655 513.129 83.6483 512.581 83.7844C512.038 83.9205 511.489 83.9205 510.931 83.7844C510.377 83.6483 509.907 83.3655 509.52 82.9339C509.137 82.5044 508.934 81.9345 508.912 81.2244C508.889 80.4823 508.87 79.7487 508.852 79.0215C508.84 78.2965 508.823 77.565 508.801 76.8272L503.233 76.6061C503.039 77.5416 502.853 78.4729 502.677 79.3958C502.506 80.3143 502.331 81.2414 502.156 82.1769C502.036 82.8701 501.758 83.3762 501.326 83.6994C500.892 84.0183 500.39 84.1757 499.821 84.1757C499.25 84.1757 498.711 84.0353 498.204 83.7504C497.696 83.4676 497.3 83.0615 497.016 82.5342C496.736 82.0026 496.656 81.3923 496.776 80.7056C497.221 78.2965 497.721 75.9086 498.281 73.5442C498.84 71.1798 499.626 68.8813 500.642 66.6465C501.132 65.5366 501.754 64.3416 502.506 63.0659C503.263 61.7858 504.136 60.6121 505.124 59.5447C506.116 58.4731 507.204 57.6906 508.391 57.1973C509.507 56.7274 510.411 56.6338 511.102 56.9166C511.797 57.2016 512.342 57.731 512.735 58.5071C513.129 59.2853 513.42 60.172 513.608 61.1692C513.796 62.1622 513.918 63.1318 513.976 64.078C514.038 65.0263 514.082 65.8194 514.112 66.4594ZM504.756 71.1458C505.423 71.1691 506.077 71.1947 506.723 71.2223C507.366 71.2457 508.01 71.2691 508.656 71.2903C508.626 70.4802 508.607 69.6744 508.596 68.8749C508.583 68.0754 508.566 67.2717 508.545 66.4594C508.515 66.166 508.502 65.8385 508.502 65.4813C508.502 65.1241 508.502 64.7626 508.502 64.3927C508.085 64.886 507.728 65.3537 507.433 65.796C506.937 66.5338 506.483 67.3014 506.073 68.1009C505.667 68.9004 505.303 69.7063 504.978 70.5164C504.955 70.6184 504.923 70.7269 504.884 70.8396C504.85 70.948 504.807 71.0501 504.756 71.1458ZM508.545 55.3857C507.848 55.0689 507.332 54.616 506.997 54.0249C506.665 53.4359 506.622 52.8427 506.868 52.2473L507.835 49.9594C508.085 49.4449 508.549 49.0749 509.229 48.8537C509.907 48.6326 510.593 48.6836 511.29 49.0068C511.957 49.3258 512.462 49.7872 512.804 50.3932C513.15 50.9949 513.202 51.5754 512.958 52.1367L511.991 54.4246C511.745 54.969 511.275 55.3474 510.58 55.5558C509.89 55.7663 509.212 55.7089 508.545 55.3857Z" fill="#323232"/>
</g>
<g clip-path="url(#clip1_23_405)">
<path d="M40.6496 14.9196C40.7954 16.2463 40.806 17.692 40.6834 19.2569C40.565 20.8174 40.2859 22.378 39.8461 23.9428C39.4064 25.5076 38.789 26.9597 37.994 28.297C37.199 29.6365 36.2201 30.7676 35.0594 31.6903C33.8965 32.6151 32.5434 33.2126 30.9999 33.4847C29.3867 33.7526 28.0103 33.6208 26.8728 33.0935C25.7332 32.5662 24.7924 31.7668 24.0481 30.6953C23.3039 29.6237 22.7077 28.3821 22.2637 26.9703C21.8239 25.5544 21.511 24.0916 21.3249 22.5821C21.1431 21.0683 21.048 19.6119 21.0374 18.2108C21.0247 16.8055 21.0564 15.5872 21.1304 14.5539C21.1812 13.8396 21.4053 13.274 21.807 12.853C22.2129 12.4342 22.6887 12.1514 23.2363 12.0026C23.7881 11.8559 24.3315 11.8559 24.8685 12.0026C25.4097 12.1514 25.8495 12.4342 26.1878 12.853C26.5303 13.274 26.6804 13.8396 26.636 14.5539C26.6064 14.9239 26.5811 15.5447 26.5599 16.4164C26.5367 17.2902 26.5472 18.2937 26.5937 19.4269C26.6445 20.5559 26.7481 21.687 26.9067 22.8202C27.0695 23.9492 27.3041 24.9591 27.6086 25.8478C27.9131 26.7322 28.3211 27.3658 28.8349 27.7442C29.3466 28.1248 29.9956 28.1312 30.78 27.7612C31.8562 27.268 32.7125 26.5111 33.351 25.4906C33.9874 24.47 34.4526 23.3347 34.7465 22.0803C35.0382 20.828 35.2074 19.5758 35.2539 18.3214C35.3046 17.0627 35.2666 15.9295 35.1439 14.9196C35.0467 14.2052 35.1566 13.6418 35.4738 13.2272C35.7951 12.8084 36.218 12.5299 36.7423 12.3938C37.2709 12.2577 37.8164 12.2577 38.3746 12.3938C38.937 12.5299 39.4338 12.8148 39.863 13.2442C40.2901 13.6758 40.5523 14.235 40.6496 14.9196Z" fill="#323232"/>
<path d="M58.7411 13.5165C58.8426 12.8021 59.0984 12.2876 59.5107 11.9687C59.9272 11.6519 60.4093 11.4988 60.9569 11.5094C61.5087 11.5222 62.0415 11.6689 62.5553 11.9517C63.0733 12.2366 63.4792 12.6405 63.7731 13.1678C64.0649 13.6951 64.1621 14.3052 64.0606 14.9962C63.0564 21.7827 61.811 28.5246 60.3226 35.2197C60.1978 35.7597 59.9209 36.1998 59.4938 36.5464C59.0646 36.8908 58.5677 37.1077 58.0053 37.1927C57.4471 37.2777 56.9165 37.214 56.4154 37.0056C55.9122 36.7951 55.5379 36.4209 55.2906 35.883C54.726 34.5287 54.151 33.1829 53.5653 31.8434C52.9775 30.4997 52.3919 29.1518 51.8062 27.7953C51.4383 29.3942 51.0831 31.0015 50.7406 32.6173C50.4023 34.2289 50.0831 35.8448 49.785 37.4648C49.6666 38.1558 49.3875 38.6597 48.9477 38.9786C48.5079 39.3018 48.0111 39.4634 47.4592 39.4634C46.9053 39.4634 46.3788 39.3124 45.8777 39.0126C45.3745 38.7171 44.9834 38.311 44.7022 37.7965C44.4252 37.2799 44.3597 36.6782 44.5077 35.9936C45.5839 30.1383 46.9032 24.3319 48.4656 18.5766C48.6115 18.0323 48.9054 17.5901 49.3452 17.2499C49.785 16.9055 50.2797 16.6844 50.8336 16.5866C51.3855 16.4845 51.9035 16.5398 52.3898 16.7481C52.8803 16.9586 53.2482 17.3477 53.4976 17.9132L56.7283 25.3971C57.1173 23.4305 57.4746 21.4574 57.8023 19.478C58.1343 17.5008 58.4472 15.5129 58.7411 13.5165Z" fill="#323232"/>
<path d="M84.9456 19.7161C85.0175 22.1782 85.0767 24.6381 85.1232 27.098C85.1739 29.56 85.2353 32.0199 85.3092 34.4798C85.3304 35.1941 85.1591 35.7661 84.7934 36.1892C84.4255 36.6186 83.973 36.9035 83.4318 37.0396C82.8947 37.1757 82.3514 37.1693 81.7995 37.0226C81.2519 36.8738 80.7868 36.591 80.4041 36.1721C80.0256 35.7597 79.8248 35.1941 79.8036 34.4798C79.7804 33.7441 79.7614 33.0064 79.7444 32.2686C79.7318 31.5266 79.7148 30.7867 79.6937 30.049L74.1881 29.8619C73.9957 30.7761 73.8117 31.6988 73.6384 32.6343C73.4692 33.5698 73.2959 34.5053 73.1225 35.4408C73.0041 36.1254 72.7292 36.6271 72.3021 36.946C71.8729 37.2692 71.3761 37.4308 70.8137 37.4308C70.2492 37.4308 69.7164 37.282 69.2153 36.9886C68.7121 36.693 68.3209 36.287 68.0397 35.7724C67.7628 35.2579 67.6845 34.6541 67.8029 33.961C68.2427 31.5521 68.7374 29.1688 69.2914 26.8088C69.8432 24.4446 70.6213 22.1441 71.6256 19.9032C72.1097 18.7977 72.7292 17.6049 73.4861 16.3229C74.2473 15.043 75.1099 13.8694 76.074 12.8021C77.0424 11.7305 78.1143 10.9375 79.2878 10.4208C80.3914 9.95097 81.2858 9.8638 81.9687 10.1572C82.6558 10.4527 83.195 10.9885 83.584 11.7645C83.973 12.5427 84.2606 13.4229 84.4466 14.4094C84.6327 15.3917 84.7532 16.3612 84.8103 17.3179C84.8716 18.2768 84.916 19.0762 84.9456 19.7161ZM75.9133 23.7727C75.8901 23.8748 75.8584 23.9768 75.8203 24.0789C75.7865 24.1767 75.7442 24.2724 75.6935 24.368C76.3531 24.3914 77.0001 24.4169 77.6386 24.4446C78.275 24.468 78.9114 24.4914 79.5499 24.5126C79.5203 23.726 79.5013 22.9308 79.4907 22.1314C79.478 21.332 79.4611 20.5283 79.44 19.7161C79.4104 19.3994 79.3977 19.0613 79.3977 18.7041C79.3977 18.3469 79.3977 17.9855 79.3977 17.6156C78.9854 18.1088 78.6323 18.5893 78.3405 19.0528C77.85 19.7906 77.4018 20.5538 76.9959 21.3405C76.5941 22.1293 76.2347 22.9393 75.9133 23.7727Z" fill="#323232"/>
<path d="M113.124 10.676C114.295 11.1692 115.365 11.8049 116.329 12.581C117.297 13.3527 118.082 14.2478 118.68 15.2684C119.283 16.2889 119.627 17.3923 119.712 18.5766C119.797 19.7566 119.545 20.9876 118.959 22.2675C118.198 23.8153 117.143 25.0527 115.796 25.9754C114.454 26.8939 112.967 27.4849 111.339 27.7443C109.716 27.9994 108.109 27.9442 106.519 27.5742C106.371 28.9817 106.225 30.3849 106.079 31.7839C105.931 33.185 105.785 34.5882 105.639 35.9936C105.565 36.6782 105.326 37.2373 104.92 37.6689C104.519 38.0984 104.037 38.3833 103.474 38.5194C102.91 38.6554 102.358 38.6554 101.817 38.5194C101.28 38.3833 100.853 38.1048 100.531 37.6859C100.214 37.2714 100.083 36.7079 100.134 35.9936C100.476 32.6726 100.806 29.358 101.123 26.0519C101.445 22.7416 101.787 19.4355 102.155 16.1358C102.324 14.8325 102.675 13.6589 103.212 12.615C103.753 11.5732 104.671 10.8036 105.969 10.3103C107.119 9.86807 108.322 9.71074 109.58 9.83405C110.843 9.95311 112.024 10.2338 113.124 10.676ZM107.069 22.0038C107.677 22.1803 108.373 22.2802 109.157 22.3015C109.94 22.3249 110.709 22.2398 111.466 22.0464C112.227 21.8486 112.864 21.5106 113.378 21.0343C113.889 20.5538 114.183 19.8926 114.257 19.0528C114.308 18.5149 114.124 17.994 113.707 17.488C113.295 16.9841 112.756 16.5483 112.092 16.1783C111.432 15.8105 110.773 15.5469 110.113 15.3874C109.453 15.2237 108.891 15.2046 108.43 15.3279C108.16 15.4257 107.992 15.4873 107.931 15.515C107.868 15.5384 107.838 15.5873 107.838 15.6596C107.838 15.734 107.775 15.8934 107.652 16.1358C107.504 16.459 107.432 16.8927 107.432 17.437C107.432 17.977 107.42 18.4405 107.398 18.8317C107.348 19.3717 107.291 19.9011 107.229 20.422C107.172 20.9387 107.119 21.4659 107.069 22.0038Z" fill="#323232"/>
<path d="M136.862 28.0929C137.572 28.1163 138.141 28.3204 138.57 28.7052C138.997 29.0858 139.281 29.5536 139.416 30.1085C139.551 30.6591 139.551 31.2119 139.416 31.7668C139.281 32.3175 138.997 32.7703 138.57 33.1275C138.141 33.4847 137.572 33.642 136.862 33.5953C135.198 33.5442 133.534 33.557 131.872 33.6293C130.208 33.7037 128.544 33.8759 126.883 34.1481C126.369 34.2459 125.83 34.2033 125.267 34.0205C124.703 33.8334 124.231 33.5315 123.855 33.1105C123.476 32.6917 123.335 32.1495 123.432 31.4862C123.849 28.0674 124.307 24.6635 124.811 21.2724C125.312 17.877 125.855 14.4923 126.443 11.1182C126.515 10.6993 126.663 10.3315 126.883 10.0126C127.079 9.66816 127.36 9.38326 127.728 9.16215C128.094 8.94103 128.544 8.81984 129.081 8.79646C131.724 8.6944 134.369 8.7433 137.014 8.94103C137.725 8.99206 138.291 9.22168 138.714 9.62989C139.141 10.0338 139.425 10.5122 139.56 11.0671C139.695 11.6178 139.695 12.1642 139.56 12.7085C139.425 13.2485 139.141 13.6907 138.714 14.0352C138.291 14.3817 137.725 14.5284 137.014 14.4774C135.204 14.3541 133.357 14.2903 131.475 14.2903C131.35 15.0047 131.225 15.719 131.103 16.4334C130.978 17.1478 130.868 17.8621 130.773 18.5765C131.775 18.5999 132.743 18.6488 133.674 18.7211C134.405 18.8189 135.046 19.1017 135.593 19.5715C136.145 20.0371 136.422 20.675 136.422 21.485C136.422 21.957 136.291 22.412 136.033 22.8542C135.78 23.2965 135.443 23.6536 135.027 23.9258C134.615 24.1979 134.164 24.3085 133.674 24.2574C132.426 24.1341 131.179 24.0852 129.927 24.1129C129.83 24.7996 129.733 25.4948 129.631 26.1964C129.534 26.8938 129.439 27.5997 129.344 28.314C130.589 28.1907 131.834 28.1057 133.082 28.0589C134.333 28.0079 135.593 28.0206 136.862 28.0929Z" fill="#323232"/>
<path d="M163.139 15.0642C163.972 16.1252 164.521 17.3009 164.788 18.5936C165.058 19.8862 165.105 21.2278 164.932 22.6161C164.762 24.0066 164.426 25.3673 163.925 26.6983C163.422 28.0249 162.819 29.2538 162.115 30.3807C162.525 31.095 162.853 31.8519 163.096 32.6513C163.344 33.4507 163.479 34.2927 163.502 35.1771C163.53 35.8915 163.367 36.4634 163.012 36.895C162.657 37.3245 162.202 37.6094 161.65 37.7455C161.103 37.8815 160.553 37.8815 160.001 37.7455C159.447 37.6094 158.982 37.3245 158.606 36.895C158.227 36.4634 158.026 35.8915 158.005 35.1771C158.005 35.0815 157.99 34.9454 157.963 34.7689C156.863 35.4833 155.696 35.9978 154.462 36.3167C153.227 36.6399 151.996 36.7207 150.774 36.5634C149.55 36.4039 148.417 35.9553 147.374 35.2197C146.336 34.4777 145.476 33.4316 144.795 32.0815C144.085 30.7272 143.63 29.2708 143.433 27.7103C143.235 26.1455 143.277 24.5637 143.56 22.9648C143.842 21.366 144.33 19.8565 145.023 18.432C145.721 17.0032 146.622 15.7425 147.721 14.6475C148.825 13.5483 150.11 12.7404 151.578 12.2238C152.925 11.7369 154.314 11.5137 155.747 11.5519C157.178 11.5859 158.534 11.8921 159.815 12.4704C161.1 13.0487 162.208 13.914 163.139 15.0642ZM149.379 28.9434C149.474 29.1879 149.584 29.409 149.709 29.6068C150.125 30.3445 150.639 30.8059 151.248 30.993C151.861 31.1758 152.51 31.1694 153.193 30.976C153.88 30.7782 154.517 30.47 155.104 30.049C154.76 29.7322 154.436 29.4154 154.132 29.0965C153.827 28.7733 153.54 28.465 153.269 28.1695C152.779 27.655 152.519 27.1065 152.491 26.5282C152.468 25.9499 152.603 25.4141 152.897 24.9208C153.189 24.4276 153.576 24.0343 154.056 23.7387C154.533 23.4453 155.047 23.3284 155.595 23.39C156.147 23.4538 156.669 23.743 157.159 24.2575C157.181 24.2809 157.297 24.3978 157.506 24.6062C157.713 24.8167 157.923 25.0314 158.132 25.2525C158.339 25.4736 158.445 25.5969 158.445 25.6182C158.709 24.9549 158.957 24.2873 159.189 23.6112C159.426 22.9372 159.565 22.242 159.612 21.5276C159.684 20.8366 159.606 20.1371 159.375 19.427C159.143 18.7126 158.745 18.1471 158.183 17.7261C157.426 17.1372 156.601 16.8906 155.705 16.9862C154.813 17.084 153.971 17.3923 153.176 17.9132C152.381 18.4299 151.726 19.006 151.214 19.6396C150.576 20.4794 150.049 21.434 149.633 22.5056C149.214 23.5771 148.969 24.6721 148.897 25.7883C148.823 26.9066 148.983 27.9569 149.379 28.9434Z" fill="#323232"/>
<path d="M188.345 14.9196C188.491 16.2463 188.501 17.692 188.379 19.2569C188.26 20.8174 187.981 22.378 187.541 23.9428C187.102 25.5076 186.484 26.9597 185.689 28.297C184.894 29.6365 183.915 30.7676 182.755 31.6903C181.592 32.6151 180.239 33.2126 178.695 33.4847C177.082 33.7526 175.706 33.6208 174.568 33.0935C173.429 32.5662 172.488 31.7668 171.743 30.6953C170.999 29.6237 170.403 28.3821 169.959 26.9703C169.519 25.5544 169.206 24.0916 169.02 22.5821C168.838 21.0683 168.743 19.6119 168.733 18.2108C168.72 16.8055 168.752 15.5872 168.826 14.5539C168.876 13.8396 169.101 13.274 169.502 12.853C169.908 12.4342 170.384 12.1514 170.932 12.0026C171.483 11.8559 172.027 11.8559 172.564 12.0026C173.105 12.1514 173.545 12.4342 173.883 12.853C174.226 13.274 174.376 13.8396 174.331 14.5539C174.302 14.9239 174.276 15.5447 174.255 16.4164C174.232 17.2902 174.243 18.2937 174.289 19.4269C174.34 20.5559 174.443 21.687 174.602 22.8202C174.765 23.9492 174.999 24.9591 175.304 25.8478C175.608 26.7322 176.016 27.3658 176.53 27.7442C177.042 28.1248 177.691 28.1312 178.475 27.7612C179.552 27.268 180.408 26.5111 181.046 25.4906C181.683 24.47 182.148 23.3347 182.442 22.0803C182.734 20.828 182.903 19.5758 182.949 18.3214C183 17.0627 182.962 15.9295 182.839 14.9196C182.742 14.2052 182.852 13.6418 183.169 13.2272C183.49 12.8084 183.913 12.5299 184.438 12.3938C184.966 12.2577 185.512 12.2577 186.07 12.3938C186.632 12.5299 187.129 12.8148 187.558 13.2442C187.985 13.6758 188.248 14.235 188.345 14.9196Z" fill="#323232"/>
<path d="M205.591 28.0929C206.301 28.1163 206.87 28.3204 207.299 28.7052C207.726 29.0858 208.01 29.5536 208.145 30.1085C208.28 30.6591 208.28 31.2119 208.145 31.7668C208.01 32.3175 207.726 32.7703 207.299 33.1275C206.87 33.4847 206.301 33.642 205.591 33.5953C203.927 33.5442 202.263 33.557 200.601 33.6293C198.937 33.7037 197.273 33.8759 195.612 34.1481C195.098 34.2459 194.559 34.2033 193.996 34.0205C193.432 33.8334 192.96 33.5315 192.584 33.1105C192.205 32.6917 192.064 32.1495 192.161 31.4862C192.578 28.0674 193.036 24.6635 193.54 21.2724C194.041 17.877 194.584 14.4923 195.172 11.1182C195.244 10.6993 195.392 10.3315 195.612 10.0126C195.808 9.66816 196.089 9.38326 196.457 9.16215C196.823 8.94103 197.273 8.81984 197.81 8.79646C200.453 8.6944 203.098 8.7433 205.743 8.94103C206.454 8.99206 207.02 9.22168 207.443 9.62989C207.87 10.0338 208.154 10.5122 208.289 11.0671C208.424 11.6178 208.424 12.1642 208.289 12.7085C208.154 13.2485 207.87 13.6907 207.443 14.0352C207.02 14.3817 206.454 14.5284 205.743 14.4774C203.933 14.3541 202.086 14.2903 200.204 14.2903C200.079 15.0047 199.954 15.719 199.832 16.4334C199.707 17.1478 199.597 17.8621 199.502 18.5765C200.504 18.5999 201.472 18.6488 202.403 18.7211C203.134 18.8189 203.775 19.1017 204.322 19.5715C204.874 20.0371 205.151 20.675 205.151 21.485C205.151 21.957 205.02 22.412 204.762 22.8542C204.509 23.2965 204.172 23.6536 203.756 23.9258C203.344 24.1979 202.893 24.3085 202.403 24.2574C201.155 24.1341 199.908 24.0852 198.656 24.1129C198.559 24.7996 198.462 25.4948 198.36 26.1964C198.263 26.8938 198.168 27.5997 198.073 28.314C199.318 28.1907 200.563 28.1057 201.811 28.0589C203.062 28.0079 204.322 28.0206 205.591 28.0929Z" fill="#323232"/>
<path d="M226.362 10.2677C226.463 9.55971 226.719 9.04732 227.131 8.72841C227.548 8.40524 228.03 8.25003 228.577 8.26066C229.129 8.27342 229.662 8.42012 230.176 8.70289C230.694 8.98779 231.1 9.3875 231.394 9.90201C231.685 10.4187 231.783 11.0225 231.681 11.7134C230.677 18.5 229.432 25.2397 227.943 31.9284C227.818 32.4961 227.541 32.9468 227.114 33.2806C226.685 33.6101 226.188 33.8206 225.626 33.9099C225.068 33.995 224.537 33.9397 224.036 33.7398C223.533 33.5421 223.159 33.1594 222.911 32.5917C222.347 31.2651 221.772 29.9341 221.186 28.5947C220.598 27.251 220.012 25.9052 219.427 24.5551C219.059 26.1539 218.704 27.7591 218.361 29.3686C218.023 30.9802 217.704 32.596 217.406 34.2161C217.287 34.9092 217.008 35.4152 216.568 35.7384C216.129 36.0552 215.632 36.2061 215.08 36.1891C214.526 36.1763 213.999 36.0318 213.498 35.7554C212.995 35.4726 212.604 35.0729 212.323 34.5563C212.046 34.0354 211.98 33.4315 212.128 32.7448C213.204 26.8662 214.524 21.047 216.086 15.2853C216.232 14.7708 216.526 14.3413 216.966 14.0011C217.406 13.6567 217.9 13.4356 218.454 13.3378C219.006 13.2357 219.524 13.291 220.01 13.4994C220.501 13.7099 220.869 14.0989 221.118 14.6645L224.349 22.1568C224.738 20.1838 225.095 18.2087 225.423 16.2293C225.755 14.252 226.068 12.2641 226.362 10.2677ZM220.932 6.54278C220.492 6.985 220.027 7.20612 219.537 7.20612C219.046 7.20612 218.592 7.05942 218.175 6.76389C217.763 6.47049 217.448 6.08354 217.228 5.60729C217.008 5.12679 216.919 4.62078 216.966 4.09351C217.017 3.56199 217.262 3.07298 217.702 2.63075C218.412 1.94615 219.144 1.38699 219.9 0.955388C220.662 0.525916 221.495 0.27291 222.404 0.198497C223.328 0.12621 224.218 0.26228 225.076 0.606708C225.296 0.681121 225.571 0.82357 225.905 1.03193C226.237 1.23603 226.514 1.22753 226.734 1.00641C227.174 0.564186 227.634 0.343072 228.121 0.343072C228.611 0.343072 229.064 0.491898 229.482 0.7853C229.899 1.08083 230.218 1.4699 230.438 1.9504C230.658 2.43303 230.743 2.93691 230.692 3.46418C230.641 3.99146 230.383 4.47621 229.922 4.91844C229.262 5.61154 228.546 6.11756 227.774 6.44072C227.007 6.75964 226.18 6.79366 225.296 6.54278C224.782 6.39608 224.285 6.22599 223.808 6.03251C223.334 5.83478 222.856 5.74761 222.378 5.76888C221.905 5.79226 221.423 6.04952 220.932 6.54278Z" fill="#323232"/>
<path d="M252.567 19.7161C252.639 22.1782 252.698 24.6381 252.744 27.098C252.795 29.56 252.856 32.0199 252.93 34.4798C252.951 35.1941 252.78 35.7661 252.414 36.1892C252.047 36.6186 251.594 36.9035 251.053 37.0396C250.516 37.1757 249.972 37.1693 249.421 37.0226C248.873 36.8738 248.408 36.591 248.025 36.1721C247.647 35.7597 247.446 35.1941 247.425 34.4798C247.401 33.7441 247.382 33.0064 247.366 32.2686C247.353 31.5266 247.336 30.7867 247.315 30.049L241.809 29.8619C241.617 30.7761 241.433 31.6988 241.259 32.6343C241.09 33.5698 240.917 34.5053 240.744 35.4408C240.625 36.1254 240.35 36.6271 239.923 36.946C239.494 37.2692 238.997 37.4308 238.435 37.4308C237.87 37.4308 237.337 37.282 236.836 36.9886C236.333 36.693 235.942 36.287 235.661 35.7724C235.384 35.2579 235.306 34.6541 235.424 33.961C235.864 31.5521 236.359 29.1688 236.912 26.8088C237.464 24.4446 238.242 22.1441 239.247 19.9032C239.731 18.7977 240.35 17.6049 241.107 16.3229C241.868 15.043 242.731 13.8694 243.695 12.8021C244.663 11.7305 245.735 10.9375 246.909 10.4208C248.013 9.95097 248.907 9.8638 249.59 10.1572C250.277 10.4527 250.816 10.9885 251.205 11.7645C251.594 12.5427 251.882 13.4229 252.068 14.4094C252.254 15.3917 252.374 16.3612 252.431 17.3179C252.493 18.2768 252.537 19.0762 252.567 19.7161ZM243.534 23.7727C243.511 23.8748 243.479 23.9768 243.441 24.0789C243.408 24.1767 243.365 24.2724 243.315 24.368C243.974 24.3914 244.621 24.4169 245.26 24.4446C245.896 24.468 246.533 24.4914 247.171 24.5126C247.141 23.726 247.122 22.9308 247.112 22.1314C247.099 21.332 247.082 20.5283 247.061 19.7161C247.031 19.3994 247.019 19.0613 247.019 18.7041C247.019 18.3469 247.019 17.9855 247.019 17.6156C246.607 18.1088 246.253 18.5893 245.962 19.0528C245.471 19.7906 245.023 20.5538 244.617 21.3405C244.215 22.1293 243.856 22.9393 243.534 23.7727Z" fill="#323232"/>
<path d="M282.25 26.9874C282.931 26.8174 283.523 26.8492 284.026 27.081C284.527 27.3149 284.918 27.6763 285.202 28.1696C285.483 28.6628 285.629 29.1986 285.641 29.7769C285.652 30.3552 285.506 30.8782 285.202 31.3417C284.897 31.8073 284.4 32.139 283.713 32.3367C282.466 32.6833 281.189 32.949 279.882 33.1361C278.573 33.319 277.277 33.3232 275.992 33.1531C274.706 32.9788 273.476 32.5578 272.305 31.8945C270.786 31.0334 269.632 29.8407 268.837 28.3141C268.042 26.7897 267.681 25.142 267.755 23.3731C267.85 21.6509 268.275 20.0032 269.032 18.432C269.793 16.8566 270.801 15.4597 272.059 14.2394C273.321 13.0211 274.753 12.0856 276.355 11.4329C277.962 10.7823 279.633 10.5293 281.371 10.676C282.081 10.727 282.648 10.9567 283.07 11.3649C283.498 11.7688 283.781 12.2536 283.916 12.8191C284.051 13.3868 284.051 13.9396 283.916 14.4775C283.781 15.0175 283.498 15.4534 283.07 15.7872C282.648 16.1231 282.081 16.2634 281.371 16.2124C280.096 16.1167 278.888 16.357 277.751 16.9352C276.618 17.5135 275.658 18.313 274.875 19.3335C274.091 20.354 273.59 21.5021 273.37 22.7778C273.15 23.8897 273.203 24.7827 273.531 25.4567C273.863 26.1328 274.36 26.6366 275.019 26.9704C275.679 27.3 276.432 27.4956 277.277 27.5572C278.123 27.621 278.979 27.5976 279.848 27.4892C280.715 27.3765 281.516 27.2086 282.25 26.9874Z" fill="#323232"/>
<path d="M302.795 28.0929C303.506 28.1163 304.074 28.3204 304.503 28.7052C304.931 29.0858 305.214 29.5536 305.349 30.1085C305.485 30.6591 305.485 31.2119 305.349 31.7668C305.214 32.3175 304.931 32.7703 304.503 33.1275C304.074 33.4847 303.506 33.642 302.795 33.5953C301.131 33.5442 299.467 33.557 297.805 33.6293C296.141 33.7037 294.478 33.8759 292.816 34.1481C292.302 34.2459 291.763 34.2033 291.2 34.0205C290.636 33.8334 290.164 33.5315 289.788 33.1105C289.41 32.6917 289.268 32.1495 289.365 31.4862C289.782 28.0674 290.24 24.6635 290.744 21.2724C291.245 17.877 291.788 14.4923 292.376 11.1182C292.448 10.6993 292.596 10.3315 292.816 10.0126C293.012 9.66816 293.294 9.38326 293.661 9.16215C294.027 8.94103 294.478 8.81984 295.015 8.79646C297.657 8.6944 300.302 8.7433 302.947 8.94103C303.658 8.99206 304.224 9.22168 304.647 9.62989C305.074 10.0338 305.358 10.5122 305.493 11.0671C305.628 11.6178 305.628 12.1642 305.493 12.7085C305.358 13.2485 305.074 13.6907 304.647 14.0352C304.224 14.3817 303.658 14.5284 302.947 14.4774C301.138 14.3541 299.29 14.2903 297.408 14.2903C297.283 15.0047 297.158 15.719 297.036 16.4334C296.911 17.1478 296.801 17.8621 296.706 18.5765C297.708 18.5999 298.676 18.6488 299.607 18.7211C300.338 18.8189 300.979 19.1017 301.527 19.5715C302.078 20.0371 302.355 20.675 302.355 21.485C302.355 21.957 302.224 22.412 301.966 22.8542C301.713 23.2965 301.376 23.6536 300.96 23.9258C300.548 24.1979 300.097 24.3085 299.607 24.2574C298.359 24.1341 297.112 24.0852 295.86 24.1129C295.763 24.7996 295.666 25.4948 295.564 26.1964C295.467 26.8938 295.372 27.5997 295.277 28.314C296.522 28.1907 297.767 28.1057 299.015 28.0589C300.266 28.0079 301.527 28.0206 302.795 28.0929Z" fill="#323232"/>
<path d="M323.608 26.7323C324.312 26.6812 324.873 26.8237 325.291 27.1575C325.708 27.487 325.989 27.9229 326.137 28.4672C326.283 29.0072 326.283 29.56 326.137 30.1255C325.989 30.6932 325.701 31.1801 325.274 31.5883C324.845 31.9922 324.289 32.2155 323.608 32.2601C321.748 32.3856 319.917 32.6216 318.119 32.966C316.32 33.3125 314.527 33.7441 312.741 34.2587C312.227 34.4075 311.688 34.3756 311.125 34.1651C310.561 33.9568 310.096 33.6251 309.73 33.1701C309.362 32.7109 309.206 32.1751 309.256 31.5628C309.548 28.684 309.836 25.8053 310.119 22.9308C310.4 20.0521 310.677 17.1712 310.948 14.2903C311.02 13.6057 311.263 13.0466 311.675 12.615C312.092 12.1855 312.582 11.9006 313.147 11.7645C313.709 11.6285 314.255 11.6285 314.779 11.7645C315.303 11.9006 315.728 12.1791 316.056 12.598C316.388 13.0189 316.517 13.5823 316.445 14.2903C316.225 16.5823 316.005 18.8657 315.785 21.1449C315.565 23.4198 315.346 25.6862 315.126 27.9484C317.887 27.3595 320.716 26.9534 323.608 26.7323Z" fill="#323232"/>
<path d="M343.379 28.0929C344.09 28.1163 344.658 28.3204 345.087 28.7052C345.515 29.0858 345.798 29.5536 345.933 30.1085C346.068 30.6591 346.068 31.2119 345.933 31.7668C345.798 32.3175 345.515 32.7703 345.087 33.1275C344.658 33.4847 344.09 33.642 343.379 33.5953C341.715 33.5442 340.051 33.557 338.389 33.6293C336.725 33.7037 335.062 33.8759 333.4 34.1481C332.886 34.2459 332.347 34.2033 331.784 34.0205C331.22 33.8334 330.748 33.5315 330.372 33.1105C329.994 32.6917 329.852 32.1495 329.949 31.4862C330.366 28.0674 330.824 24.6635 331.328 21.2724C331.829 17.877 332.372 14.4923 332.96 11.1182C333.032 10.6993 333.18 10.3315 333.4 10.0126C333.596 9.66816 333.877 9.38326 334.245 9.16215C334.611 8.94103 335.062 8.81984 335.599 8.79646C338.241 8.6944 340.886 8.7433 343.531 8.94103C344.242 8.99206 344.808 9.22168 345.231 9.62989C345.658 10.0338 345.942 10.5122 346.077 11.0671C346.212 11.6178 346.212 12.1642 346.077 12.7085C345.942 13.2485 345.658 13.6907 345.231 14.0352C344.808 14.3817 344.242 14.5284 343.531 14.4774C341.722 14.3541 339.874 14.2903 337.992 14.2903C337.867 15.0047 337.742 15.719 337.62 16.4334C337.495 17.1478 337.385 17.8621 337.29 18.5765C338.292 18.5999 339.26 18.6488 340.191 18.7211C340.922 18.8189 341.563 19.1017 342.111 19.5715C342.662 20.0371 342.939 20.675 342.939 21.485C342.939 21.957 342.808 22.412 342.55 22.8542C342.297 23.2965 341.96 23.6536 341.544 23.9258C341.132 24.1979 340.681 24.3085 340.191 24.2574C338.943 24.1341 337.696 24.0852 336.444 24.1129C336.347 24.7996 336.25 25.4948 336.148 26.1964C336.051 26.8938 335.956 27.5997 335.861 28.314C337.106 28.1907 338.351 28.1057 339.599 28.0589C340.85 28.0079 342.111 28.0206 343.379 28.0929Z" fill="#323232"/>
<path d="M370.569 15.6935C370.793 16.7991 370.734 17.7835 370.391 18.6446C370.047 19.5078 369.499 20.2646 368.751 20.9152C368.006 21.5679 367.146 22.1292 366.171 22.5991C366.463 23.0413 366.689 23.5261 366.848 24.0534C367.004 24.5806 367.085 25.1653 367.085 25.8053C367.112 26.9619 366.875 28.0398 366.374 29.0369C365.871 30.0362 365.199 30.9164 364.353 31.6818C363.507 32.4429 362.564 33.0553 361.528 33.5187C360.49 33.9844 359.444 34.2799 358.391 34.4032C356.873 34.6031 355.452 34.4627 354.128 33.9865C352.809 33.506 351.752 32.7172 350.957 31.6223C350.162 30.5231 349.79 29.1517 349.841 27.5061C349.912 24.8251 350.181 22.1122 350.644 19.3674C351.111 16.6248 351.528 13.9246 351.896 11.2712C351.991 10.6037 352.357 10.0849 352.995 9.71494C353.631 9.34713 354.255 9.20043 354.864 9.27272C354.966 9.22807 355.052 9.17917 355.126 9.12814C356.175 8.76033 357.327 8.54984 358.585 8.49882C359.847 8.44779 361.122 8.56473 362.408 8.8475C363.693 9.13239 364.903 9.57675 366.036 10.1827C367.173 10.7844 368.146 11.5476 368.954 12.4704C369.766 13.3888 370.303 14.4647 370.569 15.6935ZM361.215 14.2563C360.458 14.0352 359.744 13.9395 359.067 13.9671C358.395 13.9905 357.706 14.1117 356.995 14.3328C356.871 15.145 356.761 15.9444 356.665 16.7311C356.568 17.5199 356.471 18.3193 356.369 19.1293C356.543 19.0783 356.716 19.0528 356.885 19.0528C357.031 19.0528 357.226 19.0528 357.469 19.0528C358.251 19.0528 359.021 18.9932 359.778 18.8742C360.539 18.7509 361.3 18.551 362.061 18.2789C362.258 18.2066 362.598 18.0726 363.084 17.8792C363.575 17.6814 364.027 17.471 364.446 17.2498C364.863 17.0245 365.082 16.8246 365.106 16.6545C365.127 16.3824 364.966 16.1188 364.624 15.8636C364.285 15.6042 363.875 15.3576 363.397 15.1237C362.924 14.892 362.478 14.6964 362.061 14.5369C361.642 14.3732 361.361 14.2797 361.215 14.2563ZM360.809 27.4296C361.372 26.8173 361.613 26.3219 361.528 25.9413C361.444 25.5565 361.167 25.2737 360.7 25.0909C360.236 24.9038 359.697 24.7741 359.084 24.6997C358.475 24.6274 357.926 24.5891 357.435 24.5891C357.215 24.5891 357.031 24.5891 356.885 24.5891C356.446 24.5891 356.042 24.5041 355.676 24.334C355.653 24.6529 355.621 24.9718 355.583 25.295C355.543 25.6139 355.5 25.9307 355.456 26.2475C355.426 26.594 355.376 27.0256 355.304 27.5402C355.23 28.0568 355.304 28.4395 355.524 28.6883C355.845 28.9838 356.255 29.1369 356.758 29.1475C357.26 29.1602 357.778 29.0752 358.315 28.8924C358.856 28.7053 359.351 28.4756 359.803 28.2035C360.253 27.9314 360.59 27.6741 360.809 27.4296Z" fill="#323232"/>
<path d="M393.398 32.4132C393.815 32.9809 393.986 33.5358 393.914 34.0801C393.84 34.6201 393.605 35.0794 393.212 35.4578C392.823 35.8384 392.352 36.1063 391.8 36.2657C391.252 36.4231 390.692 36.4294 390.117 36.2827C389.542 36.1339 389.045 35.781 388.628 35.2197C387.529 33.6953 386.298 32.2857 384.941 30.993C383.581 29.7003 382.118 28.5395 380.552 27.5062C380.433 28.9817 380.317 30.4445 380.205 31.8945C380.091 33.3466 379.977 34.8093 379.858 36.2827C379.807 36.9971 379.579 37.5626 379.173 37.9836C378.771 38.4025 378.289 38.6852 377.727 38.8341C377.162 38.9808 376.619 38.9808 376.095 38.8341C375.57 38.6852 375.135 38.4025 374.792 37.9836C374.448 37.5626 374.302 36.9971 374.353 36.2827C374.572 33.5783 374.742 30.8378 374.86 28.059C374.983 25.2759 375.317 22.5566 375.858 19.9033C376.129 18.5489 376.63 17.2329 377.363 15.9572C378.095 14.6773 379.029 13.6143 380.163 12.7681C381.3 11.9176 382.628 11.4669 384.146 11.4159C385.199 11.3649 386.197 11.5605 387.14 12.0027C388.081 12.4449 388.882 13.0551 389.542 13.8311C390.201 14.6093 390.645 15.4959 390.878 16.493C391.115 17.4859 391.06 18.5128 390.717 19.5716C390.373 20.6049 389.814 21.5935 389.043 22.5396C388.275 23.4879 387.389 24.3064 386.387 24.9974C389.003 27.1129 391.339 29.5855 393.398 32.4132ZM385.541 17.6156C385.444 17.1223 385.256 16.8459 384.975 16.7822C384.691 16.7205 384.374 16.7992 384.019 17.0203C383.664 17.2414 383.313 17.5263 382.97 17.8707C382.632 18.2173 382.338 18.5574 382.091 18.8912C381.848 19.2208 381.689 19.4589 381.617 19.6056C381.419 20.1499 381.247 20.7665 381.101 21.4511C381.592 21.3788 382.032 21.2257 382.421 20.9918C382.814 20.7601 383.195 20.4709 383.562 20.1244C383.708 19.9777 383.954 19.7459 384.298 19.427C384.641 19.1039 384.945 18.7722 385.212 18.432C385.482 18.0876 385.592 17.8154 385.541 17.6156Z" fill="#323232"/>
<path d="M414.757 19.7161C414.829 22.1782 414.888 24.6381 414.934 27.098C414.985 29.56 415.046 32.0199 415.12 34.4798C415.141 35.1941 414.97 35.7661 414.604 36.1892C414.237 36.6186 413.784 36.9035 413.243 37.0396C412.706 37.1757 412.162 37.1693 411.611 37.0226C411.063 36.8738 410.598 36.591 410.215 36.1721C409.837 35.7597 409.636 35.1941 409.615 34.4798C409.591 33.7441 409.572 33.0064 409.555 32.2686C409.543 31.5266 409.526 30.7867 409.505 30.049L403.999 29.8619C403.807 30.7761 403.623 31.6988 403.449 32.6343C403.28 33.5698 403.107 34.5053 402.934 35.4408C402.815 36.1254 402.54 36.6271 402.113 36.946C401.684 37.2692 401.187 37.4308 400.625 37.4308C400.06 37.4308 399.527 37.282 399.026 36.9886C398.523 36.693 398.132 36.287 397.851 35.7724C397.574 35.2579 397.496 34.6541 397.614 33.961C398.054 31.5521 398.548 29.1688 399.102 26.8088C399.654 24.4446 400.432 22.1441 401.437 19.9032C401.921 18.7977 402.54 17.6049 403.297 16.3229C404.058 15.043 404.921 13.8694 405.885 12.8021C406.853 11.7305 407.925 10.9375 409.099 10.4208C410.202 9.95097 411.097 9.8638 411.78 10.1572C412.467 10.4527 413.006 10.9885 413.395 11.7645C413.784 12.5427 414.072 13.4229 414.258 14.4094C414.444 15.3917 414.564 16.3612 414.621 17.3179C414.683 18.2768 414.727 19.0762 414.757 19.7161ZM405.724 23.7727C405.701 23.8748 405.669 23.9768 405.631 24.0789C405.598 24.1767 405.555 24.2724 405.504 24.368C406.164 24.3914 406.811 24.4169 407.45 24.4446C408.086 24.468 408.722 24.4914 409.361 24.5126C409.331 23.726 409.312 22.9308 409.302 22.1314C409.289 21.332 409.272 20.5283 409.251 19.7161C409.221 19.3994 409.209 19.0613 409.209 18.7041C409.209 18.3469 409.209 17.9855 409.209 17.6156C408.796 18.1088 408.443 18.5893 408.152 19.0528C407.661 19.7906 407.213 20.5538 406.807 21.3405C406.405 22.1293 406.046 22.9393 405.724 23.7727Z" fill="#323232"/>
<path d="M433.285 26.9874C433.966 26.8174 434.558 26.8492 435.061 27.081C435.562 27.3149 435.954 27.6763 436.237 28.1696C436.518 28.6628 436.664 29.1986 436.677 29.7769C436.687 30.3552 436.541 30.8782 436.237 31.3417C435.932 31.8073 435.436 32.139 434.748 32.3367C433.501 32.6833 432.224 32.949 430.917 33.1361C429.609 33.319 428.312 33.3232 427.027 33.1531C425.741 32.9788 424.511 32.5578 423.34 31.8945C421.822 31.0334 420.667 29.8407 419.872 28.3141C419.077 26.7897 418.716 25.142 418.79 23.3731C418.885 21.6509 419.31 20.0032 420.067 18.432C420.828 16.8566 421.836 15.4597 423.094 14.2394C424.357 13.0211 425.788 12.0856 427.391 11.4329C428.997 10.7823 430.668 10.5293 432.406 10.676C433.116 10.727 433.683 10.9567 434.106 11.3649C434.533 11.7688 434.816 12.2536 434.951 12.8191C435.087 13.3868 435.087 13.9396 434.951 14.4775C434.816 15.0175 434.533 15.4534 434.106 15.7872C433.683 16.1231 433.116 16.2634 432.406 16.2124C431.131 16.1167 429.924 16.357 428.786 16.9352C427.653 17.5135 426.693 18.313 425.911 19.3335C425.126 20.354 424.625 21.5021 424.405 22.7778C424.185 23.8897 424.238 24.7827 424.566 25.4567C424.898 26.1328 425.395 26.6366 426.054 26.9704C426.714 27.3 427.467 27.4956 428.312 27.5572C429.158 27.621 430.014 27.5976 430.883 27.4892C431.75 27.3765 432.552 27.2086 433.285 26.9874Z" fill="#323232"/>
<path d="M442.015 13.1507C442.087 12.4597 442.332 11.8984 442.751 11.4668C443.167 11.0373 443.656 10.7567 444.214 10.6249C444.776 10.4888 445.326 10.4888 445.863 10.6249C446.404 10.7567 446.831 11.031 447.149 11.4498C447.47 11.8708 447.593 12.4363 447.521 13.1507C446.81 19.8181 446.261 26.4983 445.872 33.187C445.821 33.9014 445.597 34.4691 445.203 34.8879C444.814 35.3025 444.343 35.5832 443.791 35.7299C443.244 35.8787 442.7 35.8787 442.159 35.7299C441.622 35.5832 441.178 35.3025 440.823 34.8879C440.467 34.4691 440.315 33.9014 440.366 33.187C440.755 26.4983 441.305 19.8181 442.015 13.1507Z" fill="#323232"/>
<path d="M460.547 8.6094C459.888 8.29261 459.385 7.83338 459.042 7.23169C458.697 6.62575 458.649 6.03895 458.898 5.47128L459.888 3.1836C460.108 2.6457 460.558 2.2715 461.241 2.06102C461.928 1.85266 462.613 1.90581 463.296 2.2226C463.96 2.54577 464.463 3.01138 464.801 3.61732C465.144 4.21901 465.195 4.79943 464.954 5.36072L463.964 7.64841C463.744 8.19269 463.29 8.57113 462.602 8.77949C461.92 8.98997 461.235 8.93257 460.547 8.6094ZM469.791 14.8431C470.383 15.8084 470.789 16.8799 471.009 18.0578C471.229 19.2378 471.324 20.4433 471.296 21.6722C471.273 22.9032 471.178 24.0491 471.009 25.1079C470.759 26.7301 470.256 28.2673 469.495 29.7173C468.738 31.1694 467.728 32.426 466.459 33.4848C465.235 34.4947 463.814 35.2324 462.197 35.6959C460.583 36.1594 459.008 36.1488 457.469 35.6619C456.437 35.3387 455.541 34.8093 454.78 34.0716C454.023 33.3359 453.388 32.4876 452.877 31.5288C452.363 30.5656 451.984 29.594 451.743 28.6117C451.45 27.5296 451.278 26.2879 451.228 24.8868C451.177 23.4815 451.272 22.0421 451.515 20.5666C451.762 19.0932 452.168 17.7155 452.733 16.4334C453.295 15.1535 454.054 14.0947 455.008 13.2613C455.983 12.2535 457.156 11.5392 458.526 11.1182C459.896 10.6994 461.302 10.5569 462.746 10.693C464.188 10.8291 465.533 11.25 466.78 11.9516C468.032 12.649 469.034 13.6142 469.791 14.8431ZM463.118 29.1985C463.947 28.4119 464.565 27.4955 464.97 26.4516C465.376 25.4098 465.626 24.3085 465.723 23.1519C465.818 21.9953 465.793 20.8876 465.647 19.8267C465.499 18.7445 465.076 17.8601 464.378 17.1733C463.685 16.4823 462.763 16.1358 461.613 16.1358C460.974 16.1656 460.355 16.3314 459.752 16.6376C459.154 16.9437 458.661 17.3689 458.272 17.9132C457.833 18.5255 457.513 19.2633 457.317 20.1244C457.124 20.9876 456.978 21.7742 456.877 22.4886C456.657 24.1342 456.744 25.7543 457.139 27.3531C457.258 27.8463 457.42 28.329 457.63 28.7988C457.837 29.2645 458.137 29.645 458.526 29.9384C459.163 30.4104 459.89 30.5763 460.708 30.4402C461.531 30.3041 462.247 29.9788 462.856 29.4622C462.958 29.3899 463.044 29.3006 463.118 29.1985Z" fill="#323232"/>
<path d="M489.279 13.5165C489.38 12.8021 489.636 12.2876 490.048 11.9687C490.465 11.6519 490.947 11.4988 491.494 11.5094C492.046 11.5222 492.579 11.6689 493.093 11.9517C493.611 12.2366 494.017 12.6405 494.311 13.1678C494.602 13.6951 494.7 14.3052 494.598 14.9962C493.594 21.7827 492.349 28.5246 490.86 35.2197C490.735 35.7597 490.458 36.1998 490.031 36.5464C489.602 36.8908 489.105 37.1077 488.543 37.1927C487.985 37.2777 487.454 37.214 486.953 37.0056C486.45 36.7951 486.076 36.4209 485.828 35.883C485.264 34.5287 484.689 33.1829 484.103 31.8434C483.515 30.4997 482.929 29.1518 482.344 27.7953C481.976 29.3942 481.621 31.0015 481.278 32.6173C480.94 34.2289 480.621 35.8448 480.323 37.4648C480.204 38.1558 479.925 38.6597 479.485 38.9786C479.046 39.3018 478.549 39.4634 477.997 39.4634C477.443 39.4634 476.916 39.3124 476.415 39.0126C475.912 38.7171 475.521 38.311 475.24 37.7965C474.963 37.2799 474.897 36.6782 475.045 35.9936C476.121 30.1383 477.441 24.3319 479.003 18.5766C479.149 18.0323 479.443 17.5901 479.883 17.2499C480.323 16.9055 480.817 16.6844 481.371 16.5866C481.923 16.4845 482.441 16.5398 482.927 16.7481C483.418 16.9586 483.786 17.3477 484.035 17.9132L487.266 25.3971C487.655 23.4305 488.012 21.4574 488.34 19.478C488.672 17.5008 488.985 15.5129 489.279 13.5165Z" fill="#323232"/>
</g>
<defs>
<clipPath id="clip0_23_405">
<rect width="514.8" height="39.6" fill="white" transform="translate(0 48.4)"/>
</clipPath>
<clipPath id="clip1_23_405">
<rect width="474.142" height="39.5965" fill="white" transform="translate(20.8999)"/>
</clipPath>
</defs>
</svg>
