<svg width="456" height="43" viewBox="0 0 456 43" fill="none" xmlns="http://www.w3.org/2000/svg">
<g clip-path="url(#clip0_47_538)">
<path d="M17.0119 28.5013C17.8024 28.3044 18.4872 28.3405 19.0664 28.6096C19.6437 28.8751 20.0954 29.2869 20.4214 29.845C20.7456 30.4049 20.9168 31.0136 20.9314 31.6728C20.946 32.3284 20.7748 32.9226 20.4214 33.4572C20.0717 33.9882 19.4998 34.3639 18.7094 34.5843C17.2705 34.9798 15.7971 35.2832 14.2872 35.4945C12.7755 35.7022 11.2802 35.7095 9.7995 35.5162C8.31695 35.3194 6.89996 34.8425 5.5449 34.0858C3.79643 33.1032 2.46323 31.745 1.54528 30.0112C0.627336 28.2773 0.208432 26.4044 0.292213 24.3905C0.408777 22.4309 0.904176 20.5544 1.77841 18.7627C2.65264 16.971 3.81464 15.3853 5.26806 14.0018C6.71965 12.6147 8.36794 11.5509 10.2148 10.8086C12.0652 10.068 13.9922 9.78088 15.9993 9.94885C16.8152 10.0066 17.4709 10.2667 17.9663 10.7291C18.4617 11.1878 18.7859 11.7387 18.9425 12.3835C19.0973 13.0301 19.0973 13.6604 18.9425 14.2763C18.7859 14.8886 18.4617 15.3853 17.9663 15.7645C17.4709 16.1402 16.8152 16.2991 15.9993 16.2414C14.5313 16.1312 13.1434 16.4057 11.8321 17.0649C10.5207 17.7206 9.41338 18.6308 8.51 19.7958C7.60663 20.9571 7.02563 22.2647 6.76882 23.7187C6.51566 24.9757 6.57941 25.9908 6.95824 26.7602C7.34072 27.5314 7.91443 28.1075 8.67757 28.4868C9.43888 28.8625 10.3058 29.0864 11.2784 29.1587C12.2546 29.2273 13.2418 29.1984 14.2435 29.072C15.2434 28.942 16.1668 28.7523 17.0119 28.5013Z" fill="#323232"/>
<path d="M35.9328 7.60095C35.1697 7.23612 34.5923 6.71054 34.1989 6.02602C33.8055 5.33789 33.749 4.67324 34.0313 4.03207L35.1751 1.43126C35.4265 0.815374 35.9474 0.389131 36.7342 0.15253C37.5246 -0.0876834 38.3169 -0.0280816 39.1092 0.333142C39.8705 0.699783 40.4497 1.22717 40.8431 1.9153C41.2401 2.59982 41.2966 3.26266 41.0106 3.90203L39.8741 6.51006C39.6155 7.12233 39.091 7.54857 38.3005 7.78879C37.5137 8.02539 36.7233 7.96217 35.9328 7.60095ZM46.5984 14.6881C47.2778 15.7827 47.7441 17 47.9972 18.3437C48.2486 19.6875 48.3615 21.0601 48.3323 22.4617C48.3068 23.8596 48.1957 25.16 47.9972 26.3629C47.7149 28.2087 47.1376 29.9571 46.2633 31.6078C45.3891 33.2604 44.218 34.6891 42.7518 35.8919C41.3385 37.0388 39.6993 37.8787 37.8343 38.4133C35.9729 38.9425 34.1552 38.9244 32.3776 38.3627C31.1919 38.0015 30.1629 37.4019 29.2886 36.5638C28.4144 35.7222 27.6804 34.7559 27.0885 33.6668C26.4947 32.5741 26.0576 31.4688 25.7771 30.3508C25.4365 29.119 25.238 27.7048 25.1797 26.11C25.1251 24.517 25.2398 22.8789 25.5221 21.1974C25.8026 19.5177 26.2671 17.95 26.9136 16.4943C27.5638 15.0403 28.4399 13.8393 29.5436 12.8893C30.6692 11.7388 32.0224 10.9278 33.6015 10.4546C35.1842 9.9778 36.8089 9.81706 38.4754 9.97058C40.14 10.1259 41.6918 10.6027 43.1307 11.401C44.5677 12.1957 45.7242 13.292 46.5984 14.6881ZM38.8979 31.0227C39.8541 30.1268 40.5662 29.0847 41.0325 27.8945C41.4988 26.706 41.7865 25.4526 41.8994 24.1377C42.016 22.8229 41.9887 21.564 41.8193 20.3594C41.6481 19.1276 41.16 18.1198 40.355 17.3395C39.5536 16.5557 38.4899 16.1619 37.164 16.1619C36.43 16.1908 35.7161 16.3823 35.0221 16.7327C34.3319 17.0794 33.7618 17.5617 33.3101 18.1776C32.8001 18.8765 32.4304 19.7164 32.2027 20.6989C31.9787 21.6778 31.8112 22.57 31.7001 23.3792C31.4469 25.2539 31.5471 27.0998 31.9987 28.9203C32.139 29.4802 32.3284 30.0257 32.567 30.5603C32.8092 31.0913 33.1571 31.5248 33.6088 31.8607C34.341 32.3917 35.1788 32.5795 36.1222 32.4242C37.0693 32.2707 37.8944 31.9004 38.5992 31.3116C38.7158 31.2304 38.8141 31.1346 38.8979 31.0227Z" fill="#323232"/>
<path d="M59.6379 8.56169C61.3026 8.87054 62.9108 9.3329 64.4608 9.94879C66.0143 10.5665 67.455 11.4623 68.7809 12.6363C70.2179 13.9222 71.3308 15.4538 72.1176 17.231C72.908 19.0083 73.1922 20.8631 72.97 22.7939C72.7696 24.4465 72.2414 25.9726 71.3818 27.3742C70.5221 28.7721 69.4694 30.0003 68.2272 31.0587C66.8467 32.2344 65.2184 33.1809 63.3388 33.8979C61.4629 34.6113 59.6634 35.247 57.9404 35.8051C57.4632 35.946 56.9788 36.0706 56.4834 36.1808C55.988 36.2928 55.4999 36.3217 55.019 36.2675C54.3433 36.1573 53.7587 35.8377 53.2633 35.3067C52.7715 34.772 52.5384 34.1688 52.5639 33.4933C52.7624 25.8841 53.1431 18.2461 53.7077 10.5773C53.766 9.71038 54.0537 9.11075 54.5746 8.77843C55.0992 8.44249 55.7202 8.25826 56.4397 8.22937C57.1573 8.20047 57.8566 8.24201 58.5378 8.35218C58.9021 8.40998 59.2682 8.48042 59.6379 8.56169ZM66.4059 23.1696C66.803 22.0245 66.8667 20.995 66.5953 20.0847C66.3276 19.1744 65.8413 18.3779 65.1383 17.6934C64.4334 17.0107 63.6011 16.4436 62.6394 15.9957C61.6814 15.5477 60.7088 15.2263 59.718 15.0276C59.4357 19.6476 59.2099 24.2081 59.0405 28.7107C60.0841 28.3748 61.0913 27.9883 62.0639 27.5548C63.0401 27.1213 63.9089 26.556 64.672 25.8571C65.4333 25.1599 66.0125 24.2641 66.4059 23.1696Z" fill="#323232"/>
<path d="M79.1903 12.759C79.2723 11.9788 79.5546 11.343 80.0354 10.8518C80.5162 10.3605 81.079 10.039 81.7256 9.88369C82.3758 9.73017 83.0115 9.73017 83.6343 9.88369C84.2554 10.039 84.749 10.3533 85.1133 10.8301C85.4812 11.3069 85.6232 11.9499 85.5358 12.759C84.7199 20.3447 84.086 27.943 83.6343 35.5522C83.5761 36.3668 83.3211 37.0116 82.8694 37.4884C82.4177 37.9616 81.8731 38.2812 81.2375 38.4492C80.6055 38.619 79.979 38.619 79.3579 38.4492C78.735 38.2812 78.2214 37.9616 77.8134 37.4884C77.4054 37.0116 77.2269 36.3668 77.2816 35.5522C77.7333 27.943 78.3689 20.3447 79.1903 12.759Z" fill="#323232"/>
<path d="M106.916 21.1106C108.804 21.0871 110.256 21.5369 111.272 22.4616C112.287 23.3827 112.753 24.8077 112.671 26.7385C112.613 28.3911 112.179 29.9877 111.374 31.5283C110.573 33.0653 109.48 34.3079 108.096 35.2561C106.575 36.3217 104.92 36.8744 103.127 36.9177C101.335 36.9611 99.5758 36.7444 97.8528 36.2675C95.7637 35.6806 94.0972 34.7576 92.8551 33.5006C91.6166 32.2399 90.7642 30.7769 90.298 29.1153C89.8317 27.4501 89.6896 25.6873 89.8754 23.827C90.0594 21.9631 90.5256 20.1281 91.2742 18.322C92.0209 16.5159 92.9881 14.8452 94.1737 13.3082C95.3576 11.7676 96.7181 10.4726 98.2535 9.42144C99.7925 8.37208 101.459 7.69479 103.251 7.39136C105.043 7.08432 106.883 7.25048 108.773 7.88985C109.564 8.1698 110.128 8.59062 110.464 9.15413C110.802 9.71403 110.966 10.3227 110.952 10.9819C110.941 11.6375 110.781 12.2444 110.471 12.8025C110.159 13.3624 109.715 13.7615 109.138 14.0017C108.559 14.2383 107.888 14.2311 107.127 13.9801C105.772 13.5033 104.464 13.5033 103.207 13.9801C101.954 14.4533 100.812 15.2281 99.7834 16.3063C98.7525 17.3864 97.9129 18.6254 97.2627 20.0269C96.6107 21.4249 96.2154 22.8228 96.0752 24.2244C95.9331 25.6223 96.1335 26.8649 96.6726 27.9522C96.9822 28.6277 97.4831 29.1876 98.1734 29.6355C98.8618 30.0834 99.6377 30.3995 100.497 30.5819C101.361 30.7607 102.195 30.7806 102.996 30.6397C103.801 30.5006 104.471 30.1665 105.007 29.6355C105.404 29.2454 105.73 28.7577 105.983 28.1689C106.012 28.0822 106.034 27.9702 106.049 27.8294C106.063 27.6903 106.082 27.5512 106.107 27.4103C106.082 27.4103 106.049 27.4103 106.005 27.4103C105.961 27.4103 105.925 27.4103 105.896 27.4103C105.783 27.4392 105.677 27.4465 105.575 27.432C105.477 27.4176 105.373 27.4103 105.262 27.4103C104.781 27.9161 104.158 28.2394 103.397 28.3784C102.639 28.5193 101.898 28.4272 101.175 28.1039C100.455 27.7824 99.94 27.1719 99.6304 26.2761C99.2079 25.0732 99.1933 24.1286 99.5867 23.4441C99.9837 22.7614 100.614 22.2503 101.474 21.9125C102.333 21.5766 103.262 21.3599 104.264 21.2623C105.269 21.1612 106.153 21.1106 106.916 21.1106Z" fill="#323232"/>
<path d="M138.317 11.9212C138.996 13.0157 139.462 14.2402 139.715 15.5984C139.967 16.953 140.08 18.322 140.051 19.7091C140.025 21.0926 139.914 22.3858 139.715 23.5887C139.433 25.4381 138.856 27.1901 137.982 28.8408C137.107 30.488 135.936 31.9149 134.47 33.1177C133.057 34.2646 131.418 35.1045 129.553 35.6391C127.691 36.1701 125.873 36.1556 124.096 35.5957C122.91 35.2309 121.881 34.6276 121.007 33.7896C120.133 32.9516 119.399 31.9943 118.807 30.9143C118.213 29.836 117.776 28.7379 117.495 27.6199C117.155 26.3881 116.956 24.9667 116.898 23.3575C116.843 21.75 116.958 20.1065 117.24 18.4304C117.521 16.7507 117.985 15.183 118.632 13.7273C119.282 12.2733 120.158 11.0687 121.262 10.115C122.387 8.96996 123.741 8.15721 125.32 7.6804C126.902 7.20358 128.527 7.04284 130.194 7.19636C131.858 7.35168 133.41 7.8285 134.849 8.6268C136.286 9.42691 137.442 10.525 138.317 11.9212ZM130.616 28.2484C131.572 27.3526 132.284 26.3105 132.751 25.1203C133.217 23.9318 133.505 22.6856 133.618 21.3852C133.734 20.0848 133.707 18.8187 133.538 17.5851C133.366 16.357 132.878 15.351 132.073 14.5653C131.272 13.7815 130.208 13.4022 128.882 13.4311C128.148 13.4311 127.434 13.6153 126.74 13.9801C126.05 14.3414 125.48 14.8164 125.028 15.4033C124.518 16.1077 124.149 16.9476 123.921 17.9247C123.697 18.9036 123.529 19.8139 123.418 20.6555C123.165 22.5303 123.265 24.3743 123.717 26.1895C123.857 26.7241 124.047 27.2587 124.285 27.7933C124.527 28.3243 124.875 28.7542 125.327 29.0865C126.059 29.6211 126.897 29.8125 127.84 29.6572C128.788 29.5037 129.613 29.1334 130.317 28.5446C130.405 28.458 130.503 28.3604 130.616 28.2484Z" fill="#323232"/>
<path d="M164.265 8.56169C165.93 8.87054 167.538 9.3329 169.088 9.94879C170.642 10.5665 172.082 11.4623 173.408 12.6363C174.845 13.9222 175.958 15.4538 176.745 17.231C177.535 19.0083 177.82 20.8631 177.597 22.7939C177.397 24.4465 176.869 25.9726 176.009 27.3742C175.15 28.7721 174.097 30.0003 172.855 31.0587C171.474 32.2344 169.846 33.1809 167.966 33.8979C166.09 34.6113 164.291 35.247 162.568 35.8051C162.091 35.946 161.606 36.0706 161.111 36.1808C160.615 36.2928 160.127 36.3217 159.646 36.2675C158.971 36.1573 158.386 35.8377 157.891 35.3067C157.399 34.772 157.166 34.1688 157.191 33.4933C157.39 25.8841 157.771 18.2461 158.335 10.5773C158.393 9.71038 158.681 9.11075 159.202 8.77843C159.727 8.44249 160.348 8.25826 161.067 8.22937C161.785 8.20047 162.484 8.24201 163.165 8.35218C163.53 8.40998 163.896 8.48042 164.265 8.56169ZM171.033 23.1696C171.43 22.0245 171.494 20.995 171.223 20.0847C170.955 19.1744 170.469 18.3779 169.766 17.6934C169.061 17.0107 168.229 16.4436 167.267 15.9957C166.309 15.5477 165.336 15.2263 164.345 15.0276C164.063 19.6476 163.837 24.2081 163.668 28.7107C164.712 28.3748 165.719 27.9883 166.691 27.5548C167.668 27.1213 168.536 26.556 169.299 25.8571C170.061 25.1599 170.64 24.2641 171.033 23.1696Z" fill="#323232"/>
<path d="M197.448 29.7583C198.264 29.7872 198.92 30.0184 199.415 30.4519C199.911 30.8854 200.235 31.4182 200.392 32.0485C200.546 32.6806 200.546 33.311 200.392 33.9413C200.235 34.568 199.911 35.0864 199.415 35.4946C198.92 35.8991 198.264 36.0725 197.448 36.0147C195.529 35.9569 193.611 35.9714 191.693 36.0581C189.773 36.1412 187.854 36.3362 185.93 36.6433C185.337 36.7552 184.715 36.7065 184.065 36.4988C183.419 36.2875 182.878 35.9461 182.441 35.4729C182.004 34.9961 181.84 34.3802 181.953 33.6234C182.433 29.7331 182.962 25.8571 183.541 21.9993C184.118 18.1378 184.746 14.289 185.428 10.4546C185.51 9.97777 185.677 9.55694 185.93 9.1903C186.158 8.80018 186.484 8.4805 186.907 8.22945C187.329 7.97478 187.85 7.83571 188.473 7.81043C191.522 7.69483 194.571 7.75082 197.616 7.97659C198.432 8.03438 199.088 8.29447 199.583 8.75683C200.078 9.21558 200.403 9.75923 200.559 10.3896C200.714 11.0217 200.714 11.6448 200.559 12.2607C200.403 12.873 200.078 13.3769 199.583 13.7706C199.088 14.1607 198.432 14.3269 197.616 14.2691C195.527 14.13 193.398 14.0596 191.227 14.0596C191.085 14.8741 190.944 15.6887 190.804 16.5015C190.662 17.3106 190.535 18.1197 190.418 18.9289C191.578 18.9578 192.693 19.0156 193.762 19.1023C194.611 19.2142 195.352 19.5357 195.984 20.0703C196.62 20.6013 196.938 21.3256 196.938 22.2449C196.938 22.7795 196.789 23.2997 196.494 23.8054C196.197 24.3075 195.809 24.7121 195.328 25.0191C194.847 25.3279 194.325 25.4526 193.762 25.3948C192.323 25.2557 190.886 25.1997 189.449 25.2286C189.333 26.0088 189.218 26.7999 189.107 27.5982C188.994 28.3983 188.883 29.2021 188.772 30.0112C190.209 29.8721 191.646 29.7764 193.084 29.7222C194.527 29.6644 195.98 29.6771 197.448 29.7583Z" fill="#323232"/>
<path d="M234.187 16.3712C234.467 15.6163 234.904 15.0708 235.498 14.7385C236.09 14.4026 236.717 14.24 237.378 14.2545C238.043 14.2653 238.649 14.4243 239.199 14.7313C239.753 15.0401 240.148 15.4808 240.387 16.0534C240.623 16.6277 240.601 17.2924 240.321 18.0473C237.698 24.9593 234.764 31.6763 231.52 38.1963C231.151 38.9224 230.606 39.383 229.888 39.5762C229.169 39.7731 228.45 39.746 227.732 39.4967C227.013 39.2457 226.453 38.8122 226.056 38.1963C224.647 36.0435 223.485 33.737 222.567 31.2753C221.649 28.81 220.837 26.3049 220.133 23.7619C219.429 21.2152 218.695 18.7373 217.933 16.3279C217.675 15.544 217.68 14.8649 217.948 14.2906C218.219 13.7181 218.636 13.2719 219.201 12.9541C219.764 12.6326 220.368 12.4628 221.015 12.4484C221.665 12.4339 222.272 12.6037 222.836 12.9541C223.405 13.3008 223.8 13.868 224.024 14.6518C224.785 17.0323 225.512 19.4958 226.202 22.0424C226.896 24.5855 227.721 27.0472 228.679 29.4258C229.67 27.2693 230.621 25.1056 231.535 22.9383C232.453 20.7709 233.336 18.5819 234.187 16.3712Z" fill="#323232"/>
<path d="M260.301 29.7583C261.117 29.7872 261.773 30.0184 262.268 30.4519C262.764 30.8854 263.088 31.4182 263.245 32.0485C263.399 32.6806 263.399 33.311 263.245 33.9413C263.088 34.568 262.764 35.0864 262.268 35.4946C261.773 35.8991 261.117 36.0725 260.301 36.0147C258.382 35.9569 256.464 35.9714 254.546 36.0581C252.626 36.1412 250.707 36.3362 248.783 36.6433C248.19 36.7552 247.569 36.7065 246.918 36.4988C246.272 36.2875 245.731 35.9461 245.294 35.4729C244.857 34.9961 244.693 34.3802 244.806 33.6234C245.286 29.7331 245.815 25.8571 246.394 21.9993C246.971 18.1378 247.599 14.289 248.281 10.4546C248.363 9.97777 248.53 9.55694 248.783 9.1903C249.011 8.80018 249.337 8.4805 249.76 8.22945C250.182 7.97478 250.703 7.83571 251.326 7.81043C254.375 7.69483 257.424 7.75082 260.469 7.97659C261.285 8.03438 261.941 8.29447 262.436 8.75683C262.931 9.21558 263.256 9.75923 263.412 10.3896C263.567 11.0217 263.567 11.6448 263.412 12.2607C263.256 12.873 262.931 13.3769 262.436 13.7706C261.941 14.1607 261.285 14.3269 260.469 14.2691C258.38 14.13 256.251 14.0596 254.08 14.0596C253.938 14.8741 253.797 15.6887 253.657 16.5015C253.515 17.3106 253.388 18.1197 253.271 18.9289C254.431 18.9578 255.546 19.0156 256.615 19.1023C257.464 19.2142 258.205 19.5357 258.837 20.0703C259.473 20.6013 259.791 21.3256 259.791 22.2449C259.791 22.7795 259.642 23.2997 259.347 23.8054C259.05 24.3075 258.662 24.7121 258.181 25.0191C257.701 25.3279 257.178 25.4526 256.615 25.3948C255.176 25.2557 253.739 25.1997 252.302 25.2286C252.186 26.0088 252.071 26.7999 251.96 27.5982C251.847 28.3983 251.736 29.2021 251.625 30.0112C253.062 29.8721 254.499 29.7764 255.937 29.7222C257.38 29.6644 258.833 29.6771 260.301 29.7583Z" fill="#323232"/>
<path d="M281.419 20.4387C282.996 21.5043 284.245 22.8986 285.163 24.6217C286.081 26.3411 286.44 28.1526 286.242 30.0545C286.047 31.736 285.469 33.1863 284.508 34.4036C283.55 35.6173 282.373 36.5547 280.974 37.2139C279.579 37.8695 278.098 38.2325 276.53 38.3048C274.966 38.3734 273.463 38.1133 272.021 37.5246C270.582 36.9376 269.371 36.0002 268.385 34.7142C267.875 34.0406 267.66 33.4102 267.744 32.8214C267.832 32.2344 268.094 31.7161 268.531 31.2682C268.968 30.8203 269.509 30.5078 270.156 30.329C270.806 30.1466 271.462 30.1393 272.123 30.3073C272.787 30.4771 273.361 30.8817 273.842 31.521C274.07 31.8299 274.492 32.0051 275.11 32.0484C275.731 32.0918 276.352 32.0665 276.975 31.9689C277.596 31.8678 278.033 31.763 278.286 31.6511C278.878 31.3729 279.322 30.9611 279.619 30.4157C279.914 29.8666 280.022 29.2706 279.94 28.624C279.852 27.8438 279.568 27.1972 279.087 26.6806C278.61 26.1605 278.04 25.7198 277.375 25.3586C276.714 24.9937 276.044 24.6343 275.365 24.2821C274.689 23.9317 274.097 23.5452 273.587 23.1262C272.177 21.898 271.318 20.5579 271.008 19.1022C270.697 17.6428 270.8 16.2016 271.321 14.7747C271.846 13.3497 272.656 12.0493 273.755 10.8735C274.856 9.69954 276.115 8.7748 277.528 8.09932C278.286 7.76699 278.989 7.67849 279.641 7.83201C280.291 7.98734 280.847 8.3016 281.309 8.77842C281.776 9.25162 282.093 9.79526 282.264 10.4111C282.433 11.0288 282.404 11.6158 282.176 12.1739C281.952 12.7338 281.473 13.1962 280.741 13.561C280.26 13.7832 279.701 14.092 279.066 14.4857C278.434 14.8759 277.911 15.3436 277.499 15.8873C277.091 16.4327 277.015 17.0414 277.273 17.7151C277.414 18.163 277.743 18.5495 278.264 18.871C278.789 19.1889 279.346 19.476 279.94 19.7307C280.532 19.9818 281.025 20.2184 281.419 20.4387Z" fill="#323232"/>
<path d="M307.701 9.78272C308.492 9.8658 309.129 10.1512 309.61 10.6424C310.091 11.1337 310.413 11.7026 310.579 12.3474C310.748 12.9886 310.748 13.6099 310.579 14.2113C310.413 14.8146 310.091 15.2986 309.61 15.6634C309.129 16.0247 308.492 16.1475 307.701 16.0319C306.375 15.8693 305.022 15.7429 303.643 15.6562C303.443 18.7338 303.252 21.8006 303.068 24.8529C302.882 27.9017 302.693 30.9504 302.499 33.9991C302.47 34.8137 302.223 35.4657 301.756 35.9569C301.29 36.4446 300.738 36.7643 300.103 36.9178C299.471 37.0731 298.844 37.0731 298.223 36.9178C297.6 36.7643 297.09 36.4446 296.693 35.9569C296.3 35.4657 296.118 34.8137 296.147 33.9991C296.345 30.9504 296.535 27.8872 296.715 24.8096C296.899 21.732 297.09 18.667 297.29 15.6129C296.023 15.6418 294.781 15.7266 293.568 15.8657C292.746 15.9235 292.089 15.7718 291.593 15.4106C291.102 15.0457 290.779 14.5545 290.624 13.9368C290.468 13.3209 290.475 12.6924 290.646 12.0512C290.816 11.4064 291.138 10.8519 291.615 10.3896C292.096 9.9272 292.746 9.65629 293.568 9.57321C298.278 9.09639 302.989 9.16683 307.701 9.78272Z" fill="#323232"/>
<path d="M316.845 12.759C316.927 11.9788 317.209 11.343 317.69 10.8518C318.171 10.3605 318.734 10.039 319.38 9.88369C320.031 9.73017 320.666 9.73017 321.289 9.88369C321.91 10.039 322.404 10.3533 322.768 10.8301C323.136 11.3069 323.278 11.9499 323.191 12.759C322.375 20.3447 321.741 27.943 321.289 35.5522C321.231 36.3668 320.976 37.0116 320.524 37.4884C320.072 37.9616 319.528 38.2812 318.892 38.4492C318.26 38.619 317.634 38.619 317.013 38.4492C316.39 38.2812 315.876 37.9616 315.468 37.4884C315.06 37.0116 314.882 36.3668 314.936 35.5522C315.388 27.943 316.024 20.3447 316.845 12.759Z" fill="#323232"/>
<path d="M356.97 23.6753C356.999 26.0268 356.906 28.3838 356.693 30.748C356.484 33.114 356.265 35.471 356.038 37.8208C355.954 38.601 355.681 39.2368 355.214 39.728C354.748 40.2193 354.189 40.5408 353.539 40.6961C352.892 40.8496 352.258 40.8496 351.637 40.6961C351.014 40.5408 350.512 40.2265 350.129 39.7497C349.75 39.2729 349.605 38.6299 349.692 37.8208C349.885 35.9713 350.095 34.0695 350.319 32.1135C350.546 30.1538 350.694 28.196 350.763 26.24C350.836 24.2803 350.705 22.3749 350.37 20.5254C350.311 20.1895 350.218 19.8535 350.093 19.5212C349.965 19.1853 349.889 18.8475 349.86 18.5098C349.548 18.8764 349.2 19.2358 348.818 19.5862C348.439 19.933 348.151 20.2617 347.958 20.5688C347.306 21.5477 346.803 22.5609 346.45 23.6103C346.1 24.6614 345.825 25.7451 345.627 26.8613C345.514 27.5657 345.219 28.1003 344.738 28.4651C344.257 28.8263 343.705 29.0358 343.084 29.0936C342.467 29.1478 341.862 29.0629 341.27 28.8408C340.677 28.615 340.196 28.2628 339.828 27.786C339.458 27.3092 339.318 26.7222 339.405 26.0232C339.464 25.2683 339.511 24.5061 339.551 23.7403C339.595 22.9709 339.602 22.2069 339.573 21.4501C339.573 21.2009 339.58 20.8433 339.595 20.3809C339.609 19.9186 339.595 19.4634 339.551 19.0155C339.511 18.5676 339.393 18.2316 339.194 18.0041C339.136 17.9517 339.121 17.8957 339.15 17.8379C339.121 17.8379 339.107 17.8379 339.107 17.8379C339.107 17.8379 339.092 17.8379 339.063 17.8379C338.81 17.8957 338.562 18.1413 338.32 18.5748C338.081 19.0083 337.906 19.3099 337.795 19.4779C337.484 19.98 337.207 20.5037 336.965 21.0528C336.726 21.5982 336.509 22.1347 336.316 22.6639C335.384 25.1834 334.775 27.7643 334.495 30.4085C334.213 33.0526 333.987 35.704 333.817 38.3626C333.759 39.1754 333.504 39.8183 333.052 40.2915C332.601 40.7684 332.056 41.0898 331.421 41.2596C330.789 41.4276 330.162 41.4276 329.541 41.2596C328.918 41.0898 328.404 40.7684 327.997 40.2915C327.589 39.8183 327.41 39.1754 327.465 38.3626C327.61 36.1519 327.78 33.9485 327.975 31.7522C328.173 29.556 328.514 27.3814 328.995 25.2285C329.275 23.9137 329.647 22.5374 330.109 21.0961C330.576 19.6513 331.153 18.2714 331.843 16.9565C332.537 15.6417 333.38 14.4966 334.371 13.5177C335.298 12.6218 336.389 12.0132 337.642 11.6899C338.899 11.3684 340.128 11.3973 341.329 11.7766C342.527 12.1523 343.523 12.9144 344.316 14.0595C344.345 14.1462 344.385 14.2329 344.439 14.3196C344.498 14.4027 344.541 14.4695 344.571 14.5219C345.386 13.5737 346.279 12.8133 347.251 12.239C348.228 11.6664 349.237 11.4081 350.282 11.4659C351.326 11.5201 352.399 12.0204 353.502 12.9686C354.488 13.8356 355.222 14.8723 355.702 16.0751C356.183 17.2798 356.506 18.5387 356.671 19.8535C356.841 21.1684 356.941 22.4435 356.97 23.6753Z" fill="#323232"/>
<path d="M376.737 29.7583C377.553 29.7872 378.209 30.0184 378.704 30.4519C379.2 30.8854 379.524 31.4182 379.681 32.0485C379.835 32.6806 379.835 33.311 379.681 33.9413C379.524 34.568 379.2 35.0864 378.704 35.4946C378.209 35.8991 377.553 36.0725 376.737 36.0147C374.818 35.9569 372.9 35.9714 370.982 36.0581C369.062 36.1412 367.143 36.3362 365.219 36.6433C364.626 36.7552 364.005 36.7065 363.354 36.4988C362.708 36.2875 362.167 35.9461 361.73 35.4729C361.293 34.9961 361.129 34.3802 361.242 33.6234C361.722 29.7331 362.251 25.8571 362.83 21.9993C363.407 18.1378 364.036 14.289 364.717 10.4546C364.799 9.97777 364.966 9.55694 365.219 9.1903C365.447 8.80018 365.773 8.4805 366.196 8.22945C366.618 7.97478 367.139 7.83571 367.762 7.81043C370.811 7.69483 373.86 7.75082 376.905 7.97659C377.721 8.03438 378.377 8.29447 378.872 8.75683C379.367 9.21558 379.692 9.75923 379.848 10.3896C380.003 11.0217 380.003 11.6448 379.848 12.2607C379.692 12.873 379.367 13.3769 378.872 13.7706C378.377 14.1607 377.721 14.3269 376.905 14.2691C374.816 14.13 372.687 14.0596 370.516 14.0596C370.374 14.8741 370.233 15.6887 370.093 16.5015C369.951 17.3106 369.824 18.1197 369.707 18.9289C370.867 18.9578 371.982 19.0156 373.051 19.1023C373.9 19.2142 374.641 19.5357 375.273 20.0703C375.909 20.6013 376.227 21.3256 376.227 22.2449C376.227 22.7795 376.078 23.2997 375.783 23.8054C375.486 24.3075 375.098 24.7121 374.617 25.0191C374.137 25.3279 373.614 25.4526 373.051 25.3948C371.612 25.2557 370.175 25.1997 368.738 25.2286C368.622 26.0088 368.507 26.7999 368.396 27.5982C368.283 28.3983 368.172 29.2021 368.061 30.0112C369.498 29.8721 370.935 29.7764 372.374 29.7222C373.816 29.6644 375.269 29.6771 376.737 29.7583Z" fill="#323232"/>
<path d="M400.689 13.178C400.805 12.3689 401.1 11.7837 401.578 11.4225C402.059 11.0577 402.616 10.8807 403.253 10.8951C403.889 10.9096 404.503 11.0793 405.096 11.4008C405.688 11.7187 406.153 12.1793 406.488 12.7807C406.827 13.3839 406.941 14.0775 406.83 14.8613C405.674 22.5825 404.233 30.2494 402.51 37.864C402.368 38.4763 402.051 38.9766 401.556 39.3667C401.064 39.7604 400.494 40.0061 399.844 40.1036C399.197 40.2048 398.583 40.1343 398.001 39.8941C397.421 39.6575 396.992 39.2313 396.711 38.6154C396.065 37.0802 395.402 35.5486 394.722 34.0206C394.047 32.4944 393.369 30.9629 392.69 29.4259C392.267 31.2428 391.855 33.067 391.458 34.902C391.065 36.737 390.701 38.5774 390.366 40.4215C390.224 41.2053 389.899 41.7797 389.389 42.1409C388.883 42.5057 388.313 42.69 387.677 42.69C387.04 42.69 386.433 42.5202 385.856 42.1843C385.277 41.8465 384.825 41.3841 384.501 40.7972C384.175 40.2084 384.097 39.5257 384.268 38.7454C385.51 32.0845 387.036 25.4795 388.843 18.9287C389.007 18.3128 389.346 17.8089 389.856 17.4188C390.366 17.0287 390.936 16.7794 391.568 16.6675C392.203 16.5519 392.803 16.6151 393.367 16.8553C393.93 17.0919 394.354 17.5326 394.642 18.1774L398.365 26.695C398.817 24.4554 399.232 22.2122 399.611 19.9618C399.993 17.7078 400.354 15.4465 400.689 13.178Z" fill="#323232"/>
<path d="M428.285 9.78272C429.075 9.8658 429.713 10.1512 430.193 10.6424C430.674 11.1337 430.997 11.7026 431.162 12.3474C431.332 12.9886 431.332 13.6099 431.162 14.2113C430.997 14.8146 430.674 15.2986 430.193 15.6634C429.713 16.0247 429.075 16.1475 428.285 16.0319C426.959 15.8693 425.605 15.7429 424.227 15.6562C424.026 18.7338 423.835 21.8006 423.651 24.8529C423.465 27.9017 423.276 30.9504 423.083 33.9991C423.054 34.8137 422.806 35.4657 422.34 35.9569C421.874 36.4446 421.322 36.7643 420.686 36.9178C420.054 37.0731 419.428 37.0731 418.807 36.9178C418.184 36.7643 417.674 36.4446 417.277 35.9569C416.883 35.4657 416.701 34.8137 416.73 33.9991C416.929 30.9504 417.118 27.8872 417.298 24.8096C417.482 21.732 417.674 18.667 417.874 15.6129C416.606 15.6418 415.364 15.7266 414.151 15.8657C413.33 15.9235 412.672 15.7718 412.177 15.4106C411.685 15.0457 411.363 14.5545 411.208 13.9368C411.051 13.3209 411.059 12.6924 411.23 12.0512C411.399 11.4064 411.722 10.8519 412.199 10.3896C412.68 9.9272 413.33 9.65629 414.151 9.57321C418.861 9.09639 423.573 9.16683 428.285 9.78272Z" fill="#323232"/>
<path d="M455.336 20.2293C455.418 23.0288 455.486 25.8264 455.54 28.6241C455.598 31.4236 455.671 34.2213 455.759 37.0189C455.782 37.8335 455.584 38.4837 455.161 38.9695C454.739 39.4608 454.216 39.7823 453.595 39.9376C452.978 40.0911 452.351 40.0839 451.715 39.916C451.078 39.7462 450.543 39.4247 450.105 38.9479C449.668 38.4765 449.435 37.8335 449.406 37.0189C449.377 36.1809 449.355 35.3429 449.34 34.5048C449.33 33.6668 449.311 32.8269 449.282 31.9835L442.929 31.774C442.705 32.8107 442.494 33.86 442.296 34.9238C442.095 35.9895 441.899 37.0515 441.705 38.1098C441.563 38.8937 441.247 39.468 440.751 39.8293C440.256 40.1941 439.682 40.3783 439.032 40.3783C438.385 40.3783 437.773 40.2085 437.196 39.8726C436.617 39.5403 436.165 39.0797 435.841 38.4927C435.515 37.9057 435.422 37.2194 435.564 36.4338C436.074 33.6939 436.644 30.9793 437.276 28.2918C437.912 25.6043 438.81 22.9872 439.972 20.4388C440.534 19.1817 441.254 17.8272 442.128 16.3714C443.002 14.9175 443.995 13.581 445.108 12.3619C446.224 11.1445 447.461 10.2415 448.816 9.65268C450.084 9.12349 451.113 9.02776 451.905 9.3637C452.695 9.69602 453.318 10.3029 453.77 11.1843C454.222 12.0656 454.551 13.068 454.761 14.1896C454.974 15.3076 455.114 16.413 455.183 17.5057C455.256 18.5948 455.307 19.5032 455.336 20.2293ZM444.918 24.8529C444.893 24.9649 444.86 25.0751 444.816 25.1853C444.773 25.2973 444.722 25.4074 444.663 25.5176C445.425 25.5465 446.173 25.5754 446.907 25.6043C447.639 25.6332 448.375 25.6621 449.115 25.691C449.085 24.7952 449.064 23.8921 449.049 22.9818C449.034 22.0715 449.013 21.154 448.983 20.2293C448.954 19.8681 448.94 19.4852 448.94 19.0806C448.94 18.6724 448.94 18.257 448.94 17.838C448.459 18.3979 448.051 18.9433 447.716 19.4779C447.151 20.316 446.638 21.1829 446.171 22.0788C445.705 22.9746 445.286 23.8993 444.918 24.8529Z" fill="#323232"/>
</g>
<defs>
<clipPath id="clip0_47_538">
<rect width="456" height="43" fill="white"/>
</clipPath>
</defs>
</svg>
