<svg width="268" height="35" viewBox="0 0 268 35" fill="none" xmlns="http://www.w3.org/2000/svg">
<g clip-path="url(#clip0_47_486)">
<path d="M15.3152 22.2464C16.1167 22.2717 16.7584 22.4952 17.2431 22.917C17.7305 23.3401 18.05 23.8577 18.2016 24.4711C18.3559 25.0859 18.3559 25.6993 18.2016 26.3127C18.05 26.9234 17.7305 27.4277 17.2431 27.8242C16.7584 28.2181 16.1167 28.3871 15.3152 28.3299C13.4306 28.2767 11.546 28.2913 9.66143 28.3725C7.77685 28.455 5.89228 28.6466 4.0077 28.9473C3.42554 29.0537 2.8163 29.0058 2.17727 28.8036C1.54096 28.5987 1.00889 28.2647 0.579716 27.803C0.149187 27.3386 -0.010569 26.7385 0.0977401 26.004C0.570238 22.2184 1.09012 18.4462 1.65739 14.6886C2.22737 10.9283 2.84473 7.18271 3.50948 3.45305C3.59206 2.98867 3.75859 2.57885 4.0077 2.22358C4.22702 1.84436 4.54518 1.53167 4.96082 1.28684C5.37916 1.04201 5.89363 0.906288 6.50422 0.877015C9.49626 0.767906 12.4897 0.822461 15.483 1.04201C16.2845 1.09523 16.9263 1.34805 17.4109 1.79779C17.8983 2.24886 18.2178 2.7811 18.3695 3.3945C18.5211 4.00525 18.5211 4.61067 18.3695 5.20944C18.2178 5.80954 17.8983 6.30052 17.4109 6.68374C16.9263 7.06429 16.2845 7.22529 15.483 7.16807C13.4319 7.03368 11.3402 6.96582 9.20653 6.96582C9.06573 7.75354 8.92493 8.54391 8.78413 9.33428C8.64604 10.126 8.52419 10.915 8.41588 11.7027C9.54906 11.732 10.643 11.7866 11.6976 11.8677C12.5276 11.9782 13.2546 12.2922 13.8801 12.8098C14.5042 13.3247 14.8169 14.0326 14.8169 14.9334C14.8169 15.4524 14.6707 15.9553 14.3783 16.445C14.0886 16.9346 13.7081 17.3312 13.2356 17.6319C12.7658 17.9299 12.2527 18.051 11.6976 17.9938C10.2856 17.8594 8.87213 17.8062 7.45734 17.8341C7.34497 18.5979 7.2326 19.367 7.12158 20.144C7.01328 20.9185 6.90226 21.7008 6.79124 22.4912C8.20603 22.3528 9.61946 22.257 11.0315 22.2038C12.4463 22.1506 13.8747 22.1652 15.3152 22.2464Z" fill="#323232"/>
<path d="M38.8841 20.7348C39.6883 20.6789 40.326 20.8346 40.7957 21.2032C41.2682 21.5731 41.5878 22.0574 41.7543 22.6562C41.9194 23.2523 41.9194 23.8644 41.7543 24.4924C41.5878 25.1178 41.2615 25.6553 40.7741 26.1051C40.2894 26.5562 39.6599 26.8076 38.8841 26.8609C36.7788 26.9966 34.7061 27.2547 32.6671 27.6379C30.6309 28.0185 28.6015 28.4948 26.5802 29.0696C25.998 29.2333 25.3888 29.2 24.7498 28.9685C24.1134 28.7343 23.5868 28.3658 23.1684 27.8615C22.7528 27.3585 22.5741 26.7651 22.6323 26.0838C22.964 22.8983 23.2889 19.7116 23.6071 16.5248C23.9239 13.3393 24.2366 10.1526 24.544 6.96579C24.6266 6.20336 24.9027 5.58463 25.3725 5.10828C25.845 4.62926 26.3988 4.31524 27.0351 4.16621C27.6741 4.01719 28.2915 4.01719 28.8872 4.16621C29.4829 4.31524 29.9662 4.62261 30.3385 5.08699C30.7135 5.5487 30.8597 6.17541 30.7772 6.96579C30.528 9.49924 30.2789 12.026 30.0298 14.5449C29.7807 17.065 29.5316 19.5772 29.2825 22.0814C32.4126 21.4294 35.6132 20.9796 38.8841 20.7348Z" fill="#323232"/>
<path d="M60.542 5.69919C60.6246 4.93675 60.9007 4.31803 61.3705 3.84167C61.843 3.36266 62.3968 3.04864 63.0331 2.89961C63.6721 2.75059 64.2962 2.75059 64.9068 2.89961C65.5161 3.04864 66.0021 3.35601 66.3636 3.82038C66.7237 4.2821 66.8632 4.90881 66.7806 5.69919C65.975 13.08 65.3509 20.4741 64.9068 27.8829C64.8527 28.6746 64.6036 29.3026 64.1595 29.767C63.7154 30.2287 63.1807 30.5414 62.5565 30.7038C61.9351 30.8674 61.3191 30.8674 60.7099 30.7038C60.0993 30.5414 59.5916 30.2287 59.1881 29.767C58.7874 29.3026 58.6154 28.6746 58.6736 27.8829C59.1177 20.4741 59.7405 13.08 60.542 5.69919Z" fill="#323232"/>
<path d="M87.853 2.79847C88.6288 2.88097 89.2516 3.1604 89.7214 3.63941C90.1939 4.11577 90.5134 4.66663 90.6799 5.29467C90.8451 5.92005 90.8451 6.52414 90.6799 7.10961C90.5134 7.69507 90.1939 8.1661 89.7214 8.52004C89.2516 8.87132 88.6288 8.99373 87.853 8.88728C86.5493 8.72495 85.2184 8.60254 83.8618 8.52004C83.6696 11.5152 83.4841 14.4971 83.3041 17.467C83.1226 20.4342 82.9358 23.4014 82.7408 26.3713C82.7111 27.163 82.4674 27.7964 82.0098 28.2714C81.5549 28.7478 81.0147 29.0618 80.3905 29.2135C79.7691 29.3625 79.1531 29.3625 78.5439 29.2135C77.9333 29.0618 77.4337 28.7478 77.0438 28.2714C76.6566 27.7964 76.4779 27.163 76.5077 26.3713C76.6986 23.4014 76.884 20.4196 77.0654 17.4244C77.2455 14.4305 77.4337 11.4474 77.6287 8.47746C76.3831 8.50673 75.1619 8.5879 73.9678 8.72229C73.1663 8.77551 72.5219 8.62649 72.0345 8.27521C71.5498 7.92127 71.233 7.44359 71.0814 6.84349C70.9297 6.24472 70.9365 5.63265 71.103 5.00726C71.2682 4.37922 71.5864 3.84166 72.0562 3.39458C72.5287 2.94484 73.1663 2.67872 73.9678 2.59622C78.5953 2.13185 83.2242 2.19971 87.853 2.79847Z" fill="#323232"/>
<path d="M96.833 5.69919C96.9156 4.93675 97.1918 4.31803 97.6616 3.84167C98.1341 3.36266 98.6878 3.04864 99.3241 2.89961C99.9631 2.75059 100.587 2.75059 101.198 2.89961C101.807 3.04864 102.293 3.35601 102.655 3.82038C103.015 4.2821 103.154 4.90881 103.072 5.69919C102.266 13.08 101.642 20.4741 101.198 27.8829C101.144 28.6746 100.895 29.3026 100.451 29.767C100.006 30.2287 99.4717 30.5414 98.8475 30.7038C98.2261 30.8674 97.6101 30.8674 97.0009 30.7038C96.3903 30.5414 95.8826 30.2287 95.4791 29.767C95.0784 29.3026 94.9064 28.6746 94.9647 27.8829C95.4087 20.4741 96.0315 13.08 96.833 5.69919Z" fill="#323232"/>
<path d="M123.478 6.10898C123.589 5.3186 123.88 4.74512 124.35 4.38985C124.823 4.03591 125.371 3.86559 125.996 3.8789C126.62 3.89353 127.223 4.05853 127.805 4.37388C128.386 4.68657 128.842 5.13498 129.175 5.72044C129.507 6.3059 129.617 6.98052 129.506 7.74295C128.371 15.2582 126.96 22.7201 125.271 30.1289C125.13 30.729 124.816 31.2173 124.328 31.5979C123.844 31.9811 123.283 32.2206 122.644 32.3164C122.008 32.4122 121.407 32.343 120.841 32.1088C120.274 31.8773 119.851 31.4622 119.574 30.8634C118.935 29.3665 118.282 27.8762 117.619 26.3926C116.954 24.9063 116.289 23.4147 115.626 21.9165C115.21 23.6875 114.808 25.4652 114.418 27.2495C114.031 29.0351 113.671 30.8248 113.335 32.6198C113.197 33.3822 112.88 33.9411 112.382 34.2963C111.884 34.6503 111.322 34.8286 110.698 34.8286C110.072 34.8286 109.477 34.6649 108.911 34.3389C108.343 34.0116 107.899 33.5618 107.578 32.987C107.26 32.4149 107.184 31.7482 107.351 30.9858C108.571 24.5031 110.067 18.0764 111.84 11.7028C112.006 11.104 112.339 10.6144 112.837 10.2338C113.338 9.85061 113.9 9.60578 114.521 9.49934C115.145 9.39023 115.734 9.45143 116.286 9.68562C116.842 9.91714 117.259 10.3443 117.537 10.9683L121.193 19.2606C121.637 17.0824 122.044 14.8962 122.417 12.7034C122.792 10.5106 123.145 8.31244 123.478 6.10898Z" fill="#323232"/>
<path d="M148.964 22.2464C149.765 22.2717 150.407 22.4952 150.892 22.917C151.379 23.3401 151.698 23.8577 151.85 24.4711C152.004 25.0859 152.004 25.6993 151.85 26.3127C151.698 26.9234 151.379 27.4277 150.892 27.8242C150.407 28.2181 149.765 28.3871 148.964 28.3299C147.079 28.2767 145.194 28.2913 143.31 28.3725C141.425 28.455 139.541 28.6466 137.656 28.9473C137.074 29.0537 136.465 29.0058 135.826 28.8036C135.189 28.5987 134.657 28.2647 134.228 27.803C133.798 27.3386 133.638 26.7385 133.746 26.004C134.219 22.2184 134.739 18.4462 135.306 14.6886C135.876 10.9283 136.493 7.18271 137.158 3.45305C137.24 2.98867 137.407 2.57885 137.656 2.22358C137.875 1.84436 138.194 1.53167 138.609 1.28684C139.028 1.04201 139.542 0.906288 140.153 0.877015C143.145 0.767906 146.138 0.822461 149.131 1.04201C149.933 1.09523 150.575 1.34805 151.059 1.79779C151.547 2.24886 151.866 2.7811 152.018 3.3945C152.17 4.00525 152.17 4.61067 152.018 5.20944C151.866 5.80954 151.547 6.30052 151.059 6.68374C150.575 7.06429 149.933 7.22529 149.131 7.16807C147.08 7.03368 144.989 6.96582 142.855 6.96582C142.714 7.75354 142.573 8.54391 142.433 9.33428C142.294 10.126 142.173 10.915 142.064 11.7027C143.197 11.732 144.291 11.7866 145.346 11.8677C146.176 11.9782 146.903 12.2922 147.529 12.8098C148.153 13.3247 148.465 14.0326 148.465 14.9334C148.465 15.4524 148.319 15.9553 148.027 16.445C147.737 16.9346 147.357 17.3312 146.884 17.6319C146.414 17.9299 145.901 18.051 145.346 17.9938C143.934 17.8594 142.521 17.8062 141.106 17.8341C140.993 18.5979 140.881 19.367 140.77 20.144C140.662 20.9185 140.551 21.7008 140.44 22.4912C141.854 22.3528 143.268 22.257 144.68 22.2038C146.095 22.1506 147.523 22.1652 148.964 22.2464Z" fill="#323232"/>
<path d="M177.856 27.026C178.325 27.6514 178.518 28.2635 178.436 28.8622C178.352 29.4623 178.089 29.9733 177.645 30.3951C177.201 30.8182 176.666 31.1163 176.042 31.2946C175.421 31.4715 174.783 31.4782 174.13 31.3159C173.48 31.1522 172.92 30.757 172.452 30.129C171.202 28.4404 169.809 26.881 168.271 25.4506C166.733 24.0215 165.077 22.7348 163.305 21.5919C163.167 23.2245 163.035 24.8438 162.909 26.4512C162.786 28.0586 162.655 29.6806 162.514 31.3159C162.46 32.1036 162.203 32.7276 161.745 33.1893C161.29 33.6537 160.743 33.9677 160.104 34.1314C159.465 34.2937 158.848 34.2937 158.252 34.1314C157.657 33.9677 157.164 33.6537 156.774 33.1893C156.387 32.7276 156.223 32.1036 156.281 31.3159C156.53 28.318 156.722 25.2803 156.86 22.2039C157.001 19.1276 157.376 16.1191 157.987 13.1772C158.29 11.6763 158.856 10.2179 159.687 8.80218C160.521 7.38642 161.58 6.20885 162.866 5.26811C164.155 4.32871 165.658 3.83107 167.377 3.77785C168.569 3.72462 169.696 3.94284 170.762 4.4325C171.83 4.92216 172.739 5.59677 173.486 6.45501C174.236 7.31457 174.744 8.29522 175.008 9.39828C175.27 10.4987 175.208 11.6363 174.818 12.8099C174.431 13.9529 173.801 15.0493 172.928 16.0992C172.053 17.1463 171.05 18.0512 169.917 18.8136C172.881 21.1554 175.528 23.8938 177.856 27.026ZM168.959 10.6437C168.846 10.0982 168.631 9.79081 168.314 9.72295C167.996 9.65642 167.634 9.74424 167.231 9.98907C166.83 10.2339 166.435 10.5479 166.045 10.9311C165.658 11.3117 165.326 11.6856 165.049 12.0542C164.774 12.4201 164.595 12.6849 164.512 12.8472C164.288 13.4473 164.093 14.1286 163.928 14.891C164.483 14.8098 164.981 14.6395 165.422 14.38C165.866 14.1219 166.296 13.8026 166.711 13.422C166.88 13.2597 167.158 13.0002 167.545 12.6449C167.931 12.291 168.276 11.9238 168.579 11.5432C168.885 11.16 169.013 10.8606 168.959 10.6437Z" fill="#323232"/>
<path d="M202.047 12.9696C202.13 15.6946 202.199 18.4197 202.253 21.1448C202.31 23.8672 202.38 26.5896 202.464 29.3146C202.493 30.1023 202.298 30.7344 201.879 31.2094C201.464 31.6884 200.951 32.0024 200.341 32.1514C199.735 32.3005 199.119 32.2925 198.495 32.1302C197.869 31.9665 197.343 31.6525 196.913 31.1881C196.483 30.7277 196.255 30.1023 196.231 29.3146C196.201 28.495 196.18 27.678 196.166 26.861C196.151 26.0453 196.13 25.2297 196.101 24.4127L189.868 24.2051C189.647 25.2137 189.44 26.2356 189.245 27.2708C189.05 28.3074 188.855 29.3412 188.66 30.3738C188.522 31.1362 188.211 31.6951 187.723 32.0503C187.239 32.4043 186.678 32.5826 186.039 32.5826C185.403 32.5826 184.802 32.4176 184.236 32.0876C183.669 31.7603 183.224 31.3118 182.904 30.741C182.585 30.1702 182.495 29.5036 182.633 28.7398C183.134 26.072 183.696 23.4307 184.317 20.8148C184.941 18.2001 185.823 15.6547 186.96 13.1771C187.512 11.9503 188.218 10.6277 189.077 9.21197C189.936 7.79621 190.913 6.49622 192.007 5.31066C193.104 4.12643 194.317 3.24824 195.646 2.67608C196.892 2.15848 197.902 2.06268 198.679 2.38867C199.455 2.716 200.065 3.30811 200.509 4.16635C200.953 5.02591 201.278 5.99991 201.484 7.08834C201.693 8.1781 201.832 9.25455 201.901 10.319C201.969 11.3808 202.017 12.2644 202.047 12.9696ZM191.823 17.467C191.793 17.5734 191.758 17.6825 191.715 17.7917C191.674 17.9021 191.628 18.0099 191.574 18.1163C192.321 18.1456 193.054 18.1735 193.772 18.2015C194.494 18.2268 195.216 18.2534 195.939 18.2813C195.909 17.4084 195.887 16.5302 195.874 15.6467C195.859 14.7632 195.838 13.8717 195.814 12.9696C195.784 12.6156 195.771 12.2404 195.771 11.8465C195.771 11.4527 195.771 11.0522 195.771 10.6437C195.301 11.1866 194.899 11.7175 194.563 12.2351C194.011 13.0521 193.504 13.8957 193.047 14.7685C192.592 15.6414 192.183 16.5409 191.823 17.467Z" fill="#323232"/>
<path d="M228.198 27.026C228.666 27.6514 228.86 28.2635 228.777 28.8622C228.693 29.4623 228.431 29.9733 227.987 30.3951C227.543 30.8182 227.008 31.1163 226.384 31.2946C225.762 31.4715 225.125 31.4782 224.472 31.3159C223.822 31.1522 223.262 30.757 222.793 30.129C221.544 28.4404 220.151 26.881 218.613 25.4506C217.075 24.0215 215.419 22.7348 213.647 21.5919C213.509 23.2245 213.377 24.8438 213.251 26.4512C213.128 28.0586 212.997 29.6806 212.856 31.3159C212.802 32.1036 212.545 32.7276 212.087 33.1893C211.632 33.6537 211.085 33.9677 210.446 34.1314C209.807 34.2937 209.19 34.2937 208.594 34.1314C207.998 33.9677 207.505 33.6537 207.116 33.1893C206.728 32.7276 206.565 32.1036 206.623 31.3159C206.872 28.318 207.064 25.2803 207.202 22.2039C207.343 19.1276 207.718 16.1191 208.329 13.1772C208.632 11.6763 209.198 10.2179 210.029 8.80218C210.863 7.38642 211.922 6.20885 213.208 5.26811C214.497 4.32871 216 3.83107 217.719 3.77785C218.91 3.72462 220.038 3.94284 221.104 4.4325C222.172 4.92216 223.08 5.59677 223.828 6.45501C224.578 7.31457 225.085 8.29522 225.349 9.39828C225.612 10.4987 225.55 11.6363 225.16 12.8099C224.773 13.9529 224.143 15.0493 223.27 16.0992C222.395 17.1463 221.392 18.0512 220.259 18.8136C223.222 21.1554 225.869 23.8938 228.198 27.026ZM219.3 10.6437C219.188 10.0982 218.973 9.79081 218.656 9.72295C218.338 9.65642 217.976 9.74424 217.573 9.98907C217.172 10.2339 216.777 10.5479 216.387 10.9311C216 11.3117 215.668 11.6856 215.39 12.0542C215.116 12.4201 214.937 12.6849 214.854 12.8472C214.63 13.4473 214.435 14.1286 214.269 14.891C214.824 14.8098 215.323 14.6395 215.764 14.38C216.208 14.1219 216.637 13.8026 217.053 13.422C217.222 13.2597 217.5 13.0002 217.887 12.6449C218.273 12.291 218.618 11.9238 218.921 11.5432C219.227 11.16 219.355 10.8606 219.3 10.6437Z" fill="#323232"/>
<path d="M234.805 5.69919C234.888 4.93675 235.164 4.31803 235.634 3.84167C236.106 3.36266 236.66 3.04864 237.296 2.89961C237.935 2.75059 238.559 2.75059 239.17 2.89961C239.779 3.04864 240.265 3.35601 240.627 3.82038C240.987 4.2821 241.126 4.90881 241.044 5.69919C240.238 13.08 239.614 20.4741 239.17 27.8829C239.116 28.6746 238.867 29.3026 238.423 29.767C237.979 30.2287 237.444 30.5414 236.82 30.7038C236.198 30.8674 235.582 30.8674 234.973 30.7038C234.362 30.5414 233.855 30.2287 233.451 29.767C233.051 29.3026 232.879 28.6746 232.937 27.8829C233.381 20.4741 234.004 13.08 234.805 5.69919Z" fill="#323232"/>
<path d="M266.275 4.87936C266.939 5.94384 267.396 7.13605 267.646 8.45601C267.895 9.77596 268.004 11.1105 267.976 12.4584C267.95 13.8077 267.841 15.0664 267.646 16.2373C267.367 18.0363 266.798 19.7395 265.94 21.3468C265.08 22.9542 263.931 24.3433 262.49 25.5142C261.106 26.6293 259.501 27.4449 257.67 27.9625C255.84 28.4815 254.053 28.4682 252.309 27.9253C251.142 27.5714 250.129 26.9859 249.271 26.1689C248.411 25.3493 247.691 24.4165 247.11 23.3693C246.528 22.3195 246.099 21.2497 245.821 20.1599C245.488 18.9611 245.293 17.5786 245.236 16.0138C245.182 14.449 245.293 12.851 245.572 11.2183C245.85 9.58302 246.306 8.05683 246.942 6.64107C247.581 5.22266 248.44 4.04907 249.52 3.12298C250.628 2.00927 251.958 1.22155 253.511 0.759836C255.063 0.295458 256.658 0.137117 258.293 0.286144C259.929 0.435171 261.452 0.898218 262.864 1.67529C264.279 2.45235 265.416 3.52082 266.275 4.87936ZM258.71 20.772C259.652 19.9031 260.351 18.8905 260.806 17.7329C261.263 16.5726 261.549 15.3591 261.662 14.0924C261.773 12.8257 261.744 11.5949 261.575 10.3987C261.408 9.19981 260.93 8.21916 260.14 7.4554C259.352 6.69297 258.307 6.32572 257.004 6.35366C256.285 6.35366 255.585 6.53196 254.903 6.8859C254.223 7.23718 253.664 7.6989 253.224 8.26972C252.722 8.95099 252.36 9.7693 252.141 10.7233C251.92 11.6787 251.754 12.5636 251.643 13.3792C251.394 15.2035 251.491 17.0011 251.935 18.7708C252.072 19.2897 252.258 19.8073 252.493 20.3249C252.731 20.8439 253.07 21.2657 253.511 21.5917C254.233 22.1106 255.057 22.2942 255.986 22.1452C256.914 21.9935 257.724 21.6316 258.418 21.0594C258.5 20.9782 258.598 20.8824 258.71 20.772Z" fill="#323232"/>
</g>
<defs>
<clipPath id="clip0_47_486">
<rect width="268" height="35" fill="white"/>
</clipPath>
</defs>
</svg>
