<svg width="112" height="49" viewBox="0 0 112 49" fill="none" xmlns="http://www.w3.org/2000/svg">
<g clip-path="url(#clip0_75_162)">
<path d="M28.2596 10.5886C28.7083 10.5576 29.0637 10.6466 29.3266 10.8541C29.5888 11.0623 29.7668 11.3355 29.8601 11.6739C29.9533 12.0128 29.9533 12.3589 29.8601 12.7127C29.7668 13.0672 29.5843 13.3714 29.3136 13.6253C29.0443 13.8799 28.6928 14.0216 28.2596 14.0506C27.0852 14.128 25.9295 14.2749 24.792 14.4915C23.6558 14.7067 22.5234 14.9755 21.3943 15.2983C21.0693 15.3911 20.7294 15.3724 20.3739 15.2416C20.0179 15.1114 19.7246 14.9033 19.4934 14.6178C19.2617 14.3329 19.162 13.9978 19.193 13.6124C19.3776 11.8131 19.5588 10.0131 19.7369 8.21179C19.9143 6.41115 20.0891 4.60987 20.26 2.80859C20.3066 2.37938 20.4607 2.02943 20.7236 1.7594C20.9858 1.49002 21.2946 1.31279 21.6507 1.22836C22.0061 1.14458 22.3499 1.14458 22.6814 1.22836C23.0142 1.31279 23.2854 1.48615 23.4946 1.74909C23.703 2.01074 23.7846 2.36391 23.738 2.80859C23.5981 4.24059 23.4583 5.66873 23.3185 7.093C23.1799 8.51598 23.042 9.93574 22.9041 11.3516C24.6496 10.9823 26.4345 10.7278 28.2596 10.5886Z" fill="#323232"/>
<path d="M41.3163 10.5886C41.7649 10.5576 42.1204 10.6466 42.3832 10.8541C42.6454 11.0623 42.8235 11.3355 42.9167 11.6739C43.0099 12.0128 43.0099 12.3589 42.9167 12.7127C42.8235 13.0672 42.6409 13.3714 42.3703 13.6253C42.101 13.8799 41.7494 14.0216 41.3163 14.0506C40.1418 14.128 38.9862 14.2749 37.8486 14.4915C36.7124 14.7067 35.5801 14.9755 34.4509 15.2983C34.1259 15.3911 33.786 15.3724 33.4306 15.2416C33.0745 15.1114 32.7812 14.9033 32.5501 14.6178C32.3183 14.3329 32.2186 13.9978 32.2497 13.6124C32.4342 11.8131 32.6155 10.0131 32.7935 8.21179C32.9709 6.41115 33.1457 4.60987 33.3166 2.80859C33.3633 2.37938 33.5173 2.02943 33.7802 1.7594C34.0424 1.49002 34.3512 1.31279 34.7073 1.22836C35.0628 1.14458 35.4065 1.14458 35.738 1.22836C36.0708 1.31279 36.3421 1.48615 36.5512 1.74909C36.7597 2.01074 36.8412 2.36391 36.7946 2.80859C36.6548 4.24059 36.5149 5.66873 36.3751 7.093C36.2365 8.51598 36.0986 9.93574 35.9607 11.3516C37.7062 10.9823 39.4912 10.7278 41.3163 10.5886Z" fill="#323232"/>
<path d="M57.7133 3.20308C57.8046 4.03315 57.8117 4.93734 57.734 5.91499C57.6576 6.89136 57.4802 7.86837 57.2005 8.84602C56.9222 9.82432 56.5324 10.7324 56.03 11.5708C55.5276 12.4099 54.9093 13.1175 54.1758 13.695C53.4416 14.2711 52.5883 14.6436 51.6145 14.8138C50.5922 14.9826 49.7221 14.9014 49.0041 14.5715C48.2855 14.2402 47.6898 13.7401 47.2172 13.0711C46.7459 12.4009 46.371 11.6237 46.0933 10.7382C45.8149 9.85332 45.618 8.93818 45.5028 7.99275C45.3869 7.04603 45.3248 6.13411 45.3163 5.25763C45.3092 4.37987 45.3293 3.61747 45.3759 2.97107C45.407 2.52446 45.5494 2.17064 45.8032 1.90899C46.0583 1.64798 46.36 1.47075 46.707 1.37795C47.0553 1.28515 47.3998 1.28515 47.7403 1.37795C48.0802 1.47075 48.358 1.64798 48.5742 1.90899C48.7917 2.17064 48.885 2.52446 48.8539 2.97107C48.8384 3.20179 48.8228 3.58976 48.8073 4.13626C48.7917 4.68277 48.7995 5.31048 48.8306 6.0181C48.8617 6.72637 48.9271 7.43464 49.0274 8.14226C49.1271 8.85053 49.2741 9.48211 49.4677 10.037C49.6606 10.5906 49.9196 10.9869 50.2446 11.2254C50.5689 11.4626 50.9788 11.4664 51.4747 11.2357C52.1545 10.9283 52.6951 10.4559 53.0958 9.81787C53.4979 9.17856 53.7912 8.46643 53.9763 7.68083C54.1628 6.89587 54.2716 6.11091 54.3027 5.32724C54.3337 4.54228 54.3104 3.83401 54.2327 3.20308C54.1719 2.75646 54.2418 2.40265 54.4425 2.141C54.6426 1.87806 54.9093 1.7047 55.2427 1.62027C55.5755 1.53649 55.9193 1.53649 56.2734 1.62027C56.6289 1.7047 56.9422 1.88192 57.2135 2.15131C57.4841 2.42134 57.6512 2.77193 57.7133 3.20308Z" fill="#323232"/>
<path d="M69.0986 4.07958C69.254 3.6639 69.4936 3.36422 69.8186 3.17991C70.143 2.9943 70.4867 2.90601 70.8493 2.91439C71.2132 2.92148 71.5459 3.00977 71.8463 3.17991C72.148 3.34876 72.3649 3.59108 72.4964 3.90686C72.6271 4.22136 72.6161 4.58678 72.4627 5.00246C71.0241 8.80416 69.4159 12.4976 67.6381 16.0821C67.4373 16.4823 67.1395 16.7369 66.7446 16.8452C66.351 16.9534 65.956 16.938 65.5611 16.7988C65.1675 16.6608 64.8625 16.4217 64.6469 16.0821C63.8733 14.8982 63.2355 13.6293 62.7331 12.2746C62.2307 10.9206 61.7859 9.54336 61.3994 8.14229C61.0123 6.74187 60.6109 5.38011 60.1952 4.05638C60.0554 3.62523 60.0586 3.25209 60.2056 2.93759C60.3519 2.6218 60.5798 2.37497 60.8893 2.19774C61.1981 2.02116 61.5302 1.929 61.8863 1.92191C62.2417 1.91353 62.5739 2.00569 62.8833 2.19774C63.1922 2.39044 63.409 2.70236 63.5334 3.13351C63.9509 4.44177 64.3491 5.79579 64.7272 7.19622C65.1066 8.59728 65.5592 9.95131 66.0842 11.2589C66.6261 10.0731 67.1486 8.88407 67.651 7.69117C68.1534 6.4989 68.6357 5.29504 69.0986 4.07958Z" fill="#323232"/>
<path d="M75.9419 2.09447C75.9885 1.66332 76.1426 1.31337 76.4055 1.04528C76.6677 0.77589 76.9765 0.598662 77.3326 0.514237C77.688 0.428523 78.0357 0.428523 78.3762 0.514237C78.7161 0.598662 78.9861 0.771378 79.1868 1.03239C79.3888 1.29404 79.4665 1.64785 79.4199 2.09447C78.9706 6.26545 78.6229 10.4435 78.3762 14.628C78.3452 15.0753 78.206 15.4291 77.9593 15.6901C77.712 15.9518 77.4142 16.1283 77.0658 16.2211C76.7188 16.314 76.375 16.314 76.0351 16.2211C75.6946 16.1283 75.4123 15.9518 75.1883 15.6901C74.9636 15.4291 74.8672 15.0753 74.8983 14.628C75.1449 10.4435 75.4926 6.26545 75.9419 2.09447Z" fill="#323232"/>
<path d="M92.6162 6.20359C92.6628 7.74193 92.7003 9.28092 92.7301 10.8205C92.7612 12.3589 92.8 13.8979 92.8466 15.4375C92.8622 15.8828 92.7541 16.2405 92.5229 16.5099C92.2911 16.7793 92.0056 16.9565 91.6657 17.0409C91.3252 17.1247 90.9807 17.1208 90.6324 17.028C90.2854 16.9365 89.9915 16.7599 89.7519 16.497C89.5117 16.236 89.3842 15.8828 89.3686 15.4375C89.3531 14.9754 89.3408 14.514 89.3324 14.0532C89.3253 13.5911 89.3143 13.129 89.2987 12.6663L85.8207 12.5503C85.6964 13.1213 85.5799 13.6987 85.4711 14.2826C85.3637 14.8671 85.2562 15.4523 85.1474 16.0381C85.0697 16.4674 84.8949 16.7818 84.6243 16.9816C84.355 17.1827 84.0423 17.2832 83.6868 17.2832C83.3307 17.2832 82.9941 17.1904 82.6768 17.0048C82.3609 16.8205 82.1136 16.5672 81.9362 16.2444C81.7581 15.9215 81.7083 15.5445 81.786 15.1127C82.0637 13.6059 82.3764 12.1133 82.7234 10.6349C83.0718 9.15718 83.5632 7.71873 84.197 6.3196C84.5058 5.62744 84.8994 4.88051 85.3779 4.07943C85.8576 3.27901 86.4034 2.54432 87.0146 1.87536C87.6258 1.20512 88.3023 0.70888 89.0449 0.385359C89.7403 0.0934157 90.3042 0.039925 90.736 0.225531C91.1691 0.409848 91.5091 0.743681 91.7564 1.22832C92.005 1.71296 92.1869 2.26333 92.3028 2.87815C92.418 3.49362 92.4951 4.10199 92.5333 4.70328C92.5728 5.30327 92.6006 5.80338 92.6162 6.20359ZM86.911 8.74279C86.8955 8.80466 86.8754 8.86652 86.8514 8.92839C86.8288 8.98897 86.8022 9.04955 86.7712 9.11142C87.1888 9.12689 87.5979 9.14236 87.9987 9.15782C88.4007 9.17329 88.8028 9.18876 89.2055 9.20422C89.19 8.71121 89.1777 8.21433 89.1692 7.71422C89.1621 7.21412 89.1511 6.71079 89.1356 6.20359C89.12 6.00252 89.1123 5.79114 89.1123 5.56944C89.1123 5.34645 89.1123 5.11831 89.1123 4.88631C88.8494 5.19436 88.626 5.49468 88.4415 5.78856C88.1321 6.24935 87.8498 6.72625 87.5947 7.21927C87.339 7.711 87.1111 8.21884 86.911 8.74279Z" fill="#323232"/>
<path d="M3.96567 30.4566C4.87854 30.6267 5.76034 30.8813 6.60977 31.2196C7.46049 31.5586 8.24971 32.051 8.97677 32.6967C9.76404 33.405 10.3739 34.2479 10.8077 35.2256C11.2408 36.202 11.3956 37.2209 11.2713 38.2829C11.1625 39.1903 10.8724 40.0294 10.4011 40.7989C9.92978 41.5691 9.35357 42.2464 8.67377 42.8303C7.91563 43.4767 7.02218 43.9968 5.99342 44.3899C4.96595 44.7817 3.98121 45.1317 3.03855 45.4391C2.7757 45.5164 2.50895 45.586 2.23833 45.6479C1.96706 45.7085 1.70032 45.7239 1.43811 45.6943C1.06648 45.6324 0.745358 45.4558 0.474733 45.1633C0.205403 44.8694 0.0785065 44.5388 0.0940448 44.1708C0.20087 39.9843 0.40999 35.7824 0.720756 31.565C0.74989 31.0875 0.907863 30.7569 1.19467 30.5726C1.48084 30.3889 1.82138 30.289 2.21502 30.2735C2.60866 30.2581 2.99064 30.2806 3.36227 30.3405C3.56426 30.3715 3.76497 30.4101 3.96567 30.4566ZM7.67673 38.4917C7.89233 37.8595 7.92664 37.293 7.78032 36.7929C7.63335 36.2928 7.36661 35.8546 6.9801 35.4782C6.59488 35.1019 6.13909 34.7912 5.61273 34.545C5.08766 34.2976 4.55418 34.1197 4.01228 34.0114C3.8582 36.5519 3.73518 39.0608 3.64195 41.5388C4.21299 41.3532 4.76589 41.1418 5.29937 40.9046C5.83285 40.6662 6.30807 40.3543 6.72631 39.9689C7.1439 39.5841 7.46049 39.0917 7.67673 38.4917Z" fill="#323232"/>
<path d="M22.1474 42.1164C22.5961 42.1306 22.9554 42.2569 23.2247 42.4953C23.4953 42.7344 23.6734 43.0277 23.7582 43.3744C23.8443 43.7198 23.8443 44.0665 23.7582 44.4133C23.6734 44.7587 23.4953 45.0435 23.2247 45.2665C22.9554 45.4902 22.5961 45.5862 22.1474 45.5553C21.096 45.5243 20.0445 45.5321 18.9931 45.5785C17.9417 45.6249 16.8903 45.7325 15.8388 45.9007C15.5138 45.9626 15.1739 45.9361 14.8185 45.8208C14.4624 45.7061 14.1646 45.5179 13.925 45.2562C13.6868 44.9933 13.5987 44.6543 13.6609 44.238C13.9231 42.1003 14.2125 39.969 14.5284 37.8449C14.8457 35.7207 15.1901 33.6043 15.5617 31.4956C15.6084 31.2346 15.7003 31.0045 15.8388 30.8047C15.9631 30.5882 16.1405 30.4116 16.3723 30.2737C16.6054 30.1345 16.8916 30.0571 17.2321 30.0417C18.9012 29.9798 20.5709 30.0107 22.2406 30.1345C22.6893 30.1654 23.0486 30.3085 23.3179 30.5624C23.5886 30.815 23.7666 31.1154 23.8514 31.4621C23.9375 31.8075 23.9375 32.1497 23.8514 32.4881C23.7666 32.8271 23.5886 33.1042 23.3179 33.3207C23.0486 33.536 22.6893 33.6275 22.2406 33.5965C21.096 33.5192 19.9286 33.4805 18.7393 33.4805C18.6616 33.9278 18.5839 34.3744 18.5062 34.821C18.4299 35.2664 18.3612 35.7123 18.2991 36.1589C18.9323 36.1744 19.5428 36.2053 20.13 36.2517C20.5942 36.3136 21.0001 36.4908 21.3472 36.7828C21.6955 37.0754 21.8703 37.4756 21.8703 37.9841C21.8703 38.2767 21.7887 38.5609 21.6269 38.8373C21.4643 39.1145 21.2513 39.3374 20.9872 39.5076C20.7243 39.6764 20.4388 39.7448 20.13 39.7138C19.3408 39.6365 18.5529 39.6055 17.7656 39.621C17.7034 40.0528 17.6413 40.4885 17.5791 40.928C17.517 41.3662 17.4548 41.8083 17.3927 42.253C18.1812 42.1757 18.9705 42.1228 19.7597 42.0932C20.5482 42.0622 21.3446 42.07 22.1474 42.1164Z" fill="#323232"/>
<path d="M42.4402 41.423C42.8733 41.3147 43.2482 41.334 43.5641 41.4797C43.8814 41.626 44.1293 41.8535 44.3074 42.1628C44.4848 42.4709 44.5773 42.8047 44.5845 43.1656C44.5929 43.5265 44.5003 43.8539 44.3074 44.1478C44.1138 44.4404 43.8004 44.6472 43.3673 44.769C42.5781 44.9856 41.7701 45.1519 40.9433 45.2666C40.1159 45.3819 39.2969 45.3864 38.4857 45.2795C37.6738 45.1712 36.8969 44.9095 36.1549 44.4932C35.1967 43.9538 34.4664 43.2069 33.964 42.253C33.4616 41.2992 33.2337 40.2681 33.2804 39.1596C33.3425 38.0821 33.6125 37.0509 34.0909 36.0662C34.5707 35.0814 35.2084 34.2088 36.0047 33.4471C36.8004 32.686 37.7042 32.1014 38.7162 31.6941C39.7294 31.2855 40.7853 31.127 41.8834 31.2198C42.3321 31.2507 42.6914 31.3938 42.9607 31.6477C43.2313 31.9004 43.4094 32.2039 43.4942 32.5577C43.5803 32.9122 43.5803 33.2582 43.4942 33.5966C43.4094 33.9356 43.2313 34.2088 42.9607 34.4163C42.6914 34.6245 42.3321 34.7128 41.8834 34.6819C41.0786 34.62 40.3173 34.7708 39.5993 35.133C38.8806 35.4939 38.274 35.994 37.7787 36.6333C37.2828 37.2713 36.9662 37.9906 36.8283 38.791C36.6884 39.4838 36.7227 40.0425 36.9318 40.4666C37.1403 40.8894 37.4537 41.2051 37.8719 41.4127C38.2895 41.6189 38.7654 41.742 39.2988 41.7813C39.8323 41.8193 40.3723 41.8039 40.92 41.7349C41.469 41.6647 41.9753 41.5609 42.4402 41.423Z" fill="#323232"/>
<path d="M57.7705 36.8755C57.8171 38.4138 57.8546 39.9528 57.8844 41.4924C57.9155 43.0308 57.9543 44.5697 58.0009 46.1094C58.0165 46.5547 57.9084 46.9124 57.6772 47.1818C57.4454 47.4511 57.1599 47.6284 56.82 47.7128C56.4795 47.7966 56.135 47.7927 55.7867 47.6999C55.4397 47.6084 55.1458 47.4318 54.9062 47.1689C54.666 46.9079 54.5385 46.5547 54.5229 46.1094C54.5074 45.6473 54.4951 45.1859 54.4867 44.7251C54.4796 44.263 54.4686 43.8009 54.453 43.3382L50.975 43.2222C50.8507 43.7932 50.7342 44.3706 50.6254 44.9545C50.518 45.539 50.4105 46.1242 50.3017 46.71C50.224 47.1392 50.0492 47.4537 49.7786 47.6535C49.5093 47.8546 49.1965 47.9551 48.8411 47.9551C48.485 47.9551 48.1484 47.8623 47.8311 47.6767C47.5152 47.4924 47.2679 47.2391 47.0905 46.9162C46.9124 46.5934 46.8626 46.2164 46.9403 45.7846C47.218 44.2778 47.5307 42.7852 47.8777 41.3068C48.2261 39.8291 48.7175 38.3906 49.3513 36.9915C49.6601 36.2993 50.0537 35.5524 50.5322 34.7513C51.0119 33.9509 51.5577 33.2162 52.1689 32.5472C52.7801 31.877 53.4566 31.3808 54.1992 31.0572C54.8946 30.7653 55.4585 30.7118 55.8903 30.8974C56.3234 31.0817 56.6633 31.4156 56.9107 31.9002C57.1593 32.3848 57.3412 32.9352 57.4571 33.55C57.5723 34.1655 57.6494 34.7739 57.6876 35.3752C57.7271 35.9751 57.7549 36.4753 57.7705 36.8755ZM52.0653 39.4147C52.0498 39.4765 52.0297 39.5384 52.0057 39.6003C51.9831 39.6608 51.9565 39.7214 51.9255 39.7833C52.3431 39.7988 52.7522 39.8142 53.153 39.8297C53.555 39.8452 53.9571 39.8606 54.3598 39.8761C54.3443 39.3831 54.332 38.8862 54.3235 38.3861C54.3164 37.886 54.3054 37.3827 54.2899 36.8755C54.2743 36.6744 54.2666 36.463 54.2666 36.2413C54.2666 36.0183 54.2666 35.7902 54.2666 35.5582C54.0037 35.8662 53.7803 36.1666 53.5958 36.4604C53.2864 36.9212 53.0041 37.3981 52.749 37.8911C52.4933 38.3829 52.2654 38.8907 52.0653 39.4147Z" fill="#323232"/>
<path d="M72.3557 44.8154C72.6199 45.1698 72.7286 45.5159 72.682 45.8543C72.6354 46.1932 72.4878 46.482 72.2392 46.7204C71.9919 46.9595 71.694 47.1284 71.3457 47.2283C70.9987 47.3275 70.6426 47.3314 70.2788 47.2386C69.9162 47.1471 69.6035 46.9254 69.3413 46.5709C68.6453 45.6171 67.8684 44.7368 67.0105 43.9286C66.1521 43.1191 65.2288 42.3915 64.2396 41.7451C64.1619 42.67 64.0881 43.5857 64.0194 44.4931C63.9502 45.4006 63.877 46.317 63.7993 47.2411C63.7682 47.6858 63.6245 48.039 63.3694 48.3006C63.1156 48.5636 62.8107 48.7402 62.4552 48.8317C62.0992 48.9245 61.7547 48.9245 61.4219 48.8317C61.0905 48.7402 60.816 48.5636 60.5984 48.3006C60.3822 48.039 60.2902 47.6858 60.3213 47.2411C60.4592 45.5468 60.5673 43.8306 60.645 42.0932C60.7227 40.3544 60.9312 38.6536 61.2717 36.9916C61.4407 36.1447 61.7573 35.3211 62.2222 34.522C62.6864 33.7216 63.2775 33.0552 63.9961 32.5241C64.7161 31.9931 65.5551 31.7121 66.5133 31.6812C67.1776 31.6502 67.8069 31.7733 68.4012 32.0498C68.9969 32.3269 69.5032 32.7085 69.9214 33.1944C70.339 33.679 70.6213 34.2333 70.7682 34.8571C70.9145 35.4797 70.8802 36.1215 70.6646 36.7828C70.4471 37.4292 70.0949 38.0485 69.608 38.6414C69.1212 39.2343 68.5605 39.746 67.9273 40.1752C69.5808 41.499 71.057 43.0457 72.3557 44.8154ZM67.3938 35.5583C67.3317 35.2509 67.2113 35.0782 67.0339 35.0401C66.8558 35.0008 66.6545 35.0504 66.4305 35.1896C66.2077 35.3288 65.9876 35.5061 65.7701 35.7207C65.5538 35.9359 65.3687 36.1473 65.2133 36.3548C65.0592 36.563 64.9595 36.7132 64.9129 36.806C64.7886 37.145 64.6798 37.5297 64.5866 37.9608C64.8973 37.9144 65.1757 37.8184 65.4231 37.6721C65.6697 37.5265 65.9086 37.3447 66.1404 37.1282C66.2336 37.0373 66.3877 36.8923 66.604 36.6925C66.8215 36.4915 67.0144 36.2839 67.1841 36.0687C67.355 35.8522 67.4249 35.682 67.3938 35.5583Z" fill="#323232"/>
<path d="M84.4154 31.1268C84.8485 31.1732 85.1962 31.3318 85.4591 31.6012C85.7232 31.8693 85.9006 32.1805 85.9925 32.5343C86.0858 32.8888 86.0858 33.2317 85.9925 33.5629C85.9006 33.8929 85.7232 34.1584 85.4591 34.3595C85.1962 34.5593 84.8485 34.6276 84.4154 34.5657C83.6903 34.4748 82.9483 34.4059 82.1908 34.3595C82.0821 36.0525 81.9772 37.7378 81.8775 39.4147C81.7771 41.0922 81.6729 42.7697 81.5641 44.4466C81.5486 44.8939 81.4126 45.2522 81.1575 45.5216C80.9037 45.7897 80.602 45.9669 80.2537 46.0527C79.9067 46.1371 79.5629 46.1371 79.223 46.0527C78.8825 45.9669 78.6041 45.7897 78.3865 45.5216C78.1703 45.2522 78.0706 44.8939 78.0861 44.4466C78.193 42.7697 78.2965 41.0845 78.3969 39.3915C78.4985 37.6991 78.6041 36.0138 78.7128 34.3363C78.0169 34.3517 77.3364 34.3975 76.6722 34.4729C76.2228 34.5038 75.8629 34.4201 75.5922 34.2203C75.321 34.0211 75.1429 33.7524 75.0588 33.4134C74.9739 33.0731 74.9772 32.727 75.0691 32.3745C75.1623 32.0207 75.3397 31.7165 75.6026 31.462C75.8667 31.208 76.2228 31.0572 76.6722 31.0108C79.2528 30.7498 81.8341 30.7885 84.4154 31.1268Z" fill="#323232"/>
<path d="M99.2363 36.8755C99.2829 38.4138 99.3204 39.9528 99.3502 41.4924C99.3813 43.0308 99.4201 44.5697 99.4668 46.1094C99.4823 46.5547 99.3742 46.9124 99.143 47.1818C98.9113 47.4511 98.6257 47.6284 98.2858 47.7128C97.9453 47.7966 97.6009 47.7927 97.2525 47.6999C96.9055 47.6084 96.6116 47.4318 96.372 47.1689C96.1318 46.9079 96.0043 46.5547 95.9888 46.1094C95.9732 45.6473 95.9609 45.1859 95.9525 44.7251C95.9454 44.263 95.9344 43.8009 95.9188 43.3382L92.4409 43.2222C92.3166 43.7932 92.2 44.3706 92.0912 44.9545C91.9838 45.539 91.8763 46.1242 91.7675 46.71C91.6898 47.1392 91.515 47.4537 91.2444 47.6535C90.9751 47.8546 90.6624 47.9551 90.3069 47.9551C89.9508 47.9551 89.6142 47.8623 89.2969 47.6767C88.981 47.4924 88.7337 47.2391 88.5563 46.9162C88.3782 46.5934 88.3284 46.2164 88.4061 45.7846C88.6838 44.2778 88.9965 42.7852 89.3436 41.3068C89.6919 39.8291 90.1833 38.3906 90.8171 36.9915C91.1259 36.2993 91.5196 35.5524 91.998 34.7513C92.4778 33.9509 93.0235 33.2162 93.6347 32.5472C94.2459 31.877 94.9225 31.3808 95.6651 31.0572C96.3604 30.7653 96.9243 30.7118 97.3561 30.8974C97.7893 31.0817 98.1292 31.4156 98.3765 31.9002C98.6251 32.3848 98.807 32.9352 98.9229 33.55C99.0382 34.1655 99.1152 34.7739 99.1534 35.3752C99.1929 35.9751 99.2207 36.4753 99.2363 36.8755ZM93.5311 39.4147C93.5156 39.4765 93.4955 39.5384 93.4716 39.6003C93.4489 39.6608 93.4224 39.7214 93.3913 39.7833C93.8089 39.7988 94.218 39.8142 94.6188 39.8297C95.0209 39.8452 95.4229 39.8606 95.8256 39.8761C95.8101 39.3831 95.7978 38.8862 95.7894 38.3861C95.7822 37.886 95.7712 37.3827 95.7557 36.8755C95.7402 36.6744 95.7324 36.463 95.7324 36.2413C95.7324 36.0183 95.7324 35.7902 95.7324 35.5582C95.4695 35.8662 95.2462 36.1666 95.0616 36.4604C94.7522 36.9212 94.4699 37.3981 94.2148 37.8911C93.9591 38.3829 93.7312 38.8907 93.5311 39.4147Z" fill="#323232"/>
<path d="M109.277 36.9916C110.143 37.5762 110.828 38.3418 111.331 39.2885C111.833 40.2339 112.03 41.2296 111.921 42.2763C111.812 43.2011 111.494 43.9983 110.968 44.6685C110.443 45.3375 109.798 45.8518 109.033 46.2127C108.268 46.5736 107.457 46.774 106.599 46.8133C105.741 46.8513 104.917 46.7089 104.129 46.3854C103.341 46.0625 102.676 45.5469 102.134 44.8387C101.856 44.4694 101.741 44.1233 101.787 43.7998C101.834 43.4769 101.976 43.1927 102.215 42.9465C102.454 42.701 102.752 42.5282 103.108 42.4283C103.464 42.3272 103.823 42.3227 104.185 42.4155C104.549 42.5083 104.863 42.7319 105.126 43.0857C105.25 43.2546 105.482 43.3506 105.822 43.3744C106.162 43.397 106.502 43.3815 106.843 43.328C107.182 43.2732 107.423 43.2159 107.562 43.1553C107.887 43.0006 108.13 42.7738 108.293 42.4748C108.455 42.1744 108.513 41.847 108.466 41.4926C108.42 41.0614 108.264 40.7038 108 40.4202C107.737 40.1353 107.425 39.893 107.063 39.6932C106.7 39.4922 106.333 39.2956 105.962 39.1029C105.59 38.9109 105.266 38.6995 104.988 38.4688C104.215 37.7921 103.743 37.0529 103.572 36.2518C103.402 35.4514 103.46 34.6587 103.745 33.875C104.031 33.09 104.476 32.374 105.079 31.7276C105.683 31.0819 106.371 30.574 107.143 30.2041C107.561 30.0185 107.947 29.9689 108.303 30.0546C108.659 30.139 108.964 30.3118 109.22 30.5728C109.475 30.8344 109.648 31.1341 109.74 31.4724C109.834 31.8114 109.818 32.1343 109.694 32.4417C109.571 32.7498 109.309 33.0037 108.907 33.2048C108.644 33.3285 108.338 33.498 107.99 33.7126C107.643 33.9278 107.357 34.1856 107.133 34.486C106.908 34.7869 106.866 35.1214 107.006 35.4887C107.081 35.7362 107.263 35.9489 107.55 36.1255C107.836 36.3027 108.141 36.4606 108.466 36.5998C108.791 36.7377 109.061 36.8679 109.277 36.9916Z" fill="#323232"/>
</g>
<defs>
<clipPath id="clip0_75_162">
<rect width="112" height="49" fill="white"/>
</clipPath>
</defs>
</svg>
