<svg width="266" height="42" viewBox="0 0 266 42" fill="none" xmlns="http://www.w3.org/2000/svg">
<g clip-path="url(#clip0_86_108)">
<path d="M16.5448 28.3284C17.3193 28.138 17.9897 28.1745 18.556 28.4365C19.121 28.6998 19.563 29.1089 19.8806 29.6625C20.201 30.2135 20.3686 30.813 20.3834 31.4611C20.397 32.1093 20.2321 32.6967 19.886 33.222C19.54 33.7486 18.9791 34.1213 18.2046 34.34C16.7908 34.7289 15.3446 35.0287 13.8632 35.2366C12.3845 35.4419 10.9194 35.45 9.46771 35.2582C8.01472 35.0638 6.62525 34.5925 5.2993 33.8431C3.58274 32.879 2.27436 31.5395 1.37418 29.8246C0.476699 28.111 0.0685076 26.2584 0.152309 24.2667C0.263142 22.3331 0.747024 20.4831 1.60125 18.7142C2.45818 16.9426 3.59895 15.3736 5.02357 14.0044C6.45089 12.6365 8.07013 11.5873 9.88402 10.8554C11.6965 10.1249 13.5848 9.84271 15.55 10.0074C16.3502 10.0615 16.9909 10.318 17.4747 10.7744C17.9613 11.2281 18.2803 11.7736 18.4317 12.411C18.5831 13.0456 18.5831 13.6668 18.4317 14.2744C18.2803 14.8834 17.9613 15.3749 17.4747 15.749C16.9909 16.1203 16.3502 16.2783 15.55 16.2243C14.1078 16.1135 12.7441 16.3836 11.4573 17.0345C10.1733 17.6826 9.08926 18.5819 8.20259 19.7297C7.31593 20.8747 6.74824 22.1656 6.49954 23.6024C6.25084 24.8487 6.31167 25.852 6.68336 26.6108C7.05777 27.3711 7.61869 27.9382 8.36479 28.3122C9.11359 28.6836 9.96646 28.905 10.9221 28.9766C11.8763 29.0454 12.8441 29.0171 13.8254 28.8902C14.8093 28.7646 15.7149 28.5769 16.5448 28.3284Z" fill="#323232"/>
<path d="M35.098 7.68497C34.3478 7.32579 33.7788 6.80727 33.3895 6.12941C33.003 5.45291 32.9489 4.79531 33.2273 4.15796L34.3465 1.58698C34.5952 0.982038 35.1061 0.563442 35.8819 0.328488C36.6564 0.090834 37.4309 0.152948 38.2067 0.51213C38.9528 0.872663 39.5178 1.39118 39.9044 2.06769C40.2936 2.74554 40.3504 3.40044 40.0774 4.03374L38.9528 6.60472C38.7041 7.21371 38.1919 7.63636 37.4174 7.87401C36.6416 8.10897 35.8684 8.0455 35.098 7.68497ZM45.5542 14.6904C46.2165 15.7679 46.6733 16.9697 46.922 18.2984C47.1707 19.6244 47.2802 20.9774 47.2518 22.3601C47.2261 23.7428 47.1167 25.0283 46.922 26.2166C46.6436 28.0422 46.0759 29.7706 45.219 31.4018C44.3607 33.0303 43.2132 34.4373 41.775 35.6256C40.3937 36.7598 38.7906 37.5903 36.9632 38.1155C35.1358 38.6408 33.3517 38.6259 31.6108 38.0723C30.4457 37.7131 29.4347 37.119 28.5777 36.2899C27.7195 35.4622 27.0004 34.5102 26.4206 33.4327C25.8394 32.3524 25.4109 31.26 25.1338 30.1541C24.8013 28.9375 24.6067 27.5426 24.5499 25.9682C24.4958 24.391 24.6067 22.7747 24.8851 21.1178C25.1622 19.4583 25.6177 17.9095 26.253 16.4728C26.8909 15.0361 27.7479 13.8478 28.8264 12.908C29.9321 11.7737 31.2607 10.973 32.811 10.5044C34.36 10.0332 35.9522 9.87517 37.585 10.0291C39.2178 10.1803 40.7383 10.6502 42.1481 11.4388C43.5605 12.2247 44.6959 13.3077 45.5542 14.6904ZM38.0013 30.8185C38.942 29.9327 39.6395 28.9037 40.0936 27.729C40.5505 26.5555 40.8356 25.3187 40.9478 24.0183C41.0587 22.7193 41.0303 21.4743 40.8613 20.2861C40.6951 19.0735 40.218 18.0796 39.4286 17.3046C38.642 16.5308 37.5985 16.1433 36.2982 16.1433C35.5805 16.169 34.8817 16.354 34.2005 16.6996C33.522 17.0453 32.9638 17.5233 32.5245 18.131C32.023 18.8223 31.6622 19.6528 31.4432 20.6209C31.2229 21.5864 31.0566 22.4709 30.9458 23.2729C30.6971 25.1242 30.7944 26.9485 31.2377 28.7444C31.3743 29.2994 31.5594 29.8395 31.7946 30.3648C32.0325 30.8873 32.3704 31.314 32.811 31.6448C33.5315 32.1715 34.3546 32.3578 35.2818 32.2066C36.2077 32.0553 37.0173 31.6908 37.7093 31.1101C37.8202 31.0278 37.9175 30.9305 38.0013 30.8185Z" fill="#323232"/>
<path d="M80.3313 23.5646C80.3597 25.8844 80.2692 28.2124 80.061 30.5484C79.8556 32.8858 79.6407 35.2137 79.4176 37.5322C79.3338 38.3073 79.0635 38.9338 78.6067 39.4172C78.1525 39.9033 77.6065 40.222 76.9685 40.3733C76.3332 40.5272 75.7115 40.5272 75.1032 40.3733C74.4937 40.222 74.0017 39.9101 73.6273 39.4388C73.2556 38.9703 73.1109 38.3356 73.1947 37.5322C73.3853 35.7106 73.5908 33.8324 73.8111 31.8987C74.0341 29.9624 74.1801 28.026 74.249 26.0924C74.3207 24.1588 74.1909 22.2791 73.8597 20.4535C73.8016 20.1227 73.7097 19.7919 73.584 19.4597C73.461 19.1289 73.3853 18.798 73.3569 18.4658C73.0542 18.8223 72.7149 19.1734 72.3405 19.5191C71.9688 19.8648 71.6863 20.1915 71.4917 20.4967C70.8537 21.4622 70.3617 22.4628 70.0157 23.4998C69.6724 24.5368 69.4048 25.609 69.2102 26.7135C69.098 27.4049 68.806 27.9315 68.3343 28.2907C67.8653 28.6512 67.326 28.8578 66.7178 28.9118C66.1082 28.9658 65.5135 28.8835 64.9336 28.6634C64.3524 28.4406 63.882 28.0949 63.5225 27.6263C63.1616 27.1551 63.0224 26.5758 63.1062 25.8871C63.163 25.1391 63.2116 24.3843 63.2522 23.624C63.2954 22.8652 63.3022 22.1117 63.2738 21.3663C63.2738 21.1179 63.2806 20.7654 63.2954 20.3077C63.309 19.8513 63.2954 19.403 63.2522 18.9628C63.2116 18.5199 63.0954 18.1877 62.9008 17.9635C62.8467 17.9095 62.8318 17.8555 62.8575 17.8015C62.8318 17.8015 62.8197 17.8015 62.8197 17.8015C62.8197 17.8015 62.8048 17.8015 62.7764 17.8015C62.5277 17.8555 62.2844 18.0972 62.0465 18.5253C61.8114 18.9547 61.641 19.2517 61.5329 19.4165C61.2261 19.9134 60.9558 20.4319 60.7219 20.972C60.4868 21.5121 60.2732 22.0442 60.0786 22.5654C59.1662 25.054 58.5715 27.6047 58.2944 30.2189C58.016 32.8304 57.7943 35.4473 57.6294 38.0723C57.5754 38.8744 57.3267 39.5104 56.8833 39.979C56.44 40.4502 55.9061 40.7689 55.283 40.935C54.6626 41.0997 54.0476 41.0997 53.4394 40.935C52.8298 40.7689 52.3229 40.4502 51.9202 39.979C51.5201 39.5104 51.3484 38.8744 51.4065 38.0723C51.5431 35.8902 51.7093 33.7162 51.9039 31.5476C52.0986 29.3763 52.4297 27.2267 52.8987 25.0986C53.1758 23.7996 53.5421 22.4385 53.9963 21.0152C54.4531 19.5893 55.0208 18.2282 55.6993 16.9319C56.3765 15.6329 57.1996 14.4986 58.1701 13.5291C59.0811 12.6433 60.1516 12.0424 61.3815 11.7251C62.6142 11.4091 63.8172 11.4375 64.9931 11.8115C66.1717 12.1829 67.1476 12.935 67.9234 14.0692C67.9518 14.153 67.9937 14.2353 68.0478 14.3177C68.1018 14.4014 68.1424 14.4689 68.1721 14.5229C68.975 13.5831 69.8535 12.831 70.8051 12.2652C71.7593 11.7008 72.7487 11.4442 73.7732 11.4983C74.7964 11.5523 75.8493 12.0492 76.9306 12.989C77.8957 13.8464 78.6134 14.8686 79.0824 16.0569C79.5541 17.2452 79.8731 18.4902 80.0394 19.7892C80.2043 21.0895 80.3016 22.348 80.3313 23.5646Z" fill="#323232"/>
<path d="M105.482 11.9516C106.145 13.0319 106.602 14.2418 106.85 15.5813C107.099 16.9208 107.208 18.2751 107.18 19.643C107.154 21.0122 107.045 22.2896 106.85 23.4779C106.572 25.3035 106.004 27.0319 105.147 28.6631C104.289 30.2942 103.141 31.7039 101.703 32.8922C100.322 34.0238 98.7189 34.8515 96.8915 35.3768C95.0641 35.9034 93.2799 35.8899 91.539 35.339C90.3739 34.9798 89.3629 34.3857 88.506 33.5566C87.6477 32.7248 86.9286 31.7782 86.3488 30.7155C85.7676 29.6501 85.3391 28.5645 85.062 27.4586C84.7295 26.2419 84.5349 24.839 84.4781 23.251C84.4241 21.6631 84.5349 20.0413 84.8133 18.3845C85.0904 16.725 85.5459 15.1762 86.1812 13.7394C86.8191 12.3 87.6761 11.109 88.7547 10.1692C89.8603 9.03902 91.189 8.23963 92.7393 7.77108C94.2882 7.29982 95.8804 7.13913 97.5132 7.29037C99.146 7.4416 100.667 7.91151 102.076 8.70009C103.489 9.48867 104.624 10.573 105.482 11.9516ZM97.9295 28.0797C98.8702 27.198 99.5677 26.1704 100.022 24.9956C100.479 23.8181 100.764 22.5867 100.876 21.3012C100.987 20.0157 100.959 18.7666 100.79 17.5527C100.623 16.3361 100.146 15.3409 99.3568 14.5658C98.5702 13.7921 97.5267 13.4194 96.2265 13.4478C95.5087 13.4478 94.81 13.6287 94.1287 13.9879C93.4502 14.3444 92.892 14.8129 92.4527 15.3922C91.9513 16.0836 91.5904 16.914 91.3714 17.8822C91.1511 18.8517 90.9849 19.7497 90.874 20.5774C90.6253 22.4287 90.7226 24.2529 91.166 26.0489C91.3025 26.5755 91.4877 27.1007 91.7228 27.626C91.9607 28.1526 92.2986 28.5807 92.7393 28.9115C93.4597 29.4381 94.2828 29.6245 95.21 29.4732C96.1359 29.3193 96.9455 28.952 97.6376 28.3714C97.72 28.289 97.8173 28.1918 97.9295 28.0797Z" fill="#323232"/>
<path d="M140.218 28.0422C141.021 27.9855 141.658 28.1435 142.127 28.5175C142.598 28.8929 142.917 29.3844 143.083 29.9921C143.248 30.597 143.248 31.2181 143.083 31.8555C142.917 32.4901 142.592 33.0357 142.105 33.4921C141.621 33.9498 140.993 34.205 140.218 34.259C138.116 34.3968 136.047 34.6587 134.011 35.0476C131.979 35.4338 129.952 35.9172 127.934 36.5005C127.353 36.6666 126.745 36.6329 126.107 36.3979C125.472 36.1603 124.946 35.7862 124.528 35.2745C124.113 34.7641 123.935 34.1618 123.993 33.4705C124.324 30.2378 124.649 27.0038 124.966 23.7698C125.283 20.5372 125.595 17.3032 125.902 14.0692C125.984 13.2955 126.26 12.6676 126.729 12.1842C127.201 11.6981 127.753 11.3794 128.389 11.2282C129.027 11.0769 129.643 11.0769 130.238 11.2282C130.832 11.3794 131.315 11.6913 131.687 12.1626C132.061 12.6311 132.207 13.2671 132.125 14.0692C131.876 16.6402 131.627 19.2044 131.378 21.7606C131.13 24.3181 130.881 26.8674 130.632 29.4087C133.757 28.7471 136.953 28.2907 140.218 28.0422Z" fill="#323232"/>
<path d="M163.584 28.0422C164.387 27.9855 165.023 28.1435 165.492 28.5175C165.964 28.8929 166.283 29.3844 166.449 29.9921C166.614 30.597 166.614 31.2181 166.449 31.8555C166.283 32.4901 165.957 33.0357 165.471 33.4921C164.987 33.9498 164.358 34.205 163.584 34.259C161.482 34.3968 159.413 34.6587 157.377 35.0476C155.344 35.4338 153.318 35.9172 151.3 36.5005C150.719 36.6666 150.111 36.6329 149.473 36.3979C148.838 36.1603 148.312 35.7862 147.894 35.2745C147.479 34.7641 147.301 34.1618 147.359 33.4705C147.69 30.2378 148.014 27.0038 148.332 23.7698C148.648 20.5372 148.961 17.3032 149.267 14.0692C149.35 13.2955 149.626 12.6676 150.095 12.1842C150.566 11.6981 151.119 11.3794 151.754 11.2282C152.392 11.0769 153.009 11.0769 153.603 11.2282C154.198 11.3794 154.681 11.6913 155.052 12.1626C155.427 12.6311 155.573 13.2671 155.49 14.0692C155.242 16.6402 154.993 19.2044 154.744 21.7606C154.495 24.3181 154.247 26.8674 153.998 29.4087C157.123 28.7471 160.318 28.2907 163.584 28.0422Z" fill="#323232"/>
<path d="M185.955 29.5762C186.755 29.6019 187.395 29.8287 187.879 30.2568C188.366 30.6862 188.685 31.2115 188.836 31.8339C188.99 32.4578 188.99 33.0803 188.836 33.7028C188.685 34.3226 188.366 34.8343 187.879 35.2367C187.395 35.6364 186.755 35.8079 185.955 35.7498C184.073 35.6958 182.192 35.7107 180.31 35.7931C178.429 35.8768 176.547 36.0712 174.666 36.3764C174.085 36.4844 173.476 36.4358 172.838 36.2306C172.203 36.0226 171.672 35.6837 171.243 35.2151C170.814 34.7439 170.654 34.1349 170.762 33.3895C171.234 29.5479 171.753 25.7197 172.319 21.9065C172.888 18.0905 173.505 14.2894 174.168 10.5045C174.251 10.0332 174.417 9.61732 174.666 9.25679C174.885 8.87195 175.202 8.55463 175.617 8.30617C176.035 8.05771 176.549 7.91998 177.158 7.89027C180.145 7.77955 183.134 7.83491 186.122 8.05771C186.922 8.11172 187.563 8.36828 188.047 8.82469C188.533 9.28244 188.852 9.82257 189.004 10.4451C189.155 11.0648 189.155 11.6792 189.004 12.2869C188.852 12.8959 188.533 13.3941 188.047 13.783C187.563 14.1692 186.922 14.3326 186.122 14.2745C184.074 14.1382 181.986 14.0693 179.856 14.0693C179.715 14.8687 179.575 15.6708 179.434 16.4728C179.296 17.2763 179.175 18.077 179.067 18.8764C180.198 18.9061 181.29 18.9615 182.343 19.0438C183.172 19.1559 183.897 19.4746 184.522 19.9998C185.145 20.5224 185.457 21.2408 185.457 22.1549C185.457 22.6816 185.311 23.192 185.019 23.6889C184.73 24.1858 184.35 24.5882 183.878 24.8934C183.409 25.1958 182.897 25.3187 182.343 25.2606C180.933 25.1243 179.522 25.0703 178.11 25.0986C177.997 25.8737 177.885 26.6542 177.774 27.4427C177.666 28.2286 177.556 29.0226 177.445 29.8247C178.857 29.6843 180.268 29.587 181.678 29.533C183.09 29.479 184.516 29.4939 185.955 29.5762Z" fill="#323232"/>
<path d="M210.025 21.0313C211.877 21.007 213.301 21.4499 214.296 22.36C215.294 23.2714 215.752 24.6812 215.67 26.5892C215.611 28.2203 215.188 29.7961 214.399 31.3152C213.612 32.8357 212.542 34.0645 211.188 35.0043C209.691 36.0562 208.064 36.603 206.305 36.6463C204.55 36.6868 202.829 36.4707 201.142 35.9981C199.095 35.4188 197.462 34.5074 196.244 33.2651C195.029 32.0201 194.192 30.5753 193.735 28.9333C193.277 27.2886 193.138 25.5467 193.319 23.7103C193.499 21.8712 193.954 20.0591 194.687 18.2767C195.422 16.4942 196.37 14.8442 197.531 13.3237C198.694 11.8046 200.03 10.5259 201.537 9.48885C203.047 8.45181 204.679 7.78206 206.435 7.47959C208.19 7.17442 209.995 7.3378 211.853 7.9711C212.627 8.24926 213.18 8.66516 213.512 9.21878C213.843 9.76971 214.002 10.3719 213.988 11.0228C213.973 11.6709 213.812 12.2732 213.507 12.8268C213.204 13.3777 212.769 13.772 212.204 14.0097C211.638 14.2446 210.979 14.2365 210.231 13.9881C208.903 13.5168 207.625 13.5168 206.392 13.9881C205.162 14.4566 204.041 15.2236 203.029 16.289C202.019 17.3517 201.196 18.5737 200.558 19.9564C199.923 21.3392 199.537 22.7219 199.396 24.1046C199.258 25.4846 199.453 26.7134 199.98 27.7936C200.285 28.4566 200.777 29.0089 201.456 29.4518C202.133 29.892 202.894 30.2012 203.737 30.3808C204.581 30.5618 205.397 30.5834 206.187 30.4456C206.976 30.3093 207.631 29.9784 208.154 29.4518C208.544 29.0629 208.863 28.5795 209.111 27.9989C209.14 27.9165 209.16 27.8071 209.171 27.6694C209.184 27.529 209.206 27.3912 209.236 27.2535C209.206 27.2535 209.171 27.2535 209.128 27.2535C209.087 27.2535 209.055 27.2535 209.03 27.2535C208.918 27.2832 208.814 27.29 208.717 27.2751C208.619 27.2616 208.517 27.2535 208.409 27.2535C207.936 27.7504 207.327 28.0691 206.581 28.2095C205.835 28.3473 205.108 28.2568 204.402 27.9395C203.695 27.6194 203.191 27.0186 202.889 26.1355C202.47 24.9472 202.453 24.0155 202.84 23.3376C203.229 22.6571 203.845 22.152 204.689 21.8199C205.535 21.489 206.449 21.2743 207.43 21.1771C208.414 21.0799 209.279 21.0313 210.025 21.0313Z" fill="#323232"/>
<path d="M239.241 20.1618C239.323 22.9273 239.392 25.6927 239.446 28.4581C239.503 31.2209 239.573 33.9836 239.657 36.749C239.685 37.5484 239.491 38.1898 239.073 38.6719C238.658 39.158 238.146 39.4767 237.538 39.6279C236.932 39.7791 236.317 39.771 235.694 39.6063C235.07 39.4402 234.544 39.1215 234.115 38.6503C233.685 38.1831 233.458 37.5484 233.434 36.749C233.404 35.9172 233.383 35.0882 233.369 34.2591C233.354 33.4313 233.333 32.6036 233.304 31.7745L227.081 31.5638C226.861 32.5874 226.654 33.6244 226.46 34.675C226.265 35.7268 226.07 36.776 225.876 37.8239C225.738 38.5976 225.427 39.1647 224.94 39.5253C224.457 39.8844 223.897 40.0654 223.259 40.0654C222.624 40.0654 222.024 39.898 221.459 39.5631C220.892 39.2309 220.449 38.7758 220.129 38.1966C219.811 37.6173 219.72 36.9408 219.858 36.1657C220.358 33.4583 220.919 30.778 221.54 28.1233C222.163 25.4699 223.043 22.8868 224.178 20.3725C224.73 19.1275 225.434 17.7853 226.292 16.3486C227.149 14.9118 228.125 13.5926 229.217 12.3895C230.312 11.1877 231.523 10.2965 232.85 9.71585C234.094 9.19058 235.102 9.09336 235.878 9.42419C236.652 9.75636 237.262 10.3572 237.705 11.2282C238.149 12.1005 238.473 13.0889 238.678 14.1935C238.887 15.2994 239.026 16.3918 239.095 17.472C239.162 18.5496 239.211 19.4462 239.241 20.1618ZM229.033 24.7259C229.003 24.8339 228.968 24.9446 228.925 25.0554C228.885 25.1674 228.839 25.2768 228.784 25.3848C229.531 25.4145 230.262 25.4429 230.98 25.4713C231.7 25.4969 232.42 25.5239 233.142 25.5523C233.112 24.6665 233.091 23.7753 233.077 22.8787C233.062 21.9821 233.042 21.0773 233.018 20.1618C232.988 19.8027 232.975 19.4219 232.975 19.0222C232.975 18.6225 232.975 18.216 232.975 17.8015C232.506 18.3524 232.104 18.8912 231.769 19.4165C231.217 20.2456 230.712 21.1017 230.255 21.9875C229.801 22.8733 229.393 23.7861 229.033 24.7259Z" fill="#323232"/>
<path d="M265.348 34.4262C265.816 35.0609 266.009 35.682 265.927 36.2896C265.843 36.8986 265.581 37.4172 265.137 37.8452C264.694 38.2746 264.16 38.5771 263.537 38.758C262.917 38.9376 262.28 38.9444 261.629 38.7796C260.98 38.6135 260.42 38.2125 259.953 37.5751C258.705 35.8616 257.314 34.279 255.779 32.8275C254.243 31.3772 252.59 30.0715 250.821 28.9116C250.683 30.5684 250.552 32.2117 250.426 33.8429C250.303 35.4741 250.172 37.1201 250.032 38.7796C249.978 39.579 249.721 40.2123 249.264 40.6808C248.81 41.1521 248.264 41.4708 247.626 41.6369C246.988 41.8016 246.371 41.8016 245.777 41.6369C245.182 41.4708 244.69 41.1521 244.301 40.6808C243.914 40.2123 243.751 39.579 243.809 38.7796C244.057 35.7374 244.249 32.6546 244.387 29.5327C244.528 26.4108 244.902 23.3577 245.512 20.3722C245.815 18.8491 246.38 17.3691 247.209 15.9324C248.042 14.4957 249.099 13.3006 250.383 12.346C251.67 11.3927 253.17 10.8876 254.887 10.8336C256.076 10.7796 257.202 11.0011 258.266 11.498C259.332 11.9949 260.239 12.6795 260.985 13.5504C261.734 14.4227 262.241 15.4179 262.504 16.5373C262.767 17.654 262.705 18.8085 262.315 19.9995C261.929 21.1594 261.3 22.2721 260.428 23.3375C259.555 24.4002 258.554 25.3184 257.422 26.0921C260.381 28.4687 263.024 31.2476 265.348 34.4262ZM256.465 17.8012C256.353 17.2476 256.138 16.9357 255.822 16.8668C255.504 16.7993 255.144 16.8884 254.741 17.1369C254.341 17.3853 253.946 17.704 253.557 18.0929C253.17 18.4791 252.839 18.8585 252.562 19.2325C252.288 19.6039 252.109 19.8726 252.027 20.0373C251.802 20.6463 251.608 21.3377 251.443 22.1114C251.997 22.029 252.494 21.8562 252.935 21.5929C253.378 21.3309 253.807 21.0069 254.222 20.6207C254.391 20.4559 254.668 20.1926 255.054 19.8321C255.44 19.4729 255.784 19.1002 256.087 18.714C256.392 18.3251 256.519 18.0213 256.465 17.8012Z" fill="#323232"/>
</g>
<defs>
<clipPath id="clip0_86_108">
<rect width="266" height="42" fill="white"/>
</clipPath>
</defs>
</svg>
