<svg width="656" height="37" viewBox="0 0 656 37" fill="none" xmlns="http://www.w3.org/2000/svg">
<g clip-path="url(#clip0_47_376)">
<path d="M16.4228 23.4225C17.2673 23.4504 17.943 23.6912 18.4497 24.1426C18.9616 24.5889 19.2943 25.1366 19.453 25.7857C19.6168 26.4348 19.6168 27.0839 19.453 27.733C19.2943 28.3822 18.9616 28.9172 18.4497 29.3356C17.943 29.7565 17.2673 29.9391 16.4228 29.8833C14.4367 29.8224 12.4507 29.8376 10.4647 29.9238C8.48382 30.0126 6.50292 30.2154 4.5169 30.5324C3.90267 30.649 3.25772 30.5983 2.58207 30.3803C1.91153 30.1647 1.3536 29.8097 0.903166 29.3153C0.452729 28.8234 0.283815 28.1869 0.401543 27.4085C0.898047 23.392 1.44574 19.3908 2.0395 15.3997C2.63837 11.4112 3.29099 7.43528 3.9948 3.47208C4.0767 2.98524 4.25073 2.55418 4.5169 2.17383C4.74724 1.76813 5.0825 1.4385 5.52014 1.17987C5.95523 0.916159 6.49524 0.771628 7.13762 0.743736C10.2907 0.629633 13.4437 0.687952 16.5968 0.916159C17.4414 0.977015 18.117 1.24833 18.6238 1.72756C19.1356 2.20173 19.4683 2.7621 19.627 3.41123C19.7908 4.06035 19.7908 4.7044 19.627 5.33831C19.4683 5.97475 19.1356 6.49456 18.6238 6.90026C18.117 7.30596 17.4414 7.47839 16.5968 7.41753C14.4316 7.27553 12.2281 7.20454 9.98357 7.20454C9.84025 8.04383 9.69181 8.88313 9.54337 9.71989C9.40005 10.5592 9.26952 11.3985 9.15435 12.2352C10.347 12.2631 11.5012 12.3215 12.6145 12.4077C13.4872 12.5243 14.2525 12.8539 14.9077 13.4016C15.5628 13.9493 15.8904 14.6999 15.8904 15.6533C15.8904 16.2086 15.7369 16.7461 15.4298 17.2659C15.1278 17.7883 14.7285 18.2067 14.232 18.5236C13.7329 18.8431 13.1929 18.9699 12.6145 18.909C11.125 18.767 9.63806 18.7113 8.15111 18.7366C8.03338 19.548 7.91565 20.367 7.7928 21.1911C7.67508 22.0101 7.55991 22.8393 7.44474 23.676C8.93169 23.534 10.4186 23.4377 11.9082 23.3819C13.3951 23.321 14.9 23.3363 16.4228 23.4225Z" fill="#323232"/>
<path d="M43.4226 6.80893C43.4482 8.45963 43.4636 10.2549 43.4636 12.1946C43.4636 14.1293 43.3458 16.0665 43.1155 18.0063C42.8826 19.941 42.445 21.7666 41.8051 23.4833C41.1628 25.2024 40.2286 26.6832 39.0002 27.9257C37.7435 29.1986 36.3845 30.0024 34.9257 30.3396C33.4721 30.6718 32.0337 30.6084 30.6159 30.1469C29.2031 29.6804 27.9389 28.8943 26.8281 27.7837C25.7225 26.668 24.8933 25.2988 24.3405 23.676C24.0462 22.8392 24.0231 22.1013 24.2688 21.4649C24.5196 20.831 24.9291 20.3391 25.4973 19.9942C26.0706 19.6494 26.7053 19.4719 27.4014 19.4567C28.1026 19.4364 28.7527 19.6164 29.3465 19.9942C29.9453 20.3746 30.3804 20.9831 30.6466 21.8199C30.9051 22.5704 31.376 23.0979 32.0593 23.4021C32.7478 23.7013 33.426 23.6329 34.0965 23.1993C34.6545 22.8544 35.0639 22.3321 35.325 21.6272C35.5912 20.9172 35.7959 20.2453 35.9392 19.6088C36.4639 17.5271 36.7608 15.4098 36.8299 13.2596C36.9041 11.1043 36.9143 8.95408 36.8606 6.80893C36.8606 5.91638 37.0781 5.20387 37.5158 4.66885C37.9508 4.13637 38.4909 3.77377 39.1332 3.5836C39.7731 3.39596 40.4231 3.39596 41.0783 3.5836C41.7335 3.77377 42.2863 4.13637 42.7367 4.66885C43.1923 5.20387 43.4226 5.91638 43.4226 6.80893Z" fill="#323232"/>
<path d="M63.9526 23.4225C64.7971 23.4504 65.4728 23.6912 65.9795 24.1426C66.4914 24.5889 66.8241 25.1366 66.9828 25.7857C67.1466 26.4348 67.1466 27.0839 66.9828 27.733C66.8241 28.3822 66.4914 28.9172 65.9795 29.3356C65.4728 29.7565 64.7971 29.9391 63.9526 29.8833C61.9665 29.8224 59.9805 29.8376 57.9945 29.9238C56.0136 30.0126 54.0327 30.2154 52.0467 30.5324C51.4325 30.649 50.7875 30.5983 50.1119 30.3803C49.4413 30.1647 48.8834 29.8097 48.433 29.3153C47.9825 28.8234 47.8136 28.1869 47.9313 27.4085C48.4278 23.392 48.9755 19.3908 49.5693 15.3997C50.1682 11.4112 50.8208 7.43528 51.5246 3.47208C51.6065 2.98524 51.7805 2.55418 52.0467 2.17383C52.277 1.76813 52.6123 1.4385 53.0499 1.17987C53.485 0.916159 54.025 0.771628 54.6674 0.743736C57.8205 0.629633 60.9735 0.687952 64.1266 0.916159C64.9712 0.977015 65.6468 1.24833 66.1536 1.72756C66.6654 2.20173 66.9981 2.7621 67.1568 3.41123C67.3206 4.06035 67.3206 4.7044 67.1568 5.33831C66.9981 5.97475 66.6654 6.49456 66.1536 6.90026C65.6468 7.30596 64.9712 7.47839 64.1266 7.41753C61.9614 7.27553 59.7579 7.20454 57.5134 7.20454C57.37 8.04383 57.2216 8.88313 57.0732 9.71989C56.9298 10.5592 56.7993 11.3985 56.6841 12.2352C57.8768 12.2631 59.031 12.3215 60.1443 12.4077C61.017 12.5243 61.7823 12.8539 62.4374 13.4016C63.0926 13.9493 63.4202 14.6999 63.4202 15.6533C63.4202 16.2086 63.2667 16.7461 62.9595 17.2659C62.6575 17.7883 62.2583 18.2067 61.7618 18.5236C61.2627 18.8431 60.7227 18.9699 60.1443 18.909C58.6548 18.767 57.1678 18.7113 55.6809 18.7366C55.5632 19.548 55.4454 20.367 55.3226 21.1911C55.2049 22.0101 55.0897 22.8393 54.9745 23.676C56.4615 23.534 57.9484 23.4377 59.4379 23.3819C60.9249 23.321 62.4298 23.3363 63.9526 23.4225Z" fill="#323232"/>
<path d="M102.152 17.1341C102.185 19.5632 102.093 21.9974 101.876 24.4367C101.655 26.8785 101.428 29.3153 101.19 31.7495C101.108 32.5558 100.824 33.21 100.34 33.7171C99.8537 34.2242 99.2778 34.5539 98.6099 34.7111C97.9393 34.8734 97.2841 34.8734 96.6443 34.7111C96.0019 34.5539 95.4824 34.2293 95.0883 33.7374C94.6916 33.243 94.538 32.5812 94.6276 31.7495C94.8323 29.8376 95.0499 27.8699 95.2828 25.8465C95.5131 23.8256 95.6667 21.8047 95.7434 19.7813C95.8177 17.7528 95.682 15.7851 95.334 13.8783C95.2725 13.5335 95.1727 13.1886 95.0371 12.8438C94.9066 12.4938 94.8272 12.1439 94.8016 11.7991C94.4792 12.1794 94.1208 12.5471 93.7267 12.9046C93.3377 13.2647 93.0408 13.6019 92.8361 13.9189C92.1655 14.9331 91.6486 15.9854 91.28 17.0732C90.9166 18.1559 90.6351 19.2741 90.4303 20.4304C90.3126 21.1556 90.0055 21.7058 89.509 22.0836C89.0099 22.4564 88.4392 22.6719 87.7994 22.7327C87.157 22.7885 86.53 22.6998 85.9157 22.469C85.3066 22.2332 84.8127 21.8706 84.4313 21.3838C84.0474 20.8919 83.9016 20.2833 83.9911 19.5581C84.0526 18.7822 84.1037 17.9962 84.1447 17.2051C84.1908 16.4089 84.1984 15.6177 84.1652 14.8317C84.1652 14.5756 84.1703 14.2105 84.1856 13.7363C84.2061 13.2571 84.1908 12.788 84.1447 12.3265C84.1037 11.8599 83.9809 11.5126 83.7762 11.2818C83.7147 11.221 83.6994 11.1652 83.7352 11.1094C83.6994 11.1094 83.684 11.1094 83.684 11.1094C83.684 11.1094 83.6687 11.1094 83.6431 11.1094C83.382 11.1652 83.1261 11.4187 82.8753 11.8701C82.6296 12.3163 82.4479 12.6257 82.3327 12.793C82.0102 13.3154 81.7236 13.858 81.4728 14.426C81.2271 14.9889 81.0019 15.5417 80.7971 16.0894C79.8348 18.6935 79.2052 21.361 78.9135 24.0918C78.6268 26.8253 78.3939 29.5637 78.2174 32.3073C78.1559 33.1441 77.8923 33.8084 77.4291 34.2952C76.9633 34.7872 76.4002 35.1219 75.74 35.2994C75.0848 35.4743 74.4347 35.4743 73.7949 35.2994C73.1525 35.1219 72.6202 34.7872 72.1979 34.2952C71.773 33.8084 71.5939 33.1441 71.6553 32.3073C71.7986 30.0227 71.9727 27.7482 72.1774 25.4814C72.3821 23.2094 72.7328 20.9629 73.2318 18.7366C73.5185 17.3775 73.8998 15.955 74.3784 14.4666C74.8621 12.9807 75.4635 11.5557 76.1802 10.1966C76.8968 8.83745 77.7669 7.65078 78.7906 6.63652C79.7529 5.71102 80.8816 5.08218 82.1792 4.75001C83.4742 4.42038 84.741 4.4508 85.9772 4.84129C87.2184 5.23432 88.2498 6.0229 89.0688 7.20451C89.0944 7.29325 89.1405 7.382 89.2019 7.46821C89.2633 7.54935 89.3068 7.62035 89.335 7.6812C90.1795 6.70245 91.106 5.91387 92.1092 5.31799C93.1176 4.72465 94.1618 4.45588 95.2418 4.51673C96.3193 4.57252 97.4275 5.09232 98.5689 6.07868C99.585 6.97123 100.343 8.04127 100.842 9.28373C101.338 10.5287 101.673 11.8295 101.845 13.1886C102.021 14.5477 102.124 15.8637 102.152 17.1341Z" fill="#323232"/>
<path d="M122.025 2.95464C123.423 3.53023 124.7 4.27317 125.854 5.186C127.006 6.09883 127.937 7.15873 128.649 8.36062C129.365 9.55744 129.775 10.8506 129.877 12.2351C129.98 13.6221 129.683 15.0648 128.987 16.5659C128.078 18.3916 126.821 19.847 125.219 20.9272C123.615 22.0099 121.841 22.7022 119.896 23.0065C117.956 23.3107 116.042 23.2473 114.153 22.8137C113.974 24.4644 113.797 26.1151 113.621 27.7633C113.449 29.4064 113.275 31.0546 113.098 32.7027C113.009 33.5065 112.722 34.1632 112.239 34.6704C111.76 35.1775 111.184 35.5071 110.508 35.6643C109.838 35.8266 109.183 35.8266 108.543 35.6643C107.901 35.5071 107.389 35.1826 107.007 34.6907C106.631 34.2038 106.475 33.5395 106.536 32.7027C106.946 28.7953 107.337 24.898 107.714 21.0084C108.095 17.1212 108.505 13.2443 108.942 9.37487C109.147 7.84081 109.569 6.46143 110.212 5.23671C110.851 4.00693 111.944 3.10171 113.487 2.51851C114.859 1.99871 116.295 1.81361 117.797 1.96067C119.305 2.10267 120.715 2.43484 122.025 2.95464ZM114.808 16.2617C115.537 16.4645 116.367 16.5837 117.296 16.6166C118.23 16.6445 119.149 16.5431 120.05 16.3124C120.956 16.0766 121.718 15.6785 122.332 15.1156C122.947 14.5552 123.297 13.7818 123.387 12.7929C123.441 12.159 123.218 11.5454 122.721 10.9571C122.23 10.3638 121.588 9.84904 120.797 9.41544C120.011 8.98438 119.223 8.6725 118.432 8.48233C117.646 8.29469 116.978 8.27441 116.426 8.42147C116.103 8.53811 115.906 8.60911 115.832 8.63447C115.755 8.66236 115.719 8.72068 115.719 8.80689C115.719 8.89564 115.648 9.08581 115.504 9.37487C115.325 9.74761 115.238 10.2522 115.238 10.8861C115.238 11.5226 115.223 12.0728 115.197 12.5393C115.141 13.1758 115.077 13.797 115.003 14.4056C114.926 15.0091 114.862 15.6278 114.808 16.2617Z" fill="#323232"/>
<path d="M151.39 21.8198C152.235 21.759 152.908 21.9263 153.407 22.3168C153.903 22.7022 154.239 23.217 154.41 23.8585C154.587 24.4949 154.587 25.1441 154.41 25.8059C154.239 26.4702 153.898 27.0407 153.386 27.5199C152.875 27.9941 152.209 28.2603 151.39 28.3212C149.171 28.4632 146.991 28.737 144.849 29.1427C142.704 29.5485 140.569 30.0556 138.44 30.6641C137.826 30.834 137.181 30.796 136.505 30.5526C135.835 30.3091 135.282 29.9212 134.847 29.3862C134.409 28.8461 134.222 28.2172 134.284 27.4997C134.632 24.112 134.972 20.7295 135.308 17.347C135.64 13.967 135.968 10.587 136.29 7.20443C136.377 6.39302 136.672 5.73883 137.171 5.23677C137.667 4.72965 138.251 4.40001 138.921 4.2428C139.589 4.08052 140.237 4.08052 140.866 4.2428C141.493 4.40001 142.003 4.72457 142.392 5.21649C142.786 5.70333 142.945 6.36767 142.863 7.20443C142.596 9.88967 142.33 12.5698 142.064 15.2475C141.803 17.92 141.545 20.5875 141.286 23.2499C144.582 22.5552 147.951 22.0785 151.39 21.8198Z" fill="#323232"/>
<path d="M181.067 4.99349C181.763 6.12438 182.239 7.38713 182.5 8.7868C182.767 10.1865 182.884 11.6039 182.859 13.0365C182.831 14.4641 182.715 15.8004 182.511 17.0428C182.216 18.9496 181.615 20.7601 180.709 22.4691C179.808 24.173 178.6 25.6488 177.085 26.8912C175.624 28.0754 173.932 28.94 172.007 29.4877C170.083 30.0354 168.199 30.0228 166.356 29.4472C165.133 29.0694 164.068 28.4481 163.162 27.5809C162.261 26.7163 161.504 25.7299 160.89 24.6193C160.275 23.5036 159.825 22.3677 159.538 21.2114C159.183 19.9411 158.975 18.4729 158.914 16.8096C158.858 15.1462 158.978 13.4498 159.272 11.718C159.564 9.98109 160.045 8.36082 160.716 6.85972C161.384 5.35355 162.287 4.10855 163.428 3.12726C164.596 1.94566 165.993 1.10636 167.626 0.611911C169.264 0.119998 170.943 -0.0473541 172.662 0.114927C174.382 0.272136 175.984 0.761514 177.474 1.5856C178.961 2.41221 180.159 3.54818 181.067 4.99349ZM173.103 21.8605C174.091 20.935 174.825 19.8599 175.304 18.6352C175.787 17.4054 176.087 16.1173 176.205 14.7709C176.32 13.427 176.292 12.1186 176.123 10.8457C175.943 9.57539 175.439 8.53324 174.607 7.72183C173.773 6.91043 172.675 6.52248 171.311 6.55544C170.546 6.55544 169.806 6.74562 169.09 7.12342C168.378 7.49616 167.792 7.98554 167.329 8.59409C166.802 9.31929 166.42 10.1865 166.182 11.2007C165.949 12.2099 165.775 13.1456 165.66 14.0102C165.399 15.9449 165.502 17.8517 165.967 19.7306C166.111 20.2859 166.305 20.8361 166.551 21.3838C166.802 21.9315 167.16 22.3778 167.626 22.7227C168.388 23.278 169.259 23.4783 170.236 23.3211C171.211 23.1588 172.064 22.7734 172.796 22.1648C172.883 22.0786 172.985 21.9772 173.103 21.8605Z" fill="#323232"/>
<path d="M201.422 13.7972C203.052 14.8926 204.342 16.3303 205.291 18.1078C206.238 19.8878 206.612 21.7591 206.407 23.7268C206.203 25.4586 205.601 26.9521 204.606 28.2098C203.615 29.4674 202.397 30.4386 200.951 31.1207C199.51 31.7977 197.982 32.173 196.365 32.2465C194.747 32.315 193.191 32.0487 191.696 31.4452C190.207 30.8367 188.955 29.8681 187.939 28.5343C187.412 27.8446 187.195 27.1955 187.284 26.587C187.371 25.9784 187.643 25.4459 188.093 24.9844C188.543 24.5179 189.101 24.1933 189.772 24.0108C190.448 23.8231 191.126 23.8155 191.809 23.9905C192.498 24.1604 193.089 24.5762 193.58 25.238C193.818 25.5575 194.258 25.7401 194.901 25.7857C195.541 25.8263 196.183 25.7958 196.825 25.6944C197.465 25.593 197.916 25.4865 198.177 25.3699C198.791 25.0808 199.252 24.6548 199.559 24.0919C199.866 23.5315 199.973 22.9154 199.886 22.2459C199.797 21.4422 199.502 20.7727 199.006 20.2377C198.514 19.6976 197.923 19.2412 197.235 18.8685C196.551 18.4907 195.858 18.123 195.157 17.7629C194.461 17.3978 193.849 16.9997 193.324 16.5661C191.863 15.2958 190.972 13.9088 190.652 12.4077C190.33 10.9066 190.44 9.4207 190.98 7.94496C191.517 6.47176 192.357 5.12534 193.498 3.90823C194.637 2.69112 195.935 1.73773 197.388 1.04803C198.179 0.703186 198.909 0.611903 199.579 0.774184C200.247 0.931393 200.82 1.25595 201.299 1.74787C201.783 2.23471 202.113 2.79762 202.292 3.43153C202.469 4.06798 202.438 4.67653 202.2 5.25719C201.967 5.83278 201.473 6.30948 200.715 6.68729C200.216 6.91803 199.641 7.23498 198.985 7.64069C198.33 8.04132 197.79 8.52309 197.368 9.09107C196.943 9.65398 196.866 10.2828 197.132 10.9776C197.276 11.4391 197.616 11.8372 198.156 12.1744C198.694 12.5066 199.272 12.8007 199.886 13.0568C200.5 13.3154 201.012 13.5614 201.422 13.7972Z" fill="#323232"/>
<path d="M231.444 1.52463C233.164 1.84412 234.825 2.32082 236.43 2.95473C238.032 3.59117 239.521 4.51668 240.893 5.73379C242.38 7.05992 243.529 8.64216 244.343 10.4805C245.162 12.3138 245.454 14.2282 245.223 16.2212C245.019 17.9251 244.471 19.5023 243.586 20.9476C242.697 22.3954 241.61 23.6658 240.32 24.7612C238.892 25.9783 237.208 26.9571 235.263 27.6924C233.323 28.4303 231.467 29.087 229.694 29.66C229.195 29.8096 228.69 29.9415 228.179 30.0556C227.667 30.1722 227.165 30.1976 226.674 30.1367C225.97 30.0226 225.363 29.6905 224.851 29.1428C224.34 28.5951 224.099 27.9738 224.135 27.2765C224.34 19.4135 224.731 11.5226 225.312 3.60385C225.374 2.71131 225.673 2.09261 226.213 1.74777C226.75 1.39785 227.393 1.20768 228.138 1.17978C228.88 1.14682 229.604 1.18739 230.308 1.30149C230.682 1.36235 231.06 1.43842 231.444 1.52463ZM238.446 16.6167C238.856 15.4275 238.92 14.3626 238.641 13.4218C238.359 12.4836 237.855 11.6621 237.126 10.9572C236.402 10.2472 235.542 9.66402 234.546 9.20254C233.556 8.73598 232.55 8.40127 231.526 8.19842C231.232 12.973 230.999 17.6868 230.83 22.3371C231.907 21.9923 232.949 21.5967 233.952 21.1505C234.961 20.6991 235.859 20.1108 236.645 19.3856C237.436 18.663 238.037 17.74 238.446 16.6167Z" fill="#323232"/>
<path d="M265.756 23.4225C266.601 23.4504 267.276 23.6912 267.783 24.1426C268.295 24.5889 268.628 25.1366 268.786 25.7857C268.95 26.4348 268.95 27.0839 268.786 27.733C268.628 28.3822 268.295 28.9172 267.783 29.3356C267.276 29.7565 266.601 29.9391 265.756 29.8833C263.77 29.8224 261.784 29.8376 259.798 29.9238C257.817 30.0126 255.836 30.2154 253.85 30.5324C253.236 30.649 252.591 30.5983 251.916 30.3803C251.245 30.1647 250.687 29.8097 250.237 29.3153C249.786 28.8234 249.617 28.1869 249.735 27.4085C250.232 23.392 250.779 19.3908 251.373 15.3997C251.972 11.4112 252.624 7.43528 253.328 3.47208C253.41 2.98524 253.584 2.55418 253.85 2.17383C254.081 1.76813 254.416 1.4385 254.854 1.17987C255.289 0.916159 255.829 0.771628 256.471 0.743736C259.624 0.629633 262.777 0.687952 265.93 0.916159C266.775 0.977015 267.451 1.24833 267.957 1.72756C268.469 2.20173 268.802 2.7621 268.961 3.41123C269.124 4.06035 269.124 4.7044 268.961 5.33831C268.802 5.97475 268.469 6.49456 267.957 6.90026C267.451 7.30596 266.775 7.47839 265.93 7.41753C263.765 7.27553 261.562 7.20454 259.317 7.20454C259.174 8.04383 259.025 8.88313 258.877 9.71989C258.734 10.5592 258.603 11.3985 258.488 12.2352C259.68 12.2631 260.835 12.3215 261.948 12.4077C262.821 12.5243 263.586 12.8539 264.241 13.4016C264.896 13.9493 265.224 14.6999 265.224 15.6533C265.224 16.2086 265.07 16.7461 264.763 17.2659C264.461 17.7883 264.062 18.2067 263.566 18.5236C263.066 18.8431 262.526 18.9699 261.948 18.909C260.459 18.767 258.972 18.7113 257.485 18.7366C257.367 19.548 257.249 20.367 257.126 21.1911C257.009 22.0101 256.893 22.8393 256.778 23.676C258.265 23.534 259.752 23.4377 261.242 23.3819C262.729 23.321 264.233 23.3363 265.756 23.4225Z" fill="#323232"/>
<path d="M302.253 2.95464C303.65 3.53023 304.927 4.27317 306.082 5.186C307.233 6.09883 308.165 7.15873 308.876 8.36062C309.593 9.55744 310.002 10.8506 310.105 12.2351C310.207 13.6221 309.91 15.0648 309.214 16.5659C308.306 18.3916 307.049 19.847 305.447 20.9272C303.842 22.0099 302.069 22.7022 300.124 23.0065C298.184 23.3107 296.269 23.2473 294.38 22.8137C294.201 24.4644 294.025 26.1151 293.848 27.7633C293.677 29.4064 293.503 31.0546 293.326 32.7027C293.236 33.5065 292.95 34.1632 292.466 34.6704C291.988 35.1775 291.412 35.5071 290.736 35.6643C290.065 35.8266 289.41 35.8266 288.77 35.6643C288.128 35.5071 287.616 35.1826 287.235 34.6907C286.859 34.2038 286.703 33.5395 286.764 32.7027C287.173 28.7953 287.565 24.898 287.941 21.0084C288.323 17.1212 288.732 13.2443 289.17 9.37487C289.374 7.84081 289.797 6.46143 290.439 5.23671C291.079 4.00693 292.172 3.10171 293.715 2.51851C295.087 1.99871 296.523 1.81361 298.025 1.96067C299.532 2.10267 300.943 2.43484 302.253 2.95464ZM295.036 16.2617C295.765 16.4645 296.594 16.5837 297.523 16.6166C298.457 16.6445 299.376 16.5431 300.277 16.3124C301.183 16.0766 301.946 15.6785 302.56 15.1156C303.174 14.5552 303.525 13.7818 303.614 12.7929C303.668 12.159 303.446 11.5454 302.949 10.9571C302.458 10.3638 301.815 9.84904 301.024 9.41544C300.239 8.98438 299.45 8.6725 298.66 8.48233C297.874 8.29469 297.206 8.27441 296.653 8.42147C296.331 8.53811 296.134 8.60911 296.059 8.63447C295.983 8.66236 295.947 8.72068 295.947 8.80689C295.947 8.89564 295.875 9.08581 295.732 9.37487C295.553 9.74761 295.466 10.2522 295.466 10.8861C295.466 11.5226 295.45 12.0728 295.425 12.5393C295.368 13.1758 295.304 13.797 295.23 14.4056C295.153 15.0091 295.089 15.6278 295.036 16.2617Z" fill="#323232"/>
<path d="M316.477 5.85555C316.564 5.05175 316.856 4.39502 317.347 3.8879C317.843 3.38077 318.427 3.05114 319.098 2.89393C319.773 2.73165 320.431 2.73165 321.073 2.89393C321.713 3.05114 322.222 3.3757 322.599 3.86761C322.98 4.35445 323.126 5.01879 323.039 5.85555C322.192 13.6932 321.537 21.5435 321.073 29.4065C321.012 30.2458 320.748 30.9127 320.285 31.4046C319.819 31.8915 319.256 32.2236 318.596 32.3986C317.941 32.5685 317.291 32.5685 316.651 32.3986C316.008 32.2236 315.476 31.8915 315.054 31.4046C314.629 30.9127 314.45 30.2458 314.511 29.4065C314.974 21.5435 315.63 13.6932 316.477 5.85555Z" fill="#323232"/>
<path d="M344.531 6.29156C344.647 5.4548 344.951 4.84879 345.443 4.47605C345.939 4.09824 346.518 3.91567 347.173 3.92835C347.833 3.94357 348.468 4.11852 349.077 4.45576C349.691 4.78793 350.172 5.26463 350.52 5.88586C350.873 6.50202 350.994 7.21454 350.879 8.02594C349.683 16.0056 348.196 23.9269 346.415 31.7899C346.264 32.4264 345.934 32.9462 345.422 33.3519C344.915 33.7576 344.327 34.0061 343.651 34.1024C342.981 34.2038 342.346 34.1328 341.747 33.8894C341.153 33.646 340.708 33.2048 340.416 32.5709C339.746 30.9836 339.06 29.4014 338.358 27.8242C337.662 26.2496 336.961 24.6673 336.26 23.0775C335.822 24.9513 335.4 26.8353 334.99 28.7269C334.581 30.621 334.202 32.5253 333.854 34.4371C333.711 35.2409 333.376 35.8292 332.851 36.2019C332.324 36.5797 331.73 36.7699 331.07 36.7699C330.414 36.7699 329.785 36.5975 329.186 36.2526C328.592 35.9078 328.126 35.4311 327.794 34.8225C327.458 34.214 327.376 33.5065 327.548 32.7027C328.83 25.821 330.407 18.9976 332.278 12.2351C332.454 11.6012 332.805 11.0788 333.332 10.6731C333.857 10.2674 334.448 10.0088 335.103 9.89217C335.758 9.77806 336.375 9.84145 336.956 10.0849C337.542 10.3283 337.982 10.7847 338.277 11.4541L342.126 20.2578C342.589 17.9453 343.019 15.6278 343.416 13.3001C343.81 10.9673 344.183 8.63196 344.531 6.29156Z" fill="#323232"/>
<path d="M373.063 2.78226C373.881 2.871 374.537 3.16767 375.028 3.6748C375.525 4.17686 375.862 4.76005 376.042 5.42946C376.218 6.0938 376.218 6.73531 376.042 7.35654C375.862 7.98031 375.525 8.47983 375.028 8.85764C374.537 9.23038 373.881 9.3597 373.063 9.24306C371.691 9.0681 370.291 8.93625 368.865 8.8475C368.661 12.0323 368.461 15.2018 368.272 18.3511C368.08 21.5029 367.885 24.6496 367.688 27.7938C367.652 28.6331 367.394 29.305 366.91 29.8121C366.431 30.3193 365.866 30.654 365.211 30.8162C364.555 30.9735 363.905 30.9735 363.266 30.8162C362.623 30.654 362.098 30.3193 361.689 29.8121C361.279 29.305 361.088 28.6331 361.116 27.7938C361.32 24.6496 361.518 21.4902 361.709 18.3105C361.899 15.1257 362.098 11.9587 362.303 8.80693C360.985 8.83482 359.703 8.92357 358.454 9.07063C357.607 9.12642 356.929 8.96667 356.417 8.59394C355.905 8.21613 355.567 7.709 355.403 7.07255C355.245 6.43864 355.252 5.78952 355.424 5.12518C355.6 4.45578 355.938 3.88526 356.437 3.41109C356.934 2.93186 357.607 2.64787 358.454 2.55912C363.319 2.07228 368.19 2.14835 373.063 2.78226Z" fill="#323232"/>
<path d="M401.028 13.5739C401.115 16.4696 401.187 19.3627 401.243 22.2559C401.305 25.144 401.379 28.0321 401.469 30.9176C401.494 31.7569 401.289 32.4314 400.854 32.936C400.417 33.4431 399.877 33.7728 399.237 33.93C398.594 34.0923 397.947 34.0846 397.292 33.9097C396.637 33.7398 396.079 33.4076 395.623 32.9157C395.173 32.4238 394.932 31.7569 394.907 30.9176C394.878 30.053 394.855 29.1883 394.835 28.3211C394.82 27.4565 394.799 26.5868 394.773 25.7145L388.211 25.5015C387.979 26.5716 387.761 27.6568 387.556 28.7573C387.351 29.8527 387.147 30.9481 386.942 32.0435C386.799 32.8523 386.471 33.4457 385.959 33.8184C385.447 34.1962 384.854 34.3864 384.178 34.3864C383.507 34.3864 382.873 34.214 382.274 33.8691C381.68 33.5243 381.214 33.0476 380.882 32.439C380.546 31.8305 380.452 31.1205 380.595 30.3091C381.12 27.4768 381.711 24.6749 382.366 21.9009C383.021 19.1295 383.948 16.429 385.15 13.797C385.729 12.4937 386.471 11.089 387.372 9.58787C388.278 8.08677 389.309 6.70739 390.464 5.44971C391.615 4.19204 392.892 3.25892 394.292 2.65037C395.603 2.10267 396.667 2.00125 397.486 2.34609C398.305 2.69094 398.945 3.31978 399.411 4.23261C399.882 5.14544 400.225 6.17998 400.445 7.33623C400.662 8.49248 400.806 9.63605 400.875 10.7644C400.949 11.8877 401 12.8233 401.028 13.5739ZM390.269 18.351C390.241 18.4677 390.203 18.5818 390.156 18.6959C390.116 18.8125 390.064 18.9266 390.003 19.0407C390.794 19.0686 391.569 19.099 392.327 19.132C393.084 19.1599 393.842 19.1878 394.599 19.2131C394.571 18.2876 394.548 17.3545 394.528 16.4138C394.512 15.4756 394.492 14.5273 394.466 13.5739C394.438 13.2037 394.425 12.8081 394.425 12.3872C394.425 11.9688 394.425 11.5428 394.425 11.1093C393.926 11.6848 393.504 12.2452 393.156 12.7929C392.567 13.6652 392.032 14.5653 391.549 15.4908C391.07 16.4113 390.643 17.3647 390.269 18.351Z" fill="#323232"/>
<path d="M419.988 13.7972C421.618 14.8926 422.908 16.3303 423.857 18.1078C424.804 19.8878 425.178 21.7591 424.973 23.7268C424.769 25.4586 424.167 26.9521 423.172 28.2098C422.181 29.4674 420.963 30.4386 419.517 31.1207C418.076 31.7977 416.548 32.173 414.931 32.2465C413.313 32.315 411.757 32.0487 410.262 31.4452C408.773 30.8367 407.521 29.8681 406.505 28.5343C405.978 27.8446 405.761 27.1955 405.85 26.587C405.937 25.9784 406.208 25.4459 406.659 24.9844C407.109 24.5179 407.667 24.1933 408.338 24.0108C409.013 23.8231 409.692 23.8155 410.375 23.9905C411.063 24.1604 411.655 24.5762 412.146 25.238C412.384 25.5575 412.824 25.7401 413.467 25.7857C414.106 25.8263 414.749 25.7958 415.391 25.6944C416.031 25.593 416.481 25.4865 416.743 25.3699C417.357 25.0808 417.817 24.6548 418.125 24.0919C418.432 23.5315 418.539 22.9154 418.452 22.2459C418.363 21.4422 418.068 20.7727 417.572 20.2377C417.08 19.6976 416.489 19.2412 415.801 18.8685C415.117 18.4907 414.424 18.123 413.723 17.7629C413.026 17.3978 412.415 16.9997 411.89 16.5661C410.429 15.2958 409.538 13.9088 409.218 12.4077C408.896 10.9066 409.006 9.4207 409.546 7.94496C410.083 6.47176 410.923 5.12534 412.064 3.90823C413.203 2.69112 414.501 1.73773 415.954 1.04803C416.745 0.703186 417.474 0.611903 418.145 0.774184C418.813 0.931393 419.386 1.25595 419.865 1.74787C420.349 2.23471 420.679 2.79762 420.858 3.43153C421.034 4.06798 421.004 4.67653 420.766 5.25719C420.533 5.83278 420.039 6.30948 419.281 6.68729C418.782 6.91803 418.206 7.23498 417.551 7.64069C416.896 8.04132 416.356 8.52309 415.934 9.09107C415.509 9.65398 415.432 10.2828 415.698 10.9776C415.842 11.4391 416.182 11.8372 416.722 12.1744C417.26 12.5066 417.838 12.8007 418.452 13.0568C419.066 13.3154 419.578 13.5614 419.988 13.7972Z" fill="#323232"/>
<path d="M459.981 22.1139C460.8 21.9187 461.507 21.9593 462.101 22.2356C462.699 22.507 463.168 22.9329 463.503 23.5136C463.843 24.0892 464.02 24.718 464.035 25.4001C464.048 26.0771 463.872 26.6882 463.503 27.2359C463.14 27.7836 462.551 28.1741 461.732 28.4023C460.242 28.808 458.717 29.1199 457.156 29.3354C455.6 29.5535 454.054 29.5586 452.519 29.3557C450.988 29.1529 449.524 28.6635 448.127 27.885C446.317 26.8708 444.938 25.4686 443.991 23.6759C443.041 21.8857 442.611 19.951 442.701 17.8744C442.816 15.8458 443.326 13.9086 444.226 12.0627C445.132 10.2117 446.338 8.5711 447.84 7.14354C449.34 5.7109 451.047 4.61297 452.959 3.84721C454.868 3.07638 456.862 2.77971 458.937 2.95467C459.782 3.01045 460.457 3.27669 460.964 3.75593C461.476 4.2377 461.809 4.80822 461.967 5.47002C462.131 6.13436 462.131 6.78348 461.967 7.41739C461.809 8.05383 461.476 8.56857 460.964 8.95905C460.457 9.35208 459.782 9.51689 458.937 9.45604C457.414 9.34194 455.974 9.62593 454.617 10.308C453.266 10.985 452.122 11.9257 451.188 13.1276C450.251 14.3245 449.655 15.6734 449.396 17.1745C449.13 18.4728 449.194 19.5225 449.591 20.3187C449.985 21.1174 450.576 21.7133 451.362 22.1038C452.153 22.4892 453.051 22.72 454.054 22.7935C455.062 22.8619 456.084 22.8315 457.115 22.7022C458.152 22.5754 459.106 22.3776 459.981 22.1139Z" fill="#323232"/>
<path d="M491.141 28.4936C491.638 29.1579 491.843 29.807 491.756 30.4409C491.666 31.0774 491.39 31.6225 490.926 32.0739C490.461 32.5201 489.898 32.8346 489.237 33.0171C488.582 33.2048 487.909 33.2124 487.221 33.0374C486.537 32.8675 485.951 32.4542 485.46 31.7899C484.142 29.9997 482.675 28.3465 481.058 26.8302C479.44 25.3088 477.695 23.9396 475.827 22.7225C475.683 24.4619 475.543 26.1811 475.407 27.885C475.276 29.589 475.141 31.3106 474.997 33.0476C474.936 33.8843 474.662 34.5487 474.178 35.0355C473.7 35.5274 473.127 35.8596 472.459 36.0295C471.788 36.2044 471.141 36.2044 470.514 36.0295C469.884 35.8596 469.367 35.5274 468.957 35.0355C468.548 34.5487 468.374 33.8843 468.435 33.0476C468.694 29.8704 468.896 26.6476 469.039 23.3817C469.188 20.1107 469.584 16.9158 470.227 13.797C470.547 12.2097 471.143 10.663 472.018 9.16187C472.899 7.6557 474.015 6.4031 475.366 5.40913C476.722 4.41009 478.307 3.8776 480.116 3.81675C481.37 3.7635 482.558 3.99678 483.679 4.51658C484.805 5.03892 485.759 5.75397 486.545 6.6668C487.336 7.57456 487.868 8.61164 488.142 9.78056C488.421 10.952 488.357 12.159 487.947 13.4015C487.543 14.6186 486.883 15.7849 485.961 16.9006C485.04 18.0112 483.981 18.9697 482.788 19.7811C485.905 22.2635 488.69 25.1668 491.141 28.4936ZM481.785 11.1092C481.667 10.5286 481.439 10.204 481.099 10.1356C480.764 10.062 480.385 10.1558 479.962 10.4195C479.538 10.6782 479.123 11.0078 478.714 11.4135C478.309 11.8141 477.961 12.2097 477.669 12.6002C477.375 12.9932 477.183 13.2747 477.096 13.442C476.863 14.0861 476.658 14.8087 476.482 15.6125C477.068 15.5263 477.593 15.3463 478.058 15.075C478.529 14.7986 478.982 14.4563 479.42 14.0506C479.589 13.8832 479.881 13.6119 480.29 13.2392C480.7 12.8614 481.063 12.4683 481.385 12.0626C481.705 11.6569 481.838 11.34 481.785 11.1092Z" fill="#323232"/>
<path d="M512.201 23.4225C513.046 23.4504 513.721 23.6912 514.228 24.1426C514.74 24.5889 515.073 25.1366 515.231 25.7857C515.395 26.4348 515.395 27.0839 515.231 27.733C515.073 28.3822 514.74 28.9172 514.228 29.3356C513.721 29.7565 513.046 29.9391 512.201 29.8833C510.215 29.8224 508.229 29.8376 506.243 29.9238C504.262 30.0126 502.281 30.2154 500.295 30.5324C499.681 30.649 499.036 30.5983 498.36 30.3803C497.69 30.1647 497.132 29.8097 496.681 29.3153C496.231 28.8234 496.062 28.1869 496.18 27.4085C496.676 23.392 497.224 19.3908 497.818 15.3997C498.417 11.4112 499.069 7.43528 499.773 3.47208C499.855 2.98524 500.029 2.55418 500.295 2.17383C500.526 1.76813 500.861 1.4385 501.298 1.17987C501.734 0.916159 502.274 0.771628 502.916 0.743736C506.069 0.629633 509.222 0.687952 512.375 0.916159C513.22 0.977015 513.895 1.24833 514.402 1.72756C514.914 2.20173 515.247 2.7621 515.405 3.41123C515.569 4.06035 515.569 4.7044 515.405 5.33831C515.247 5.97475 514.914 6.49456 514.402 6.90026C513.895 7.30596 513.22 7.47839 512.375 7.41753C510.21 7.27553 508.006 7.20454 505.762 7.20454C505.619 8.04383 505.47 8.88313 505.322 9.71989C505.178 10.5592 505.048 11.3985 504.933 12.2352C506.125 12.2631 507.28 12.3215 508.393 12.4077C509.266 12.5243 510.031 12.8539 510.686 13.4016C511.341 13.9493 511.669 14.6999 511.669 15.6533C511.669 16.2086 511.515 16.7461 511.208 17.2659C510.906 17.7883 510.507 18.2067 510.01 18.5236C509.511 18.8431 508.971 18.9699 508.393 18.909C506.903 18.767 505.416 18.7113 503.929 18.7366C503.812 19.548 503.694 20.367 503.571 21.1911C503.453 22.0101 503.338 22.8393 503.223 23.676C504.71 23.534 506.197 23.4377 507.686 23.3819C509.173 23.321 510.678 23.3363 512.201 23.4225Z" fill="#323232"/>
<path d="M540.378 13.5739C540.465 16.4696 540.537 19.3627 540.593 22.2559C540.654 25.144 540.729 28.0321 540.818 30.9176C540.844 31.7569 540.639 32.4314 540.204 32.936C539.766 33.4431 539.226 33.7728 538.586 33.93C537.944 34.0923 537.297 34.0846 536.641 33.9097C535.986 33.7398 535.428 33.4076 534.973 32.9157C534.522 32.4238 534.282 31.7569 534.256 30.9176C534.228 30.053 534.205 29.1883 534.184 28.3211C534.169 27.4565 534.149 26.5868 534.123 25.7145L527.561 25.5015C527.328 26.5716 527.111 27.6568 526.906 28.7573C526.701 29.8527 526.496 30.9481 526.292 32.0435C526.148 32.8523 525.821 33.4457 525.309 33.8184C524.797 34.1962 524.203 34.3864 523.528 34.3864C522.857 34.3864 522.222 34.214 521.623 33.8691C521.03 33.5243 520.564 33.0476 520.231 32.439C519.896 31.8305 519.801 31.1205 519.945 30.3091C520.469 27.4768 521.06 24.6749 521.716 21.9009C522.371 19.1295 523.297 16.429 524.5 13.797C525.078 12.4937 525.821 11.089 526.722 9.58787C527.628 8.08677 528.659 6.70739 529.813 5.44971C530.965 4.19204 532.242 3.25892 533.642 2.65037C534.952 2.10267 536.017 2.00125 536.836 2.34609C537.655 2.69094 538.295 3.31978 538.761 4.23261C539.231 5.14544 539.574 6.17998 539.794 7.33623C540.012 8.49248 540.155 9.63605 540.224 10.7644C540.299 11.8877 540.35 12.8233 540.378 13.5739ZM529.619 18.351C529.591 18.4677 529.552 18.5818 529.506 18.6959C529.465 18.8125 529.414 18.9266 529.353 19.0407C530.143 19.0686 530.919 19.099 531.676 19.132C532.434 19.1599 533.191 19.1878 533.949 19.2131C533.921 18.2876 533.898 17.3545 533.877 16.4138C533.862 15.4756 533.842 14.5273 533.816 13.5739C533.788 13.2037 533.775 12.8081 533.775 12.3872C533.775 11.9688 533.775 11.5428 533.775 11.1093C533.276 11.6848 532.854 12.2452 532.506 12.7929C531.917 13.6652 531.382 14.5653 530.898 15.4908C530.42 16.4113 529.992 17.3647 529.619 18.351Z" fill="#323232"/>
<path d="M562.962 2.78226C563.781 2.871 564.436 3.16767 564.927 3.6748C565.424 4.17686 565.762 4.76005 565.941 5.42946C566.118 6.0938 566.118 6.73531 565.941 7.35654C565.762 7.98031 565.424 8.47983 564.927 8.85764C564.436 9.23038 563.781 9.3597 562.962 9.24306C561.59 9.0681 560.19 8.93625 558.765 8.8475C558.56 12.0323 558.36 15.2018 558.171 18.3511C557.979 21.5029 557.784 24.6496 557.587 27.7938C557.552 28.6331 557.293 29.305 556.809 29.8121C556.331 30.3193 555.765 30.654 555.11 30.8162C554.455 30.9735 553.805 30.9735 553.165 30.8162C552.523 30.654 551.998 30.3193 551.588 29.8121C551.179 29.305 550.987 28.6331 551.015 27.7938C551.22 24.6496 551.417 21.4902 551.609 18.3105C551.798 15.1257 551.998 11.9587 552.203 8.80693C550.885 8.83482 549.602 8.92357 548.353 9.07063C547.506 9.12642 546.828 8.96667 546.316 8.59394C545.804 8.21613 545.467 7.709 545.303 7.07255C545.144 6.43864 545.152 5.78952 545.323 5.12518C545.5 4.45578 545.838 3.88526 546.337 3.41109C546.833 2.93186 547.506 2.64787 548.353 2.55912C553.219 2.07228 558.089 2.14835 562.962 2.78226Z" fill="#323232"/>
<path d="M572.419 5.85555C572.506 5.05175 572.797 4.39502 573.289 3.8879C573.785 3.38077 574.369 3.05114 575.039 2.89393C575.715 2.73165 576.373 2.73165 577.015 2.89393C577.655 3.05114 578.164 3.3757 578.541 3.86761C578.922 4.35445 579.068 5.01879 578.981 5.85555C578.134 13.6932 577.478 21.5435 577.015 29.4065C576.954 30.2458 576.69 30.9127 576.227 31.4046C575.761 31.8915 575.198 32.2236 574.538 32.3986C573.883 32.5685 573.233 32.5685 572.593 32.3986C571.95 32.2236 571.418 31.8915 570.996 31.4046C570.571 30.9127 570.392 30.2458 570.453 29.4065C570.916 21.5435 571.572 13.6932 572.419 5.85555Z" fill="#323232"/>
<path d="M600.381 9.58793C600.673 8.81203 601.129 8.24912 601.743 7.90427C602.357 7.55435 603.005 7.38447 603.688 7.39714C604.376 7.41236 605.003 7.57717 605.571 7.89413C606.137 8.21362 606.544 8.67003 606.79 9.26337C607.041 9.85925 607.02 10.5464 606.728 11.3223C604.018 18.4627 600.985 25.4002 597.627 32.1348C597.251 32.8828 596.691 33.3621 595.949 33.5649C595.204 33.7678 594.456 33.7373 593.707 33.4736C592.962 33.215 592.389 32.7687 591.987 32.1348C590.525 29.9111 589.32 27.5276 588.373 24.9843C587.423 22.436 586.584 19.8471 585.855 17.2151C585.123 14.5857 584.365 12.0298 583.582 9.54736C583.316 8.73596 583.321 8.03612 583.602 7.44786C583.881 6.85452 584.311 6.3905 584.892 6.05833C585.478 5.72109 586.105 5.54613 586.776 5.53092C587.444 5.51824 588.068 5.6932 588.649 6.05833C589.235 6.41839 589.645 7.00158 589.878 7.81299C590.669 10.2675 591.419 12.8107 592.13 15.4402C592.847 18.0722 593.701 20.618 594.7 23.0775C595.716 20.8462 596.698 18.6123 597.648 16.3733C598.595 14.1369 599.506 11.8751 600.381 9.58793Z" fill="#323232"/>
<path d="M631.805 13.5739C631.892 16.4696 631.963 19.3627 632.02 22.2559C632.081 25.144 632.155 28.0321 632.245 30.9176C632.271 31.7569 632.066 32.4314 631.631 32.936C631.193 33.4431 630.653 33.7728 630.013 33.93C629.371 34.0923 628.723 34.0846 628.068 33.9097C627.413 33.7398 626.855 33.4076 626.4 32.9157C625.949 32.4238 625.709 31.7569 625.683 30.9176C625.655 30.053 625.632 29.1883 625.611 28.3211C625.596 27.4565 625.575 26.5868 625.55 25.7145L618.988 25.5015C618.755 26.5716 618.537 27.6568 618.333 28.7573C618.128 29.8527 617.923 30.9481 617.718 32.0435C617.575 32.8523 617.247 33.4457 616.736 33.8184C616.224 34.1962 615.63 34.3864 614.954 34.3864C614.284 34.3864 613.649 34.214 613.05 33.8691C612.456 33.5243 611.991 33.0476 611.658 32.439C611.323 31.8305 611.228 31.1205 611.371 30.3091C611.896 27.4768 612.487 24.6749 613.142 21.9009C613.798 19.1295 614.724 16.429 615.927 13.797C616.505 12.4937 617.247 11.089 618.148 9.58787C619.054 8.08677 620.086 6.70739 621.24 5.44971C622.392 4.19204 623.669 3.25892 625.069 2.65037C626.379 2.10267 627.444 2.00125 628.263 2.34609C629.082 2.69094 629.721 3.31978 630.187 4.23261C630.658 5.14544 631.001 6.17998 631.221 7.33623C631.439 8.49248 631.582 9.63605 631.651 10.7644C631.725 11.8877 631.777 12.8233 631.805 13.5739ZM621.045 18.351C621.017 18.4677 620.979 18.5818 620.933 18.6959C620.892 18.8125 620.841 18.9266 620.779 19.0407C621.57 19.0686 622.346 19.099 623.103 19.132C623.861 19.1599 624.618 19.1878 625.376 19.2131C625.348 18.2876 625.325 17.3545 625.304 16.4138C625.289 15.4756 625.268 14.5273 625.243 13.5739C625.215 13.2037 625.202 12.8081 625.202 12.3872C625.202 11.9688 625.202 11.5428 625.202 11.1093C624.703 11.6848 624.28 12.2452 623.932 12.7929C623.344 13.6652 622.809 14.5653 622.325 15.4908C621.847 16.4113 621.419 17.3647 621.045 18.351Z" fill="#323232"/>
<path d="M650.765 13.7972C652.395 14.8926 653.685 16.3303 654.634 18.1078C655.581 19.8878 655.955 21.7591 655.75 23.7268C655.545 25.4586 654.944 26.9521 653.948 28.2098C652.958 29.4674 651.74 30.4386 650.294 31.1207C648.853 31.7977 647.325 32.173 645.707 32.2465C644.09 32.315 642.534 32.0487 641.039 31.4452C639.55 30.8367 638.298 29.8681 637.282 28.5343C636.755 27.8446 636.537 27.1955 636.627 26.587C636.714 25.9784 636.985 25.4459 637.436 24.9844C637.886 24.5179 638.444 24.1933 639.115 24.0108C639.79 23.8231 640.469 23.8155 641.152 23.9905C641.84 24.1604 642.432 24.5762 642.923 25.238C643.161 25.5575 643.601 25.7401 644.243 25.7857C644.883 25.8263 645.526 25.7958 646.168 25.6944C646.808 25.593 647.258 25.4865 647.519 25.3699C648.134 25.0808 648.594 24.6548 648.901 24.0919C649.209 23.5315 649.316 22.9154 649.229 22.2459C649.139 21.4422 648.845 20.7727 648.349 20.2377C647.857 19.6976 647.266 19.2412 646.578 18.8685C645.894 18.4907 645.201 18.123 644.499 17.7629C643.803 17.3978 643.192 16.9997 642.667 16.5661C641.206 15.2958 640.315 13.9088 639.995 12.4077C639.673 10.9066 639.783 9.4207 640.323 7.94496C640.86 6.47176 641.7 5.12534 642.841 3.90823C643.98 2.69112 645.277 1.73773 646.731 1.04803C647.522 0.703186 648.251 0.611903 648.922 0.774184C649.59 0.931393 650.163 1.25595 650.642 1.74787C651.125 2.23471 651.456 2.79762 651.635 3.43153C651.811 4.06798 651.781 4.67653 651.543 5.25719C651.31 5.83278 650.816 6.30948 650.058 6.68729C649.559 6.91803 648.983 7.23498 648.328 7.64069C647.673 8.04132 647.133 8.52309 646.711 9.09107C646.286 9.65398 646.209 10.2828 646.475 10.9776C646.619 11.4391 646.959 11.8372 647.499 12.1744C648.036 12.5066 648.615 12.8007 649.229 13.0568C649.843 13.3154 650.355 13.5614 650.765 13.7972Z" fill="#323232"/>
</g>
<defs>
<clipPath id="clip0_47_376">
<rect width="656" height="37" fill="white"/>
</clipPath>
</defs>
</svg>
